G04 #@! TF.FileFunction,Paste,Top*
%FSLAX46Y46*%
G04 Gerber Fmt 4.6, Leading zero omitted, Abs format (unit mm)*
G04 Created by KiCad (PCBNEW 4.0.7-e2-6376~58~ubuntu14.04.1) date Thu Jan 18 16:09:12 2018*
%MOMM*%
%LPD*%
G01*
G04 APERTURE LIST*
%ADD10C,0.100000*%
%ADD11R,1.143000X0.635000*%
%ADD12R,2.032000X1.524000*%
%ADD13R,0.910000X1.220000*%
%ADD14R,0.700000X0.600000*%
%ADD15R,0.914400X0.914400*%
%ADD16R,1.651000X3.048000*%
%ADD17R,6.096000X6.096000*%
%ADD18R,0.635000X1.143000*%
%ADD19R,0.508000X0.762000*%
%ADD20R,1.143000X0.508000*%
%ADD21R,1.000000X1.450000*%
%ADD22R,1.500000X0.800000*%
%ADD23R,1.550000X1.000000*%
%ADD24R,1.500000X1.300000*%
%ADD25R,1.500000X1.500000*%
%ADD26R,1.400000X0.800000*%
%ADD27R,1.800000X0.700000*%
G04 APERTURE END LIST*
D10*
D11*
X79200000Y-65938000D03*
X79200000Y-67462000D03*
D12*
X76000000Y-65349000D03*
X76000000Y-68651000D03*
X150000000Y-69651000D03*
X150000000Y-66349000D03*
X132600000Y-82951000D03*
X132600000Y-79649000D03*
D13*
X145635000Y-71000000D03*
X142365000Y-71000000D03*
D14*
X149000000Y-74700000D03*
X149000000Y-73300000D03*
D15*
X93889000Y-73116000D03*
X92111000Y-73116000D03*
X93000000Y-71084000D03*
X99089000Y-68316000D03*
X97311000Y-68316000D03*
X98200000Y-66284000D03*
X99089000Y-73116000D03*
X97311000Y-73116000D03*
X98200000Y-71084000D03*
D16*
X106786000Y-67800000D03*
D17*
X104500000Y-74150000D03*
D16*
X102214000Y-67800000D03*
D15*
X115889000Y-73116000D03*
X114111000Y-73116000D03*
X115000000Y-71084000D03*
X111589000Y-73116000D03*
X109811000Y-73116000D03*
X110700000Y-71084000D03*
X121189000Y-68516000D03*
X119411000Y-68516000D03*
X120300000Y-66484000D03*
X121089000Y-72916000D03*
X119311000Y-72916000D03*
X120200000Y-70884000D03*
D16*
X129686000Y-67700000D03*
D17*
X127400000Y-74050000D03*
D16*
X125114000Y-67700000D03*
D18*
X97138000Y-75800000D03*
X98662000Y-75800000D03*
X115662000Y-78900000D03*
X114138000Y-78900000D03*
D11*
X104700000Y-86138000D03*
X104700000Y-87662000D03*
X101900000Y-87662000D03*
X101900000Y-86138000D03*
D18*
X92138000Y-75800000D03*
X93662000Y-75800000D03*
X114138000Y-76300000D03*
X115662000Y-76300000D03*
X105362000Y-79800000D03*
X103838000Y-79800000D03*
D11*
X93000000Y-66338000D03*
X93000000Y-67862000D03*
D18*
X110638000Y-82600000D03*
X112162000Y-82600000D03*
X139238000Y-83500000D03*
X140762000Y-83500000D03*
X139238000Y-87500000D03*
X140762000Y-87500000D03*
X139238000Y-89500000D03*
X140762000Y-89500000D03*
X139238000Y-85500000D03*
X140762000Y-85500000D03*
X139238000Y-91500000D03*
X140762000Y-91500000D03*
D11*
X78500000Y-97238000D03*
X78500000Y-98762000D03*
X111000000Y-66238000D03*
X111000000Y-67762000D03*
D18*
X115762000Y-68000000D03*
X114238000Y-68000000D03*
D11*
X82000000Y-93538000D03*
X82000000Y-95062000D03*
X69000000Y-82762000D03*
X69000000Y-81238000D03*
X117000000Y-93762000D03*
X117000000Y-92238000D03*
D16*
X134814000Y-75600000D03*
D17*
X137100000Y-69250000D03*
D16*
X139386000Y-75600000D03*
D19*
X140952500Y-78730000D03*
X139047500Y-78730000D03*
X140952500Y-81270000D03*
X140000000Y-78730000D03*
X139047500Y-81270000D03*
D11*
X120000000Y-92238000D03*
X120000000Y-93762000D03*
D18*
X143238000Y-67000000D03*
X144762000Y-67000000D03*
D11*
X152000000Y-73238000D03*
X152000000Y-74762000D03*
X126000000Y-82238000D03*
X126000000Y-83762000D03*
X126000000Y-86238000D03*
X126000000Y-87762000D03*
D20*
X107188000Y-86360000D03*
X107188000Y-87630000D03*
X107188000Y-88900000D03*
X107188000Y-90170000D03*
X107188000Y-91440000D03*
X107188000Y-92710000D03*
X107188000Y-93980000D03*
X113538000Y-93980000D03*
X113538000Y-92710000D03*
X113538000Y-90170000D03*
X113538000Y-88900000D03*
X113538000Y-87630000D03*
X113538000Y-86360000D03*
X113538000Y-91440000D03*
D21*
X149650000Y-90200000D03*
D22*
X151150000Y-90500000D03*
D23*
X148075000Y-78900000D03*
D24*
X158750000Y-90200000D03*
D25*
X158750000Y-78850000D03*
D26*
X150500000Y-78500000D03*
D27*
X158900000Y-87900000D03*
X158900000Y-89000000D03*
X158900000Y-86800000D03*
X158900000Y-85700000D03*
X158900000Y-84600000D03*
X158900000Y-81300000D03*
X158900000Y-82400000D03*
X158900000Y-83500000D03*
D18*
X139238000Y-94500000D03*
X140762000Y-94500000D03*
D12*
X87900000Y-75751000D03*
X87900000Y-72449000D03*
D18*
X90062000Y-84100000D03*
X88538000Y-84100000D03*
D19*
X87947500Y-81770000D03*
X89852500Y-81770000D03*
X87947500Y-79230000D03*
X88900000Y-81770000D03*
X89852500Y-79230000D03*
M02*
