G04 #@! TF.FileFunction,Legend,Top*
%FSLAX46Y46*%
G04 Gerber Fmt 4.6, Leading zero omitted, Abs format (unit mm)*
G04 Created by KiCad (PCBNEW 4.1.0-alpha+201607250104+6992~46~ubuntu14.04.1-product) date Sun Jul 31 18:44:05 2016*
%MOMM*%
%LPD*%
G01*
G04 APERTURE LIST*
%ADD10C,0.100000*%
%ADD11C,0.150000*%
%ADD12C,0.119380*%
%ADD13C,0.127000*%
%ADD14C,0.114300*%
G04 APERTURE END LIST*
D10*
D11*
X61747619Y-64923809D02*
X61861904Y-64961904D01*
X62052380Y-64961904D01*
X62128571Y-64923809D01*
X62166666Y-64885714D01*
X62204761Y-64809523D01*
X62204761Y-64733333D01*
X62166666Y-64657142D01*
X62128571Y-64619047D01*
X62052380Y-64580952D01*
X61900000Y-64542857D01*
X61823809Y-64504761D01*
X61785714Y-64466666D01*
X61747619Y-64390476D01*
X61747619Y-64314285D01*
X61785714Y-64238095D01*
X61823809Y-64200000D01*
X61900000Y-64161904D01*
X62090476Y-64161904D01*
X62204761Y-64200000D01*
X62661904Y-64961904D02*
X62585714Y-64923809D01*
X62547619Y-64885714D01*
X62509523Y-64809523D01*
X62509523Y-64580952D01*
X62547619Y-64504761D01*
X62585714Y-64466666D01*
X62661904Y-64428571D01*
X62776190Y-64428571D01*
X62852380Y-64466666D01*
X62890476Y-64504761D01*
X62928571Y-64580952D01*
X62928571Y-64809523D01*
X62890476Y-64885714D01*
X62852380Y-64923809D01*
X62776190Y-64961904D01*
X62661904Y-64961904D01*
X63385714Y-64961904D02*
X63309523Y-64923809D01*
X63271428Y-64847619D01*
X63271428Y-64161904D01*
X64033333Y-64961904D02*
X64033333Y-64542857D01*
X63995238Y-64466666D01*
X63919047Y-64428571D01*
X63766666Y-64428571D01*
X63690476Y-64466666D01*
X64033333Y-64923809D02*
X63957142Y-64961904D01*
X63766666Y-64961904D01*
X63690476Y-64923809D01*
X63652380Y-64847619D01*
X63652380Y-64771428D01*
X63690476Y-64695238D01*
X63766666Y-64657142D01*
X63957142Y-64657142D01*
X64033333Y-64619047D01*
X64414285Y-64961904D02*
X64414285Y-64428571D01*
X64414285Y-64580952D02*
X64452380Y-64504761D01*
X64490476Y-64466666D01*
X64566666Y-64428571D01*
X64642857Y-64428571D01*
X65519047Y-64428571D02*
X65519047Y-65228571D01*
X65519047Y-64466666D02*
X65595238Y-64428571D01*
X65747619Y-64428571D01*
X65823809Y-64466666D01*
X65861904Y-64504761D01*
X65900000Y-64580952D01*
X65900000Y-64809523D01*
X65861904Y-64885714D01*
X65823809Y-64923809D01*
X65747619Y-64961904D01*
X65595238Y-64961904D01*
X65519047Y-64923809D01*
X66585714Y-64961904D02*
X66585714Y-64542857D01*
X66547619Y-64466666D01*
X66471428Y-64428571D01*
X66319047Y-64428571D01*
X66242857Y-64466666D01*
X66585714Y-64923809D02*
X66509523Y-64961904D01*
X66319047Y-64961904D01*
X66242857Y-64923809D01*
X66204761Y-64847619D01*
X66204761Y-64771428D01*
X66242857Y-64695238D01*
X66319047Y-64657142D01*
X66509523Y-64657142D01*
X66585714Y-64619047D01*
X66966666Y-64428571D02*
X66966666Y-64961904D01*
X66966666Y-64504761D02*
X67004761Y-64466666D01*
X67080952Y-64428571D01*
X67195238Y-64428571D01*
X67271428Y-64466666D01*
X67309523Y-64542857D01*
X67309523Y-64961904D01*
X67995238Y-64923809D02*
X67919047Y-64961904D01*
X67766666Y-64961904D01*
X67690476Y-64923809D01*
X67652380Y-64847619D01*
X67652380Y-64542857D01*
X67690476Y-64466666D01*
X67766666Y-64428571D01*
X67919047Y-64428571D01*
X67995238Y-64466666D01*
X68033333Y-64542857D01*
X68033333Y-64619047D01*
X67652380Y-64695238D01*
X68490476Y-64961904D02*
X68414285Y-64923809D01*
X68376190Y-64847619D01*
X68376190Y-64161904D01*
X72476190Y-62433333D02*
X72857142Y-62433333D01*
X72400000Y-62661904D02*
X72666666Y-61861904D01*
X72933333Y-62661904D01*
X73200000Y-62661904D02*
X73200000Y-62128571D01*
X73200000Y-61861904D02*
X73161904Y-61900000D01*
X73200000Y-61938095D01*
X73238095Y-61900000D01*
X73200000Y-61861904D01*
X73200000Y-61938095D01*
X73580952Y-62661904D02*
X73580952Y-62128571D01*
X73580952Y-62280952D02*
X73619047Y-62204761D01*
X73657142Y-62166666D01*
X73733333Y-62128571D01*
X73809523Y-62128571D01*
X74685714Y-62661904D02*
X74685714Y-61861904D01*
X74990476Y-61861904D01*
X75066666Y-61900000D01*
X75104761Y-61938095D01*
X75142857Y-62014285D01*
X75142857Y-62128571D01*
X75104761Y-62204761D01*
X75066666Y-62242857D01*
X74990476Y-62280952D01*
X74685714Y-62280952D01*
X75485714Y-62661904D02*
X75485714Y-62128571D01*
X75485714Y-62280952D02*
X75523809Y-62204761D01*
X75561904Y-62166666D01*
X75638095Y-62128571D01*
X75714285Y-62128571D01*
X76285714Y-62623809D02*
X76209523Y-62661904D01*
X76057142Y-62661904D01*
X75980952Y-62623809D01*
X75942857Y-62547619D01*
X75942857Y-62242857D01*
X75980952Y-62166666D01*
X76057142Y-62128571D01*
X76209523Y-62128571D01*
X76285714Y-62166666D01*
X76323809Y-62242857D01*
X76323809Y-62319047D01*
X75942857Y-62395238D01*
X76628571Y-62623809D02*
X76704761Y-62661904D01*
X76857142Y-62661904D01*
X76933333Y-62623809D01*
X76971428Y-62547619D01*
X76971428Y-62509523D01*
X76933333Y-62433333D01*
X76857142Y-62395238D01*
X76742857Y-62395238D01*
X76666666Y-62357142D01*
X76628571Y-62280952D01*
X76628571Y-62242857D01*
X76666666Y-62166666D01*
X76742857Y-62128571D01*
X76857142Y-62128571D01*
X76933333Y-62166666D01*
X77276190Y-62623809D02*
X77352380Y-62661904D01*
X77504761Y-62661904D01*
X77580952Y-62623809D01*
X77619047Y-62547619D01*
X77619047Y-62509523D01*
X77580952Y-62433333D01*
X77504761Y-62395238D01*
X77390476Y-62395238D01*
X77314285Y-62357142D01*
X77276190Y-62280952D01*
X77276190Y-62242857D01*
X77314285Y-62166666D01*
X77390476Y-62128571D01*
X77504761Y-62128571D01*
X77580952Y-62166666D01*
X78304761Y-62128571D02*
X78304761Y-62661904D01*
X77961904Y-62128571D02*
X77961904Y-62547619D01*
X78000000Y-62623809D01*
X78076190Y-62661904D01*
X78190476Y-62661904D01*
X78266666Y-62623809D01*
X78304761Y-62585714D01*
X78685714Y-62661904D02*
X78685714Y-62128571D01*
X78685714Y-62280952D02*
X78723809Y-62204761D01*
X78761904Y-62166666D01*
X78838095Y-62128571D01*
X78914285Y-62128571D01*
X79485714Y-62623809D02*
X79409523Y-62661904D01*
X79257142Y-62661904D01*
X79180952Y-62623809D01*
X79142857Y-62547619D01*
X79142857Y-62242857D01*
X79180952Y-62166666D01*
X79257142Y-62128571D01*
X79409523Y-62128571D01*
X79485714Y-62166666D01*
X79523809Y-62242857D01*
X79523809Y-62319047D01*
X79142857Y-62395238D01*
X155142857Y-73942857D02*
X155257142Y-73980952D01*
X155295238Y-74019047D01*
X155333333Y-74095238D01*
X155333333Y-74209523D01*
X155295238Y-74285714D01*
X155257142Y-74323809D01*
X155180952Y-74361904D01*
X154876190Y-74361904D01*
X154876190Y-73561904D01*
X155142857Y-73561904D01*
X155219047Y-73600000D01*
X155257142Y-73638095D01*
X155295238Y-73714285D01*
X155295238Y-73790476D01*
X155257142Y-73866666D01*
X155219047Y-73904761D01*
X155142857Y-73942857D01*
X154876190Y-73942857D01*
X156019047Y-74361904D02*
X156019047Y-73942857D01*
X155980952Y-73866666D01*
X155904761Y-73828571D01*
X155752380Y-73828571D01*
X155676190Y-73866666D01*
X156019047Y-74323809D02*
X155942857Y-74361904D01*
X155752380Y-74361904D01*
X155676190Y-74323809D01*
X155638095Y-74247619D01*
X155638095Y-74171428D01*
X155676190Y-74095238D01*
X155752380Y-74057142D01*
X155942857Y-74057142D01*
X156019047Y-74019047D01*
X156285714Y-73828571D02*
X156590476Y-73828571D01*
X156400000Y-73561904D02*
X156400000Y-74247619D01*
X156438095Y-74323809D01*
X156514285Y-74361904D01*
X156590476Y-74361904D01*
X156742857Y-73828571D02*
X157047619Y-73828571D01*
X156857142Y-73561904D02*
X156857142Y-74247619D01*
X156895238Y-74323809D01*
X156971428Y-74361904D01*
X157047619Y-74361904D01*
X157619047Y-74323809D02*
X157542857Y-74361904D01*
X157390476Y-74361904D01*
X157314285Y-74323809D01*
X157276190Y-74247619D01*
X157276190Y-73942857D01*
X157314285Y-73866666D01*
X157390476Y-73828571D01*
X157542857Y-73828571D01*
X157619047Y-73866666D01*
X157657142Y-73942857D01*
X157657142Y-74019047D01*
X157276190Y-74095238D01*
X158000000Y-74361904D02*
X158000000Y-73828571D01*
X158000000Y-73980952D02*
X158038095Y-73904761D01*
X158076190Y-73866666D01*
X158152380Y-73828571D01*
X158228571Y-73828571D01*
X158419047Y-73828571D02*
X158609523Y-74361904D01*
X158800000Y-73828571D02*
X158609523Y-74361904D01*
X158533333Y-74552380D01*
X158495238Y-74590476D01*
X158419047Y-74628571D01*
X70761904Y-103100000D02*
X70380952Y-103366666D01*
X70761904Y-103557142D02*
X69961904Y-103557142D01*
X69961904Y-103252380D01*
X70000000Y-103176190D01*
X70038095Y-103138095D01*
X70114285Y-103100000D01*
X70228571Y-103100000D01*
X70304761Y-103138095D01*
X70342857Y-103176190D01*
X70380952Y-103252380D01*
X70380952Y-103557142D01*
X70761904Y-102414285D02*
X70342857Y-102414285D01*
X70266666Y-102452380D01*
X70228571Y-102528571D01*
X70228571Y-102680952D01*
X70266666Y-102757142D01*
X70723809Y-102414285D02*
X70761904Y-102490476D01*
X70761904Y-102680952D01*
X70723809Y-102757142D01*
X70647619Y-102795238D01*
X70571428Y-102795238D01*
X70495238Y-102757142D01*
X70457142Y-102680952D01*
X70457142Y-102490476D01*
X70419047Y-102414285D01*
X70761904Y-102033333D02*
X70228571Y-102033333D01*
X69961904Y-102033333D02*
X70000000Y-102071428D01*
X70038095Y-102033333D01*
X70000000Y-101995238D01*
X69961904Y-102033333D01*
X70038095Y-102033333D01*
X70228571Y-101652380D02*
X70761904Y-101652380D01*
X70304761Y-101652380D02*
X70266666Y-101614285D01*
X70228571Y-101538095D01*
X70228571Y-101423809D01*
X70266666Y-101347619D01*
X70342857Y-101309523D01*
X70761904Y-101309523D01*
X70000000Y-99900000D02*
X69961904Y-99976190D01*
X69961904Y-100090476D01*
X70000000Y-100204761D01*
X70076190Y-100280952D01*
X70152380Y-100319047D01*
X70304761Y-100357142D01*
X70419047Y-100357142D01*
X70571428Y-100319047D01*
X70647619Y-100280952D01*
X70723809Y-100204761D01*
X70761904Y-100090476D01*
X70761904Y-100014285D01*
X70723809Y-99900000D01*
X70685714Y-99861904D01*
X70419047Y-99861904D01*
X70419047Y-100014285D01*
X70761904Y-99176190D02*
X70342857Y-99176190D01*
X70266666Y-99214285D01*
X70228571Y-99290476D01*
X70228571Y-99442857D01*
X70266666Y-99519047D01*
X70723809Y-99176190D02*
X70761904Y-99252380D01*
X70761904Y-99442857D01*
X70723809Y-99519047D01*
X70647619Y-99557142D01*
X70571428Y-99557142D01*
X70495238Y-99519047D01*
X70457142Y-99442857D01*
X70457142Y-99252380D01*
X70419047Y-99176190D01*
X70228571Y-98452380D02*
X70761904Y-98452380D01*
X70228571Y-98795238D02*
X70647619Y-98795238D01*
X70723809Y-98757142D01*
X70761904Y-98680952D01*
X70761904Y-98566666D01*
X70723809Y-98490476D01*
X70685714Y-98452380D01*
X70228571Y-97728571D02*
X70876190Y-97728571D01*
X70952380Y-97766666D01*
X70990476Y-97804761D01*
X71028571Y-97880952D01*
X71028571Y-97995238D01*
X70990476Y-98071428D01*
X70723809Y-97728571D02*
X70761904Y-97804761D01*
X70761904Y-97957142D01*
X70723809Y-98033333D01*
X70685714Y-98071428D01*
X70609523Y-98109523D01*
X70380952Y-98109523D01*
X70304761Y-98071428D01*
X70266666Y-98033333D01*
X70228571Y-97957142D01*
X70228571Y-97804761D01*
X70266666Y-97728571D01*
X70723809Y-97042857D02*
X70761904Y-97119047D01*
X70761904Y-97271428D01*
X70723809Y-97347619D01*
X70647619Y-97385714D01*
X70342857Y-97385714D01*
X70266666Y-97347619D01*
X70228571Y-97271428D01*
X70228571Y-97119047D01*
X70266666Y-97042857D01*
X70342857Y-97004761D01*
X70419047Y-97004761D01*
X70495238Y-97385714D01*
X66861904Y-95476190D02*
X66861904Y-95019047D01*
X67661904Y-95247619D02*
X66861904Y-95247619D01*
X67623809Y-94447619D02*
X67661904Y-94523809D01*
X67661904Y-94676190D01*
X67623809Y-94752380D01*
X67547619Y-94790476D01*
X67242857Y-94790476D01*
X67166666Y-94752380D01*
X67128571Y-94676190D01*
X67128571Y-94523809D01*
X67166666Y-94447619D01*
X67242857Y-94409523D01*
X67319047Y-94409523D01*
X67395238Y-94790476D01*
X67661904Y-94066666D02*
X67128571Y-94066666D01*
X67204761Y-94066666D02*
X67166666Y-94028571D01*
X67128571Y-93952380D01*
X67128571Y-93838095D01*
X67166666Y-93761904D01*
X67242857Y-93723809D01*
X67661904Y-93723809D01*
X67242857Y-93723809D02*
X67166666Y-93685714D01*
X67128571Y-93609523D01*
X67128571Y-93495238D01*
X67166666Y-93419047D01*
X67242857Y-93380952D01*
X67661904Y-93380952D01*
X67128571Y-93000000D02*
X67928571Y-93000000D01*
X67166666Y-93000000D02*
X67128571Y-92923809D01*
X67128571Y-92771428D01*
X67166666Y-92695238D01*
X67204761Y-92657142D01*
X67280952Y-92619047D01*
X67509523Y-92619047D01*
X67585714Y-92657142D01*
X67623809Y-92695238D01*
X67661904Y-92771428D01*
X67661904Y-92923809D01*
X67623809Y-93000000D01*
X66823809Y-91704761D02*
X67852380Y-92390476D01*
X67661904Y-91438095D02*
X66861904Y-91438095D01*
X67242857Y-91438095D02*
X67242857Y-90980952D01*
X67661904Y-90980952D02*
X66861904Y-90980952D01*
X67128571Y-90257142D02*
X67661904Y-90257142D01*
X67128571Y-90600000D02*
X67547619Y-90600000D01*
X67623809Y-90561904D01*
X67661904Y-90485714D01*
X67661904Y-90371428D01*
X67623809Y-90295238D01*
X67585714Y-90257142D01*
X67661904Y-89876190D02*
X67128571Y-89876190D01*
X67204761Y-89876190D02*
X67166666Y-89838095D01*
X67128571Y-89761904D01*
X67128571Y-89647619D01*
X67166666Y-89571428D01*
X67242857Y-89533333D01*
X67661904Y-89533333D01*
X67242857Y-89533333D02*
X67166666Y-89495238D01*
X67128571Y-89419047D01*
X67128571Y-89304761D01*
X67166666Y-89228571D01*
X67242857Y-89190476D01*
X67661904Y-89190476D01*
X67661904Y-88809523D02*
X67128571Y-88809523D01*
X66861904Y-88809523D02*
X66900000Y-88847619D01*
X66938095Y-88809523D01*
X66900000Y-88771428D01*
X66861904Y-88809523D01*
X66938095Y-88809523D01*
X67661904Y-88085714D02*
X66861904Y-88085714D01*
X67623809Y-88085714D02*
X67661904Y-88161904D01*
X67661904Y-88314285D01*
X67623809Y-88390476D01*
X67585714Y-88428571D01*
X67509523Y-88466666D01*
X67280952Y-88466666D01*
X67204761Y-88428571D01*
X67166666Y-88390476D01*
X67128571Y-88314285D01*
X67128571Y-88161904D01*
X67166666Y-88085714D01*
X67661904Y-87704761D02*
X67128571Y-87704761D01*
X66861904Y-87704761D02*
X66900000Y-87742857D01*
X66938095Y-87704761D01*
X66900000Y-87666666D01*
X66861904Y-87704761D01*
X66938095Y-87704761D01*
X67128571Y-87438095D02*
X67128571Y-87133333D01*
X66861904Y-87323809D02*
X67547619Y-87323809D01*
X67623809Y-87285714D01*
X67661904Y-87209523D01*
X67661904Y-87133333D01*
X67128571Y-86942857D02*
X67661904Y-86752380D01*
X67128571Y-86561904D02*
X67661904Y-86752380D01*
X67852380Y-86828571D01*
X67890476Y-86866666D01*
X67928571Y-86942857D01*
X60947619Y-84361904D02*
X61138095Y-85161904D01*
X61290476Y-84590476D01*
X61442857Y-85161904D01*
X61633333Y-84361904D01*
X61938095Y-85161904D02*
X61938095Y-84628571D01*
X61938095Y-84361904D02*
X61900000Y-84400000D01*
X61938095Y-84438095D01*
X61976190Y-84400000D01*
X61938095Y-84361904D01*
X61938095Y-84438095D01*
X62319047Y-84628571D02*
X62319047Y-85161904D01*
X62319047Y-84704761D02*
X62357142Y-84666666D01*
X62433333Y-84628571D01*
X62547619Y-84628571D01*
X62623809Y-84666666D01*
X62661904Y-84742857D01*
X62661904Y-85161904D01*
X63385714Y-85161904D02*
X63385714Y-84361904D01*
X63385714Y-85123809D02*
X63309523Y-85161904D01*
X63157142Y-85161904D01*
X63080952Y-85123809D01*
X63042857Y-85085714D01*
X63004761Y-85009523D01*
X63004761Y-84780952D01*
X63042857Y-84704761D01*
X63080952Y-84666666D01*
X63157142Y-84628571D01*
X63309523Y-84628571D01*
X63385714Y-84666666D01*
X64338095Y-85123809D02*
X64452380Y-85161904D01*
X64642857Y-85161904D01*
X64719047Y-85123809D01*
X64757142Y-85085714D01*
X64795238Y-85009523D01*
X64795238Y-84933333D01*
X64757142Y-84857142D01*
X64719047Y-84819047D01*
X64642857Y-84780952D01*
X64490476Y-84742857D01*
X64414285Y-84704761D01*
X64376190Y-84666666D01*
X64338095Y-84590476D01*
X64338095Y-84514285D01*
X64376190Y-84438095D01*
X64414285Y-84400000D01*
X64490476Y-84361904D01*
X64680952Y-84361904D01*
X64795238Y-84400000D01*
X65138095Y-84628571D02*
X65138095Y-85428571D01*
X65138095Y-84666666D02*
X65214285Y-84628571D01*
X65366666Y-84628571D01*
X65442857Y-84666666D01*
X65480952Y-84704761D01*
X65519047Y-84780952D01*
X65519047Y-85009523D01*
X65480952Y-85085714D01*
X65442857Y-85123809D01*
X65366666Y-85161904D01*
X65214285Y-85161904D01*
X65138095Y-85123809D01*
X66166666Y-85123809D02*
X66090476Y-85161904D01*
X65938095Y-85161904D01*
X65861904Y-85123809D01*
X65823809Y-85047619D01*
X65823809Y-84742857D01*
X65861904Y-84666666D01*
X65938095Y-84628571D01*
X66090476Y-84628571D01*
X66166666Y-84666666D01*
X66204761Y-84742857D01*
X66204761Y-84819047D01*
X65823809Y-84895238D01*
X66852380Y-85123809D02*
X66776190Y-85161904D01*
X66623809Y-85161904D01*
X66547619Y-85123809D01*
X66509523Y-85047619D01*
X66509523Y-84742857D01*
X66547619Y-84666666D01*
X66623809Y-84628571D01*
X66776190Y-84628571D01*
X66852380Y-84666666D01*
X66890476Y-84742857D01*
X66890476Y-84819047D01*
X66509523Y-84895238D01*
X67576190Y-85161904D02*
X67576190Y-84361904D01*
X67576190Y-85123809D02*
X67500000Y-85161904D01*
X67347619Y-85161904D01*
X67271428Y-85123809D01*
X67233333Y-85085714D01*
X67195238Y-85009523D01*
X67195238Y-84780952D01*
X67233333Y-84704761D01*
X67271428Y-84666666D01*
X67347619Y-84628571D01*
X67500000Y-84628571D01*
X67576190Y-84666666D01*
D12*
X80349760Y-71300380D02*
X80349760Y-71998880D01*
X80349760Y-70299620D02*
X80349760Y-69601120D01*
X81650240Y-71300380D02*
X81650240Y-71998880D01*
X81650240Y-69601120D02*
X81650240Y-70299620D01*
X81635000Y-71998880D02*
X80365000Y-71998880D01*
X80365000Y-69601120D02*
X81635000Y-69601120D01*
D13*
X78543000Y-69160000D02*
X78543000Y-68906000D01*
X78543000Y-68906000D02*
X76257000Y-68906000D01*
X76257000Y-68906000D02*
X76257000Y-69160000D01*
X78543000Y-69160000D02*
X76257000Y-69160000D01*
X76257000Y-69160000D02*
X76257000Y-70811000D01*
X78543000Y-72589000D02*
X78543000Y-74240000D01*
X78543000Y-74240000D02*
X76257000Y-74240000D01*
X76257000Y-74240000D02*
X76257000Y-72589000D01*
X78543000Y-70811000D02*
X78543000Y-69160000D01*
X148857000Y-70540000D02*
X148857000Y-70794000D01*
X148857000Y-70794000D02*
X151143000Y-70794000D01*
X151143000Y-70794000D02*
X151143000Y-70540000D01*
X148857000Y-70540000D02*
X151143000Y-70540000D01*
X151143000Y-70540000D02*
X151143000Y-68889000D01*
X148857000Y-67111000D02*
X148857000Y-65460000D01*
X148857000Y-65460000D02*
X151143000Y-65460000D01*
X151143000Y-65460000D02*
X151143000Y-67111000D01*
X148857000Y-68889000D02*
X148857000Y-70540000D01*
X131457000Y-83840000D02*
X131457000Y-84094000D01*
X131457000Y-84094000D02*
X133743000Y-84094000D01*
X133743000Y-84094000D02*
X133743000Y-83840000D01*
X131457000Y-83840000D02*
X133743000Y-83840000D01*
X133743000Y-83840000D02*
X133743000Y-82189000D01*
X131457000Y-80411000D02*
X131457000Y-78760000D01*
X131457000Y-78760000D02*
X133743000Y-78760000D01*
X133743000Y-78760000D02*
X133743000Y-80411000D01*
X131457000Y-82189000D02*
X131457000Y-83840000D01*
D11*
X60099500Y-65799120D02*
X60099500Y-74800880D01*
X56599380Y-65799120D02*
X56599380Y-74800880D01*
X56599380Y-74800880D02*
X71100240Y-74800880D01*
X71100240Y-74800880D02*
X71100240Y-65799120D01*
X71100240Y-65799120D02*
X56599380Y-65799120D01*
X143682500Y-71000000D02*
X143301500Y-71000000D01*
X144698500Y-71000000D02*
X144317500Y-71000000D01*
X144317500Y-71000000D02*
X143682500Y-71381000D01*
X143682500Y-71381000D02*
X143682500Y-70619000D01*
X143682500Y-70619000D02*
X144317500Y-71000000D01*
X144317500Y-71508000D02*
X144317500Y-70492000D01*
X146000000Y-70100000D02*
X142460000Y-70100000D01*
X146000000Y-71900000D02*
X142460000Y-71900000D01*
X149600000Y-74400000D02*
X149600000Y-72850000D01*
X148400000Y-74400000D02*
X148400000Y-72850000D01*
X78775000Y-87190000D02*
X72425000Y-87190000D01*
X78775000Y-94810000D02*
X72425000Y-94810000D01*
X76870000Y-94810000D02*
X76870000Y-87190000D01*
X78775000Y-87190000D02*
X78775000Y-94810000D01*
X72425000Y-94810000D02*
X72425000Y-87190000D01*
X87630000Y-100330000D02*
X148590000Y-100330000D01*
X148590000Y-100330000D02*
X148590000Y-97790000D01*
X148590000Y-97790000D02*
X87630000Y-97790000D01*
X84810000Y-97510000D02*
X86360000Y-97510000D01*
X87630000Y-97790000D02*
X87630000Y-100330000D01*
X86360000Y-100610000D02*
X84810000Y-100610000D01*
X84810000Y-100610000D02*
X84810000Y-97510000D01*
X146050000Y-59690000D02*
X85090000Y-59690000D01*
X85090000Y-59690000D02*
X85090000Y-62230000D01*
X85090000Y-62230000D02*
X146050000Y-62230000D01*
X148870000Y-62510000D02*
X147320000Y-62510000D01*
X146050000Y-62230000D02*
X146050000Y-59690000D01*
X147320000Y-59410000D02*
X148870000Y-59410000D01*
X148870000Y-59410000D02*
X148870000Y-62510000D01*
X76540000Y-100730000D02*
X71460000Y-100730000D01*
X76540000Y-105175000D02*
X71460000Y-105175000D01*
X71460000Y-98825000D02*
X76540000Y-98825000D01*
X71460000Y-98825000D02*
X71460000Y-105175000D01*
X76540000Y-98825000D02*
X76540000Y-105175000D01*
X66175000Y-86190000D02*
X59825000Y-86190000D01*
X66175000Y-93810000D02*
X59825000Y-93810000D01*
X64270000Y-93810000D02*
X64270000Y-86190000D01*
X66175000Y-86190000D02*
X66175000Y-93810000D01*
X59825000Y-93810000D02*
X59825000Y-86190000D01*
X64470000Y-83540000D02*
X64470000Y-78460000D01*
X60025000Y-83540000D02*
X60025000Y-78460000D01*
X66375000Y-78460000D02*
X66375000Y-83540000D01*
X66375000Y-78460000D02*
X60025000Y-78460000D01*
X66375000Y-83540000D02*
X60025000Y-83540000D01*
X81080000Y-54825000D02*
X70920000Y-54825000D01*
X81080000Y-59270000D02*
X70920000Y-59270000D01*
X81080000Y-61175000D02*
X70920000Y-61175000D01*
X81080000Y-61175000D02*
X81080000Y-54825000D01*
X70920000Y-61175000D02*
X70920000Y-54825000D01*
X155730000Y-67460000D02*
X155730000Y-72540000D01*
X160175000Y-67460000D02*
X160175000Y-72540000D01*
X153825000Y-72540000D02*
X153825000Y-67460000D01*
X153825000Y-72540000D02*
X160175000Y-72540000D01*
X153825000Y-67460000D02*
X160175000Y-67460000D01*
D13*
X94524000Y-72481000D02*
X91476000Y-72481000D01*
X91476000Y-72481000D02*
X91476000Y-71719000D01*
X91476000Y-71719000D02*
X94524000Y-71719000D01*
X94524000Y-71719000D02*
X94524000Y-72481000D01*
X99724000Y-67681000D02*
X96676000Y-67681000D01*
X96676000Y-67681000D02*
X96676000Y-66919000D01*
X96676000Y-66919000D02*
X99724000Y-66919000D01*
X99724000Y-66919000D02*
X99724000Y-67681000D01*
X99724000Y-72481000D02*
X96676000Y-72481000D01*
X96676000Y-72481000D02*
X96676000Y-71719000D01*
X96676000Y-71719000D02*
X99724000Y-71719000D01*
X99724000Y-71719000D02*
X99724000Y-72481000D01*
D11*
X103103000Y-69324000D02*
X103103000Y-66149000D01*
X103103000Y-66149000D02*
X101325000Y-66149000D01*
X101325000Y-66149000D02*
X101325000Y-69324000D01*
X107675000Y-69324000D02*
X107675000Y-66149000D01*
X107675000Y-66149000D02*
X105897000Y-66149000D01*
X105897000Y-66149000D02*
X105897000Y-69324000D01*
X101071000Y-75420000D02*
X101071000Y-69324000D01*
X101071000Y-69324000D02*
X107929000Y-69324000D01*
X107929000Y-69324000D02*
X107929000Y-77198000D01*
X107929000Y-77325000D02*
X101071000Y-77325000D01*
X101071000Y-77198000D02*
X101071000Y-75420000D01*
D13*
X116524000Y-72481000D02*
X113476000Y-72481000D01*
X113476000Y-72481000D02*
X113476000Y-71719000D01*
X113476000Y-71719000D02*
X116524000Y-71719000D01*
X116524000Y-71719000D02*
X116524000Y-72481000D01*
X112224000Y-72481000D02*
X109176000Y-72481000D01*
X109176000Y-72481000D02*
X109176000Y-71719000D01*
X109176000Y-71719000D02*
X112224000Y-71719000D01*
X112224000Y-71719000D02*
X112224000Y-72481000D01*
X121824000Y-67881000D02*
X118776000Y-67881000D01*
X118776000Y-67881000D02*
X118776000Y-67119000D01*
X118776000Y-67119000D02*
X121824000Y-67119000D01*
X121824000Y-67119000D02*
X121824000Y-67881000D01*
X121724000Y-72281000D02*
X118676000Y-72281000D01*
X118676000Y-72281000D02*
X118676000Y-71519000D01*
X118676000Y-71519000D02*
X121724000Y-71519000D01*
X121724000Y-71519000D02*
X121724000Y-72281000D01*
D11*
X126003000Y-69224000D02*
X126003000Y-66049000D01*
X126003000Y-66049000D02*
X124225000Y-66049000D01*
X124225000Y-66049000D02*
X124225000Y-69224000D01*
X130575000Y-69224000D02*
X130575000Y-66049000D01*
X130575000Y-66049000D02*
X128797000Y-66049000D01*
X128797000Y-66049000D02*
X128797000Y-69224000D01*
X123971000Y-75320000D02*
X123971000Y-69224000D01*
X123971000Y-69224000D02*
X130829000Y-69224000D01*
X130829000Y-69224000D02*
X130829000Y-77098000D01*
X130829000Y-77225000D02*
X123971000Y-77225000D01*
X123971000Y-77098000D02*
X123971000Y-75320000D01*
D13*
X97399620Y-75101500D02*
X96693500Y-75101500D01*
X96693500Y-75101500D02*
X96693500Y-76498500D01*
X96693500Y-76498500D02*
X97399620Y-76498500D01*
X99106500Y-75101500D02*
X98400380Y-75101500D01*
X99106500Y-75101500D02*
X99106500Y-76498500D01*
X99106500Y-76498500D02*
X98400380Y-76498500D01*
X115400380Y-79598500D02*
X116106500Y-79598500D01*
X116106500Y-79598500D02*
X116106500Y-78201500D01*
X116106500Y-78201500D02*
X115400380Y-78201500D01*
X113693500Y-79598500D02*
X114399620Y-79598500D01*
X113693500Y-79598500D02*
X113693500Y-78201500D01*
X113693500Y-78201500D02*
X114399620Y-78201500D01*
X105398500Y-86399620D02*
X105398500Y-85693500D01*
X105398500Y-85693500D02*
X104001500Y-85693500D01*
X104001500Y-85693500D02*
X104001500Y-86399620D01*
X105398500Y-88106500D02*
X105398500Y-87400380D01*
X105398500Y-88106500D02*
X104001500Y-88106500D01*
X104001500Y-88106500D02*
X104001500Y-87400380D01*
X101201500Y-87400380D02*
X101201500Y-88106500D01*
X101201500Y-88106500D02*
X102598500Y-88106500D01*
X102598500Y-88106500D02*
X102598500Y-87400380D01*
X101201500Y-85693500D02*
X101201500Y-86399620D01*
X101201500Y-85693500D02*
X102598500Y-85693500D01*
X102598500Y-85693500D02*
X102598500Y-86399620D01*
X92399620Y-75101500D02*
X91693500Y-75101500D01*
X91693500Y-75101500D02*
X91693500Y-76498500D01*
X91693500Y-76498500D02*
X92399620Y-76498500D01*
X94106500Y-75101500D02*
X93400380Y-75101500D01*
X94106500Y-75101500D02*
X94106500Y-76498500D01*
X94106500Y-76498500D02*
X93400380Y-76498500D01*
X114399620Y-75601500D02*
X113693500Y-75601500D01*
X113693500Y-75601500D02*
X113693500Y-76998500D01*
X113693500Y-76998500D02*
X114399620Y-76998500D01*
X116106500Y-75601500D02*
X115400380Y-75601500D01*
X116106500Y-75601500D02*
X116106500Y-76998500D01*
X116106500Y-76998500D02*
X115400380Y-76998500D01*
X105100380Y-80498500D02*
X105806500Y-80498500D01*
X105806500Y-80498500D02*
X105806500Y-79101500D01*
X105806500Y-79101500D02*
X105100380Y-79101500D01*
X103393500Y-80498500D02*
X104099620Y-80498500D01*
X103393500Y-80498500D02*
X103393500Y-79101500D01*
X103393500Y-79101500D02*
X104099620Y-79101500D01*
X93698500Y-66599620D02*
X93698500Y-65893500D01*
X93698500Y-65893500D02*
X92301500Y-65893500D01*
X92301500Y-65893500D02*
X92301500Y-66599620D01*
X93698500Y-68306500D02*
X93698500Y-67600380D01*
X93698500Y-68306500D02*
X92301500Y-68306500D01*
X92301500Y-68306500D02*
X92301500Y-67600380D01*
X110899620Y-81901500D02*
X110193500Y-81901500D01*
X110193500Y-81901500D02*
X110193500Y-83298500D01*
X110193500Y-83298500D02*
X110899620Y-83298500D01*
X112606500Y-81901500D02*
X111900380Y-81901500D01*
X112606500Y-81901500D02*
X112606500Y-83298500D01*
X112606500Y-83298500D02*
X111900380Y-83298500D01*
X139499620Y-82801500D02*
X138793500Y-82801500D01*
X138793500Y-82801500D02*
X138793500Y-84198500D01*
X138793500Y-84198500D02*
X139499620Y-84198500D01*
X141206500Y-82801500D02*
X140500380Y-82801500D01*
X141206500Y-82801500D02*
X141206500Y-84198500D01*
X141206500Y-84198500D02*
X140500380Y-84198500D01*
X139499620Y-86801500D02*
X138793500Y-86801500D01*
X138793500Y-86801500D02*
X138793500Y-88198500D01*
X138793500Y-88198500D02*
X139499620Y-88198500D01*
X141206500Y-86801500D02*
X140500380Y-86801500D01*
X141206500Y-86801500D02*
X141206500Y-88198500D01*
X141206500Y-88198500D02*
X140500380Y-88198500D01*
X139499620Y-88801500D02*
X138793500Y-88801500D01*
X138793500Y-88801500D02*
X138793500Y-90198500D01*
X138793500Y-90198500D02*
X139499620Y-90198500D01*
X141206500Y-88801500D02*
X140500380Y-88801500D01*
X141206500Y-88801500D02*
X141206500Y-90198500D01*
X141206500Y-90198500D02*
X140500380Y-90198500D01*
X139499620Y-84801500D02*
X138793500Y-84801500D01*
X138793500Y-84801500D02*
X138793500Y-86198500D01*
X138793500Y-86198500D02*
X139499620Y-86198500D01*
X141206500Y-84801500D02*
X140500380Y-84801500D01*
X141206500Y-84801500D02*
X141206500Y-86198500D01*
X141206500Y-86198500D02*
X140500380Y-86198500D01*
X139499620Y-90801500D02*
X138793500Y-90801500D01*
X138793500Y-90801500D02*
X138793500Y-92198500D01*
X138793500Y-92198500D02*
X139499620Y-92198500D01*
X141206500Y-90801500D02*
X140500380Y-90801500D01*
X141206500Y-90801500D02*
X141206500Y-92198500D01*
X141206500Y-92198500D02*
X140500380Y-92198500D01*
X79198500Y-97499620D02*
X79198500Y-96793500D01*
X79198500Y-96793500D02*
X77801500Y-96793500D01*
X77801500Y-96793500D02*
X77801500Y-97499620D01*
X79198500Y-99206500D02*
X79198500Y-98500380D01*
X79198500Y-99206500D02*
X77801500Y-99206500D01*
X77801500Y-99206500D02*
X77801500Y-98500380D01*
X111698500Y-66499620D02*
X111698500Y-65793500D01*
X111698500Y-65793500D02*
X110301500Y-65793500D01*
X110301500Y-65793500D02*
X110301500Y-66499620D01*
X111698500Y-68206500D02*
X111698500Y-67500380D01*
X111698500Y-68206500D02*
X110301500Y-68206500D01*
X110301500Y-68206500D02*
X110301500Y-67500380D01*
X115500380Y-68698500D02*
X116206500Y-68698500D01*
X116206500Y-68698500D02*
X116206500Y-67301500D01*
X116206500Y-67301500D02*
X115500380Y-67301500D01*
X113793500Y-68698500D02*
X114499620Y-68698500D01*
X113793500Y-68698500D02*
X113793500Y-67301500D01*
X113793500Y-67301500D02*
X114499620Y-67301500D01*
X82698500Y-93799620D02*
X82698500Y-93093500D01*
X82698500Y-93093500D02*
X81301500Y-93093500D01*
X81301500Y-93093500D02*
X81301500Y-93799620D01*
X82698500Y-95506500D02*
X82698500Y-94800380D01*
X82698500Y-95506500D02*
X81301500Y-95506500D01*
X81301500Y-95506500D02*
X81301500Y-94800380D01*
X69698500Y-81499620D02*
X69698500Y-80793500D01*
X69698500Y-80793500D02*
X68301500Y-80793500D01*
X68301500Y-80793500D02*
X68301500Y-81499620D01*
X69698500Y-83206500D02*
X69698500Y-82500380D01*
X69698500Y-83206500D02*
X68301500Y-83206500D01*
X68301500Y-83206500D02*
X68301500Y-82500380D01*
X116301500Y-93500380D02*
X116301500Y-94206500D01*
X116301500Y-94206500D02*
X117698500Y-94206500D01*
X117698500Y-94206500D02*
X117698500Y-93500380D01*
X116301500Y-91793500D02*
X116301500Y-92499620D01*
X116301500Y-91793500D02*
X117698500Y-91793500D01*
X117698500Y-91793500D02*
X117698500Y-92499620D01*
D11*
X108415000Y-85720000D02*
X108415000Y-85835000D01*
X112565000Y-85720000D02*
X112565000Y-85835000D01*
X112565000Y-94620000D02*
X112565000Y-94505000D01*
X108415000Y-94620000D02*
X108415000Y-94505000D01*
X108415000Y-85720000D02*
X112565000Y-85720000D01*
X108415000Y-94620000D02*
X112565000Y-94620000D01*
X108415000Y-85835000D02*
X107040000Y-85835000D01*
X138497000Y-74076000D02*
X138497000Y-77251000D01*
X138497000Y-77251000D02*
X140275000Y-77251000D01*
X140275000Y-77251000D02*
X140275000Y-74076000D01*
X133925000Y-74076000D02*
X133925000Y-77251000D01*
X133925000Y-77251000D02*
X135703000Y-77251000D01*
X135703000Y-77251000D02*
X135703000Y-74076000D01*
X140529000Y-67980000D02*
X140529000Y-74076000D01*
X140529000Y-74076000D02*
X133671000Y-74076000D01*
X133671000Y-74076000D02*
X133671000Y-66202000D01*
X133671000Y-66075000D02*
X140529000Y-66075000D01*
X140529000Y-66202000D02*
X140529000Y-67980000D01*
D13*
X138476000Y-80889000D02*
X138476000Y-79111000D01*
X138476000Y-79111000D02*
X141524000Y-79111000D01*
X141524000Y-79111000D02*
X141524000Y-80889000D01*
X141524000Y-80889000D02*
X138476000Y-80889000D01*
D11*
X78334000Y-83667000D02*
X77953000Y-83286000D01*
X78969000Y-82778000D02*
X78588000Y-82524000D01*
X72238000Y-82778000D02*
X72619000Y-82524000D01*
X72873000Y-83667000D02*
X73127000Y-83413000D01*
X76048000Y-77698000D02*
X76048000Y-77317000D01*
X75159000Y-77698000D02*
X75159000Y-77317000D01*
X78842000Y-81000000D02*
G75*
G03X78842000Y-81000000I-3302000J0D01*
G01*
X79350000Y-81000000D02*
G75*
G03X79350000Y-81000000I-3810000J0D01*
G01*
X158000000Y-92400000D02*
X157000000Y-92400000D01*
X157000000Y-77600000D02*
X158000000Y-77600000D01*
X154100000Y-92400000D02*
X147000000Y-92400000D01*
X147000000Y-77600000D02*
X154200000Y-77600000D01*
X146000000Y-82200000D02*
X146000000Y-79200000D01*
D13*
X120698500Y-92499620D02*
X120698500Y-91793500D01*
X120698500Y-91793500D02*
X119301500Y-91793500D01*
X119301500Y-91793500D02*
X119301500Y-92499620D01*
X120698500Y-94206500D02*
X120698500Y-93500380D01*
X120698500Y-94206500D02*
X119301500Y-94206500D01*
X119301500Y-94206500D02*
X119301500Y-93500380D01*
X143499620Y-66301500D02*
X142793500Y-66301500D01*
X142793500Y-66301500D02*
X142793500Y-67698500D01*
X142793500Y-67698500D02*
X143499620Y-67698500D01*
X145206500Y-66301500D02*
X144500380Y-66301500D01*
X145206500Y-66301500D02*
X145206500Y-67698500D01*
X145206500Y-67698500D02*
X144500380Y-67698500D01*
X152698500Y-73499620D02*
X152698500Y-72793500D01*
X152698500Y-72793500D02*
X151301500Y-72793500D01*
X151301500Y-72793500D02*
X151301500Y-73499620D01*
X152698500Y-75206500D02*
X152698500Y-74500380D01*
X152698500Y-75206500D02*
X151301500Y-75206500D01*
X151301500Y-75206500D02*
X151301500Y-74500380D01*
X126698500Y-82499620D02*
X126698500Y-81793500D01*
X126698500Y-81793500D02*
X125301500Y-81793500D01*
X125301500Y-81793500D02*
X125301500Y-82499620D01*
X126698500Y-84206500D02*
X126698500Y-83500380D01*
X126698500Y-84206500D02*
X125301500Y-84206500D01*
X125301500Y-84206500D02*
X125301500Y-83500380D01*
X126698500Y-86499620D02*
X126698500Y-85793500D01*
X126698500Y-85793500D02*
X125301500Y-85793500D01*
X125301500Y-85793500D02*
X125301500Y-86499620D01*
X126698500Y-88206500D02*
X126698500Y-87500380D01*
X126698500Y-88206500D02*
X125301500Y-88206500D01*
X125301500Y-88206500D02*
X125301500Y-87500380D01*
D11*
X121000000Y-76600000D02*
X122800000Y-76600000D01*
X122800000Y-76600000D02*
X122800000Y-78400000D01*
X122800000Y-78400000D02*
X121000000Y-78400000D01*
X121000000Y-78400000D02*
X121000000Y-76600000D01*
X116900000Y-81000000D02*
X118700000Y-81000000D01*
X118700000Y-81000000D02*
X118700000Y-82800000D01*
X118700000Y-82800000D02*
X116900000Y-82800000D01*
X116900000Y-82800000D02*
X116900000Y-81000000D01*
X81300000Y-87200000D02*
X83100000Y-87200000D01*
X83100000Y-87200000D02*
X83100000Y-89000000D01*
X83100000Y-89000000D02*
X81300000Y-89000000D01*
X81300000Y-89000000D02*
X81300000Y-87200000D01*
X123000000Y-94000000D02*
X124800000Y-94000000D01*
X124800000Y-94000000D02*
X124800000Y-95800000D01*
X124800000Y-95800000D02*
X123000000Y-95800000D01*
X123000000Y-95800000D02*
X123000000Y-94000000D01*
X147120000Y-88480000D02*
X148920000Y-88480000D01*
X148920000Y-88480000D02*
X148920000Y-90280000D01*
X148920000Y-90280000D02*
X147120000Y-90280000D01*
X147120000Y-90280000D02*
X147120000Y-88480000D01*
X80833333Y-73157142D02*
X80785714Y-73204761D01*
X80642857Y-73252380D01*
X80547619Y-73252380D01*
X80404761Y-73204761D01*
X80309523Y-73109523D01*
X80261904Y-73014285D01*
X80214285Y-72823809D01*
X80214285Y-72680952D01*
X80261904Y-72490476D01*
X80309523Y-72395238D01*
X80404761Y-72300000D01*
X80547619Y-72252380D01*
X80642857Y-72252380D01*
X80785714Y-72300000D01*
X80833333Y-72347619D01*
X81785714Y-73252380D02*
X81214285Y-73252380D01*
X81500000Y-73252380D02*
X81500000Y-72252380D01*
X81404761Y-72395238D01*
X81309523Y-72490476D01*
X81214285Y-72538095D01*
D14*
X80248885Y-68870809D02*
X80292428Y-68870809D01*
X80335971Y-68895000D01*
X80357742Y-68919190D01*
X80379514Y-68967571D01*
X80401285Y-69064333D01*
X80401285Y-69185285D01*
X80379514Y-69282047D01*
X80357742Y-69330428D01*
X80335971Y-69354619D01*
X80292428Y-69378809D01*
X80248885Y-69378809D01*
X80205342Y-69354619D01*
X80183571Y-69330428D01*
X80161800Y-69282047D01*
X80140028Y-69185285D01*
X80140028Y-69064333D01*
X80161800Y-68967571D01*
X80183571Y-68919190D01*
X80205342Y-68895000D01*
X80248885Y-68870809D01*
X80597228Y-69330428D02*
X80619000Y-69354619D01*
X80597228Y-69378809D01*
X80575457Y-69354619D01*
X80597228Y-69330428D01*
X80597228Y-69378809D01*
X81054428Y-69378809D02*
X80793171Y-69378809D01*
X80923800Y-69378809D02*
X80923800Y-68870809D01*
X80880257Y-68943380D01*
X80836714Y-68991761D01*
X80793171Y-69015952D01*
X81446314Y-69040142D02*
X81446314Y-69378809D01*
X81250371Y-69040142D02*
X81250371Y-69306238D01*
X81272142Y-69354619D01*
X81315685Y-69378809D01*
X81381000Y-69378809D01*
X81424542Y-69354619D01*
X81446314Y-69330428D01*
X81816428Y-69112714D02*
X81664028Y-69112714D01*
X81664028Y-69378809D02*
X81664028Y-68870809D01*
X81881742Y-68870809D01*
D11*
X77083333Y-68357142D02*
X77035714Y-68404761D01*
X76892857Y-68452380D01*
X76797619Y-68452380D01*
X76654761Y-68404761D01*
X76559523Y-68309523D01*
X76511904Y-68214285D01*
X76464285Y-68023809D01*
X76464285Y-67880952D01*
X76511904Y-67690476D01*
X76559523Y-67595238D01*
X76654761Y-67500000D01*
X76797619Y-67452380D01*
X76892857Y-67452380D01*
X77035714Y-67500000D01*
X77083333Y-67547619D01*
X77464285Y-67547619D02*
X77511904Y-67500000D01*
X77607142Y-67452380D01*
X77845238Y-67452380D01*
X77940476Y-67500000D01*
X77988095Y-67547619D01*
X78035714Y-67642857D01*
X78035714Y-67738095D01*
X77988095Y-67880952D01*
X77416666Y-68452380D01*
X78035714Y-68452380D01*
X149983333Y-72057142D02*
X149935714Y-72104761D01*
X149792857Y-72152380D01*
X149697619Y-72152380D01*
X149554761Y-72104761D01*
X149459523Y-72009523D01*
X149411904Y-71914285D01*
X149364285Y-71723809D01*
X149364285Y-71580952D01*
X149411904Y-71390476D01*
X149459523Y-71295238D01*
X149554761Y-71200000D01*
X149697619Y-71152380D01*
X149792857Y-71152380D01*
X149935714Y-71200000D01*
X149983333Y-71247619D01*
X150316666Y-71152380D02*
X150935714Y-71152380D01*
X150602380Y-71533333D01*
X150745238Y-71533333D01*
X150840476Y-71580952D01*
X150888095Y-71628571D01*
X150935714Y-71723809D01*
X150935714Y-71961904D01*
X150888095Y-72057142D01*
X150840476Y-72104761D01*
X150745238Y-72152380D01*
X150459523Y-72152380D01*
X150364285Y-72104761D01*
X150316666Y-72057142D01*
X132583333Y-85357142D02*
X132535714Y-85404761D01*
X132392857Y-85452380D01*
X132297619Y-85452380D01*
X132154761Y-85404761D01*
X132059523Y-85309523D01*
X132011904Y-85214285D01*
X131964285Y-85023809D01*
X131964285Y-84880952D01*
X132011904Y-84690476D01*
X132059523Y-84595238D01*
X132154761Y-84500000D01*
X132297619Y-84452380D01*
X132392857Y-84452380D01*
X132535714Y-84500000D01*
X132583333Y-84547619D01*
X133440476Y-84785714D02*
X133440476Y-85452380D01*
X133202380Y-84404761D02*
X132964285Y-85119047D01*
X133583333Y-85119047D01*
X74556182Y-71514285D02*
X74603801Y-71561904D01*
X74651420Y-71704761D01*
X74651420Y-71800000D01*
X74603801Y-71942857D01*
X74508563Y-72038095D01*
X74413325Y-72085714D01*
X74222849Y-72133333D01*
X74079992Y-72133333D01*
X73889516Y-72085714D01*
X73794278Y-72038095D01*
X73699040Y-71942857D01*
X73651420Y-71800000D01*
X73651420Y-71704761D01*
X73699040Y-71561904D01*
X73746659Y-71514285D01*
X73651420Y-70895238D02*
X73651420Y-70704761D01*
X73699040Y-70609523D01*
X73794278Y-70514285D01*
X73984754Y-70466666D01*
X74318087Y-70466666D01*
X74508563Y-70514285D01*
X74603801Y-70609523D01*
X74651420Y-70704761D01*
X74651420Y-70895238D01*
X74603801Y-70990476D01*
X74508563Y-71085714D01*
X74318087Y-71133333D01*
X73984754Y-71133333D01*
X73794278Y-71085714D01*
X73699040Y-70990476D01*
X73651420Y-70895238D01*
X74651420Y-70038095D02*
X73651420Y-70038095D01*
X74651420Y-69466666D01*
X73651420Y-69466666D01*
X74651420Y-68466666D02*
X74651420Y-69038095D01*
X74651420Y-68752380D02*
X73651420Y-68752380D01*
X73794278Y-68847619D01*
X73889516Y-68942857D01*
X73937135Y-69038095D01*
X143261904Y-73452380D02*
X143261904Y-72452380D01*
X143500000Y-72452380D01*
X143642857Y-72500000D01*
X143738095Y-72595238D01*
X143785714Y-72690476D01*
X143833333Y-72880952D01*
X143833333Y-73023809D01*
X143785714Y-73214285D01*
X143738095Y-73309523D01*
X143642857Y-73404761D01*
X143500000Y-73452380D01*
X143261904Y-73452380D01*
X144785714Y-73452380D02*
X144214285Y-73452380D01*
X144500000Y-73452380D02*
X144500000Y-72452380D01*
X144404761Y-72595238D01*
X144309523Y-72690476D01*
X144214285Y-72738095D01*
X147952380Y-74738095D02*
X146952380Y-74738095D01*
X146952380Y-74500000D01*
X147000000Y-74357142D01*
X147095238Y-74261904D01*
X147190476Y-74214285D01*
X147380952Y-74166666D01*
X147523809Y-74166666D01*
X147714285Y-74214285D01*
X147809523Y-74261904D01*
X147904761Y-74357142D01*
X147952380Y-74500000D01*
X147952380Y-74738095D01*
X147047619Y-73785714D02*
X147000000Y-73738095D01*
X146952380Y-73642857D01*
X146952380Y-73404761D01*
X147000000Y-73309523D01*
X147047619Y-73261904D01*
X147142857Y-73214285D01*
X147238095Y-73214285D01*
X147380952Y-73261904D01*
X147952380Y-73833333D01*
X147952380Y-73214285D01*
X78852380Y-91883333D02*
X79566666Y-91883333D01*
X79709523Y-91930952D01*
X79804761Y-92026190D01*
X79852380Y-92169047D01*
X79852380Y-92264285D01*
X79852380Y-91407142D02*
X78852380Y-91407142D01*
X78852380Y-91026190D01*
X78900000Y-90930952D01*
X78947619Y-90883333D01*
X79042857Y-90835714D01*
X79185714Y-90835714D01*
X79280952Y-90883333D01*
X79328571Y-90930952D01*
X79376190Y-91026190D01*
X79376190Y-91407142D01*
X79852380Y-89883333D02*
X79852380Y-90454761D01*
X79852380Y-90169047D02*
X78852380Y-90169047D01*
X78995238Y-90264285D01*
X79090476Y-90359523D01*
X79138095Y-90454761D01*
X81712380Y-99798095D02*
X80712380Y-99798095D01*
X80712380Y-99417142D01*
X80760000Y-99321904D01*
X80807619Y-99274285D01*
X80902857Y-99226666D01*
X81045714Y-99226666D01*
X81140952Y-99274285D01*
X81188571Y-99321904D01*
X81236190Y-99417142D01*
X81236190Y-99798095D01*
X81712380Y-98274285D02*
X81712380Y-98845714D01*
X81712380Y-98560000D02*
X80712380Y-98560000D01*
X80855238Y-98655238D01*
X80950476Y-98750476D01*
X80998095Y-98845714D01*
X152872380Y-61698095D02*
X151872380Y-61698095D01*
X151872380Y-61317142D01*
X151920000Y-61221904D01*
X151967619Y-61174285D01*
X152062857Y-61126666D01*
X152205714Y-61126666D01*
X152300952Y-61174285D01*
X152348571Y-61221904D01*
X152396190Y-61317142D01*
X152396190Y-61698095D01*
X151967619Y-60745714D02*
X151920000Y-60698095D01*
X151872380Y-60602857D01*
X151872380Y-60364761D01*
X151920000Y-60269523D01*
X151967619Y-60221904D01*
X152062857Y-60174285D01*
X152158095Y-60174285D01*
X152300952Y-60221904D01*
X152872380Y-60793333D01*
X152872380Y-60174285D01*
X73261904Y-98552380D02*
X73261904Y-97552380D01*
X73642857Y-97552380D01*
X73738095Y-97600000D01*
X73785714Y-97647619D01*
X73833333Y-97742857D01*
X73833333Y-97885714D01*
X73785714Y-97980952D01*
X73738095Y-98028571D01*
X73642857Y-98076190D01*
X73261904Y-98076190D01*
X74166666Y-97552380D02*
X74785714Y-97552380D01*
X74452380Y-97933333D01*
X74595238Y-97933333D01*
X74690476Y-97980952D01*
X74738095Y-98028571D01*
X74785714Y-98123809D01*
X74785714Y-98361904D01*
X74738095Y-98457142D01*
X74690476Y-98504761D01*
X74595238Y-98552380D01*
X74309523Y-98552380D01*
X74214285Y-98504761D01*
X74166666Y-98457142D01*
X62161904Y-95452380D02*
X62161904Y-94452380D01*
X62542857Y-94452380D01*
X62638095Y-94500000D01*
X62685714Y-94547619D01*
X62733333Y-94642857D01*
X62733333Y-94785714D01*
X62685714Y-94880952D01*
X62638095Y-94928571D01*
X62542857Y-94976190D01*
X62161904Y-94976190D01*
X63590476Y-94785714D02*
X63590476Y-95452380D01*
X63352380Y-94404761D02*
X63114285Y-95119047D01*
X63733333Y-95119047D01*
X67552380Y-81738095D02*
X66552380Y-81738095D01*
X66552380Y-81357142D01*
X66600000Y-81261904D01*
X66647619Y-81214285D01*
X66742857Y-81166666D01*
X66885714Y-81166666D01*
X66980952Y-81214285D01*
X67028571Y-81261904D01*
X67076190Y-81357142D01*
X67076190Y-81738095D01*
X66552380Y-80261904D02*
X66552380Y-80738095D01*
X67028571Y-80785714D01*
X66980952Y-80738095D01*
X66933333Y-80642857D01*
X66933333Y-80404761D01*
X66980952Y-80309523D01*
X67028571Y-80261904D01*
X67123809Y-80214285D01*
X67361904Y-80214285D01*
X67457142Y-80261904D01*
X67504761Y-80309523D01*
X67552380Y-80404761D01*
X67552380Y-80642857D01*
X67504761Y-80738095D01*
X67457142Y-80785714D01*
X81661904Y-57952380D02*
X81661904Y-56952380D01*
X82042857Y-56952380D01*
X82138095Y-57000000D01*
X82185714Y-57047619D01*
X82233333Y-57142857D01*
X82233333Y-57285714D01*
X82185714Y-57380952D01*
X82138095Y-57428571D01*
X82042857Y-57476190D01*
X81661904Y-57476190D01*
X83090476Y-56952380D02*
X82900000Y-56952380D01*
X82804761Y-57000000D01*
X82757142Y-57047619D01*
X82661904Y-57190476D01*
X82614285Y-57380952D01*
X82614285Y-57761904D01*
X82661904Y-57857142D01*
X82709523Y-57904761D01*
X82804761Y-57952380D01*
X82995238Y-57952380D01*
X83090476Y-57904761D01*
X83138095Y-57857142D01*
X83185714Y-57761904D01*
X83185714Y-57523809D01*
X83138095Y-57428571D01*
X83090476Y-57380952D01*
X82995238Y-57333333D01*
X82804761Y-57333333D01*
X82709523Y-57380952D01*
X82661904Y-57428571D01*
X82614285Y-57523809D01*
X153552380Y-70738095D02*
X152552380Y-70738095D01*
X152552380Y-70357142D01*
X152600000Y-70261904D01*
X152647619Y-70214285D01*
X152742857Y-70166666D01*
X152885714Y-70166666D01*
X152980952Y-70214285D01*
X153028571Y-70261904D01*
X153076190Y-70357142D01*
X153076190Y-70738095D01*
X152552380Y-69833333D02*
X152552380Y-69166666D01*
X153552380Y-69595238D01*
X95197619Y-70445238D02*
X95150000Y-70540476D01*
X95054761Y-70635714D01*
X94911904Y-70778571D01*
X94864285Y-70873809D01*
X94864285Y-70969047D01*
X95102380Y-70921428D02*
X95054761Y-71016666D01*
X94959523Y-71111904D01*
X94769047Y-71159523D01*
X94435714Y-71159523D01*
X94245238Y-71111904D01*
X94150000Y-71016666D01*
X94102380Y-70921428D01*
X94102380Y-70730952D01*
X94150000Y-70635714D01*
X94245238Y-70540476D01*
X94435714Y-70492857D01*
X94769047Y-70492857D01*
X94959523Y-70540476D01*
X95054761Y-70635714D01*
X95102380Y-70730952D01*
X95102380Y-70921428D01*
X95102380Y-69540476D02*
X95102380Y-70111904D01*
X95102380Y-69826190D02*
X94102380Y-69826190D01*
X94245238Y-69921428D01*
X94340476Y-70016666D01*
X94388095Y-70111904D01*
X100397619Y-65645238D02*
X100350000Y-65740476D01*
X100254761Y-65835714D01*
X100111904Y-65978571D01*
X100064285Y-66073809D01*
X100064285Y-66169047D01*
X100302380Y-66121428D02*
X100254761Y-66216666D01*
X100159523Y-66311904D01*
X99969047Y-66359523D01*
X99635714Y-66359523D01*
X99445238Y-66311904D01*
X99350000Y-66216666D01*
X99302380Y-66121428D01*
X99302380Y-65930952D01*
X99350000Y-65835714D01*
X99445238Y-65740476D01*
X99635714Y-65692857D01*
X99969047Y-65692857D01*
X100159523Y-65740476D01*
X100254761Y-65835714D01*
X100302380Y-65930952D01*
X100302380Y-66121428D01*
X99397619Y-65311904D02*
X99350000Y-65264285D01*
X99302380Y-65169047D01*
X99302380Y-64930952D01*
X99350000Y-64835714D01*
X99397619Y-64788095D01*
X99492857Y-64740476D01*
X99588095Y-64740476D01*
X99730952Y-64788095D01*
X100302380Y-65359523D01*
X100302380Y-64740476D01*
X100397619Y-70445238D02*
X100350000Y-70540476D01*
X100254761Y-70635714D01*
X100111904Y-70778571D01*
X100064285Y-70873809D01*
X100064285Y-70969047D01*
X100302380Y-70921428D02*
X100254761Y-71016666D01*
X100159523Y-71111904D01*
X99969047Y-71159523D01*
X99635714Y-71159523D01*
X99445238Y-71111904D01*
X99350000Y-71016666D01*
X99302380Y-70921428D01*
X99302380Y-70730952D01*
X99350000Y-70635714D01*
X99445238Y-70540476D01*
X99635714Y-70492857D01*
X99969047Y-70492857D01*
X100159523Y-70540476D01*
X100254761Y-70635714D01*
X100302380Y-70730952D01*
X100302380Y-70921428D01*
X99302380Y-70159523D02*
X99302380Y-69540476D01*
X99683333Y-69873809D01*
X99683333Y-69730952D01*
X99730952Y-69635714D01*
X99778571Y-69588095D01*
X99873809Y-69540476D01*
X100111904Y-69540476D01*
X100207142Y-69588095D01*
X100254761Y-69635714D01*
X100302380Y-69730952D01*
X100302380Y-70016666D01*
X100254761Y-70111904D01*
X100207142Y-70159523D01*
X104404761Y-78761619D02*
X104309523Y-78714000D01*
X104214285Y-78618761D01*
X104071428Y-78475904D01*
X103976190Y-78428285D01*
X103880952Y-78428285D01*
X103928571Y-78666380D02*
X103833333Y-78618761D01*
X103738095Y-78523523D01*
X103690476Y-78333047D01*
X103690476Y-77999714D01*
X103738095Y-77809238D01*
X103833333Y-77714000D01*
X103928571Y-77666380D01*
X104119047Y-77666380D01*
X104214285Y-77714000D01*
X104309523Y-77809238D01*
X104357142Y-77999714D01*
X104357142Y-78333047D01*
X104309523Y-78523523D01*
X104214285Y-78618761D01*
X104119047Y-78666380D01*
X103928571Y-78666380D01*
X105214285Y-77999714D02*
X105214285Y-78666380D01*
X104976190Y-77618761D02*
X104738095Y-78333047D01*
X105357142Y-78333047D01*
X117197619Y-70445238D02*
X117150000Y-70540476D01*
X117054761Y-70635714D01*
X116911904Y-70778571D01*
X116864285Y-70873809D01*
X116864285Y-70969047D01*
X117102380Y-70921428D02*
X117054761Y-71016666D01*
X116959523Y-71111904D01*
X116769047Y-71159523D01*
X116435714Y-71159523D01*
X116245238Y-71111904D01*
X116150000Y-71016666D01*
X116102380Y-70921428D01*
X116102380Y-70730952D01*
X116150000Y-70635714D01*
X116245238Y-70540476D01*
X116435714Y-70492857D01*
X116769047Y-70492857D01*
X116959523Y-70540476D01*
X117054761Y-70635714D01*
X117102380Y-70730952D01*
X117102380Y-70921428D01*
X116102380Y-69588095D02*
X116102380Y-70064285D01*
X116578571Y-70111904D01*
X116530952Y-70064285D01*
X116483333Y-69969047D01*
X116483333Y-69730952D01*
X116530952Y-69635714D01*
X116578571Y-69588095D01*
X116673809Y-69540476D01*
X116911904Y-69540476D01*
X117007142Y-69588095D01*
X117054761Y-69635714D01*
X117102380Y-69730952D01*
X117102380Y-69969047D01*
X117054761Y-70064285D01*
X117007142Y-70111904D01*
X112897619Y-70445238D02*
X112850000Y-70540476D01*
X112754761Y-70635714D01*
X112611904Y-70778571D01*
X112564285Y-70873809D01*
X112564285Y-70969047D01*
X112802380Y-70921428D02*
X112754761Y-71016666D01*
X112659523Y-71111904D01*
X112469047Y-71159523D01*
X112135714Y-71159523D01*
X111945238Y-71111904D01*
X111850000Y-71016666D01*
X111802380Y-70921428D01*
X111802380Y-70730952D01*
X111850000Y-70635714D01*
X111945238Y-70540476D01*
X112135714Y-70492857D01*
X112469047Y-70492857D01*
X112659523Y-70540476D01*
X112754761Y-70635714D01*
X112802380Y-70730952D01*
X112802380Y-70921428D01*
X111802380Y-69635714D02*
X111802380Y-69826190D01*
X111850000Y-69921428D01*
X111897619Y-69969047D01*
X112040476Y-70064285D01*
X112230952Y-70111904D01*
X112611904Y-70111904D01*
X112707142Y-70064285D01*
X112754761Y-70016666D01*
X112802380Y-69921428D01*
X112802380Y-69730952D01*
X112754761Y-69635714D01*
X112707142Y-69588095D01*
X112611904Y-69540476D01*
X112373809Y-69540476D01*
X112278571Y-69588095D01*
X112230952Y-69635714D01*
X112183333Y-69730952D01*
X112183333Y-69921428D01*
X112230952Y-70016666D01*
X112278571Y-70064285D01*
X112373809Y-70111904D01*
X122497619Y-65845238D02*
X122450000Y-65940476D01*
X122354761Y-66035714D01*
X122211904Y-66178571D01*
X122164285Y-66273809D01*
X122164285Y-66369047D01*
X122402380Y-66321428D02*
X122354761Y-66416666D01*
X122259523Y-66511904D01*
X122069047Y-66559523D01*
X121735714Y-66559523D01*
X121545238Y-66511904D01*
X121450000Y-66416666D01*
X121402380Y-66321428D01*
X121402380Y-66130952D01*
X121450000Y-66035714D01*
X121545238Y-65940476D01*
X121735714Y-65892857D01*
X122069047Y-65892857D01*
X122259523Y-65940476D01*
X122354761Y-66035714D01*
X122402380Y-66130952D01*
X122402380Y-66321428D01*
X121402380Y-65559523D02*
X121402380Y-64892857D01*
X122402380Y-65321428D01*
X122397619Y-70245238D02*
X122350000Y-70340476D01*
X122254761Y-70435714D01*
X122111904Y-70578571D01*
X122064285Y-70673809D01*
X122064285Y-70769047D01*
X122302380Y-70721428D02*
X122254761Y-70816666D01*
X122159523Y-70911904D01*
X121969047Y-70959523D01*
X121635714Y-70959523D01*
X121445238Y-70911904D01*
X121350000Y-70816666D01*
X121302380Y-70721428D01*
X121302380Y-70530952D01*
X121350000Y-70435714D01*
X121445238Y-70340476D01*
X121635714Y-70292857D01*
X121969047Y-70292857D01*
X122159523Y-70340476D01*
X122254761Y-70435714D01*
X122302380Y-70530952D01*
X122302380Y-70721428D01*
X121730952Y-69721428D02*
X121683333Y-69816666D01*
X121635714Y-69864285D01*
X121540476Y-69911904D01*
X121492857Y-69911904D01*
X121397619Y-69864285D01*
X121350000Y-69816666D01*
X121302380Y-69721428D01*
X121302380Y-69530952D01*
X121350000Y-69435714D01*
X121397619Y-69388095D01*
X121492857Y-69340476D01*
X121540476Y-69340476D01*
X121635714Y-69388095D01*
X121683333Y-69435714D01*
X121730952Y-69530952D01*
X121730952Y-69721428D01*
X121778571Y-69816666D01*
X121826190Y-69864285D01*
X121921428Y-69911904D01*
X122111904Y-69911904D01*
X122207142Y-69864285D01*
X122254761Y-69816666D01*
X122302380Y-69721428D01*
X122302380Y-69530952D01*
X122254761Y-69435714D01*
X122207142Y-69388095D01*
X122111904Y-69340476D01*
X121921428Y-69340476D01*
X121826190Y-69388095D01*
X121778571Y-69435714D01*
X121730952Y-69530952D01*
X127304761Y-78661619D02*
X127209523Y-78614000D01*
X127114285Y-78518761D01*
X126971428Y-78375904D01*
X126876190Y-78328285D01*
X126780952Y-78328285D01*
X126828571Y-78566380D02*
X126733333Y-78518761D01*
X126638095Y-78423523D01*
X126590476Y-78233047D01*
X126590476Y-77899714D01*
X126638095Y-77709238D01*
X126733333Y-77614000D01*
X126828571Y-77566380D01*
X127019047Y-77566380D01*
X127114285Y-77614000D01*
X127209523Y-77709238D01*
X127257142Y-77899714D01*
X127257142Y-78233047D01*
X127209523Y-78423523D01*
X127114285Y-78518761D01*
X127019047Y-78566380D01*
X126828571Y-78566380D01*
X127733333Y-78566380D02*
X127923809Y-78566380D01*
X128019047Y-78518761D01*
X128066666Y-78471142D01*
X128161904Y-78328285D01*
X128209523Y-78137809D01*
X128209523Y-77756857D01*
X128161904Y-77661619D01*
X128114285Y-77614000D01*
X128019047Y-77566380D01*
X127828571Y-77566380D01*
X127733333Y-77614000D01*
X127685714Y-77661619D01*
X127638095Y-77756857D01*
X127638095Y-77994952D01*
X127685714Y-78090190D01*
X127733333Y-78137809D01*
X127828571Y-78185428D01*
X128019047Y-78185428D01*
X128114285Y-78137809D01*
X128161904Y-78090190D01*
X128209523Y-77994952D01*
X95552380Y-75966666D02*
X95076190Y-76300000D01*
X95552380Y-76538095D02*
X94552380Y-76538095D01*
X94552380Y-76157142D01*
X94600000Y-76061904D01*
X94647619Y-76014285D01*
X94742857Y-75966666D01*
X94885714Y-75966666D01*
X94980952Y-76014285D01*
X95028571Y-76061904D01*
X95076190Y-76157142D01*
X95076190Y-76538095D01*
X95552380Y-75014285D02*
X95552380Y-75585714D01*
X95552380Y-75300000D02*
X94552380Y-75300000D01*
X94695238Y-75395238D01*
X94790476Y-75490476D01*
X94838095Y-75585714D01*
D14*
X96430549Y-76115685D02*
X96430549Y-76376942D01*
X96430549Y-76246314D02*
X95922549Y-76246314D01*
X95995120Y-76289857D01*
X96043501Y-76333400D01*
X96067692Y-76376942D01*
X95922549Y-75832657D02*
X95922549Y-75789114D01*
X95946740Y-75745571D01*
X95970930Y-75723800D01*
X96019311Y-75702028D01*
X96116073Y-75680257D01*
X96237025Y-75680257D01*
X96333787Y-75702028D01*
X96382168Y-75723800D01*
X96406359Y-75745571D01*
X96430549Y-75789114D01*
X96430549Y-75832657D01*
X96406359Y-75876200D01*
X96382168Y-75897971D01*
X96333787Y-75919742D01*
X96237025Y-75941514D01*
X96116073Y-75941514D01*
X96019311Y-75919742D01*
X95970930Y-75897971D01*
X95946740Y-75876200D01*
X95922549Y-75832657D01*
X96430549Y-75484314D02*
X95922549Y-75484314D01*
X96430549Y-75223057D02*
X96140263Y-75419000D01*
X95922549Y-75223057D02*
X96212835Y-75484314D01*
D11*
X118152380Y-79066666D02*
X117676190Y-79400000D01*
X118152380Y-79638095D02*
X117152380Y-79638095D01*
X117152380Y-79257142D01*
X117200000Y-79161904D01*
X117247619Y-79114285D01*
X117342857Y-79066666D01*
X117485714Y-79066666D01*
X117580952Y-79114285D01*
X117628571Y-79161904D01*
X117676190Y-79257142D01*
X117676190Y-79638095D01*
X117247619Y-78685714D02*
X117200000Y-78638095D01*
X117152380Y-78542857D01*
X117152380Y-78304761D01*
X117200000Y-78209523D01*
X117247619Y-78161904D01*
X117342857Y-78114285D01*
X117438095Y-78114285D01*
X117580952Y-78161904D01*
X118152380Y-78733333D01*
X118152380Y-78114285D01*
D14*
X116829069Y-79215685D02*
X116829069Y-79476942D01*
X116829069Y-79346314D02*
X116321069Y-79346314D01*
X116393640Y-79389857D01*
X116442021Y-79433400D01*
X116466212Y-79476942D01*
X116321069Y-78932657D02*
X116321069Y-78889114D01*
X116345260Y-78845571D01*
X116369450Y-78823800D01*
X116417831Y-78802028D01*
X116514593Y-78780257D01*
X116635545Y-78780257D01*
X116732307Y-78802028D01*
X116780688Y-78823800D01*
X116804879Y-78845571D01*
X116829069Y-78889114D01*
X116829069Y-78932657D01*
X116804879Y-78976200D01*
X116780688Y-78997971D01*
X116732307Y-79019742D01*
X116635545Y-79041514D01*
X116514593Y-79041514D01*
X116417831Y-79019742D01*
X116369450Y-78997971D01*
X116345260Y-78976200D01*
X116321069Y-78932657D01*
X116829069Y-78584314D02*
X116321069Y-78584314D01*
X116829069Y-78323057D02*
X116538783Y-78519000D01*
X116321069Y-78323057D02*
X116611355Y-78584314D01*
D11*
X104533333Y-84552380D02*
X104200000Y-84076190D01*
X103961904Y-84552380D02*
X103961904Y-83552380D01*
X104342857Y-83552380D01*
X104438095Y-83600000D01*
X104485714Y-83647619D01*
X104533333Y-83742857D01*
X104533333Y-83885714D01*
X104485714Y-83980952D01*
X104438095Y-84028571D01*
X104342857Y-84076190D01*
X103961904Y-84076190D01*
X104866666Y-83552380D02*
X105485714Y-83552380D01*
X105152380Y-83933333D01*
X105295238Y-83933333D01*
X105390476Y-83980952D01*
X105438095Y-84028571D01*
X105485714Y-84123809D01*
X105485714Y-84361904D01*
X105438095Y-84457142D01*
X105390476Y-84504761D01*
X105295238Y-84552380D01*
X105009523Y-84552380D01*
X104914285Y-84504761D01*
X104866666Y-84457142D01*
D14*
X104166600Y-85430549D02*
X103905342Y-85430549D01*
X104035971Y-85430549D02*
X104035971Y-84922549D01*
X103992428Y-84995120D01*
X103948885Y-85043501D01*
X103905342Y-85067692D01*
X104449628Y-84922549D02*
X104493171Y-84922549D01*
X104536714Y-84946740D01*
X104558485Y-84970930D01*
X104580257Y-85019311D01*
X104602028Y-85116073D01*
X104602028Y-85237025D01*
X104580257Y-85333787D01*
X104558485Y-85382168D01*
X104536714Y-85406359D01*
X104493171Y-85430549D01*
X104449628Y-85430549D01*
X104406085Y-85406359D01*
X104384314Y-85382168D01*
X104362542Y-85333787D01*
X104340771Y-85237025D01*
X104340771Y-85116073D01*
X104362542Y-85019311D01*
X104384314Y-84970930D01*
X104406085Y-84946740D01*
X104449628Y-84922549D01*
X104885057Y-84922549D02*
X104928600Y-84922549D01*
X104972142Y-84946740D01*
X104993914Y-84970930D01*
X105015685Y-85019311D01*
X105037457Y-85116073D01*
X105037457Y-85237025D01*
X105015685Y-85333787D01*
X104993914Y-85382168D01*
X104972142Y-85406359D01*
X104928600Y-85430549D01*
X104885057Y-85430549D01*
X104841514Y-85406359D01*
X104819742Y-85382168D01*
X104797971Y-85333787D01*
X104776200Y-85237025D01*
X104776200Y-85116073D01*
X104797971Y-85019311D01*
X104819742Y-84970930D01*
X104841514Y-84946740D01*
X104885057Y-84922549D01*
X105233400Y-85430549D02*
X105233400Y-84922549D01*
X105494657Y-85430549D02*
X105298714Y-85140263D01*
X105494657Y-84922549D02*
X105233400Y-85212835D01*
D11*
X101733333Y-90152380D02*
X101400000Y-89676190D01*
X101161904Y-90152380D02*
X101161904Y-89152380D01*
X101542857Y-89152380D01*
X101638095Y-89200000D01*
X101685714Y-89247619D01*
X101733333Y-89342857D01*
X101733333Y-89485714D01*
X101685714Y-89580952D01*
X101638095Y-89628571D01*
X101542857Y-89676190D01*
X101161904Y-89676190D01*
X102590476Y-89485714D02*
X102590476Y-90152380D01*
X102352380Y-89104761D02*
X102114285Y-89819047D01*
X102733333Y-89819047D01*
D14*
X101584314Y-88829069D02*
X101323057Y-88829069D01*
X101453685Y-88829069D02*
X101453685Y-88321069D01*
X101410142Y-88393640D01*
X101366600Y-88442021D01*
X101323057Y-88466212D01*
X101867342Y-88321069D02*
X101910885Y-88321069D01*
X101954428Y-88345260D01*
X101976200Y-88369450D01*
X101997971Y-88417831D01*
X102019742Y-88514593D01*
X102019742Y-88635545D01*
X101997971Y-88732307D01*
X101976200Y-88780688D01*
X101954428Y-88804879D01*
X101910885Y-88829069D01*
X101867342Y-88829069D01*
X101823800Y-88804879D01*
X101802028Y-88780688D01*
X101780257Y-88732307D01*
X101758485Y-88635545D01*
X101758485Y-88514593D01*
X101780257Y-88417831D01*
X101802028Y-88369450D01*
X101823800Y-88345260D01*
X101867342Y-88321069D01*
X102215685Y-88829069D02*
X102215685Y-88321069D01*
X102476942Y-88829069D02*
X102281000Y-88538783D01*
X102476942Y-88321069D02*
X102215685Y-88611355D01*
D11*
X90552380Y-75966666D02*
X90076190Y-76300000D01*
X90552380Y-76538095D02*
X89552380Y-76538095D01*
X89552380Y-76157142D01*
X89600000Y-76061904D01*
X89647619Y-76014285D01*
X89742857Y-75966666D01*
X89885714Y-75966666D01*
X89980952Y-76014285D01*
X90028571Y-76061904D01*
X90076190Y-76157142D01*
X90076190Y-76538095D01*
X89552380Y-75061904D02*
X89552380Y-75538095D01*
X90028571Y-75585714D01*
X89980952Y-75538095D01*
X89933333Y-75442857D01*
X89933333Y-75204761D01*
X89980952Y-75109523D01*
X90028571Y-75061904D01*
X90123809Y-75014285D01*
X90361904Y-75014285D01*
X90457142Y-75061904D01*
X90504761Y-75109523D01*
X90552380Y-75204761D01*
X90552380Y-75442857D01*
X90504761Y-75538095D01*
X90457142Y-75585714D01*
D14*
X91430549Y-76333400D02*
X91430549Y-76594657D01*
X91430549Y-76464028D02*
X90922549Y-76464028D01*
X90995120Y-76507571D01*
X91043501Y-76551114D01*
X91067692Y-76594657D01*
X90922549Y-76050371D02*
X90922549Y-76006828D01*
X90946740Y-75963285D01*
X90970930Y-75941514D01*
X91019311Y-75919742D01*
X91116073Y-75897971D01*
X91237025Y-75897971D01*
X91333787Y-75919742D01*
X91382168Y-75941514D01*
X91406359Y-75963285D01*
X91430549Y-76006828D01*
X91430549Y-76050371D01*
X91406359Y-76093914D01*
X91382168Y-76115685D01*
X91333787Y-76137457D01*
X91237025Y-76159228D01*
X91116073Y-76159228D01*
X91019311Y-76137457D01*
X90970930Y-76115685D01*
X90946740Y-76093914D01*
X90922549Y-76050371D01*
X90922549Y-75614942D02*
X90922549Y-75571400D01*
X90946740Y-75527857D01*
X90970930Y-75506085D01*
X91019311Y-75484314D01*
X91116073Y-75462542D01*
X91237025Y-75462542D01*
X91333787Y-75484314D01*
X91382168Y-75506085D01*
X91406359Y-75527857D01*
X91430549Y-75571400D01*
X91430549Y-75614942D01*
X91406359Y-75658485D01*
X91382168Y-75680257D01*
X91333787Y-75702028D01*
X91237025Y-75723800D01*
X91116073Y-75723800D01*
X91019311Y-75702028D01*
X90970930Y-75680257D01*
X90946740Y-75658485D01*
X90922549Y-75614942D01*
X91430549Y-75266600D02*
X90922549Y-75266600D01*
X91430549Y-75005342D02*
X91140263Y-75201285D01*
X90922549Y-75005342D02*
X91212835Y-75266600D01*
D11*
X112552380Y-76466666D02*
X112076190Y-76800000D01*
X112552380Y-77038095D02*
X111552380Y-77038095D01*
X111552380Y-76657142D01*
X111600000Y-76561904D01*
X111647619Y-76514285D01*
X111742857Y-76466666D01*
X111885714Y-76466666D01*
X111980952Y-76514285D01*
X112028571Y-76561904D01*
X112076190Y-76657142D01*
X112076190Y-77038095D01*
X111552380Y-75609523D02*
X111552380Y-75800000D01*
X111600000Y-75895238D01*
X111647619Y-75942857D01*
X111790476Y-76038095D01*
X111980952Y-76085714D01*
X112361904Y-76085714D01*
X112457142Y-76038095D01*
X112504761Y-75990476D01*
X112552380Y-75895238D01*
X112552380Y-75704761D01*
X112504761Y-75609523D01*
X112457142Y-75561904D01*
X112361904Y-75514285D01*
X112123809Y-75514285D01*
X112028571Y-75561904D01*
X111980952Y-75609523D01*
X111933333Y-75704761D01*
X111933333Y-75895238D01*
X111980952Y-75990476D01*
X112028571Y-76038095D01*
X112123809Y-76085714D01*
D14*
X113430549Y-76833400D02*
X113430549Y-77094657D01*
X113430549Y-76964028D02*
X112922549Y-76964028D01*
X112995120Y-77007571D01*
X113043501Y-77051114D01*
X113067692Y-77094657D01*
X112922549Y-76550371D02*
X112922549Y-76506828D01*
X112946740Y-76463285D01*
X112970930Y-76441514D01*
X113019311Y-76419742D01*
X113116073Y-76397971D01*
X113237025Y-76397971D01*
X113333787Y-76419742D01*
X113382168Y-76441514D01*
X113406359Y-76463285D01*
X113430549Y-76506828D01*
X113430549Y-76550371D01*
X113406359Y-76593914D01*
X113382168Y-76615685D01*
X113333787Y-76637457D01*
X113237025Y-76659228D01*
X113116073Y-76659228D01*
X113019311Y-76637457D01*
X112970930Y-76615685D01*
X112946740Y-76593914D01*
X112922549Y-76550371D01*
X112922549Y-76114942D02*
X112922549Y-76071400D01*
X112946740Y-76027857D01*
X112970930Y-76006085D01*
X113019311Y-75984314D01*
X113116073Y-75962542D01*
X113237025Y-75962542D01*
X113333787Y-75984314D01*
X113382168Y-76006085D01*
X113406359Y-76027857D01*
X113430549Y-76071400D01*
X113430549Y-76114942D01*
X113406359Y-76158485D01*
X113382168Y-76180257D01*
X113333787Y-76202028D01*
X113237025Y-76223800D01*
X113116073Y-76223800D01*
X113019311Y-76202028D01*
X112970930Y-76180257D01*
X112946740Y-76158485D01*
X112922549Y-76114942D01*
X113430549Y-75766600D02*
X112922549Y-75766600D01*
X113430549Y-75505342D02*
X113140263Y-75701285D01*
X112922549Y-75505342D02*
X113212835Y-75766600D01*
D11*
X107852380Y-79966666D02*
X107376190Y-80300000D01*
X107852380Y-80538095D02*
X106852380Y-80538095D01*
X106852380Y-80157142D01*
X106900000Y-80061904D01*
X106947619Y-80014285D01*
X107042857Y-79966666D01*
X107185714Y-79966666D01*
X107280952Y-80014285D01*
X107328571Y-80061904D01*
X107376190Y-80157142D01*
X107376190Y-80538095D01*
X106852380Y-79633333D02*
X106852380Y-78966666D01*
X107852380Y-79395238D01*
D14*
X106529069Y-80333400D02*
X106529069Y-80594657D01*
X106529069Y-80464028D02*
X106021069Y-80464028D01*
X106093640Y-80507571D01*
X106142021Y-80551114D01*
X106166212Y-80594657D01*
X106021069Y-80050371D02*
X106021069Y-80006828D01*
X106045260Y-79963285D01*
X106069450Y-79941514D01*
X106117831Y-79919742D01*
X106214593Y-79897971D01*
X106335545Y-79897971D01*
X106432307Y-79919742D01*
X106480688Y-79941514D01*
X106504879Y-79963285D01*
X106529069Y-80006828D01*
X106529069Y-80050371D01*
X106504879Y-80093914D01*
X106480688Y-80115685D01*
X106432307Y-80137457D01*
X106335545Y-80159228D01*
X106214593Y-80159228D01*
X106117831Y-80137457D01*
X106069450Y-80115685D01*
X106045260Y-80093914D01*
X106021069Y-80050371D01*
X106021069Y-79614942D02*
X106021069Y-79571400D01*
X106045260Y-79527857D01*
X106069450Y-79506085D01*
X106117831Y-79484314D01*
X106214593Y-79462542D01*
X106335545Y-79462542D01*
X106432307Y-79484314D01*
X106480688Y-79506085D01*
X106504879Y-79527857D01*
X106529069Y-79571400D01*
X106529069Y-79614942D01*
X106504879Y-79658485D01*
X106480688Y-79680257D01*
X106432307Y-79702028D01*
X106335545Y-79723800D01*
X106214593Y-79723800D01*
X106117831Y-79702028D01*
X106069450Y-79680257D01*
X106045260Y-79658485D01*
X106021069Y-79614942D01*
X106529069Y-79266600D02*
X106021069Y-79266600D01*
X106529069Y-79005342D02*
X106238783Y-79201285D01*
X106021069Y-79005342D02*
X106311355Y-79266600D01*
D11*
X92833333Y-64752380D02*
X92500000Y-64276190D01*
X92261904Y-64752380D02*
X92261904Y-63752380D01*
X92642857Y-63752380D01*
X92738095Y-63800000D01*
X92785714Y-63847619D01*
X92833333Y-63942857D01*
X92833333Y-64085714D01*
X92785714Y-64180952D01*
X92738095Y-64228571D01*
X92642857Y-64276190D01*
X92261904Y-64276190D01*
X93404761Y-64180952D02*
X93309523Y-64133333D01*
X93261904Y-64085714D01*
X93214285Y-63990476D01*
X93214285Y-63942857D01*
X93261904Y-63847619D01*
X93309523Y-63800000D01*
X93404761Y-63752380D01*
X93595238Y-63752380D01*
X93690476Y-63800000D01*
X93738095Y-63847619D01*
X93785714Y-63942857D01*
X93785714Y-63990476D01*
X93738095Y-64085714D01*
X93690476Y-64133333D01*
X93595238Y-64180952D01*
X93404761Y-64180952D01*
X93309523Y-64228571D01*
X93261904Y-64276190D01*
X93214285Y-64371428D01*
X93214285Y-64561904D01*
X93261904Y-64657142D01*
X93309523Y-64704761D01*
X93404761Y-64752380D01*
X93595238Y-64752380D01*
X93690476Y-64704761D01*
X93738095Y-64657142D01*
X93785714Y-64561904D01*
X93785714Y-64371428D01*
X93738095Y-64276190D01*
X93690476Y-64228571D01*
X93595238Y-64180952D01*
D14*
X92684314Y-65630549D02*
X92423057Y-65630549D01*
X92553685Y-65630549D02*
X92553685Y-65122549D01*
X92510142Y-65195120D01*
X92466600Y-65243501D01*
X92423057Y-65267692D01*
X92967342Y-65122549D02*
X93010885Y-65122549D01*
X93054428Y-65146740D01*
X93076200Y-65170930D01*
X93097971Y-65219311D01*
X93119742Y-65316073D01*
X93119742Y-65437025D01*
X93097971Y-65533787D01*
X93076200Y-65582168D01*
X93054428Y-65606359D01*
X93010885Y-65630549D01*
X92967342Y-65630549D01*
X92923800Y-65606359D01*
X92902028Y-65582168D01*
X92880257Y-65533787D01*
X92858485Y-65437025D01*
X92858485Y-65316073D01*
X92880257Y-65219311D01*
X92902028Y-65170930D01*
X92923800Y-65146740D01*
X92967342Y-65122549D01*
X93315685Y-65630549D02*
X93315685Y-65122549D01*
X93576942Y-65630549D02*
X93381000Y-65340263D01*
X93576942Y-65122549D02*
X93315685Y-65412835D01*
D11*
X109052380Y-82766666D02*
X108576190Y-83100000D01*
X109052380Y-83338095D02*
X108052380Y-83338095D01*
X108052380Y-82957142D01*
X108100000Y-82861904D01*
X108147619Y-82814285D01*
X108242857Y-82766666D01*
X108385714Y-82766666D01*
X108480952Y-82814285D01*
X108528571Y-82861904D01*
X108576190Y-82957142D01*
X108576190Y-83338095D01*
X109052380Y-82290476D02*
X109052380Y-82100000D01*
X109004761Y-82004761D01*
X108957142Y-81957142D01*
X108814285Y-81861904D01*
X108623809Y-81814285D01*
X108242857Y-81814285D01*
X108147619Y-81861904D01*
X108100000Y-81909523D01*
X108052380Y-82004761D01*
X108052380Y-82195238D01*
X108100000Y-82290476D01*
X108147619Y-82338095D01*
X108242857Y-82385714D01*
X108480952Y-82385714D01*
X108576190Y-82338095D01*
X108623809Y-82290476D01*
X108671428Y-82195238D01*
X108671428Y-82004761D01*
X108623809Y-81909523D01*
X108576190Y-81861904D01*
X108480952Y-81814285D01*
D14*
X109930549Y-82469371D02*
X109930549Y-82730628D01*
X109930549Y-82600000D02*
X109422549Y-82600000D01*
X109495120Y-82643542D01*
X109543501Y-82687085D01*
X109567692Y-82730628D01*
D11*
X137652380Y-84142857D02*
X137176190Y-84476190D01*
X137652380Y-84714285D02*
X136652380Y-84714285D01*
X136652380Y-84333333D01*
X136700000Y-84238095D01*
X136747619Y-84190476D01*
X136842857Y-84142857D01*
X136985714Y-84142857D01*
X137080952Y-84190476D01*
X137128571Y-84238095D01*
X137176190Y-84333333D01*
X137176190Y-84714285D01*
X137652380Y-83190476D02*
X137652380Y-83761904D01*
X137652380Y-83476190D02*
X136652380Y-83476190D01*
X136795238Y-83571428D01*
X136890476Y-83666666D01*
X136938095Y-83761904D01*
X136652380Y-82571428D02*
X136652380Y-82476190D01*
X136700000Y-82380952D01*
X136747619Y-82333333D01*
X136842857Y-82285714D01*
X137033333Y-82238095D01*
X137271428Y-82238095D01*
X137461904Y-82285714D01*
X137557142Y-82333333D01*
X137604761Y-82380952D01*
X137652380Y-82476190D01*
X137652380Y-82571428D01*
X137604761Y-82666666D01*
X137557142Y-82714285D01*
X137461904Y-82761904D01*
X137271428Y-82809523D01*
X137033333Y-82809523D01*
X136842857Y-82761904D01*
X136747619Y-82714285D01*
X136700000Y-82666666D01*
X136652380Y-82571428D01*
D14*
X138530549Y-84033400D02*
X138530549Y-84294657D01*
X138530549Y-84164028D02*
X138022549Y-84164028D01*
X138095120Y-84207571D01*
X138143501Y-84251114D01*
X138167692Y-84294657D01*
X138022549Y-83750371D02*
X138022549Y-83706828D01*
X138046740Y-83663285D01*
X138070930Y-83641514D01*
X138119311Y-83619742D01*
X138216073Y-83597971D01*
X138337025Y-83597971D01*
X138433787Y-83619742D01*
X138482168Y-83641514D01*
X138506359Y-83663285D01*
X138530549Y-83706828D01*
X138530549Y-83750371D01*
X138506359Y-83793914D01*
X138482168Y-83815685D01*
X138433787Y-83837457D01*
X138337025Y-83859228D01*
X138216073Y-83859228D01*
X138119311Y-83837457D01*
X138070930Y-83815685D01*
X138046740Y-83793914D01*
X138022549Y-83750371D01*
X138022549Y-83314942D02*
X138022549Y-83271400D01*
X138046740Y-83227857D01*
X138070930Y-83206085D01*
X138119311Y-83184314D01*
X138216073Y-83162542D01*
X138337025Y-83162542D01*
X138433787Y-83184314D01*
X138482168Y-83206085D01*
X138506359Y-83227857D01*
X138530549Y-83271400D01*
X138530549Y-83314942D01*
X138506359Y-83358485D01*
X138482168Y-83380257D01*
X138433787Y-83402028D01*
X138337025Y-83423800D01*
X138216073Y-83423800D01*
X138119311Y-83402028D01*
X138070930Y-83380257D01*
X138046740Y-83358485D01*
X138022549Y-83314942D01*
X138530549Y-82966600D02*
X138022549Y-82966600D01*
X138530549Y-82705342D02*
X138240263Y-82901285D01*
X138022549Y-82705342D02*
X138312835Y-82966600D01*
D11*
X137652380Y-88142857D02*
X137176190Y-88476190D01*
X137652380Y-88714285D02*
X136652380Y-88714285D01*
X136652380Y-88333333D01*
X136700000Y-88238095D01*
X136747619Y-88190476D01*
X136842857Y-88142857D01*
X136985714Y-88142857D01*
X137080952Y-88190476D01*
X137128571Y-88238095D01*
X137176190Y-88333333D01*
X137176190Y-88714285D01*
X137652380Y-87190476D02*
X137652380Y-87761904D01*
X137652380Y-87476190D02*
X136652380Y-87476190D01*
X136795238Y-87571428D01*
X136890476Y-87666666D01*
X136938095Y-87761904D01*
X137652380Y-86238095D02*
X137652380Y-86809523D01*
X137652380Y-86523809D02*
X136652380Y-86523809D01*
X136795238Y-86619047D01*
X136890476Y-86714285D01*
X136938095Y-86809523D01*
D14*
X138530549Y-88033400D02*
X138530549Y-88294657D01*
X138530549Y-88164028D02*
X138022549Y-88164028D01*
X138095120Y-88207571D01*
X138143501Y-88251114D01*
X138167692Y-88294657D01*
X138022549Y-87750371D02*
X138022549Y-87706828D01*
X138046740Y-87663285D01*
X138070930Y-87641514D01*
X138119311Y-87619742D01*
X138216073Y-87597971D01*
X138337025Y-87597971D01*
X138433787Y-87619742D01*
X138482168Y-87641514D01*
X138506359Y-87663285D01*
X138530549Y-87706828D01*
X138530549Y-87750371D01*
X138506359Y-87793914D01*
X138482168Y-87815685D01*
X138433787Y-87837457D01*
X138337025Y-87859228D01*
X138216073Y-87859228D01*
X138119311Y-87837457D01*
X138070930Y-87815685D01*
X138046740Y-87793914D01*
X138022549Y-87750371D01*
X138022549Y-87314942D02*
X138022549Y-87271400D01*
X138046740Y-87227857D01*
X138070930Y-87206085D01*
X138119311Y-87184314D01*
X138216073Y-87162542D01*
X138337025Y-87162542D01*
X138433787Y-87184314D01*
X138482168Y-87206085D01*
X138506359Y-87227857D01*
X138530549Y-87271400D01*
X138530549Y-87314942D01*
X138506359Y-87358485D01*
X138482168Y-87380257D01*
X138433787Y-87402028D01*
X138337025Y-87423800D01*
X138216073Y-87423800D01*
X138119311Y-87402028D01*
X138070930Y-87380257D01*
X138046740Y-87358485D01*
X138022549Y-87314942D01*
X138530549Y-86966600D02*
X138022549Y-86966600D01*
X138530549Y-86705342D02*
X138240263Y-86901285D01*
X138022549Y-86705342D02*
X138312835Y-86966600D01*
D11*
X137652380Y-90142857D02*
X137176190Y-90476190D01*
X137652380Y-90714285D02*
X136652380Y-90714285D01*
X136652380Y-90333333D01*
X136700000Y-90238095D01*
X136747619Y-90190476D01*
X136842857Y-90142857D01*
X136985714Y-90142857D01*
X137080952Y-90190476D01*
X137128571Y-90238095D01*
X137176190Y-90333333D01*
X137176190Y-90714285D01*
X137652380Y-89190476D02*
X137652380Y-89761904D01*
X137652380Y-89476190D02*
X136652380Y-89476190D01*
X136795238Y-89571428D01*
X136890476Y-89666666D01*
X136938095Y-89761904D01*
X136747619Y-88809523D02*
X136700000Y-88761904D01*
X136652380Y-88666666D01*
X136652380Y-88428571D01*
X136700000Y-88333333D01*
X136747619Y-88285714D01*
X136842857Y-88238095D01*
X136938095Y-88238095D01*
X137080952Y-88285714D01*
X137652380Y-88857142D01*
X137652380Y-88238095D01*
D14*
X138530549Y-90033400D02*
X138530549Y-90294657D01*
X138530549Y-90164028D02*
X138022549Y-90164028D01*
X138095120Y-90207571D01*
X138143501Y-90251114D01*
X138167692Y-90294657D01*
X138022549Y-89750371D02*
X138022549Y-89706828D01*
X138046740Y-89663285D01*
X138070930Y-89641514D01*
X138119311Y-89619742D01*
X138216073Y-89597971D01*
X138337025Y-89597971D01*
X138433787Y-89619742D01*
X138482168Y-89641514D01*
X138506359Y-89663285D01*
X138530549Y-89706828D01*
X138530549Y-89750371D01*
X138506359Y-89793914D01*
X138482168Y-89815685D01*
X138433787Y-89837457D01*
X138337025Y-89859228D01*
X138216073Y-89859228D01*
X138119311Y-89837457D01*
X138070930Y-89815685D01*
X138046740Y-89793914D01*
X138022549Y-89750371D01*
X138022549Y-89314942D02*
X138022549Y-89271400D01*
X138046740Y-89227857D01*
X138070930Y-89206085D01*
X138119311Y-89184314D01*
X138216073Y-89162542D01*
X138337025Y-89162542D01*
X138433787Y-89184314D01*
X138482168Y-89206085D01*
X138506359Y-89227857D01*
X138530549Y-89271400D01*
X138530549Y-89314942D01*
X138506359Y-89358485D01*
X138482168Y-89380257D01*
X138433787Y-89402028D01*
X138337025Y-89423800D01*
X138216073Y-89423800D01*
X138119311Y-89402028D01*
X138070930Y-89380257D01*
X138046740Y-89358485D01*
X138022549Y-89314942D01*
X138530549Y-88966600D02*
X138022549Y-88966600D01*
X138530549Y-88705342D02*
X138240263Y-88901285D01*
X138022549Y-88705342D02*
X138312835Y-88966600D01*
D11*
X137652380Y-86142857D02*
X137176190Y-86476190D01*
X137652380Y-86714285D02*
X136652380Y-86714285D01*
X136652380Y-86333333D01*
X136700000Y-86238095D01*
X136747619Y-86190476D01*
X136842857Y-86142857D01*
X136985714Y-86142857D01*
X137080952Y-86190476D01*
X137128571Y-86238095D01*
X137176190Y-86333333D01*
X137176190Y-86714285D01*
X137652380Y-85190476D02*
X137652380Y-85761904D01*
X137652380Y-85476190D02*
X136652380Y-85476190D01*
X136795238Y-85571428D01*
X136890476Y-85666666D01*
X136938095Y-85761904D01*
X136652380Y-84857142D02*
X136652380Y-84238095D01*
X137033333Y-84571428D01*
X137033333Y-84428571D01*
X137080952Y-84333333D01*
X137128571Y-84285714D01*
X137223809Y-84238095D01*
X137461904Y-84238095D01*
X137557142Y-84285714D01*
X137604761Y-84333333D01*
X137652380Y-84428571D01*
X137652380Y-84714285D01*
X137604761Y-84809523D01*
X137557142Y-84857142D01*
D14*
X138530549Y-86033400D02*
X138530549Y-86294657D01*
X138530549Y-86164028D02*
X138022549Y-86164028D01*
X138095120Y-86207571D01*
X138143501Y-86251114D01*
X138167692Y-86294657D01*
X138022549Y-85750371D02*
X138022549Y-85706828D01*
X138046740Y-85663285D01*
X138070930Y-85641514D01*
X138119311Y-85619742D01*
X138216073Y-85597971D01*
X138337025Y-85597971D01*
X138433787Y-85619742D01*
X138482168Y-85641514D01*
X138506359Y-85663285D01*
X138530549Y-85706828D01*
X138530549Y-85750371D01*
X138506359Y-85793914D01*
X138482168Y-85815685D01*
X138433787Y-85837457D01*
X138337025Y-85859228D01*
X138216073Y-85859228D01*
X138119311Y-85837457D01*
X138070930Y-85815685D01*
X138046740Y-85793914D01*
X138022549Y-85750371D01*
X138022549Y-85314942D02*
X138022549Y-85271400D01*
X138046740Y-85227857D01*
X138070930Y-85206085D01*
X138119311Y-85184314D01*
X138216073Y-85162542D01*
X138337025Y-85162542D01*
X138433787Y-85184314D01*
X138482168Y-85206085D01*
X138506359Y-85227857D01*
X138530549Y-85271400D01*
X138530549Y-85314942D01*
X138506359Y-85358485D01*
X138482168Y-85380257D01*
X138433787Y-85402028D01*
X138337025Y-85423800D01*
X138216073Y-85423800D01*
X138119311Y-85402028D01*
X138070930Y-85380257D01*
X138046740Y-85358485D01*
X138022549Y-85314942D01*
X138530549Y-84966600D02*
X138022549Y-84966600D01*
X138530549Y-84705342D02*
X138240263Y-84901285D01*
X138022549Y-84705342D02*
X138312835Y-84966600D01*
D11*
X137652380Y-92142857D02*
X137176190Y-92476190D01*
X137652380Y-92714285D02*
X136652380Y-92714285D01*
X136652380Y-92333333D01*
X136700000Y-92238095D01*
X136747619Y-92190476D01*
X136842857Y-92142857D01*
X136985714Y-92142857D01*
X137080952Y-92190476D01*
X137128571Y-92238095D01*
X137176190Y-92333333D01*
X137176190Y-92714285D01*
X137652380Y-91190476D02*
X137652380Y-91761904D01*
X137652380Y-91476190D02*
X136652380Y-91476190D01*
X136795238Y-91571428D01*
X136890476Y-91666666D01*
X136938095Y-91761904D01*
X136985714Y-90333333D02*
X137652380Y-90333333D01*
X136604761Y-90571428D02*
X137319047Y-90809523D01*
X137319047Y-90190476D01*
D14*
X138530549Y-92033400D02*
X138530549Y-92294657D01*
X138530549Y-92164028D02*
X138022549Y-92164028D01*
X138095120Y-92207571D01*
X138143501Y-92251114D01*
X138167692Y-92294657D01*
X138022549Y-91750371D02*
X138022549Y-91706828D01*
X138046740Y-91663285D01*
X138070930Y-91641514D01*
X138119311Y-91619742D01*
X138216073Y-91597971D01*
X138337025Y-91597971D01*
X138433787Y-91619742D01*
X138482168Y-91641514D01*
X138506359Y-91663285D01*
X138530549Y-91706828D01*
X138530549Y-91750371D01*
X138506359Y-91793914D01*
X138482168Y-91815685D01*
X138433787Y-91837457D01*
X138337025Y-91859228D01*
X138216073Y-91859228D01*
X138119311Y-91837457D01*
X138070930Y-91815685D01*
X138046740Y-91793914D01*
X138022549Y-91750371D01*
X138022549Y-91314942D02*
X138022549Y-91271400D01*
X138046740Y-91227857D01*
X138070930Y-91206085D01*
X138119311Y-91184314D01*
X138216073Y-91162542D01*
X138337025Y-91162542D01*
X138433787Y-91184314D01*
X138482168Y-91206085D01*
X138506359Y-91227857D01*
X138530549Y-91271400D01*
X138530549Y-91314942D01*
X138506359Y-91358485D01*
X138482168Y-91380257D01*
X138433787Y-91402028D01*
X138337025Y-91423800D01*
X138216073Y-91423800D01*
X138119311Y-91402028D01*
X138070930Y-91380257D01*
X138046740Y-91358485D01*
X138022549Y-91314942D01*
X138530549Y-90966600D02*
X138022549Y-90966600D01*
X138530549Y-90705342D02*
X138240263Y-90901285D01*
X138022549Y-90705342D02*
X138312835Y-90966600D01*
D11*
X77857142Y-95652380D02*
X77523809Y-95176190D01*
X77285714Y-95652380D02*
X77285714Y-94652380D01*
X77666666Y-94652380D01*
X77761904Y-94700000D01*
X77809523Y-94747619D01*
X77857142Y-94842857D01*
X77857142Y-94985714D01*
X77809523Y-95080952D01*
X77761904Y-95128571D01*
X77666666Y-95176190D01*
X77285714Y-95176190D01*
X78809523Y-95652380D02*
X78238095Y-95652380D01*
X78523809Y-95652380D02*
X78523809Y-94652380D01*
X78428571Y-94795238D01*
X78333333Y-94890476D01*
X78238095Y-94938095D01*
X79714285Y-94652380D02*
X79238095Y-94652380D01*
X79190476Y-95128571D01*
X79238095Y-95080952D01*
X79333333Y-95033333D01*
X79571428Y-95033333D01*
X79666666Y-95080952D01*
X79714285Y-95128571D01*
X79761904Y-95223809D01*
X79761904Y-95461904D01*
X79714285Y-95557142D01*
X79666666Y-95604761D01*
X79571428Y-95652380D01*
X79333333Y-95652380D01*
X79238095Y-95604761D01*
X79190476Y-95557142D01*
D14*
X77966600Y-96530549D02*
X77705342Y-96530549D01*
X77835971Y-96530549D02*
X77835971Y-96022549D01*
X77792428Y-96095120D01*
X77748885Y-96143501D01*
X77705342Y-96167692D01*
X78249628Y-96022549D02*
X78293171Y-96022549D01*
X78336714Y-96046740D01*
X78358485Y-96070930D01*
X78380257Y-96119311D01*
X78402028Y-96216073D01*
X78402028Y-96337025D01*
X78380257Y-96433787D01*
X78358485Y-96482168D01*
X78336714Y-96506359D01*
X78293171Y-96530549D01*
X78249628Y-96530549D01*
X78206085Y-96506359D01*
X78184314Y-96482168D01*
X78162542Y-96433787D01*
X78140771Y-96337025D01*
X78140771Y-96216073D01*
X78162542Y-96119311D01*
X78184314Y-96070930D01*
X78206085Y-96046740D01*
X78249628Y-96022549D01*
X78685057Y-96022549D02*
X78728600Y-96022549D01*
X78772142Y-96046740D01*
X78793914Y-96070930D01*
X78815685Y-96119311D01*
X78837457Y-96216073D01*
X78837457Y-96337025D01*
X78815685Y-96433787D01*
X78793914Y-96482168D01*
X78772142Y-96506359D01*
X78728600Y-96530549D01*
X78685057Y-96530549D01*
X78641514Y-96506359D01*
X78619742Y-96482168D01*
X78597971Y-96433787D01*
X78576200Y-96337025D01*
X78576200Y-96216073D01*
X78597971Y-96119311D01*
X78619742Y-96070930D01*
X78641514Y-96046740D01*
X78685057Y-96022549D01*
X79033400Y-96530549D02*
X79033400Y-96022549D01*
X79294657Y-96530549D02*
X79098714Y-96240263D01*
X79294657Y-96022549D02*
X79033400Y-96312835D01*
D11*
X110357142Y-64652380D02*
X110023809Y-64176190D01*
X109785714Y-64652380D02*
X109785714Y-63652380D01*
X110166666Y-63652380D01*
X110261904Y-63700000D01*
X110309523Y-63747619D01*
X110357142Y-63842857D01*
X110357142Y-63985714D01*
X110309523Y-64080952D01*
X110261904Y-64128571D01*
X110166666Y-64176190D01*
X109785714Y-64176190D01*
X111309523Y-64652380D02*
X110738095Y-64652380D01*
X111023809Y-64652380D02*
X111023809Y-63652380D01*
X110928571Y-63795238D01*
X110833333Y-63890476D01*
X110738095Y-63938095D01*
X112166666Y-63652380D02*
X111976190Y-63652380D01*
X111880952Y-63700000D01*
X111833333Y-63747619D01*
X111738095Y-63890476D01*
X111690476Y-64080952D01*
X111690476Y-64461904D01*
X111738095Y-64557142D01*
X111785714Y-64604761D01*
X111880952Y-64652380D01*
X112071428Y-64652380D01*
X112166666Y-64604761D01*
X112214285Y-64557142D01*
X112261904Y-64461904D01*
X112261904Y-64223809D01*
X112214285Y-64128571D01*
X112166666Y-64080952D01*
X112071428Y-64033333D01*
X111880952Y-64033333D01*
X111785714Y-64080952D01*
X111738095Y-64128571D01*
X111690476Y-64223809D01*
D14*
X110684314Y-65530549D02*
X110423057Y-65530549D01*
X110553685Y-65530549D02*
X110553685Y-65022549D01*
X110510142Y-65095120D01*
X110466600Y-65143501D01*
X110423057Y-65167692D01*
X110967342Y-65022549D02*
X111010885Y-65022549D01*
X111054428Y-65046740D01*
X111076200Y-65070930D01*
X111097971Y-65119311D01*
X111119742Y-65216073D01*
X111119742Y-65337025D01*
X111097971Y-65433787D01*
X111076200Y-65482168D01*
X111054428Y-65506359D01*
X111010885Y-65530549D01*
X110967342Y-65530549D01*
X110923800Y-65506359D01*
X110902028Y-65482168D01*
X110880257Y-65433787D01*
X110858485Y-65337025D01*
X110858485Y-65216073D01*
X110880257Y-65119311D01*
X110902028Y-65070930D01*
X110923800Y-65046740D01*
X110967342Y-65022549D01*
X111315685Y-65530549D02*
X111315685Y-65022549D01*
X111576942Y-65530549D02*
X111381000Y-65240263D01*
X111576942Y-65022549D02*
X111315685Y-65312835D01*
D11*
X118252380Y-68642857D02*
X117776190Y-68976190D01*
X118252380Y-69214285D02*
X117252380Y-69214285D01*
X117252380Y-68833333D01*
X117300000Y-68738095D01*
X117347619Y-68690476D01*
X117442857Y-68642857D01*
X117585714Y-68642857D01*
X117680952Y-68690476D01*
X117728571Y-68738095D01*
X117776190Y-68833333D01*
X117776190Y-69214285D01*
X118252380Y-67690476D02*
X118252380Y-68261904D01*
X118252380Y-67976190D02*
X117252380Y-67976190D01*
X117395238Y-68071428D01*
X117490476Y-68166666D01*
X117538095Y-68261904D01*
X117252380Y-67357142D02*
X117252380Y-66690476D01*
X118252380Y-67119047D01*
D14*
X116929069Y-68533400D02*
X116929069Y-68794657D01*
X116929069Y-68664028D02*
X116421069Y-68664028D01*
X116493640Y-68707571D01*
X116542021Y-68751114D01*
X116566212Y-68794657D01*
X116421069Y-68250371D02*
X116421069Y-68206828D01*
X116445260Y-68163285D01*
X116469450Y-68141514D01*
X116517831Y-68119742D01*
X116614593Y-68097971D01*
X116735545Y-68097971D01*
X116832307Y-68119742D01*
X116880688Y-68141514D01*
X116904879Y-68163285D01*
X116929069Y-68206828D01*
X116929069Y-68250371D01*
X116904879Y-68293914D01*
X116880688Y-68315685D01*
X116832307Y-68337457D01*
X116735545Y-68359228D01*
X116614593Y-68359228D01*
X116517831Y-68337457D01*
X116469450Y-68315685D01*
X116445260Y-68293914D01*
X116421069Y-68250371D01*
X116421069Y-67814942D02*
X116421069Y-67771400D01*
X116445260Y-67727857D01*
X116469450Y-67706085D01*
X116517831Y-67684314D01*
X116614593Y-67662542D01*
X116735545Y-67662542D01*
X116832307Y-67684314D01*
X116880688Y-67706085D01*
X116904879Y-67727857D01*
X116929069Y-67771400D01*
X116929069Y-67814942D01*
X116904879Y-67858485D01*
X116880688Y-67880257D01*
X116832307Y-67902028D01*
X116735545Y-67923800D01*
X116614593Y-67923800D01*
X116517831Y-67902028D01*
X116469450Y-67880257D01*
X116445260Y-67858485D01*
X116421069Y-67814942D01*
X116929069Y-67466600D02*
X116421069Y-67466600D01*
X116929069Y-67205342D02*
X116638783Y-67401285D01*
X116421069Y-67205342D02*
X116711355Y-67466600D01*
D11*
X81357142Y-91952380D02*
X81023809Y-91476190D01*
X80785714Y-91952380D02*
X80785714Y-90952380D01*
X81166666Y-90952380D01*
X81261904Y-91000000D01*
X81309523Y-91047619D01*
X81357142Y-91142857D01*
X81357142Y-91285714D01*
X81309523Y-91380952D01*
X81261904Y-91428571D01*
X81166666Y-91476190D01*
X80785714Y-91476190D01*
X82309523Y-91952380D02*
X81738095Y-91952380D01*
X82023809Y-91952380D02*
X82023809Y-90952380D01*
X81928571Y-91095238D01*
X81833333Y-91190476D01*
X81738095Y-91238095D01*
X82880952Y-91380952D02*
X82785714Y-91333333D01*
X82738095Y-91285714D01*
X82690476Y-91190476D01*
X82690476Y-91142857D01*
X82738095Y-91047619D01*
X82785714Y-91000000D01*
X82880952Y-90952380D01*
X83071428Y-90952380D01*
X83166666Y-91000000D01*
X83214285Y-91047619D01*
X83261904Y-91142857D01*
X83261904Y-91190476D01*
X83214285Y-91285714D01*
X83166666Y-91333333D01*
X83071428Y-91380952D01*
X82880952Y-91380952D01*
X82785714Y-91428571D01*
X82738095Y-91476190D01*
X82690476Y-91571428D01*
X82690476Y-91761904D01*
X82738095Y-91857142D01*
X82785714Y-91904761D01*
X82880952Y-91952380D01*
X83071428Y-91952380D01*
X83166666Y-91904761D01*
X83214285Y-91857142D01*
X83261904Y-91761904D01*
X83261904Y-91571428D01*
X83214285Y-91476190D01*
X83166666Y-91428571D01*
X83071428Y-91380952D01*
D14*
X81466600Y-92830549D02*
X81205342Y-92830549D01*
X81335971Y-92830549D02*
X81335971Y-92322549D01*
X81292428Y-92395120D01*
X81248885Y-92443501D01*
X81205342Y-92467692D01*
X81749628Y-92322549D02*
X81793171Y-92322549D01*
X81836714Y-92346740D01*
X81858485Y-92370930D01*
X81880257Y-92419311D01*
X81902028Y-92516073D01*
X81902028Y-92637025D01*
X81880257Y-92733787D01*
X81858485Y-92782168D01*
X81836714Y-92806359D01*
X81793171Y-92830549D01*
X81749628Y-92830549D01*
X81706085Y-92806359D01*
X81684314Y-92782168D01*
X81662542Y-92733787D01*
X81640771Y-92637025D01*
X81640771Y-92516073D01*
X81662542Y-92419311D01*
X81684314Y-92370930D01*
X81706085Y-92346740D01*
X81749628Y-92322549D01*
X82185057Y-92322549D02*
X82228600Y-92322549D01*
X82272142Y-92346740D01*
X82293914Y-92370930D01*
X82315685Y-92419311D01*
X82337457Y-92516073D01*
X82337457Y-92637025D01*
X82315685Y-92733787D01*
X82293914Y-92782168D01*
X82272142Y-92806359D01*
X82228600Y-92830549D01*
X82185057Y-92830549D01*
X82141514Y-92806359D01*
X82119742Y-92782168D01*
X82097971Y-92733787D01*
X82076200Y-92637025D01*
X82076200Y-92516073D01*
X82097971Y-92419311D01*
X82119742Y-92370930D01*
X82141514Y-92346740D01*
X82185057Y-92322549D01*
X82533400Y-92830549D02*
X82533400Y-92322549D01*
X82794657Y-92830549D02*
X82598714Y-92540263D01*
X82794657Y-92322549D02*
X82533400Y-92612835D01*
D11*
X68357142Y-79652380D02*
X68023809Y-79176190D01*
X67785714Y-79652380D02*
X67785714Y-78652380D01*
X68166666Y-78652380D01*
X68261904Y-78700000D01*
X68309523Y-78747619D01*
X68357142Y-78842857D01*
X68357142Y-78985714D01*
X68309523Y-79080952D01*
X68261904Y-79128571D01*
X68166666Y-79176190D01*
X67785714Y-79176190D01*
X69309523Y-79652380D02*
X68738095Y-79652380D01*
X69023809Y-79652380D02*
X69023809Y-78652380D01*
X68928571Y-78795238D01*
X68833333Y-78890476D01*
X68738095Y-78938095D01*
X69785714Y-79652380D02*
X69976190Y-79652380D01*
X70071428Y-79604761D01*
X70119047Y-79557142D01*
X70214285Y-79414285D01*
X70261904Y-79223809D01*
X70261904Y-78842857D01*
X70214285Y-78747619D01*
X70166666Y-78700000D01*
X70071428Y-78652380D01*
X69880952Y-78652380D01*
X69785714Y-78700000D01*
X69738095Y-78747619D01*
X69690476Y-78842857D01*
X69690476Y-79080952D01*
X69738095Y-79176190D01*
X69785714Y-79223809D01*
X69880952Y-79271428D01*
X70071428Y-79271428D01*
X70166666Y-79223809D01*
X70214285Y-79176190D01*
X70261904Y-79080952D01*
D14*
X68466600Y-80530549D02*
X68205342Y-80530549D01*
X68335971Y-80530549D02*
X68335971Y-80022549D01*
X68292428Y-80095120D01*
X68248885Y-80143501D01*
X68205342Y-80167692D01*
X68749628Y-80022549D02*
X68793171Y-80022549D01*
X68836714Y-80046740D01*
X68858485Y-80070930D01*
X68880257Y-80119311D01*
X68902028Y-80216073D01*
X68902028Y-80337025D01*
X68880257Y-80433787D01*
X68858485Y-80482168D01*
X68836714Y-80506359D01*
X68793171Y-80530549D01*
X68749628Y-80530549D01*
X68706085Y-80506359D01*
X68684314Y-80482168D01*
X68662542Y-80433787D01*
X68640771Y-80337025D01*
X68640771Y-80216073D01*
X68662542Y-80119311D01*
X68684314Y-80070930D01*
X68706085Y-80046740D01*
X68749628Y-80022549D01*
X69185057Y-80022549D02*
X69228600Y-80022549D01*
X69272142Y-80046740D01*
X69293914Y-80070930D01*
X69315685Y-80119311D01*
X69337457Y-80216073D01*
X69337457Y-80337025D01*
X69315685Y-80433787D01*
X69293914Y-80482168D01*
X69272142Y-80506359D01*
X69228600Y-80530549D01*
X69185057Y-80530549D01*
X69141514Y-80506359D01*
X69119742Y-80482168D01*
X69097971Y-80433787D01*
X69076200Y-80337025D01*
X69076200Y-80216073D01*
X69097971Y-80119311D01*
X69119742Y-80070930D01*
X69141514Y-80046740D01*
X69185057Y-80022549D01*
X69533400Y-80530549D02*
X69533400Y-80022549D01*
X69794657Y-80530549D02*
X69598714Y-80240263D01*
X69794657Y-80022549D02*
X69533400Y-80312835D01*
D11*
X116357142Y-96252380D02*
X116023809Y-95776190D01*
X115785714Y-96252380D02*
X115785714Y-95252380D01*
X116166666Y-95252380D01*
X116261904Y-95300000D01*
X116309523Y-95347619D01*
X116357142Y-95442857D01*
X116357142Y-95585714D01*
X116309523Y-95680952D01*
X116261904Y-95728571D01*
X116166666Y-95776190D01*
X115785714Y-95776190D01*
X116738095Y-95347619D02*
X116785714Y-95300000D01*
X116880952Y-95252380D01*
X117119047Y-95252380D01*
X117214285Y-95300000D01*
X117261904Y-95347619D01*
X117309523Y-95442857D01*
X117309523Y-95538095D01*
X117261904Y-95680952D01*
X116690476Y-96252380D01*
X117309523Y-96252380D01*
X117928571Y-95252380D02*
X118023809Y-95252380D01*
X118119047Y-95300000D01*
X118166666Y-95347619D01*
X118214285Y-95442857D01*
X118261904Y-95633333D01*
X118261904Y-95871428D01*
X118214285Y-96061904D01*
X118166666Y-96157142D01*
X118119047Y-96204761D01*
X118023809Y-96252380D01*
X117928571Y-96252380D01*
X117833333Y-96204761D01*
X117785714Y-96157142D01*
X117738095Y-96061904D01*
X117690476Y-95871428D01*
X117690476Y-95633333D01*
X117738095Y-95442857D01*
X117785714Y-95347619D01*
X117833333Y-95300000D01*
X117928571Y-95252380D01*
D14*
X116466600Y-94929069D02*
X116205342Y-94929069D01*
X116335971Y-94929069D02*
X116335971Y-94421069D01*
X116292428Y-94493640D01*
X116248885Y-94542021D01*
X116205342Y-94566212D01*
X116749628Y-94421069D02*
X116793171Y-94421069D01*
X116836714Y-94445260D01*
X116858485Y-94469450D01*
X116880257Y-94517831D01*
X116902028Y-94614593D01*
X116902028Y-94735545D01*
X116880257Y-94832307D01*
X116858485Y-94880688D01*
X116836714Y-94904879D01*
X116793171Y-94929069D01*
X116749628Y-94929069D01*
X116706085Y-94904879D01*
X116684314Y-94880688D01*
X116662542Y-94832307D01*
X116640771Y-94735545D01*
X116640771Y-94614593D01*
X116662542Y-94517831D01*
X116684314Y-94469450D01*
X116706085Y-94445260D01*
X116749628Y-94421069D01*
X117185057Y-94421069D02*
X117228600Y-94421069D01*
X117272142Y-94445260D01*
X117293914Y-94469450D01*
X117315685Y-94517831D01*
X117337457Y-94614593D01*
X117337457Y-94735545D01*
X117315685Y-94832307D01*
X117293914Y-94880688D01*
X117272142Y-94904879D01*
X117228600Y-94929069D01*
X117185057Y-94929069D01*
X117141514Y-94904879D01*
X117119742Y-94880688D01*
X117097971Y-94832307D01*
X117076200Y-94735545D01*
X117076200Y-94614593D01*
X117097971Y-94517831D01*
X117119742Y-94469450D01*
X117141514Y-94445260D01*
X117185057Y-94421069D01*
X117533400Y-94929069D02*
X117533400Y-94421069D01*
X117794657Y-94929069D02*
X117598714Y-94638783D01*
X117794657Y-94421069D02*
X117533400Y-94711355D01*
D11*
X109728095Y-84247380D02*
X109728095Y-85056904D01*
X109775714Y-85152142D01*
X109823333Y-85199761D01*
X109918571Y-85247380D01*
X110109047Y-85247380D01*
X110204285Y-85199761D01*
X110251904Y-85152142D01*
X110299523Y-85056904D01*
X110299523Y-84247380D01*
X111299523Y-85247380D02*
X110728095Y-85247380D01*
X111013809Y-85247380D02*
X111013809Y-84247380D01*
X110918571Y-84390238D01*
X110823333Y-84485476D01*
X110728095Y-84533095D01*
X136338095Y-64638380D02*
X136338095Y-65447904D01*
X136385714Y-65543142D01*
X136433333Y-65590761D01*
X136528571Y-65638380D01*
X136719047Y-65638380D01*
X136814285Y-65590761D01*
X136861904Y-65543142D01*
X136909523Y-65447904D01*
X136909523Y-64638380D01*
X137338095Y-64733619D02*
X137385714Y-64686000D01*
X137480952Y-64638380D01*
X137719047Y-64638380D01*
X137814285Y-64686000D01*
X137861904Y-64733619D01*
X137909523Y-64828857D01*
X137909523Y-64924095D01*
X137861904Y-65066952D01*
X137290476Y-65638380D01*
X137909523Y-65638380D01*
X137142380Y-82101904D02*
X137951904Y-82101904D01*
X138047142Y-82054285D01*
X138094761Y-82006666D01*
X138142380Y-81911428D01*
X138142380Y-81720952D01*
X138094761Y-81625714D01*
X138047142Y-81578095D01*
X137951904Y-81530476D01*
X137142380Y-81530476D01*
X137142380Y-81149523D02*
X137142380Y-80530476D01*
X137523333Y-80863809D01*
X137523333Y-80720952D01*
X137570952Y-80625714D01*
X137618571Y-80578095D01*
X137713809Y-80530476D01*
X137951904Y-80530476D01*
X138047142Y-80578095D01*
X138094761Y-80625714D01*
X138142380Y-80720952D01*
X138142380Y-81006666D01*
X138094761Y-81101904D01*
X138047142Y-81149523D01*
X142452380Y-82142857D02*
X142452380Y-81571428D01*
X143452380Y-81857142D02*
X142452380Y-81857142D01*
X143452380Y-81238095D02*
X142452380Y-81238095D01*
X142452380Y-80857142D01*
X142500000Y-80761904D01*
X142547619Y-80714285D01*
X142642857Y-80666666D01*
X142785714Y-80666666D01*
X142880952Y-80714285D01*
X142928571Y-80761904D01*
X142976190Y-80857142D01*
X142976190Y-81238095D01*
X143404761Y-80285714D02*
X143452380Y-80142857D01*
X143452380Y-79904761D01*
X143404761Y-79809523D01*
X143357142Y-79761904D01*
X143261904Y-79714285D01*
X143166666Y-79714285D01*
X143071428Y-79761904D01*
X143023809Y-79809523D01*
X142976190Y-79904761D01*
X142928571Y-80095238D01*
X142880952Y-80190476D01*
X142833333Y-80238095D01*
X142738095Y-80285714D01*
X142642857Y-80285714D01*
X142547619Y-80238095D01*
X142500000Y-80190476D01*
X142452380Y-80095238D01*
X142452380Y-79857142D01*
X142500000Y-79714285D01*
X142452380Y-79380952D02*
X142452380Y-78714285D01*
X143452380Y-79142857D01*
X142452380Y-78428571D02*
X142452380Y-77761904D01*
X143452380Y-78190476D01*
X142452380Y-77190476D02*
X142452380Y-77095238D01*
X142500000Y-77000000D01*
X142547619Y-76952380D01*
X142642857Y-76904761D01*
X142833333Y-76857142D01*
X143071428Y-76857142D01*
X143261904Y-76904761D01*
X143357142Y-76952380D01*
X143404761Y-77000000D01*
X143452380Y-77095238D01*
X143452380Y-77190476D01*
X143404761Y-77285714D01*
X143357142Y-77333333D01*
X143261904Y-77380952D01*
X143071428Y-77428571D01*
X142833333Y-77428571D01*
X142642857Y-77380952D01*
X142547619Y-77333333D01*
X142500000Y-77285714D01*
X142452380Y-77190476D01*
X142452380Y-76523809D02*
X142452380Y-75904761D01*
X142833333Y-76238095D01*
X142833333Y-76095238D01*
X142880952Y-76000000D01*
X142928571Y-75952380D01*
X143023809Y-75904761D01*
X143261904Y-75904761D01*
X143357142Y-75952380D01*
X143404761Y-76000000D01*
X143452380Y-76095238D01*
X143452380Y-76380952D01*
X143404761Y-76476190D01*
X143357142Y-76523809D01*
X142452380Y-75571428D02*
X142452380Y-74952380D01*
X142833333Y-75285714D01*
X142833333Y-75142857D01*
X142880952Y-75047619D01*
X142928571Y-75000000D01*
X143023809Y-74952380D01*
X143261904Y-74952380D01*
X143357142Y-75000000D01*
X143404761Y-75047619D01*
X143452380Y-75142857D01*
X143452380Y-75428571D01*
X143404761Y-75523809D01*
X143357142Y-75571428D01*
X74944761Y-75102380D02*
X74611428Y-74626190D01*
X74373333Y-75102380D02*
X74373333Y-74102380D01*
X74754285Y-74102380D01*
X74849523Y-74150000D01*
X74897142Y-74197619D01*
X74944761Y-74292857D01*
X74944761Y-74435714D01*
X74897142Y-74530952D01*
X74849523Y-74578571D01*
X74754285Y-74626190D01*
X74373333Y-74626190D01*
X75230476Y-74102380D02*
X75563809Y-75102380D01*
X75897142Y-74102380D01*
X76754285Y-75102380D02*
X76182857Y-75102380D01*
X76468571Y-75102380D02*
X76468571Y-74102380D01*
X76373333Y-74245238D01*
X76278095Y-74340476D01*
X76182857Y-74388095D01*
X119357142Y-90652380D02*
X119023809Y-90176190D01*
X118785714Y-90652380D02*
X118785714Y-89652380D01*
X119166666Y-89652380D01*
X119261904Y-89700000D01*
X119309523Y-89747619D01*
X119357142Y-89842857D01*
X119357142Y-89985714D01*
X119309523Y-90080952D01*
X119261904Y-90128571D01*
X119166666Y-90176190D01*
X118785714Y-90176190D01*
X119738095Y-89747619D02*
X119785714Y-89700000D01*
X119880952Y-89652380D01*
X120119047Y-89652380D01*
X120214285Y-89700000D01*
X120261904Y-89747619D01*
X120309523Y-89842857D01*
X120309523Y-89938095D01*
X120261904Y-90080952D01*
X119690476Y-90652380D01*
X120309523Y-90652380D01*
X121261904Y-90652380D02*
X120690476Y-90652380D01*
X120976190Y-90652380D02*
X120976190Y-89652380D01*
X120880952Y-89795238D01*
X120785714Y-89890476D01*
X120690476Y-89938095D01*
D14*
X119684314Y-91530549D02*
X119423057Y-91530549D01*
X119553685Y-91530549D02*
X119553685Y-91022549D01*
X119510142Y-91095120D01*
X119466600Y-91143501D01*
X119423057Y-91167692D01*
X119967342Y-91022549D02*
X120010885Y-91022549D01*
X120054428Y-91046740D01*
X120076200Y-91070930D01*
X120097971Y-91119311D01*
X120119742Y-91216073D01*
X120119742Y-91337025D01*
X120097971Y-91433787D01*
X120076200Y-91482168D01*
X120054428Y-91506359D01*
X120010885Y-91530549D01*
X119967342Y-91530549D01*
X119923800Y-91506359D01*
X119902028Y-91482168D01*
X119880257Y-91433787D01*
X119858485Y-91337025D01*
X119858485Y-91216073D01*
X119880257Y-91119311D01*
X119902028Y-91070930D01*
X119923800Y-91046740D01*
X119967342Y-91022549D01*
X120315685Y-91530549D02*
X120315685Y-91022549D01*
X120576942Y-91530549D02*
X120381000Y-91240263D01*
X120576942Y-91022549D02*
X120315685Y-91312835D01*
D11*
X141652380Y-67642857D02*
X141176190Y-67976190D01*
X141652380Y-68214285D02*
X140652380Y-68214285D01*
X140652380Y-67833333D01*
X140700000Y-67738095D01*
X140747619Y-67690476D01*
X140842857Y-67642857D01*
X140985714Y-67642857D01*
X141080952Y-67690476D01*
X141128571Y-67738095D01*
X141176190Y-67833333D01*
X141176190Y-68214285D01*
X140747619Y-67261904D02*
X140700000Y-67214285D01*
X140652380Y-67119047D01*
X140652380Y-66880952D01*
X140700000Y-66785714D01*
X140747619Y-66738095D01*
X140842857Y-66690476D01*
X140938095Y-66690476D01*
X141080952Y-66738095D01*
X141652380Y-67309523D01*
X141652380Y-66690476D01*
X140747619Y-66309523D02*
X140700000Y-66261904D01*
X140652380Y-66166666D01*
X140652380Y-65928571D01*
X140700000Y-65833333D01*
X140747619Y-65785714D01*
X140842857Y-65738095D01*
X140938095Y-65738095D01*
X141080952Y-65785714D01*
X141652380Y-66357142D01*
X141652380Y-65738095D01*
D14*
X142191882Y-67348342D02*
X142530549Y-67348342D01*
X141998359Y-67457200D02*
X142361216Y-67566057D01*
X142361216Y-67283028D01*
X142022549Y-67152400D02*
X142022549Y-66847600D01*
X142530549Y-67043542D01*
X142022549Y-66586342D02*
X142022549Y-66542800D01*
X142046740Y-66499257D01*
X142070930Y-66477485D01*
X142119311Y-66455714D01*
X142216073Y-66433942D01*
X142337025Y-66433942D01*
X142433787Y-66455714D01*
X142482168Y-66477485D01*
X142506359Y-66499257D01*
X142530549Y-66542800D01*
X142530549Y-66586342D01*
X142506359Y-66629885D01*
X142482168Y-66651657D01*
X142433787Y-66673428D01*
X142337025Y-66695200D01*
X142216073Y-66695200D01*
X142119311Y-66673428D01*
X142070930Y-66651657D01*
X142046740Y-66629885D01*
X142022549Y-66586342D01*
D11*
X152157142Y-66952380D02*
X151823809Y-66476190D01*
X151585714Y-66952380D02*
X151585714Y-65952380D01*
X151966666Y-65952380D01*
X152061904Y-66000000D01*
X152109523Y-66047619D01*
X152157142Y-66142857D01*
X152157142Y-66285714D01*
X152109523Y-66380952D01*
X152061904Y-66428571D01*
X151966666Y-66476190D01*
X151585714Y-66476190D01*
X152538095Y-66047619D02*
X152585714Y-66000000D01*
X152680952Y-65952380D01*
X152919047Y-65952380D01*
X153014285Y-66000000D01*
X153061904Y-66047619D01*
X153109523Y-66142857D01*
X153109523Y-66238095D01*
X153061904Y-66380952D01*
X152490476Y-66952380D01*
X153109523Y-66952380D01*
X153442857Y-65952380D02*
X154061904Y-65952380D01*
X153728571Y-66333333D01*
X153871428Y-66333333D01*
X153966666Y-66380952D01*
X154014285Y-66428571D01*
X154061904Y-66523809D01*
X154061904Y-66761904D01*
X154014285Y-66857142D01*
X153966666Y-66904761D01*
X153871428Y-66952380D01*
X153585714Y-66952380D01*
X153490476Y-66904761D01*
X153442857Y-66857142D01*
D14*
X152130628Y-72530549D02*
X151869371Y-72530549D01*
X152000000Y-72530549D02*
X152000000Y-72022549D01*
X151956457Y-72095120D01*
X151912914Y-72143501D01*
X151869371Y-72167692D01*
D11*
X125357142Y-80652380D02*
X125023809Y-80176190D01*
X124785714Y-80652380D02*
X124785714Y-79652380D01*
X125166666Y-79652380D01*
X125261904Y-79700000D01*
X125309523Y-79747619D01*
X125357142Y-79842857D01*
X125357142Y-79985714D01*
X125309523Y-80080952D01*
X125261904Y-80128571D01*
X125166666Y-80176190D01*
X124785714Y-80176190D01*
X125738095Y-79747619D02*
X125785714Y-79700000D01*
X125880952Y-79652380D01*
X126119047Y-79652380D01*
X126214285Y-79700000D01*
X126261904Y-79747619D01*
X126309523Y-79842857D01*
X126309523Y-79938095D01*
X126261904Y-80080952D01*
X125690476Y-80652380D01*
X126309523Y-80652380D01*
X127166666Y-79985714D02*
X127166666Y-80652380D01*
X126928571Y-79604761D02*
X126690476Y-80319047D01*
X127309523Y-80319047D01*
D14*
X125466600Y-81530549D02*
X125205342Y-81530549D01*
X125335971Y-81530549D02*
X125335971Y-81022549D01*
X125292428Y-81095120D01*
X125248885Y-81143501D01*
X125205342Y-81167692D01*
X125749628Y-81022549D02*
X125793171Y-81022549D01*
X125836714Y-81046740D01*
X125858485Y-81070930D01*
X125880257Y-81119311D01*
X125902028Y-81216073D01*
X125902028Y-81337025D01*
X125880257Y-81433787D01*
X125858485Y-81482168D01*
X125836714Y-81506359D01*
X125793171Y-81530549D01*
X125749628Y-81530549D01*
X125706085Y-81506359D01*
X125684314Y-81482168D01*
X125662542Y-81433787D01*
X125640771Y-81337025D01*
X125640771Y-81216073D01*
X125662542Y-81119311D01*
X125684314Y-81070930D01*
X125706085Y-81046740D01*
X125749628Y-81022549D01*
X126185057Y-81022549D02*
X126228600Y-81022549D01*
X126272142Y-81046740D01*
X126293914Y-81070930D01*
X126315685Y-81119311D01*
X126337457Y-81216073D01*
X126337457Y-81337025D01*
X126315685Y-81433787D01*
X126293914Y-81482168D01*
X126272142Y-81506359D01*
X126228600Y-81530549D01*
X126185057Y-81530549D01*
X126141514Y-81506359D01*
X126119742Y-81482168D01*
X126097971Y-81433787D01*
X126076200Y-81337025D01*
X126076200Y-81216073D01*
X126097971Y-81119311D01*
X126119742Y-81070930D01*
X126141514Y-81046740D01*
X126185057Y-81022549D01*
X126533400Y-81530549D02*
X126533400Y-81022549D01*
X126794657Y-81530549D02*
X126598714Y-81240263D01*
X126794657Y-81022549D02*
X126533400Y-81312835D01*
D11*
X125357142Y-84652380D02*
X125023809Y-84176190D01*
X124785714Y-84652380D02*
X124785714Y-83652380D01*
X125166666Y-83652380D01*
X125261904Y-83700000D01*
X125309523Y-83747619D01*
X125357142Y-83842857D01*
X125357142Y-83985714D01*
X125309523Y-84080952D01*
X125261904Y-84128571D01*
X125166666Y-84176190D01*
X124785714Y-84176190D01*
X125738095Y-83747619D02*
X125785714Y-83700000D01*
X125880952Y-83652380D01*
X126119047Y-83652380D01*
X126214285Y-83700000D01*
X126261904Y-83747619D01*
X126309523Y-83842857D01*
X126309523Y-83938095D01*
X126261904Y-84080952D01*
X125690476Y-84652380D01*
X126309523Y-84652380D01*
X127214285Y-83652380D02*
X126738095Y-83652380D01*
X126690476Y-84128571D01*
X126738095Y-84080952D01*
X126833333Y-84033333D01*
X127071428Y-84033333D01*
X127166666Y-84080952D01*
X127214285Y-84128571D01*
X127261904Y-84223809D01*
X127261904Y-84461904D01*
X127214285Y-84557142D01*
X127166666Y-84604761D01*
X127071428Y-84652380D01*
X126833333Y-84652380D01*
X126738095Y-84604761D01*
X126690476Y-84557142D01*
D14*
X125640771Y-85022549D02*
X125553685Y-85022549D01*
X125510142Y-85046740D01*
X125488371Y-85070930D01*
X125444828Y-85143501D01*
X125423057Y-85240263D01*
X125423057Y-85433787D01*
X125444828Y-85482168D01*
X125466600Y-85506359D01*
X125510142Y-85530549D01*
X125597228Y-85530549D01*
X125640771Y-85506359D01*
X125662542Y-85482168D01*
X125684314Y-85433787D01*
X125684314Y-85312835D01*
X125662542Y-85264454D01*
X125640771Y-85240263D01*
X125597228Y-85216073D01*
X125510142Y-85216073D01*
X125466600Y-85240263D01*
X125444828Y-85264454D01*
X125423057Y-85312835D01*
X125945571Y-85240263D02*
X125902028Y-85216073D01*
X125880257Y-85191882D01*
X125858485Y-85143501D01*
X125858485Y-85119311D01*
X125880257Y-85070930D01*
X125902028Y-85046740D01*
X125945571Y-85022549D01*
X126032657Y-85022549D01*
X126076200Y-85046740D01*
X126097971Y-85070930D01*
X126119742Y-85119311D01*
X126119742Y-85143501D01*
X126097971Y-85191882D01*
X126076200Y-85216073D01*
X126032657Y-85240263D01*
X125945571Y-85240263D01*
X125902028Y-85264454D01*
X125880257Y-85288644D01*
X125858485Y-85337025D01*
X125858485Y-85433787D01*
X125880257Y-85482168D01*
X125902028Y-85506359D01*
X125945571Y-85530549D01*
X126032657Y-85530549D01*
X126076200Y-85506359D01*
X126097971Y-85482168D01*
X126119742Y-85433787D01*
X126119742Y-85337025D01*
X126097971Y-85288644D01*
X126076200Y-85264454D01*
X126032657Y-85240263D01*
X126315685Y-85530549D02*
X126315685Y-85022549D01*
X126576942Y-85530549D02*
X126381000Y-85240263D01*
X126576942Y-85022549D02*
X126315685Y-85312835D01*
D11*
X147048571Y-88041904D02*
X147048571Y-87241904D01*
X147353333Y-87241904D01*
X147429523Y-87280000D01*
X147467619Y-87318095D01*
X147505714Y-87394285D01*
X147505714Y-87508571D01*
X147467619Y-87584761D01*
X147429523Y-87622857D01*
X147353333Y-87660952D01*
X147048571Y-87660952D01*
X148267619Y-88041904D02*
X147810476Y-88041904D01*
X148039047Y-88041904D02*
X148039047Y-87241904D01*
X147962857Y-87356190D01*
X147886666Y-87432380D01*
X147810476Y-87470476D01*
X148572380Y-87318095D02*
X148610476Y-87280000D01*
X148686666Y-87241904D01*
X148877142Y-87241904D01*
X148953333Y-87280000D01*
X148991428Y-87318095D01*
X149029523Y-87394285D01*
X149029523Y-87470476D01*
X148991428Y-87584761D01*
X148534285Y-88041904D01*
X149029523Y-88041904D01*
M02*
