G04 #@! TF.FileFunction,Legend,Top*
%FSLAX46Y46*%
G04 Gerber Fmt 4.6, Leading zero omitted, Abs format (unit mm)*
G04 Created by KiCad (PCBNEW 4.0.3+e1-6302~38~ubuntu16.04.1-stable) date Mon Aug 29 10:29:30 2016*
%MOMM*%
%LPD*%
G01*
G04 APERTURE LIST*
%ADD10C,0.100000*%
%ADD11C,0.150000*%
%ADD12C,0.119380*%
%ADD13C,0.127000*%
%ADD14C,0.050000*%
%ADD15C,0.114300*%
G04 APERTURE END LIST*
D10*
D11*
X61747618Y-64923810D02*
X61861904Y-64961905D01*
X62052380Y-64961905D01*
X62128570Y-64923810D01*
X62166666Y-64885714D01*
X62204761Y-64809524D01*
X62204761Y-64733333D01*
X62166666Y-64657143D01*
X62128570Y-64619048D01*
X62052380Y-64580952D01*
X61899999Y-64542857D01*
X61823808Y-64504762D01*
X61785713Y-64466667D01*
X61747618Y-64390476D01*
X61747618Y-64314286D01*
X61785713Y-64238095D01*
X61823808Y-64200000D01*
X61899999Y-64161905D01*
X62090475Y-64161905D01*
X62204761Y-64200000D01*
X62661904Y-64961905D02*
X62585713Y-64923810D01*
X62547618Y-64885714D01*
X62509523Y-64809524D01*
X62509523Y-64580952D01*
X62547618Y-64504762D01*
X62585713Y-64466667D01*
X62661904Y-64428571D01*
X62776190Y-64428571D01*
X62852380Y-64466667D01*
X62890475Y-64504762D01*
X62928571Y-64580952D01*
X62928571Y-64809524D01*
X62890475Y-64885714D01*
X62852380Y-64923810D01*
X62776190Y-64961905D01*
X62661904Y-64961905D01*
X63385714Y-64961905D02*
X63309523Y-64923810D01*
X63271428Y-64847619D01*
X63271428Y-64161905D01*
X64033333Y-64961905D02*
X64033333Y-64542857D01*
X63995238Y-64466667D01*
X63919048Y-64428571D01*
X63766667Y-64428571D01*
X63690476Y-64466667D01*
X64033333Y-64923810D02*
X63957143Y-64961905D01*
X63766667Y-64961905D01*
X63690476Y-64923810D01*
X63652381Y-64847619D01*
X63652381Y-64771429D01*
X63690476Y-64695238D01*
X63766667Y-64657143D01*
X63957143Y-64657143D01*
X64033333Y-64619048D01*
X64414286Y-64961905D02*
X64414286Y-64428571D01*
X64414286Y-64580952D02*
X64452381Y-64504762D01*
X64490477Y-64466667D01*
X64566667Y-64428571D01*
X64642858Y-64428571D01*
X65519048Y-64428571D02*
X65519048Y-65228571D01*
X65519048Y-64466667D02*
X65595239Y-64428571D01*
X65747620Y-64428571D01*
X65823810Y-64466667D01*
X65861905Y-64504762D01*
X65900001Y-64580952D01*
X65900001Y-64809524D01*
X65861905Y-64885714D01*
X65823810Y-64923810D01*
X65747620Y-64961905D01*
X65595239Y-64961905D01*
X65519048Y-64923810D01*
X66585715Y-64961905D02*
X66585715Y-64542857D01*
X66547620Y-64466667D01*
X66471430Y-64428571D01*
X66319049Y-64428571D01*
X66242858Y-64466667D01*
X66585715Y-64923810D02*
X66509525Y-64961905D01*
X66319049Y-64961905D01*
X66242858Y-64923810D01*
X66204763Y-64847619D01*
X66204763Y-64771429D01*
X66242858Y-64695238D01*
X66319049Y-64657143D01*
X66509525Y-64657143D01*
X66585715Y-64619048D01*
X66966668Y-64428571D02*
X66966668Y-64961905D01*
X66966668Y-64504762D02*
X67004763Y-64466667D01*
X67080954Y-64428571D01*
X67195240Y-64428571D01*
X67271430Y-64466667D01*
X67309525Y-64542857D01*
X67309525Y-64961905D01*
X67995240Y-64923810D02*
X67919050Y-64961905D01*
X67766669Y-64961905D01*
X67690478Y-64923810D01*
X67652383Y-64847619D01*
X67652383Y-64542857D01*
X67690478Y-64466667D01*
X67766669Y-64428571D01*
X67919050Y-64428571D01*
X67995240Y-64466667D01*
X68033335Y-64542857D01*
X68033335Y-64619048D01*
X67652383Y-64695238D01*
X68490478Y-64961905D02*
X68414287Y-64923810D01*
X68376192Y-64847619D01*
X68376192Y-64161905D01*
X72476191Y-62433333D02*
X72857143Y-62433333D01*
X72400000Y-62661905D02*
X72666667Y-61861905D01*
X72933334Y-62661905D01*
X73200000Y-62661905D02*
X73200000Y-62128571D01*
X73200000Y-61861905D02*
X73161905Y-61900000D01*
X73200000Y-61938095D01*
X73238095Y-61900000D01*
X73200000Y-61861905D01*
X73200000Y-61938095D01*
X73580952Y-62661905D02*
X73580952Y-62128571D01*
X73580952Y-62280952D02*
X73619047Y-62204762D01*
X73657143Y-62166667D01*
X73733333Y-62128571D01*
X73809524Y-62128571D01*
X74685714Y-62661905D02*
X74685714Y-61861905D01*
X74990476Y-61861905D01*
X75066667Y-61900000D01*
X75104762Y-61938095D01*
X75142857Y-62014286D01*
X75142857Y-62128571D01*
X75104762Y-62204762D01*
X75066667Y-62242857D01*
X74990476Y-62280952D01*
X74685714Y-62280952D01*
X75485714Y-62661905D02*
X75485714Y-62128571D01*
X75485714Y-62280952D02*
X75523809Y-62204762D01*
X75561905Y-62166667D01*
X75638095Y-62128571D01*
X75714286Y-62128571D01*
X76285714Y-62623810D02*
X76209524Y-62661905D01*
X76057143Y-62661905D01*
X75980952Y-62623810D01*
X75942857Y-62547619D01*
X75942857Y-62242857D01*
X75980952Y-62166667D01*
X76057143Y-62128571D01*
X76209524Y-62128571D01*
X76285714Y-62166667D01*
X76323809Y-62242857D01*
X76323809Y-62319048D01*
X75942857Y-62395238D01*
X76628571Y-62623810D02*
X76704761Y-62661905D01*
X76857142Y-62661905D01*
X76933333Y-62623810D01*
X76971428Y-62547619D01*
X76971428Y-62509524D01*
X76933333Y-62433333D01*
X76857142Y-62395238D01*
X76742857Y-62395238D01*
X76666666Y-62357143D01*
X76628571Y-62280952D01*
X76628571Y-62242857D01*
X76666666Y-62166667D01*
X76742857Y-62128571D01*
X76857142Y-62128571D01*
X76933333Y-62166667D01*
X77276190Y-62623810D02*
X77352380Y-62661905D01*
X77504761Y-62661905D01*
X77580952Y-62623810D01*
X77619047Y-62547619D01*
X77619047Y-62509524D01*
X77580952Y-62433333D01*
X77504761Y-62395238D01*
X77390476Y-62395238D01*
X77314285Y-62357143D01*
X77276190Y-62280952D01*
X77276190Y-62242857D01*
X77314285Y-62166667D01*
X77390476Y-62128571D01*
X77504761Y-62128571D01*
X77580952Y-62166667D01*
X78304761Y-62128571D02*
X78304761Y-62661905D01*
X77961904Y-62128571D02*
X77961904Y-62547619D01*
X77999999Y-62623810D01*
X78076190Y-62661905D01*
X78190476Y-62661905D01*
X78266666Y-62623810D01*
X78304761Y-62585714D01*
X78685714Y-62661905D02*
X78685714Y-62128571D01*
X78685714Y-62280952D02*
X78723809Y-62204762D01*
X78761905Y-62166667D01*
X78838095Y-62128571D01*
X78914286Y-62128571D01*
X79485714Y-62623810D02*
X79409524Y-62661905D01*
X79257143Y-62661905D01*
X79180952Y-62623810D01*
X79142857Y-62547619D01*
X79142857Y-62242857D01*
X79180952Y-62166667D01*
X79257143Y-62128571D01*
X79409524Y-62128571D01*
X79485714Y-62166667D01*
X79523809Y-62242857D01*
X79523809Y-62319048D01*
X79142857Y-62395238D01*
X155142857Y-73942857D02*
X155257143Y-73980952D01*
X155295238Y-74019048D01*
X155333333Y-74095238D01*
X155333333Y-74209524D01*
X155295238Y-74285714D01*
X155257143Y-74323810D01*
X155180952Y-74361905D01*
X154876190Y-74361905D01*
X154876190Y-73561905D01*
X155142857Y-73561905D01*
X155219047Y-73600000D01*
X155257143Y-73638095D01*
X155295238Y-73714286D01*
X155295238Y-73790476D01*
X155257143Y-73866667D01*
X155219047Y-73904762D01*
X155142857Y-73942857D01*
X154876190Y-73942857D01*
X156019047Y-74361905D02*
X156019047Y-73942857D01*
X155980952Y-73866667D01*
X155904762Y-73828571D01*
X155752381Y-73828571D01*
X155676190Y-73866667D01*
X156019047Y-74323810D02*
X155942857Y-74361905D01*
X155752381Y-74361905D01*
X155676190Y-74323810D01*
X155638095Y-74247619D01*
X155638095Y-74171429D01*
X155676190Y-74095238D01*
X155752381Y-74057143D01*
X155942857Y-74057143D01*
X156019047Y-74019048D01*
X156285714Y-73828571D02*
X156590476Y-73828571D01*
X156400000Y-73561905D02*
X156400000Y-74247619D01*
X156438095Y-74323810D01*
X156514286Y-74361905D01*
X156590476Y-74361905D01*
X156742857Y-73828571D02*
X157047619Y-73828571D01*
X156857143Y-73561905D02*
X156857143Y-74247619D01*
X156895238Y-74323810D01*
X156971429Y-74361905D01*
X157047619Y-74361905D01*
X157619048Y-74323810D02*
X157542858Y-74361905D01*
X157390477Y-74361905D01*
X157314286Y-74323810D01*
X157276191Y-74247619D01*
X157276191Y-73942857D01*
X157314286Y-73866667D01*
X157390477Y-73828571D01*
X157542858Y-73828571D01*
X157619048Y-73866667D01*
X157657143Y-73942857D01*
X157657143Y-74019048D01*
X157276191Y-74095238D01*
X158000000Y-74361905D02*
X158000000Y-73828571D01*
X158000000Y-73980952D02*
X158038095Y-73904762D01*
X158076191Y-73866667D01*
X158152381Y-73828571D01*
X158228572Y-73828571D01*
X158419048Y-73828571D02*
X158609524Y-74361905D01*
X158800000Y-73828571D02*
X158609524Y-74361905D01*
X158533333Y-74552381D01*
X158495238Y-74590476D01*
X158419048Y-74628571D01*
X70761905Y-103100001D02*
X70380952Y-103366668D01*
X70761905Y-103557144D02*
X69961905Y-103557144D01*
X69961905Y-103252382D01*
X70000000Y-103176191D01*
X70038095Y-103138096D01*
X70114286Y-103100001D01*
X70228571Y-103100001D01*
X70304762Y-103138096D01*
X70342857Y-103176191D01*
X70380952Y-103252382D01*
X70380952Y-103557144D01*
X70761905Y-102414287D02*
X70342857Y-102414287D01*
X70266667Y-102452382D01*
X70228571Y-102528572D01*
X70228571Y-102680953D01*
X70266667Y-102757144D01*
X70723810Y-102414287D02*
X70761905Y-102490477D01*
X70761905Y-102680953D01*
X70723810Y-102757144D01*
X70647619Y-102795239D01*
X70571429Y-102795239D01*
X70495238Y-102757144D01*
X70457143Y-102680953D01*
X70457143Y-102490477D01*
X70419048Y-102414287D01*
X70761905Y-102033334D02*
X70228571Y-102033334D01*
X69961905Y-102033334D02*
X70000000Y-102071429D01*
X70038095Y-102033334D01*
X70000000Y-101995239D01*
X69961905Y-102033334D01*
X70038095Y-102033334D01*
X70228571Y-101652382D02*
X70761905Y-101652382D01*
X70304762Y-101652382D02*
X70266667Y-101614287D01*
X70228571Y-101538096D01*
X70228571Y-101423810D01*
X70266667Y-101347620D01*
X70342857Y-101309525D01*
X70761905Y-101309525D01*
X70000000Y-99900000D02*
X69961905Y-99976191D01*
X69961905Y-100090476D01*
X70000000Y-100204762D01*
X70076190Y-100280953D01*
X70152381Y-100319048D01*
X70304762Y-100357143D01*
X70419048Y-100357143D01*
X70571429Y-100319048D01*
X70647619Y-100280953D01*
X70723810Y-100204762D01*
X70761905Y-100090476D01*
X70761905Y-100014286D01*
X70723810Y-99900000D01*
X70685714Y-99861905D01*
X70419048Y-99861905D01*
X70419048Y-100014286D01*
X70761905Y-99176191D02*
X70342857Y-99176191D01*
X70266667Y-99214286D01*
X70228571Y-99290476D01*
X70228571Y-99442857D01*
X70266667Y-99519048D01*
X70723810Y-99176191D02*
X70761905Y-99252381D01*
X70761905Y-99442857D01*
X70723810Y-99519048D01*
X70647619Y-99557143D01*
X70571429Y-99557143D01*
X70495238Y-99519048D01*
X70457143Y-99442857D01*
X70457143Y-99252381D01*
X70419048Y-99176191D01*
X70228571Y-98452381D02*
X70761905Y-98452381D01*
X70228571Y-98795238D02*
X70647619Y-98795238D01*
X70723810Y-98757143D01*
X70761905Y-98680952D01*
X70761905Y-98566666D01*
X70723810Y-98490476D01*
X70685714Y-98452381D01*
X70228571Y-97728571D02*
X70876190Y-97728571D01*
X70952381Y-97766666D01*
X70990476Y-97804761D01*
X71028571Y-97880952D01*
X71028571Y-97995237D01*
X70990476Y-98071428D01*
X70723810Y-97728571D02*
X70761905Y-97804761D01*
X70761905Y-97957142D01*
X70723810Y-98033333D01*
X70685714Y-98071428D01*
X70609524Y-98109523D01*
X70380952Y-98109523D01*
X70304762Y-98071428D01*
X70266667Y-98033333D01*
X70228571Y-97957142D01*
X70228571Y-97804761D01*
X70266667Y-97728571D01*
X70723810Y-97042856D02*
X70761905Y-97119046D01*
X70761905Y-97271427D01*
X70723810Y-97347618D01*
X70647619Y-97385713D01*
X70342857Y-97385713D01*
X70266667Y-97347618D01*
X70228571Y-97271427D01*
X70228571Y-97119046D01*
X70266667Y-97042856D01*
X70342857Y-97004761D01*
X70419048Y-97004761D01*
X70495238Y-97385713D01*
X66861905Y-95476191D02*
X66861905Y-95019048D01*
X67661905Y-95247619D02*
X66861905Y-95247619D01*
X67623810Y-94447619D02*
X67661905Y-94523809D01*
X67661905Y-94676190D01*
X67623810Y-94752381D01*
X67547619Y-94790476D01*
X67242857Y-94790476D01*
X67166667Y-94752381D01*
X67128571Y-94676190D01*
X67128571Y-94523809D01*
X67166667Y-94447619D01*
X67242857Y-94409524D01*
X67319048Y-94409524D01*
X67395238Y-94790476D01*
X67661905Y-94066667D02*
X67128571Y-94066667D01*
X67204762Y-94066667D02*
X67166667Y-94028572D01*
X67128571Y-93952381D01*
X67128571Y-93838095D01*
X67166667Y-93761905D01*
X67242857Y-93723810D01*
X67661905Y-93723810D01*
X67242857Y-93723810D02*
X67166667Y-93685714D01*
X67128571Y-93609524D01*
X67128571Y-93495238D01*
X67166667Y-93419048D01*
X67242857Y-93380953D01*
X67661905Y-93380953D01*
X67128571Y-93000000D02*
X67928571Y-93000000D01*
X67166667Y-93000000D02*
X67128571Y-92923809D01*
X67128571Y-92771428D01*
X67166667Y-92695238D01*
X67204762Y-92657143D01*
X67280952Y-92619047D01*
X67509524Y-92619047D01*
X67585714Y-92657143D01*
X67623810Y-92695238D01*
X67661905Y-92771428D01*
X67661905Y-92923809D01*
X67623810Y-93000000D01*
X66823810Y-91704761D02*
X67852381Y-92390476D01*
X67661905Y-91438095D02*
X66861905Y-91438095D01*
X67242857Y-91438095D02*
X67242857Y-90980952D01*
X67661905Y-90980952D02*
X66861905Y-90980952D01*
X67128571Y-90257143D02*
X67661905Y-90257143D01*
X67128571Y-90600000D02*
X67547619Y-90600000D01*
X67623810Y-90561905D01*
X67661905Y-90485714D01*
X67661905Y-90371428D01*
X67623810Y-90295238D01*
X67585714Y-90257143D01*
X67661905Y-89876190D02*
X67128571Y-89876190D01*
X67204762Y-89876190D02*
X67166667Y-89838095D01*
X67128571Y-89761904D01*
X67128571Y-89647618D01*
X67166667Y-89571428D01*
X67242857Y-89533333D01*
X67661905Y-89533333D01*
X67242857Y-89533333D02*
X67166667Y-89495237D01*
X67128571Y-89419047D01*
X67128571Y-89304761D01*
X67166667Y-89228571D01*
X67242857Y-89190476D01*
X67661905Y-89190476D01*
X67661905Y-88809523D02*
X67128571Y-88809523D01*
X66861905Y-88809523D02*
X66900000Y-88847618D01*
X66938095Y-88809523D01*
X66900000Y-88771428D01*
X66861905Y-88809523D01*
X66938095Y-88809523D01*
X67661905Y-88085714D02*
X66861905Y-88085714D01*
X67623810Y-88085714D02*
X67661905Y-88161904D01*
X67661905Y-88314285D01*
X67623810Y-88390476D01*
X67585714Y-88428571D01*
X67509524Y-88466666D01*
X67280952Y-88466666D01*
X67204762Y-88428571D01*
X67166667Y-88390476D01*
X67128571Y-88314285D01*
X67128571Y-88161904D01*
X67166667Y-88085714D01*
X67661905Y-87704761D02*
X67128571Y-87704761D01*
X66861905Y-87704761D02*
X66900000Y-87742856D01*
X66938095Y-87704761D01*
X66900000Y-87666666D01*
X66861905Y-87704761D01*
X66938095Y-87704761D01*
X67128571Y-87438095D02*
X67128571Y-87133333D01*
X66861905Y-87323809D02*
X67547619Y-87323809D01*
X67623810Y-87285714D01*
X67661905Y-87209523D01*
X67661905Y-87133333D01*
X67128571Y-86942856D02*
X67661905Y-86752380D01*
X67128571Y-86561904D02*
X67661905Y-86752380D01*
X67852381Y-86828571D01*
X67890476Y-86866666D01*
X67928571Y-86942856D01*
X60947619Y-84361905D02*
X61138095Y-85161905D01*
X61290476Y-84590476D01*
X61442857Y-85161905D01*
X61633333Y-84361905D01*
X61938095Y-85161905D02*
X61938095Y-84628571D01*
X61938095Y-84361905D02*
X61900000Y-84400000D01*
X61938095Y-84438095D01*
X61976190Y-84400000D01*
X61938095Y-84361905D01*
X61938095Y-84438095D01*
X62319047Y-84628571D02*
X62319047Y-85161905D01*
X62319047Y-84704762D02*
X62357142Y-84666667D01*
X62433333Y-84628571D01*
X62547619Y-84628571D01*
X62623809Y-84666667D01*
X62661904Y-84742857D01*
X62661904Y-85161905D01*
X63385714Y-85161905D02*
X63385714Y-84361905D01*
X63385714Y-85123810D02*
X63309524Y-85161905D01*
X63157143Y-85161905D01*
X63080952Y-85123810D01*
X63042857Y-85085714D01*
X63004762Y-85009524D01*
X63004762Y-84780952D01*
X63042857Y-84704762D01*
X63080952Y-84666667D01*
X63157143Y-84628571D01*
X63309524Y-84628571D01*
X63385714Y-84666667D01*
X64338096Y-85123810D02*
X64452382Y-85161905D01*
X64642858Y-85161905D01*
X64719048Y-85123810D01*
X64757144Y-85085714D01*
X64795239Y-85009524D01*
X64795239Y-84933333D01*
X64757144Y-84857143D01*
X64719048Y-84819048D01*
X64642858Y-84780952D01*
X64490477Y-84742857D01*
X64414286Y-84704762D01*
X64376191Y-84666667D01*
X64338096Y-84590476D01*
X64338096Y-84514286D01*
X64376191Y-84438095D01*
X64414286Y-84400000D01*
X64490477Y-84361905D01*
X64680953Y-84361905D01*
X64795239Y-84400000D01*
X65138096Y-84628571D02*
X65138096Y-85428571D01*
X65138096Y-84666667D02*
X65214287Y-84628571D01*
X65366668Y-84628571D01*
X65442858Y-84666667D01*
X65480953Y-84704762D01*
X65519049Y-84780952D01*
X65519049Y-85009524D01*
X65480953Y-85085714D01*
X65442858Y-85123810D01*
X65366668Y-85161905D01*
X65214287Y-85161905D01*
X65138096Y-85123810D01*
X66166668Y-85123810D02*
X66090478Y-85161905D01*
X65938097Y-85161905D01*
X65861906Y-85123810D01*
X65823811Y-85047619D01*
X65823811Y-84742857D01*
X65861906Y-84666667D01*
X65938097Y-84628571D01*
X66090478Y-84628571D01*
X66166668Y-84666667D01*
X66204763Y-84742857D01*
X66204763Y-84819048D01*
X65823811Y-84895238D01*
X66852382Y-85123810D02*
X66776192Y-85161905D01*
X66623811Y-85161905D01*
X66547620Y-85123810D01*
X66509525Y-85047619D01*
X66509525Y-84742857D01*
X66547620Y-84666667D01*
X66623811Y-84628571D01*
X66776192Y-84628571D01*
X66852382Y-84666667D01*
X66890477Y-84742857D01*
X66890477Y-84819048D01*
X66509525Y-84895238D01*
X67576191Y-85161905D02*
X67576191Y-84361905D01*
X67576191Y-85123810D02*
X67500001Y-85161905D01*
X67347620Y-85161905D01*
X67271429Y-85123810D01*
X67233334Y-85085714D01*
X67195239Y-85009524D01*
X67195239Y-84780952D01*
X67233334Y-84704762D01*
X67271429Y-84666667D01*
X67347620Y-84628571D01*
X67500001Y-84628571D01*
X67576191Y-84666667D01*
D12*
X80349760Y-71300380D02*
X80349760Y-71998880D01*
X80349760Y-70299620D02*
X80349760Y-69601120D01*
X81650240Y-71300380D02*
X81650240Y-71998880D01*
X81650240Y-69601120D02*
X81650240Y-70299620D01*
X81635000Y-71998880D02*
X80365000Y-71998880D01*
X80365000Y-69601120D02*
X81635000Y-69601120D01*
D13*
X78543000Y-69160000D02*
X78543000Y-68906000D01*
X78543000Y-68906000D02*
X76257000Y-68906000D01*
X76257000Y-68906000D02*
X76257000Y-69160000D01*
X78543000Y-69160000D02*
X76257000Y-69160000D01*
X76257000Y-69160000D02*
X76257000Y-70811000D01*
X78543000Y-72589000D02*
X78543000Y-74240000D01*
X78543000Y-74240000D02*
X76257000Y-74240000D01*
X76257000Y-74240000D02*
X76257000Y-72589000D01*
X78543000Y-70811000D02*
X78543000Y-69160000D01*
X148857000Y-70540000D02*
X148857000Y-70794000D01*
X148857000Y-70794000D02*
X151143000Y-70794000D01*
X151143000Y-70794000D02*
X151143000Y-70540000D01*
X148857000Y-70540000D02*
X151143000Y-70540000D01*
X151143000Y-70540000D02*
X151143000Y-68889000D01*
X148857000Y-67111000D02*
X148857000Y-65460000D01*
X148857000Y-65460000D02*
X151143000Y-65460000D01*
X151143000Y-65460000D02*
X151143000Y-67111000D01*
X148857000Y-68889000D02*
X148857000Y-70540000D01*
X131457000Y-83840000D02*
X131457000Y-84094000D01*
X131457000Y-84094000D02*
X133743000Y-84094000D01*
X133743000Y-84094000D02*
X133743000Y-83840000D01*
X131457000Y-83840000D02*
X133743000Y-83840000D01*
X133743000Y-83840000D02*
X133743000Y-82189000D01*
X131457000Y-80411000D02*
X131457000Y-78760000D01*
X131457000Y-78760000D02*
X133743000Y-78760000D01*
X133743000Y-78760000D02*
X133743000Y-80411000D01*
X131457000Y-82189000D02*
X131457000Y-83840000D01*
D11*
X60099500Y-65799120D02*
X60099500Y-74800880D01*
X56599380Y-65799120D02*
X56599380Y-74800880D01*
X56599380Y-74800880D02*
X71100240Y-74800880D01*
X71100240Y-74800880D02*
X71100240Y-65799120D01*
X71100240Y-65799120D02*
X56599380Y-65799120D01*
X143682500Y-71000000D02*
X143301500Y-71000000D01*
X144698500Y-71000000D02*
X144317500Y-71000000D01*
X144317500Y-71000000D02*
X143682500Y-71381000D01*
X143682500Y-71381000D02*
X143682500Y-70619000D01*
X143682500Y-70619000D02*
X144317500Y-71000000D01*
X144317500Y-71508000D02*
X144317500Y-70492000D01*
X146000000Y-70100000D02*
X142460000Y-70100000D01*
X146000000Y-71900000D02*
X142460000Y-71900000D01*
X149600000Y-74400000D02*
X149600000Y-72850000D01*
X148400000Y-74400000D02*
X148400000Y-72850000D01*
X78775000Y-87190000D02*
X72425000Y-87190000D01*
X78775000Y-94810000D02*
X72425000Y-94810000D01*
X76870000Y-94810000D02*
X76870000Y-87190000D01*
X78775000Y-87190000D02*
X78775000Y-94810000D01*
X72425000Y-94810000D02*
X72425000Y-87190000D01*
X87630000Y-100330000D02*
X148590000Y-100330000D01*
X148590000Y-100330000D02*
X148590000Y-97790000D01*
X148590000Y-97790000D02*
X87630000Y-97790000D01*
X84810000Y-97510000D02*
X86360000Y-97510000D01*
X87630000Y-97790000D02*
X87630000Y-100330000D01*
X86360000Y-100610000D02*
X84810000Y-100610000D01*
X84810000Y-100610000D02*
X84810000Y-97510000D01*
X146050000Y-59690000D02*
X85090000Y-59690000D01*
X85090000Y-59690000D02*
X85090000Y-62230000D01*
X85090000Y-62230000D02*
X146050000Y-62230000D01*
X148870000Y-62510000D02*
X147320000Y-62510000D01*
X146050000Y-62230000D02*
X146050000Y-59690000D01*
X147320000Y-59410000D02*
X148870000Y-59410000D01*
X148870000Y-59410000D02*
X148870000Y-62510000D01*
X76540000Y-100730000D02*
X71460000Y-100730000D01*
X76540000Y-105175000D02*
X71460000Y-105175000D01*
X71460000Y-98825000D02*
X76540000Y-98825000D01*
X71460000Y-98825000D02*
X71460000Y-105175000D01*
X76540000Y-98825000D02*
X76540000Y-105175000D01*
X66175000Y-86190000D02*
X59825000Y-86190000D01*
X66175000Y-93810000D02*
X59825000Y-93810000D01*
X64270000Y-93810000D02*
X64270000Y-86190000D01*
X66175000Y-86190000D02*
X66175000Y-93810000D01*
X59825000Y-93810000D02*
X59825000Y-86190000D01*
X64470000Y-83540000D02*
X64470000Y-78460000D01*
X60025000Y-83540000D02*
X60025000Y-78460000D01*
X66375000Y-78460000D02*
X66375000Y-83540000D01*
X66375000Y-78460000D02*
X60025000Y-78460000D01*
X66375000Y-83540000D02*
X60025000Y-83540000D01*
X81080000Y-54825000D02*
X70920000Y-54825000D01*
X81080000Y-59270000D02*
X70920000Y-59270000D01*
X81080000Y-61175000D02*
X70920000Y-61175000D01*
X81080000Y-61175000D02*
X81080000Y-54825000D01*
X70920000Y-61175000D02*
X70920000Y-54825000D01*
X155730000Y-67460000D02*
X155730000Y-72540000D01*
X160175000Y-67460000D02*
X160175000Y-72540000D01*
X153825000Y-72540000D02*
X153825000Y-67460000D01*
X153825000Y-72540000D02*
X160175000Y-72540000D01*
X153825000Y-67460000D02*
X160175000Y-67460000D01*
D13*
X94524000Y-72481000D02*
X91476000Y-72481000D01*
X91476000Y-72481000D02*
X91476000Y-71719000D01*
X91476000Y-71719000D02*
X94524000Y-71719000D01*
X94524000Y-71719000D02*
X94524000Y-72481000D01*
X99724000Y-67681000D02*
X96676000Y-67681000D01*
X96676000Y-67681000D02*
X96676000Y-66919000D01*
X96676000Y-66919000D02*
X99724000Y-66919000D01*
X99724000Y-66919000D02*
X99724000Y-67681000D01*
X99724000Y-72481000D02*
X96676000Y-72481000D01*
X96676000Y-72481000D02*
X96676000Y-71719000D01*
X96676000Y-71719000D02*
X99724000Y-71719000D01*
X99724000Y-71719000D02*
X99724000Y-72481000D01*
D11*
X103103000Y-69324000D02*
X103103000Y-66149000D01*
X103103000Y-66149000D02*
X101325000Y-66149000D01*
X101325000Y-66149000D02*
X101325000Y-69324000D01*
X107675000Y-69324000D02*
X107675000Y-66149000D01*
X107675000Y-66149000D02*
X105897000Y-66149000D01*
X105897000Y-66149000D02*
X105897000Y-69324000D01*
X101071000Y-75420000D02*
X101071000Y-69324000D01*
X101071000Y-69324000D02*
X107929000Y-69324000D01*
X107929000Y-69324000D02*
X107929000Y-77198000D01*
X107929000Y-77325000D02*
X101071000Y-77325000D01*
X101071000Y-77198000D02*
X101071000Y-75420000D01*
D13*
X116524000Y-72481000D02*
X113476000Y-72481000D01*
X113476000Y-72481000D02*
X113476000Y-71719000D01*
X113476000Y-71719000D02*
X116524000Y-71719000D01*
X116524000Y-71719000D02*
X116524000Y-72481000D01*
X112224000Y-72481000D02*
X109176000Y-72481000D01*
X109176000Y-72481000D02*
X109176000Y-71719000D01*
X109176000Y-71719000D02*
X112224000Y-71719000D01*
X112224000Y-71719000D02*
X112224000Y-72481000D01*
X121824000Y-67881000D02*
X118776000Y-67881000D01*
X118776000Y-67881000D02*
X118776000Y-67119000D01*
X118776000Y-67119000D02*
X121824000Y-67119000D01*
X121824000Y-67119000D02*
X121824000Y-67881000D01*
X121724000Y-72281000D02*
X118676000Y-72281000D01*
X118676000Y-72281000D02*
X118676000Y-71519000D01*
X118676000Y-71519000D02*
X121724000Y-71519000D01*
X121724000Y-71519000D02*
X121724000Y-72281000D01*
D11*
X126003000Y-69224000D02*
X126003000Y-66049000D01*
X126003000Y-66049000D02*
X124225000Y-66049000D01*
X124225000Y-66049000D02*
X124225000Y-69224000D01*
X130575000Y-69224000D02*
X130575000Y-66049000D01*
X130575000Y-66049000D02*
X128797000Y-66049000D01*
X128797000Y-66049000D02*
X128797000Y-69224000D01*
X123971000Y-75320000D02*
X123971000Y-69224000D01*
X123971000Y-69224000D02*
X130829000Y-69224000D01*
X130829000Y-69224000D02*
X130829000Y-77098000D01*
X130829000Y-77225000D02*
X123971000Y-77225000D01*
X123971000Y-77098000D02*
X123971000Y-75320000D01*
D13*
X97399620Y-75101500D02*
X96693500Y-75101500D01*
X96693500Y-75101500D02*
X96693500Y-76498500D01*
X96693500Y-76498500D02*
X97399620Y-76498500D01*
X99106500Y-75101500D02*
X98400380Y-75101500D01*
X99106500Y-75101500D02*
X99106500Y-76498500D01*
X99106500Y-76498500D02*
X98400380Y-76498500D01*
X115400380Y-79598500D02*
X116106500Y-79598500D01*
X116106500Y-79598500D02*
X116106500Y-78201500D01*
X116106500Y-78201500D02*
X115400380Y-78201500D01*
X113693500Y-79598500D02*
X114399620Y-79598500D01*
X113693500Y-79598500D02*
X113693500Y-78201500D01*
X113693500Y-78201500D02*
X114399620Y-78201500D01*
X105398500Y-86399620D02*
X105398500Y-85693500D01*
X105398500Y-85693500D02*
X104001500Y-85693500D01*
X104001500Y-85693500D02*
X104001500Y-86399620D01*
X105398500Y-88106500D02*
X105398500Y-87400380D01*
X105398500Y-88106500D02*
X104001500Y-88106500D01*
X104001500Y-88106500D02*
X104001500Y-87400380D01*
X101201500Y-87400380D02*
X101201500Y-88106500D01*
X101201500Y-88106500D02*
X102598500Y-88106500D01*
X102598500Y-88106500D02*
X102598500Y-87400380D01*
X101201500Y-85693500D02*
X101201500Y-86399620D01*
X101201500Y-85693500D02*
X102598500Y-85693500D01*
X102598500Y-85693500D02*
X102598500Y-86399620D01*
X92399620Y-75101500D02*
X91693500Y-75101500D01*
X91693500Y-75101500D02*
X91693500Y-76498500D01*
X91693500Y-76498500D02*
X92399620Y-76498500D01*
X94106500Y-75101500D02*
X93400380Y-75101500D01*
X94106500Y-75101500D02*
X94106500Y-76498500D01*
X94106500Y-76498500D02*
X93400380Y-76498500D01*
X114399620Y-75601500D02*
X113693500Y-75601500D01*
X113693500Y-75601500D02*
X113693500Y-76998500D01*
X113693500Y-76998500D02*
X114399620Y-76998500D01*
X116106500Y-75601500D02*
X115400380Y-75601500D01*
X116106500Y-75601500D02*
X116106500Y-76998500D01*
X116106500Y-76998500D02*
X115400380Y-76998500D01*
X105100380Y-80498500D02*
X105806500Y-80498500D01*
X105806500Y-80498500D02*
X105806500Y-79101500D01*
X105806500Y-79101500D02*
X105100380Y-79101500D01*
X103393500Y-80498500D02*
X104099620Y-80498500D01*
X103393500Y-80498500D02*
X103393500Y-79101500D01*
X103393500Y-79101500D02*
X104099620Y-79101500D01*
X93698500Y-66599620D02*
X93698500Y-65893500D01*
X93698500Y-65893500D02*
X92301500Y-65893500D01*
X92301500Y-65893500D02*
X92301500Y-66599620D01*
X93698500Y-68306500D02*
X93698500Y-67600380D01*
X93698500Y-68306500D02*
X92301500Y-68306500D01*
X92301500Y-68306500D02*
X92301500Y-67600380D01*
X110899620Y-81901500D02*
X110193500Y-81901500D01*
X110193500Y-81901500D02*
X110193500Y-83298500D01*
X110193500Y-83298500D02*
X110899620Y-83298500D01*
X112606500Y-81901500D02*
X111900380Y-81901500D01*
X112606500Y-81901500D02*
X112606500Y-83298500D01*
X112606500Y-83298500D02*
X111900380Y-83298500D01*
X139499620Y-82801500D02*
X138793500Y-82801500D01*
X138793500Y-82801500D02*
X138793500Y-84198500D01*
X138793500Y-84198500D02*
X139499620Y-84198500D01*
X141206500Y-82801500D02*
X140500380Y-82801500D01*
X141206500Y-82801500D02*
X141206500Y-84198500D01*
X141206500Y-84198500D02*
X140500380Y-84198500D01*
X139499620Y-86801500D02*
X138793500Y-86801500D01*
X138793500Y-86801500D02*
X138793500Y-88198500D01*
X138793500Y-88198500D02*
X139499620Y-88198500D01*
X141206500Y-86801500D02*
X140500380Y-86801500D01*
X141206500Y-86801500D02*
X141206500Y-88198500D01*
X141206500Y-88198500D02*
X140500380Y-88198500D01*
X139499620Y-88801500D02*
X138793500Y-88801500D01*
X138793500Y-88801500D02*
X138793500Y-90198500D01*
X138793500Y-90198500D02*
X139499620Y-90198500D01*
X141206500Y-88801500D02*
X140500380Y-88801500D01*
X141206500Y-88801500D02*
X141206500Y-90198500D01*
X141206500Y-90198500D02*
X140500380Y-90198500D01*
X139499620Y-84801500D02*
X138793500Y-84801500D01*
X138793500Y-84801500D02*
X138793500Y-86198500D01*
X138793500Y-86198500D02*
X139499620Y-86198500D01*
X141206500Y-84801500D02*
X140500380Y-84801500D01*
X141206500Y-84801500D02*
X141206500Y-86198500D01*
X141206500Y-86198500D02*
X140500380Y-86198500D01*
X139499620Y-90801500D02*
X138793500Y-90801500D01*
X138793500Y-90801500D02*
X138793500Y-92198500D01*
X138793500Y-92198500D02*
X139499620Y-92198500D01*
X141206500Y-90801500D02*
X140500380Y-90801500D01*
X141206500Y-90801500D02*
X141206500Y-92198500D01*
X141206500Y-92198500D02*
X140500380Y-92198500D01*
X79198500Y-97499620D02*
X79198500Y-96793500D01*
X79198500Y-96793500D02*
X77801500Y-96793500D01*
X77801500Y-96793500D02*
X77801500Y-97499620D01*
X79198500Y-99206500D02*
X79198500Y-98500380D01*
X79198500Y-99206500D02*
X77801500Y-99206500D01*
X77801500Y-99206500D02*
X77801500Y-98500380D01*
X111698500Y-66499620D02*
X111698500Y-65793500D01*
X111698500Y-65793500D02*
X110301500Y-65793500D01*
X110301500Y-65793500D02*
X110301500Y-66499620D01*
X111698500Y-68206500D02*
X111698500Y-67500380D01*
X111698500Y-68206500D02*
X110301500Y-68206500D01*
X110301500Y-68206500D02*
X110301500Y-67500380D01*
X115500380Y-68698500D02*
X116206500Y-68698500D01*
X116206500Y-68698500D02*
X116206500Y-67301500D01*
X116206500Y-67301500D02*
X115500380Y-67301500D01*
X113793500Y-68698500D02*
X114499620Y-68698500D01*
X113793500Y-68698500D02*
X113793500Y-67301500D01*
X113793500Y-67301500D02*
X114499620Y-67301500D01*
X82698500Y-93799620D02*
X82698500Y-93093500D01*
X82698500Y-93093500D02*
X81301500Y-93093500D01*
X81301500Y-93093500D02*
X81301500Y-93799620D01*
X82698500Y-95506500D02*
X82698500Y-94800380D01*
X82698500Y-95506500D02*
X81301500Y-95506500D01*
X81301500Y-95506500D02*
X81301500Y-94800380D01*
X69698500Y-81499620D02*
X69698500Y-80793500D01*
X69698500Y-80793500D02*
X68301500Y-80793500D01*
X68301500Y-80793500D02*
X68301500Y-81499620D01*
X69698500Y-83206500D02*
X69698500Y-82500380D01*
X69698500Y-83206500D02*
X68301500Y-83206500D01*
X68301500Y-83206500D02*
X68301500Y-82500380D01*
X116301500Y-93500380D02*
X116301500Y-94206500D01*
X116301500Y-94206500D02*
X117698500Y-94206500D01*
X117698500Y-94206500D02*
X117698500Y-93500380D01*
X116301500Y-91793500D02*
X116301500Y-92499620D01*
X116301500Y-91793500D02*
X117698500Y-91793500D01*
X117698500Y-91793500D02*
X117698500Y-92499620D01*
D11*
X138497000Y-74076000D02*
X138497000Y-77251000D01*
X138497000Y-77251000D02*
X140275000Y-77251000D01*
X140275000Y-77251000D02*
X140275000Y-74076000D01*
X133925000Y-74076000D02*
X133925000Y-77251000D01*
X133925000Y-77251000D02*
X135703000Y-77251000D01*
X135703000Y-77251000D02*
X135703000Y-74076000D01*
X140529000Y-67980000D02*
X140529000Y-74076000D01*
X140529000Y-74076000D02*
X133671000Y-74076000D01*
X133671000Y-74076000D02*
X133671000Y-66202000D01*
X133671000Y-66075000D02*
X140529000Y-66075000D01*
X140529000Y-66202000D02*
X140529000Y-67980000D01*
D13*
X138476000Y-80889000D02*
X138476000Y-79111000D01*
X138476000Y-79111000D02*
X141524000Y-79111000D01*
X141524000Y-79111000D02*
X141524000Y-80889000D01*
X141524000Y-80889000D02*
X138476000Y-80889000D01*
D11*
X78334000Y-83667000D02*
X77953000Y-83286000D01*
X78969000Y-82778000D02*
X78588000Y-82524000D01*
X72238000Y-82778000D02*
X72619000Y-82524000D01*
X72873000Y-83667000D02*
X73127000Y-83413000D01*
X76048000Y-77698000D02*
X76048000Y-77317000D01*
X75159000Y-77698000D02*
X75159000Y-77317000D01*
X78842000Y-81000000D02*
G75*
G03X78842000Y-81000000I-3302000J0D01*
G01*
X79350000Y-81000000D02*
G75*
G03X79350000Y-81000000I-3810000J0D01*
G01*
D13*
X120698500Y-92499620D02*
X120698500Y-91793500D01*
X120698500Y-91793500D02*
X119301500Y-91793500D01*
X119301500Y-91793500D02*
X119301500Y-92499620D01*
X120698500Y-94206500D02*
X120698500Y-93500380D01*
X120698500Y-94206500D02*
X119301500Y-94206500D01*
X119301500Y-94206500D02*
X119301500Y-93500380D01*
X143499620Y-66301500D02*
X142793500Y-66301500D01*
X142793500Y-66301500D02*
X142793500Y-67698500D01*
X142793500Y-67698500D02*
X143499620Y-67698500D01*
X145206500Y-66301500D02*
X144500380Y-66301500D01*
X145206500Y-66301500D02*
X145206500Y-67698500D01*
X145206500Y-67698500D02*
X144500380Y-67698500D01*
X152698500Y-73499620D02*
X152698500Y-72793500D01*
X152698500Y-72793500D02*
X151301500Y-72793500D01*
X151301500Y-72793500D02*
X151301500Y-73499620D01*
X152698500Y-75206500D02*
X152698500Y-74500380D01*
X152698500Y-75206500D02*
X151301500Y-75206500D01*
X151301500Y-75206500D02*
X151301500Y-74500380D01*
X126698500Y-82499620D02*
X126698500Y-81793500D01*
X126698500Y-81793500D02*
X125301500Y-81793500D01*
X125301500Y-81793500D02*
X125301500Y-82499620D01*
X126698500Y-84206500D02*
X126698500Y-83500380D01*
X126698500Y-84206500D02*
X125301500Y-84206500D01*
X125301500Y-84206500D02*
X125301500Y-83500380D01*
X126698500Y-86499620D02*
X126698500Y-85793500D01*
X126698500Y-85793500D02*
X125301500Y-85793500D01*
X125301500Y-85793500D02*
X125301500Y-86499620D01*
X126698500Y-88206500D02*
X126698500Y-87500380D01*
X126698500Y-88206500D02*
X125301500Y-88206500D01*
X125301500Y-88206500D02*
X125301500Y-87500380D01*
D11*
X121000000Y-76600000D02*
X122800000Y-76600000D01*
X122800000Y-76600000D02*
X122800000Y-78400000D01*
X122800000Y-78400000D02*
X121000000Y-78400000D01*
X121000000Y-78400000D02*
X121000000Y-76600000D01*
X116900000Y-81000000D02*
X118700000Y-81000000D01*
X118700000Y-81000000D02*
X118700000Y-82800000D01*
X118700000Y-82800000D02*
X116900000Y-82800000D01*
X116900000Y-82800000D02*
X116900000Y-81000000D01*
X81300000Y-87200000D02*
X83100000Y-87200000D01*
X83100000Y-87200000D02*
X83100000Y-89000000D01*
X83100000Y-89000000D02*
X81300000Y-89000000D01*
X81300000Y-89000000D02*
X81300000Y-87200000D01*
X123000000Y-94000000D02*
X124800000Y-94000000D01*
X124800000Y-94000000D02*
X124800000Y-95800000D01*
X124800000Y-95800000D02*
X123000000Y-95800000D01*
X123000000Y-95800000D02*
X123000000Y-94000000D01*
X150300000Y-91700000D02*
X152100000Y-91700000D01*
X152100000Y-91700000D02*
X152100000Y-93500000D01*
X152100000Y-93500000D02*
X150300000Y-93500000D01*
X150300000Y-93500000D02*
X150300000Y-91700000D01*
X112776000Y-95250000D02*
X107950000Y-95250000D01*
X107950000Y-95250000D02*
X107950000Y-85090000D01*
X107950000Y-85090000D02*
X112776000Y-85090000D01*
X112776000Y-85090000D02*
X112776000Y-95250000D01*
X110998000Y-85090000D02*
X110998000Y-85725000D01*
X110998000Y-85725000D02*
X109728000Y-85725000D01*
X109728000Y-85725000D02*
X109728000Y-85090000D01*
D10*
X147800000Y-86450000D02*
X147800000Y-82000000D01*
X153700000Y-80900000D02*
X151900000Y-80900000D01*
X153700000Y-89400000D02*
X153700000Y-80900000D01*
X153700000Y-89400000D02*
X151900000Y-89400000D01*
X151900000Y-89400000D02*
X151900000Y-80900000D01*
X149600000Y-82000000D02*
X147800000Y-82000000D01*
X149600000Y-86450000D02*
X147800000Y-86450000D01*
X149600000Y-86450000D02*
X149600000Y-82000000D01*
D14*
X159250000Y-90500000D02*
X159250000Y-78500000D01*
X147800000Y-90500000D02*
X147800000Y-78500000D01*
X147800000Y-78500000D02*
X159250000Y-78500000D01*
X147800000Y-90500000D02*
X159250000Y-90500000D01*
D13*
X139499620Y-93801500D02*
X138793500Y-93801500D01*
X138793500Y-93801500D02*
X138793500Y-95198500D01*
X138793500Y-95198500D02*
X139499620Y-95198500D01*
X141206500Y-93801500D02*
X140500380Y-93801500D01*
X141206500Y-93801500D02*
X141206500Y-95198500D01*
X141206500Y-95198500D02*
X140500380Y-95198500D01*
D11*
X80833334Y-73157143D02*
X80785715Y-73204762D01*
X80642858Y-73252381D01*
X80547620Y-73252381D01*
X80404762Y-73204762D01*
X80309524Y-73109524D01*
X80261905Y-73014286D01*
X80214286Y-72823810D01*
X80214286Y-72680952D01*
X80261905Y-72490476D01*
X80309524Y-72395238D01*
X80404762Y-72300000D01*
X80547620Y-72252381D01*
X80642858Y-72252381D01*
X80785715Y-72300000D01*
X80833334Y-72347619D01*
X81785715Y-73252381D02*
X81214286Y-73252381D01*
X81500000Y-73252381D02*
X81500000Y-72252381D01*
X81404762Y-72395238D01*
X81309524Y-72490476D01*
X81214286Y-72538095D01*
D15*
X80248886Y-68870810D02*
X80292429Y-68870810D01*
X80335972Y-68895000D01*
X80357743Y-68919190D01*
X80379514Y-68967571D01*
X80401286Y-69064333D01*
X80401286Y-69185286D01*
X80379514Y-69282048D01*
X80357743Y-69330429D01*
X80335972Y-69354619D01*
X80292429Y-69378810D01*
X80248886Y-69378810D01*
X80205343Y-69354619D01*
X80183572Y-69330429D01*
X80161800Y-69282048D01*
X80140029Y-69185286D01*
X80140029Y-69064333D01*
X80161800Y-68967571D01*
X80183572Y-68919190D01*
X80205343Y-68895000D01*
X80248886Y-68870810D01*
X80597229Y-69330429D02*
X80619001Y-69354619D01*
X80597229Y-69378810D01*
X80575458Y-69354619D01*
X80597229Y-69330429D01*
X80597229Y-69378810D01*
X81054429Y-69378810D02*
X80793172Y-69378810D01*
X80923800Y-69378810D02*
X80923800Y-68870810D01*
X80880257Y-68943381D01*
X80836715Y-68991762D01*
X80793172Y-69015952D01*
X81446315Y-69040143D02*
X81446315Y-69378810D01*
X81250372Y-69040143D02*
X81250372Y-69306238D01*
X81272144Y-69354619D01*
X81315686Y-69378810D01*
X81381001Y-69378810D01*
X81424544Y-69354619D01*
X81446315Y-69330429D01*
X81816429Y-69112714D02*
X81664029Y-69112714D01*
X81664029Y-69378810D02*
X81664029Y-68870810D01*
X81881743Y-68870810D01*
D11*
X77083334Y-68357143D02*
X77035715Y-68404762D01*
X76892858Y-68452381D01*
X76797620Y-68452381D01*
X76654762Y-68404762D01*
X76559524Y-68309524D01*
X76511905Y-68214286D01*
X76464286Y-68023810D01*
X76464286Y-67880952D01*
X76511905Y-67690476D01*
X76559524Y-67595238D01*
X76654762Y-67500000D01*
X76797620Y-67452381D01*
X76892858Y-67452381D01*
X77035715Y-67500000D01*
X77083334Y-67547619D01*
X77464286Y-67547619D02*
X77511905Y-67500000D01*
X77607143Y-67452381D01*
X77845239Y-67452381D01*
X77940477Y-67500000D01*
X77988096Y-67547619D01*
X78035715Y-67642857D01*
X78035715Y-67738095D01*
X77988096Y-67880952D01*
X77416667Y-68452381D01*
X78035715Y-68452381D01*
X149983334Y-72057143D02*
X149935715Y-72104762D01*
X149792858Y-72152381D01*
X149697620Y-72152381D01*
X149554762Y-72104762D01*
X149459524Y-72009524D01*
X149411905Y-71914286D01*
X149364286Y-71723810D01*
X149364286Y-71580952D01*
X149411905Y-71390476D01*
X149459524Y-71295238D01*
X149554762Y-71200000D01*
X149697620Y-71152381D01*
X149792858Y-71152381D01*
X149935715Y-71200000D01*
X149983334Y-71247619D01*
X150316667Y-71152381D02*
X150935715Y-71152381D01*
X150602381Y-71533333D01*
X150745239Y-71533333D01*
X150840477Y-71580952D01*
X150888096Y-71628571D01*
X150935715Y-71723810D01*
X150935715Y-71961905D01*
X150888096Y-72057143D01*
X150840477Y-72104762D01*
X150745239Y-72152381D01*
X150459524Y-72152381D01*
X150364286Y-72104762D01*
X150316667Y-72057143D01*
X132583334Y-85357143D02*
X132535715Y-85404762D01*
X132392858Y-85452381D01*
X132297620Y-85452381D01*
X132154762Y-85404762D01*
X132059524Y-85309524D01*
X132011905Y-85214286D01*
X131964286Y-85023810D01*
X131964286Y-84880952D01*
X132011905Y-84690476D01*
X132059524Y-84595238D01*
X132154762Y-84500000D01*
X132297620Y-84452381D01*
X132392858Y-84452381D01*
X132535715Y-84500000D01*
X132583334Y-84547619D01*
X133440477Y-84785714D02*
X133440477Y-85452381D01*
X133202381Y-84404762D02*
X132964286Y-85119048D01*
X133583334Y-85119048D01*
X74556183Y-71514285D02*
X74603802Y-71561904D01*
X74651421Y-71704761D01*
X74651421Y-71799999D01*
X74603802Y-71942857D01*
X74508564Y-72038095D01*
X74413326Y-72085714D01*
X74222850Y-72133333D01*
X74079992Y-72133333D01*
X73889516Y-72085714D01*
X73794278Y-72038095D01*
X73699040Y-71942857D01*
X73651421Y-71799999D01*
X73651421Y-71704761D01*
X73699040Y-71561904D01*
X73746659Y-71514285D01*
X73651421Y-70895238D02*
X73651421Y-70704761D01*
X73699040Y-70609523D01*
X73794278Y-70514285D01*
X73984754Y-70466666D01*
X74318088Y-70466666D01*
X74508564Y-70514285D01*
X74603802Y-70609523D01*
X74651421Y-70704761D01*
X74651421Y-70895238D01*
X74603802Y-70990476D01*
X74508564Y-71085714D01*
X74318088Y-71133333D01*
X73984754Y-71133333D01*
X73794278Y-71085714D01*
X73699040Y-70990476D01*
X73651421Y-70895238D01*
X74651421Y-70038095D02*
X73651421Y-70038095D01*
X74651421Y-69466666D01*
X73651421Y-69466666D01*
X74651421Y-68466666D02*
X74651421Y-69038095D01*
X74651421Y-68752381D02*
X73651421Y-68752381D01*
X73794278Y-68847619D01*
X73889516Y-68942857D01*
X73937135Y-69038095D01*
X143261905Y-73452381D02*
X143261905Y-72452381D01*
X143500000Y-72452381D01*
X143642858Y-72500000D01*
X143738096Y-72595238D01*
X143785715Y-72690476D01*
X143833334Y-72880952D01*
X143833334Y-73023810D01*
X143785715Y-73214286D01*
X143738096Y-73309524D01*
X143642858Y-73404762D01*
X143500000Y-73452381D01*
X143261905Y-73452381D01*
X144785715Y-73452381D02*
X144214286Y-73452381D01*
X144500000Y-73452381D02*
X144500000Y-72452381D01*
X144404762Y-72595238D01*
X144309524Y-72690476D01*
X144214286Y-72738095D01*
X147952381Y-74738095D02*
X146952381Y-74738095D01*
X146952381Y-74500000D01*
X147000000Y-74357142D01*
X147095238Y-74261904D01*
X147190476Y-74214285D01*
X147380952Y-74166666D01*
X147523810Y-74166666D01*
X147714286Y-74214285D01*
X147809524Y-74261904D01*
X147904762Y-74357142D01*
X147952381Y-74500000D01*
X147952381Y-74738095D01*
X147047619Y-73785714D02*
X147000000Y-73738095D01*
X146952381Y-73642857D01*
X146952381Y-73404761D01*
X147000000Y-73309523D01*
X147047619Y-73261904D01*
X147142857Y-73214285D01*
X147238095Y-73214285D01*
X147380952Y-73261904D01*
X147952381Y-73833333D01*
X147952381Y-73214285D01*
X78852381Y-91883333D02*
X79566667Y-91883333D01*
X79709524Y-91930953D01*
X79804762Y-92026191D01*
X79852381Y-92169048D01*
X79852381Y-92264286D01*
X79852381Y-91407143D02*
X78852381Y-91407143D01*
X78852381Y-91026190D01*
X78900000Y-90930952D01*
X78947619Y-90883333D01*
X79042857Y-90835714D01*
X79185714Y-90835714D01*
X79280952Y-90883333D01*
X79328571Y-90930952D01*
X79376190Y-91026190D01*
X79376190Y-91407143D01*
X79852381Y-89883333D02*
X79852381Y-90454762D01*
X79852381Y-90169048D02*
X78852381Y-90169048D01*
X78995238Y-90264286D01*
X79090476Y-90359524D01*
X79138095Y-90454762D01*
X81712381Y-99798095D02*
X80712381Y-99798095D01*
X80712381Y-99417142D01*
X80760000Y-99321904D01*
X80807619Y-99274285D01*
X80902857Y-99226666D01*
X81045714Y-99226666D01*
X81140952Y-99274285D01*
X81188571Y-99321904D01*
X81236190Y-99417142D01*
X81236190Y-99798095D01*
X81712381Y-98274285D02*
X81712381Y-98845714D01*
X81712381Y-98560000D02*
X80712381Y-98560000D01*
X80855238Y-98655238D01*
X80950476Y-98750476D01*
X80998095Y-98845714D01*
X156552381Y-61038095D02*
X155552381Y-61038095D01*
X155552381Y-60657142D01*
X155600000Y-60561904D01*
X155647619Y-60514285D01*
X155742857Y-60466666D01*
X155885714Y-60466666D01*
X155980952Y-60514285D01*
X156028571Y-60561904D01*
X156076190Y-60657142D01*
X156076190Y-61038095D01*
X155647619Y-60085714D02*
X155600000Y-60038095D01*
X155552381Y-59942857D01*
X155552381Y-59704761D01*
X155600000Y-59609523D01*
X155647619Y-59561904D01*
X155742857Y-59514285D01*
X155838095Y-59514285D01*
X155980952Y-59561904D01*
X156552381Y-60133333D01*
X156552381Y-59514285D01*
X73261905Y-98552381D02*
X73261905Y-97552381D01*
X73642858Y-97552381D01*
X73738096Y-97600000D01*
X73785715Y-97647619D01*
X73833334Y-97742857D01*
X73833334Y-97885714D01*
X73785715Y-97980952D01*
X73738096Y-98028571D01*
X73642858Y-98076190D01*
X73261905Y-98076190D01*
X74166667Y-97552381D02*
X74785715Y-97552381D01*
X74452381Y-97933333D01*
X74595239Y-97933333D01*
X74690477Y-97980952D01*
X74738096Y-98028571D01*
X74785715Y-98123810D01*
X74785715Y-98361905D01*
X74738096Y-98457143D01*
X74690477Y-98504762D01*
X74595239Y-98552381D01*
X74309524Y-98552381D01*
X74214286Y-98504762D01*
X74166667Y-98457143D01*
X62161905Y-95452381D02*
X62161905Y-94452381D01*
X62542858Y-94452381D01*
X62638096Y-94500000D01*
X62685715Y-94547619D01*
X62733334Y-94642857D01*
X62733334Y-94785714D01*
X62685715Y-94880952D01*
X62638096Y-94928571D01*
X62542858Y-94976190D01*
X62161905Y-94976190D01*
X63590477Y-94785714D02*
X63590477Y-95452381D01*
X63352381Y-94404762D02*
X63114286Y-95119048D01*
X63733334Y-95119048D01*
X67552381Y-81738095D02*
X66552381Y-81738095D01*
X66552381Y-81357142D01*
X66600000Y-81261904D01*
X66647619Y-81214285D01*
X66742857Y-81166666D01*
X66885714Y-81166666D01*
X66980952Y-81214285D01*
X67028571Y-81261904D01*
X67076190Y-81357142D01*
X67076190Y-81738095D01*
X66552381Y-80261904D02*
X66552381Y-80738095D01*
X67028571Y-80785714D01*
X66980952Y-80738095D01*
X66933333Y-80642857D01*
X66933333Y-80404761D01*
X66980952Y-80309523D01*
X67028571Y-80261904D01*
X67123810Y-80214285D01*
X67361905Y-80214285D01*
X67457143Y-80261904D01*
X67504762Y-80309523D01*
X67552381Y-80404761D01*
X67552381Y-80642857D01*
X67504762Y-80738095D01*
X67457143Y-80785714D01*
X81661905Y-57952381D02*
X81661905Y-56952381D01*
X82042858Y-56952381D01*
X82138096Y-57000000D01*
X82185715Y-57047619D01*
X82233334Y-57142857D01*
X82233334Y-57285714D01*
X82185715Y-57380952D01*
X82138096Y-57428571D01*
X82042858Y-57476190D01*
X81661905Y-57476190D01*
X83090477Y-56952381D02*
X82900000Y-56952381D01*
X82804762Y-57000000D01*
X82757143Y-57047619D01*
X82661905Y-57190476D01*
X82614286Y-57380952D01*
X82614286Y-57761905D01*
X82661905Y-57857143D01*
X82709524Y-57904762D01*
X82804762Y-57952381D01*
X82995239Y-57952381D01*
X83090477Y-57904762D01*
X83138096Y-57857143D01*
X83185715Y-57761905D01*
X83185715Y-57523810D01*
X83138096Y-57428571D01*
X83090477Y-57380952D01*
X82995239Y-57333333D01*
X82804762Y-57333333D01*
X82709524Y-57380952D01*
X82661905Y-57428571D01*
X82614286Y-57523810D01*
X153552381Y-70738095D02*
X152552381Y-70738095D01*
X152552381Y-70357142D01*
X152600000Y-70261904D01*
X152647619Y-70214285D01*
X152742857Y-70166666D01*
X152885714Y-70166666D01*
X152980952Y-70214285D01*
X153028571Y-70261904D01*
X153076190Y-70357142D01*
X153076190Y-70738095D01*
X152552381Y-69833333D02*
X152552381Y-69166666D01*
X153552381Y-69595238D01*
X95197619Y-70445238D02*
X95150000Y-70540476D01*
X95054762Y-70635714D01*
X94911905Y-70778571D01*
X94864286Y-70873810D01*
X94864286Y-70969048D01*
X95102381Y-70921429D02*
X95054762Y-71016667D01*
X94959524Y-71111905D01*
X94769048Y-71159524D01*
X94435714Y-71159524D01*
X94245238Y-71111905D01*
X94150000Y-71016667D01*
X94102381Y-70921429D01*
X94102381Y-70730952D01*
X94150000Y-70635714D01*
X94245238Y-70540476D01*
X94435714Y-70492857D01*
X94769048Y-70492857D01*
X94959524Y-70540476D01*
X95054762Y-70635714D01*
X95102381Y-70730952D01*
X95102381Y-70921429D01*
X95102381Y-69540476D02*
X95102381Y-70111905D01*
X95102381Y-69826191D02*
X94102381Y-69826191D01*
X94245238Y-69921429D01*
X94340476Y-70016667D01*
X94388095Y-70111905D01*
X100397619Y-65645238D02*
X100350000Y-65740476D01*
X100254762Y-65835714D01*
X100111905Y-65978571D01*
X100064286Y-66073810D01*
X100064286Y-66169048D01*
X100302381Y-66121429D02*
X100254762Y-66216667D01*
X100159524Y-66311905D01*
X99969048Y-66359524D01*
X99635714Y-66359524D01*
X99445238Y-66311905D01*
X99350000Y-66216667D01*
X99302381Y-66121429D01*
X99302381Y-65930952D01*
X99350000Y-65835714D01*
X99445238Y-65740476D01*
X99635714Y-65692857D01*
X99969048Y-65692857D01*
X100159524Y-65740476D01*
X100254762Y-65835714D01*
X100302381Y-65930952D01*
X100302381Y-66121429D01*
X99397619Y-65311905D02*
X99350000Y-65264286D01*
X99302381Y-65169048D01*
X99302381Y-64930952D01*
X99350000Y-64835714D01*
X99397619Y-64788095D01*
X99492857Y-64740476D01*
X99588095Y-64740476D01*
X99730952Y-64788095D01*
X100302381Y-65359524D01*
X100302381Y-64740476D01*
X100397619Y-70445238D02*
X100350000Y-70540476D01*
X100254762Y-70635714D01*
X100111905Y-70778571D01*
X100064286Y-70873810D01*
X100064286Y-70969048D01*
X100302381Y-70921429D02*
X100254762Y-71016667D01*
X100159524Y-71111905D01*
X99969048Y-71159524D01*
X99635714Y-71159524D01*
X99445238Y-71111905D01*
X99350000Y-71016667D01*
X99302381Y-70921429D01*
X99302381Y-70730952D01*
X99350000Y-70635714D01*
X99445238Y-70540476D01*
X99635714Y-70492857D01*
X99969048Y-70492857D01*
X100159524Y-70540476D01*
X100254762Y-70635714D01*
X100302381Y-70730952D01*
X100302381Y-70921429D01*
X99302381Y-70159524D02*
X99302381Y-69540476D01*
X99683333Y-69873810D01*
X99683333Y-69730952D01*
X99730952Y-69635714D01*
X99778571Y-69588095D01*
X99873810Y-69540476D01*
X100111905Y-69540476D01*
X100207143Y-69588095D01*
X100254762Y-69635714D01*
X100302381Y-69730952D01*
X100302381Y-70016667D01*
X100254762Y-70111905D01*
X100207143Y-70159524D01*
X104404762Y-78761619D02*
X104309524Y-78714000D01*
X104214286Y-78618762D01*
X104071429Y-78475905D01*
X103976190Y-78428286D01*
X103880952Y-78428286D01*
X103928571Y-78666381D02*
X103833333Y-78618762D01*
X103738095Y-78523524D01*
X103690476Y-78333048D01*
X103690476Y-77999714D01*
X103738095Y-77809238D01*
X103833333Y-77714000D01*
X103928571Y-77666381D01*
X104119048Y-77666381D01*
X104214286Y-77714000D01*
X104309524Y-77809238D01*
X104357143Y-77999714D01*
X104357143Y-78333048D01*
X104309524Y-78523524D01*
X104214286Y-78618762D01*
X104119048Y-78666381D01*
X103928571Y-78666381D01*
X105214286Y-77999714D02*
X105214286Y-78666381D01*
X104976190Y-77618762D02*
X104738095Y-78333048D01*
X105357143Y-78333048D01*
X117197619Y-70445238D02*
X117150000Y-70540476D01*
X117054762Y-70635714D01*
X116911905Y-70778571D01*
X116864286Y-70873810D01*
X116864286Y-70969048D01*
X117102381Y-70921429D02*
X117054762Y-71016667D01*
X116959524Y-71111905D01*
X116769048Y-71159524D01*
X116435714Y-71159524D01*
X116245238Y-71111905D01*
X116150000Y-71016667D01*
X116102381Y-70921429D01*
X116102381Y-70730952D01*
X116150000Y-70635714D01*
X116245238Y-70540476D01*
X116435714Y-70492857D01*
X116769048Y-70492857D01*
X116959524Y-70540476D01*
X117054762Y-70635714D01*
X117102381Y-70730952D01*
X117102381Y-70921429D01*
X116102381Y-69588095D02*
X116102381Y-70064286D01*
X116578571Y-70111905D01*
X116530952Y-70064286D01*
X116483333Y-69969048D01*
X116483333Y-69730952D01*
X116530952Y-69635714D01*
X116578571Y-69588095D01*
X116673810Y-69540476D01*
X116911905Y-69540476D01*
X117007143Y-69588095D01*
X117054762Y-69635714D01*
X117102381Y-69730952D01*
X117102381Y-69969048D01*
X117054762Y-70064286D01*
X117007143Y-70111905D01*
X112897619Y-70445238D02*
X112850000Y-70540476D01*
X112754762Y-70635714D01*
X112611905Y-70778571D01*
X112564286Y-70873810D01*
X112564286Y-70969048D01*
X112802381Y-70921429D02*
X112754762Y-71016667D01*
X112659524Y-71111905D01*
X112469048Y-71159524D01*
X112135714Y-71159524D01*
X111945238Y-71111905D01*
X111850000Y-71016667D01*
X111802381Y-70921429D01*
X111802381Y-70730952D01*
X111850000Y-70635714D01*
X111945238Y-70540476D01*
X112135714Y-70492857D01*
X112469048Y-70492857D01*
X112659524Y-70540476D01*
X112754762Y-70635714D01*
X112802381Y-70730952D01*
X112802381Y-70921429D01*
X111802381Y-69635714D02*
X111802381Y-69826191D01*
X111850000Y-69921429D01*
X111897619Y-69969048D01*
X112040476Y-70064286D01*
X112230952Y-70111905D01*
X112611905Y-70111905D01*
X112707143Y-70064286D01*
X112754762Y-70016667D01*
X112802381Y-69921429D01*
X112802381Y-69730952D01*
X112754762Y-69635714D01*
X112707143Y-69588095D01*
X112611905Y-69540476D01*
X112373810Y-69540476D01*
X112278571Y-69588095D01*
X112230952Y-69635714D01*
X112183333Y-69730952D01*
X112183333Y-69921429D01*
X112230952Y-70016667D01*
X112278571Y-70064286D01*
X112373810Y-70111905D01*
X122497619Y-65845238D02*
X122450000Y-65940476D01*
X122354762Y-66035714D01*
X122211905Y-66178571D01*
X122164286Y-66273810D01*
X122164286Y-66369048D01*
X122402381Y-66321429D02*
X122354762Y-66416667D01*
X122259524Y-66511905D01*
X122069048Y-66559524D01*
X121735714Y-66559524D01*
X121545238Y-66511905D01*
X121450000Y-66416667D01*
X121402381Y-66321429D01*
X121402381Y-66130952D01*
X121450000Y-66035714D01*
X121545238Y-65940476D01*
X121735714Y-65892857D01*
X122069048Y-65892857D01*
X122259524Y-65940476D01*
X122354762Y-66035714D01*
X122402381Y-66130952D01*
X122402381Y-66321429D01*
X121402381Y-65559524D02*
X121402381Y-64892857D01*
X122402381Y-65321429D01*
X122397619Y-70245238D02*
X122350000Y-70340476D01*
X122254762Y-70435714D01*
X122111905Y-70578571D01*
X122064286Y-70673810D01*
X122064286Y-70769048D01*
X122302381Y-70721429D02*
X122254762Y-70816667D01*
X122159524Y-70911905D01*
X121969048Y-70959524D01*
X121635714Y-70959524D01*
X121445238Y-70911905D01*
X121350000Y-70816667D01*
X121302381Y-70721429D01*
X121302381Y-70530952D01*
X121350000Y-70435714D01*
X121445238Y-70340476D01*
X121635714Y-70292857D01*
X121969048Y-70292857D01*
X122159524Y-70340476D01*
X122254762Y-70435714D01*
X122302381Y-70530952D01*
X122302381Y-70721429D01*
X121730952Y-69721429D02*
X121683333Y-69816667D01*
X121635714Y-69864286D01*
X121540476Y-69911905D01*
X121492857Y-69911905D01*
X121397619Y-69864286D01*
X121350000Y-69816667D01*
X121302381Y-69721429D01*
X121302381Y-69530952D01*
X121350000Y-69435714D01*
X121397619Y-69388095D01*
X121492857Y-69340476D01*
X121540476Y-69340476D01*
X121635714Y-69388095D01*
X121683333Y-69435714D01*
X121730952Y-69530952D01*
X121730952Y-69721429D01*
X121778571Y-69816667D01*
X121826190Y-69864286D01*
X121921429Y-69911905D01*
X122111905Y-69911905D01*
X122207143Y-69864286D01*
X122254762Y-69816667D01*
X122302381Y-69721429D01*
X122302381Y-69530952D01*
X122254762Y-69435714D01*
X122207143Y-69388095D01*
X122111905Y-69340476D01*
X121921429Y-69340476D01*
X121826190Y-69388095D01*
X121778571Y-69435714D01*
X121730952Y-69530952D01*
X127304762Y-78661619D02*
X127209524Y-78614000D01*
X127114286Y-78518762D01*
X126971429Y-78375905D01*
X126876190Y-78328286D01*
X126780952Y-78328286D01*
X126828571Y-78566381D02*
X126733333Y-78518762D01*
X126638095Y-78423524D01*
X126590476Y-78233048D01*
X126590476Y-77899714D01*
X126638095Y-77709238D01*
X126733333Y-77614000D01*
X126828571Y-77566381D01*
X127019048Y-77566381D01*
X127114286Y-77614000D01*
X127209524Y-77709238D01*
X127257143Y-77899714D01*
X127257143Y-78233048D01*
X127209524Y-78423524D01*
X127114286Y-78518762D01*
X127019048Y-78566381D01*
X126828571Y-78566381D01*
X127733333Y-78566381D02*
X127923809Y-78566381D01*
X128019048Y-78518762D01*
X128066667Y-78471143D01*
X128161905Y-78328286D01*
X128209524Y-78137810D01*
X128209524Y-77756857D01*
X128161905Y-77661619D01*
X128114286Y-77614000D01*
X128019048Y-77566381D01*
X127828571Y-77566381D01*
X127733333Y-77614000D01*
X127685714Y-77661619D01*
X127638095Y-77756857D01*
X127638095Y-77994952D01*
X127685714Y-78090190D01*
X127733333Y-78137810D01*
X127828571Y-78185429D01*
X128019048Y-78185429D01*
X128114286Y-78137810D01*
X128161905Y-78090190D01*
X128209524Y-77994952D01*
X95552381Y-75966666D02*
X95076190Y-76300000D01*
X95552381Y-76538095D02*
X94552381Y-76538095D01*
X94552381Y-76157142D01*
X94600000Y-76061904D01*
X94647619Y-76014285D01*
X94742857Y-75966666D01*
X94885714Y-75966666D01*
X94980952Y-76014285D01*
X95028571Y-76061904D01*
X95076190Y-76157142D01*
X95076190Y-76538095D01*
X95552381Y-75014285D02*
X95552381Y-75585714D01*
X95552381Y-75300000D02*
X94552381Y-75300000D01*
X94695238Y-75395238D01*
X94790476Y-75490476D01*
X94838095Y-75585714D01*
D15*
X96430550Y-76115686D02*
X96430550Y-76376943D01*
X96430550Y-76246315D02*
X95922550Y-76246315D01*
X95995121Y-76289858D01*
X96043502Y-76333400D01*
X96067692Y-76376943D01*
X95922550Y-75832657D02*
X95922550Y-75789114D01*
X95946740Y-75745571D01*
X95970930Y-75723800D01*
X96019311Y-75702029D01*
X96116073Y-75680257D01*
X96237026Y-75680257D01*
X96333788Y-75702029D01*
X96382169Y-75723800D01*
X96406359Y-75745571D01*
X96430550Y-75789114D01*
X96430550Y-75832657D01*
X96406359Y-75876200D01*
X96382169Y-75897971D01*
X96333788Y-75919743D01*
X96237026Y-75941514D01*
X96116073Y-75941514D01*
X96019311Y-75919743D01*
X95970930Y-75897971D01*
X95946740Y-75876200D01*
X95922550Y-75832657D01*
X96430550Y-75484314D02*
X95922550Y-75484314D01*
X96430550Y-75223057D02*
X96140264Y-75419000D01*
X95922550Y-75223057D02*
X96212835Y-75484314D01*
D11*
X118152381Y-79066666D02*
X117676190Y-79400000D01*
X118152381Y-79638095D02*
X117152381Y-79638095D01*
X117152381Y-79257142D01*
X117200000Y-79161904D01*
X117247619Y-79114285D01*
X117342857Y-79066666D01*
X117485714Y-79066666D01*
X117580952Y-79114285D01*
X117628571Y-79161904D01*
X117676190Y-79257142D01*
X117676190Y-79638095D01*
X117247619Y-78685714D02*
X117200000Y-78638095D01*
X117152381Y-78542857D01*
X117152381Y-78304761D01*
X117200000Y-78209523D01*
X117247619Y-78161904D01*
X117342857Y-78114285D01*
X117438095Y-78114285D01*
X117580952Y-78161904D01*
X118152381Y-78733333D01*
X118152381Y-78114285D01*
D15*
X116829070Y-79215686D02*
X116829070Y-79476943D01*
X116829070Y-79346315D02*
X116321070Y-79346315D01*
X116393641Y-79389858D01*
X116442022Y-79433400D01*
X116466212Y-79476943D01*
X116321070Y-78932657D02*
X116321070Y-78889114D01*
X116345260Y-78845571D01*
X116369450Y-78823800D01*
X116417831Y-78802029D01*
X116514593Y-78780257D01*
X116635546Y-78780257D01*
X116732308Y-78802029D01*
X116780689Y-78823800D01*
X116804879Y-78845571D01*
X116829070Y-78889114D01*
X116829070Y-78932657D01*
X116804879Y-78976200D01*
X116780689Y-78997971D01*
X116732308Y-79019743D01*
X116635546Y-79041514D01*
X116514593Y-79041514D01*
X116417831Y-79019743D01*
X116369450Y-78997971D01*
X116345260Y-78976200D01*
X116321070Y-78932657D01*
X116829070Y-78584314D02*
X116321070Y-78584314D01*
X116829070Y-78323057D02*
X116538784Y-78519000D01*
X116321070Y-78323057D02*
X116611355Y-78584314D01*
D11*
X104533334Y-84552381D02*
X104200000Y-84076190D01*
X103961905Y-84552381D02*
X103961905Y-83552381D01*
X104342858Y-83552381D01*
X104438096Y-83600000D01*
X104485715Y-83647619D01*
X104533334Y-83742857D01*
X104533334Y-83885714D01*
X104485715Y-83980952D01*
X104438096Y-84028571D01*
X104342858Y-84076190D01*
X103961905Y-84076190D01*
X104866667Y-83552381D02*
X105485715Y-83552381D01*
X105152381Y-83933333D01*
X105295239Y-83933333D01*
X105390477Y-83980952D01*
X105438096Y-84028571D01*
X105485715Y-84123810D01*
X105485715Y-84361905D01*
X105438096Y-84457143D01*
X105390477Y-84504762D01*
X105295239Y-84552381D01*
X105009524Y-84552381D01*
X104914286Y-84504762D01*
X104866667Y-84457143D01*
D15*
X104166600Y-85430550D02*
X103905343Y-85430550D01*
X104035971Y-85430550D02*
X104035971Y-84922550D01*
X103992428Y-84995121D01*
X103948886Y-85043502D01*
X103905343Y-85067692D01*
X104449629Y-84922550D02*
X104493172Y-84922550D01*
X104536715Y-84946740D01*
X104558486Y-84970930D01*
X104580257Y-85019311D01*
X104602029Y-85116073D01*
X104602029Y-85237026D01*
X104580257Y-85333788D01*
X104558486Y-85382169D01*
X104536715Y-85406359D01*
X104493172Y-85430550D01*
X104449629Y-85430550D01*
X104406086Y-85406359D01*
X104384315Y-85382169D01*
X104362543Y-85333788D01*
X104340772Y-85237026D01*
X104340772Y-85116073D01*
X104362543Y-85019311D01*
X104384315Y-84970930D01*
X104406086Y-84946740D01*
X104449629Y-84922550D01*
X104885058Y-84922550D02*
X104928601Y-84922550D01*
X104972144Y-84946740D01*
X104993915Y-84970930D01*
X105015686Y-85019311D01*
X105037458Y-85116073D01*
X105037458Y-85237026D01*
X105015686Y-85333788D01*
X104993915Y-85382169D01*
X104972144Y-85406359D01*
X104928601Y-85430550D01*
X104885058Y-85430550D01*
X104841515Y-85406359D01*
X104819744Y-85382169D01*
X104797972Y-85333788D01*
X104776201Y-85237026D01*
X104776201Y-85116073D01*
X104797972Y-85019311D01*
X104819744Y-84970930D01*
X104841515Y-84946740D01*
X104885058Y-84922550D01*
X105233401Y-85430550D02*
X105233401Y-84922550D01*
X105494658Y-85430550D02*
X105298715Y-85140264D01*
X105494658Y-84922550D02*
X105233401Y-85212835D01*
D11*
X101733334Y-90152381D02*
X101400000Y-89676190D01*
X101161905Y-90152381D02*
X101161905Y-89152381D01*
X101542858Y-89152381D01*
X101638096Y-89200000D01*
X101685715Y-89247619D01*
X101733334Y-89342857D01*
X101733334Y-89485714D01*
X101685715Y-89580952D01*
X101638096Y-89628571D01*
X101542858Y-89676190D01*
X101161905Y-89676190D01*
X102590477Y-89485714D02*
X102590477Y-90152381D01*
X102352381Y-89104762D02*
X102114286Y-89819048D01*
X102733334Y-89819048D01*
D15*
X101584314Y-88829070D02*
X101323057Y-88829070D01*
X101453685Y-88829070D02*
X101453685Y-88321070D01*
X101410142Y-88393641D01*
X101366600Y-88442022D01*
X101323057Y-88466212D01*
X101867343Y-88321070D02*
X101910886Y-88321070D01*
X101954429Y-88345260D01*
X101976200Y-88369450D01*
X101997971Y-88417831D01*
X102019743Y-88514593D01*
X102019743Y-88635546D01*
X101997971Y-88732308D01*
X101976200Y-88780689D01*
X101954429Y-88804879D01*
X101910886Y-88829070D01*
X101867343Y-88829070D01*
X101823800Y-88804879D01*
X101802029Y-88780689D01*
X101780257Y-88732308D01*
X101758486Y-88635546D01*
X101758486Y-88514593D01*
X101780257Y-88417831D01*
X101802029Y-88369450D01*
X101823800Y-88345260D01*
X101867343Y-88321070D01*
X102215686Y-88829070D02*
X102215686Y-88321070D01*
X102476943Y-88829070D02*
X102281000Y-88538784D01*
X102476943Y-88321070D02*
X102215686Y-88611355D01*
D11*
X90552381Y-75966666D02*
X90076190Y-76300000D01*
X90552381Y-76538095D02*
X89552381Y-76538095D01*
X89552381Y-76157142D01*
X89600000Y-76061904D01*
X89647619Y-76014285D01*
X89742857Y-75966666D01*
X89885714Y-75966666D01*
X89980952Y-76014285D01*
X90028571Y-76061904D01*
X90076190Y-76157142D01*
X90076190Y-76538095D01*
X89552381Y-75061904D02*
X89552381Y-75538095D01*
X90028571Y-75585714D01*
X89980952Y-75538095D01*
X89933333Y-75442857D01*
X89933333Y-75204761D01*
X89980952Y-75109523D01*
X90028571Y-75061904D01*
X90123810Y-75014285D01*
X90361905Y-75014285D01*
X90457143Y-75061904D01*
X90504762Y-75109523D01*
X90552381Y-75204761D01*
X90552381Y-75442857D01*
X90504762Y-75538095D01*
X90457143Y-75585714D01*
D15*
X91430550Y-76333400D02*
X91430550Y-76594657D01*
X91430550Y-76464029D02*
X90922550Y-76464029D01*
X90995121Y-76507572D01*
X91043502Y-76551114D01*
X91067692Y-76594657D01*
X90922550Y-76050371D02*
X90922550Y-76006828D01*
X90946740Y-75963285D01*
X90970930Y-75941514D01*
X91019311Y-75919743D01*
X91116073Y-75897971D01*
X91237026Y-75897971D01*
X91333788Y-75919743D01*
X91382169Y-75941514D01*
X91406359Y-75963285D01*
X91430550Y-76006828D01*
X91430550Y-76050371D01*
X91406359Y-76093914D01*
X91382169Y-76115685D01*
X91333788Y-76137457D01*
X91237026Y-76159228D01*
X91116073Y-76159228D01*
X91019311Y-76137457D01*
X90970930Y-76115685D01*
X90946740Y-76093914D01*
X90922550Y-76050371D01*
X90922550Y-75614942D02*
X90922550Y-75571399D01*
X90946740Y-75527856D01*
X90970930Y-75506085D01*
X91019311Y-75484314D01*
X91116073Y-75462542D01*
X91237026Y-75462542D01*
X91333788Y-75484314D01*
X91382169Y-75506085D01*
X91406359Y-75527856D01*
X91430550Y-75571399D01*
X91430550Y-75614942D01*
X91406359Y-75658485D01*
X91382169Y-75680256D01*
X91333788Y-75702028D01*
X91237026Y-75723799D01*
X91116073Y-75723799D01*
X91019311Y-75702028D01*
X90970930Y-75680256D01*
X90946740Y-75658485D01*
X90922550Y-75614942D01*
X91430550Y-75266599D02*
X90922550Y-75266599D01*
X91430550Y-75005342D02*
X91140264Y-75201285D01*
X90922550Y-75005342D02*
X91212835Y-75266599D01*
D11*
X112552381Y-76466666D02*
X112076190Y-76800000D01*
X112552381Y-77038095D02*
X111552381Y-77038095D01*
X111552381Y-76657142D01*
X111600000Y-76561904D01*
X111647619Y-76514285D01*
X111742857Y-76466666D01*
X111885714Y-76466666D01*
X111980952Y-76514285D01*
X112028571Y-76561904D01*
X112076190Y-76657142D01*
X112076190Y-77038095D01*
X111552381Y-75609523D02*
X111552381Y-75800000D01*
X111600000Y-75895238D01*
X111647619Y-75942857D01*
X111790476Y-76038095D01*
X111980952Y-76085714D01*
X112361905Y-76085714D01*
X112457143Y-76038095D01*
X112504762Y-75990476D01*
X112552381Y-75895238D01*
X112552381Y-75704761D01*
X112504762Y-75609523D01*
X112457143Y-75561904D01*
X112361905Y-75514285D01*
X112123810Y-75514285D01*
X112028571Y-75561904D01*
X111980952Y-75609523D01*
X111933333Y-75704761D01*
X111933333Y-75895238D01*
X111980952Y-75990476D01*
X112028571Y-76038095D01*
X112123810Y-76085714D01*
D15*
X113430550Y-76833400D02*
X113430550Y-77094657D01*
X113430550Y-76964029D02*
X112922550Y-76964029D01*
X112995121Y-77007572D01*
X113043502Y-77051114D01*
X113067692Y-77094657D01*
X112922550Y-76550371D02*
X112922550Y-76506828D01*
X112946740Y-76463285D01*
X112970930Y-76441514D01*
X113019311Y-76419743D01*
X113116073Y-76397971D01*
X113237026Y-76397971D01*
X113333788Y-76419743D01*
X113382169Y-76441514D01*
X113406359Y-76463285D01*
X113430550Y-76506828D01*
X113430550Y-76550371D01*
X113406359Y-76593914D01*
X113382169Y-76615685D01*
X113333788Y-76637457D01*
X113237026Y-76659228D01*
X113116073Y-76659228D01*
X113019311Y-76637457D01*
X112970930Y-76615685D01*
X112946740Y-76593914D01*
X112922550Y-76550371D01*
X112922550Y-76114942D02*
X112922550Y-76071399D01*
X112946740Y-76027856D01*
X112970930Y-76006085D01*
X113019311Y-75984314D01*
X113116073Y-75962542D01*
X113237026Y-75962542D01*
X113333788Y-75984314D01*
X113382169Y-76006085D01*
X113406359Y-76027856D01*
X113430550Y-76071399D01*
X113430550Y-76114942D01*
X113406359Y-76158485D01*
X113382169Y-76180256D01*
X113333788Y-76202028D01*
X113237026Y-76223799D01*
X113116073Y-76223799D01*
X113019311Y-76202028D01*
X112970930Y-76180256D01*
X112946740Y-76158485D01*
X112922550Y-76114942D01*
X113430550Y-75766599D02*
X112922550Y-75766599D01*
X113430550Y-75505342D02*
X113140264Y-75701285D01*
X112922550Y-75505342D02*
X113212835Y-75766599D01*
D11*
X107852381Y-79966666D02*
X107376190Y-80300000D01*
X107852381Y-80538095D02*
X106852381Y-80538095D01*
X106852381Y-80157142D01*
X106900000Y-80061904D01*
X106947619Y-80014285D01*
X107042857Y-79966666D01*
X107185714Y-79966666D01*
X107280952Y-80014285D01*
X107328571Y-80061904D01*
X107376190Y-80157142D01*
X107376190Y-80538095D01*
X106852381Y-79633333D02*
X106852381Y-78966666D01*
X107852381Y-79395238D01*
D15*
X106529070Y-80333400D02*
X106529070Y-80594657D01*
X106529070Y-80464029D02*
X106021070Y-80464029D01*
X106093641Y-80507572D01*
X106142022Y-80551114D01*
X106166212Y-80594657D01*
X106021070Y-80050371D02*
X106021070Y-80006828D01*
X106045260Y-79963285D01*
X106069450Y-79941514D01*
X106117831Y-79919743D01*
X106214593Y-79897971D01*
X106335546Y-79897971D01*
X106432308Y-79919743D01*
X106480689Y-79941514D01*
X106504879Y-79963285D01*
X106529070Y-80006828D01*
X106529070Y-80050371D01*
X106504879Y-80093914D01*
X106480689Y-80115685D01*
X106432308Y-80137457D01*
X106335546Y-80159228D01*
X106214593Y-80159228D01*
X106117831Y-80137457D01*
X106069450Y-80115685D01*
X106045260Y-80093914D01*
X106021070Y-80050371D01*
X106021070Y-79614942D02*
X106021070Y-79571399D01*
X106045260Y-79527856D01*
X106069450Y-79506085D01*
X106117831Y-79484314D01*
X106214593Y-79462542D01*
X106335546Y-79462542D01*
X106432308Y-79484314D01*
X106480689Y-79506085D01*
X106504879Y-79527856D01*
X106529070Y-79571399D01*
X106529070Y-79614942D01*
X106504879Y-79658485D01*
X106480689Y-79680256D01*
X106432308Y-79702028D01*
X106335546Y-79723799D01*
X106214593Y-79723799D01*
X106117831Y-79702028D01*
X106069450Y-79680256D01*
X106045260Y-79658485D01*
X106021070Y-79614942D01*
X106529070Y-79266599D02*
X106021070Y-79266599D01*
X106529070Y-79005342D02*
X106238784Y-79201285D01*
X106021070Y-79005342D02*
X106311355Y-79266599D01*
D11*
X92833334Y-64752381D02*
X92500000Y-64276190D01*
X92261905Y-64752381D02*
X92261905Y-63752381D01*
X92642858Y-63752381D01*
X92738096Y-63800000D01*
X92785715Y-63847619D01*
X92833334Y-63942857D01*
X92833334Y-64085714D01*
X92785715Y-64180952D01*
X92738096Y-64228571D01*
X92642858Y-64276190D01*
X92261905Y-64276190D01*
X93404762Y-64180952D02*
X93309524Y-64133333D01*
X93261905Y-64085714D01*
X93214286Y-63990476D01*
X93214286Y-63942857D01*
X93261905Y-63847619D01*
X93309524Y-63800000D01*
X93404762Y-63752381D01*
X93595239Y-63752381D01*
X93690477Y-63800000D01*
X93738096Y-63847619D01*
X93785715Y-63942857D01*
X93785715Y-63990476D01*
X93738096Y-64085714D01*
X93690477Y-64133333D01*
X93595239Y-64180952D01*
X93404762Y-64180952D01*
X93309524Y-64228571D01*
X93261905Y-64276190D01*
X93214286Y-64371429D01*
X93214286Y-64561905D01*
X93261905Y-64657143D01*
X93309524Y-64704762D01*
X93404762Y-64752381D01*
X93595239Y-64752381D01*
X93690477Y-64704762D01*
X93738096Y-64657143D01*
X93785715Y-64561905D01*
X93785715Y-64371429D01*
X93738096Y-64276190D01*
X93690477Y-64228571D01*
X93595239Y-64180952D01*
D15*
X92684314Y-65630550D02*
X92423057Y-65630550D01*
X92553685Y-65630550D02*
X92553685Y-65122550D01*
X92510142Y-65195121D01*
X92466600Y-65243502D01*
X92423057Y-65267692D01*
X92967343Y-65122550D02*
X93010886Y-65122550D01*
X93054429Y-65146740D01*
X93076200Y-65170930D01*
X93097971Y-65219311D01*
X93119743Y-65316073D01*
X93119743Y-65437026D01*
X93097971Y-65533788D01*
X93076200Y-65582169D01*
X93054429Y-65606359D01*
X93010886Y-65630550D01*
X92967343Y-65630550D01*
X92923800Y-65606359D01*
X92902029Y-65582169D01*
X92880257Y-65533788D01*
X92858486Y-65437026D01*
X92858486Y-65316073D01*
X92880257Y-65219311D01*
X92902029Y-65170930D01*
X92923800Y-65146740D01*
X92967343Y-65122550D01*
X93315686Y-65630550D02*
X93315686Y-65122550D01*
X93576943Y-65630550D02*
X93381000Y-65340264D01*
X93576943Y-65122550D02*
X93315686Y-65412835D01*
D11*
X109052381Y-82766666D02*
X108576190Y-83100000D01*
X109052381Y-83338095D02*
X108052381Y-83338095D01*
X108052381Y-82957142D01*
X108100000Y-82861904D01*
X108147619Y-82814285D01*
X108242857Y-82766666D01*
X108385714Y-82766666D01*
X108480952Y-82814285D01*
X108528571Y-82861904D01*
X108576190Y-82957142D01*
X108576190Y-83338095D01*
X109052381Y-82290476D02*
X109052381Y-82100000D01*
X109004762Y-82004761D01*
X108957143Y-81957142D01*
X108814286Y-81861904D01*
X108623810Y-81814285D01*
X108242857Y-81814285D01*
X108147619Y-81861904D01*
X108100000Y-81909523D01*
X108052381Y-82004761D01*
X108052381Y-82195238D01*
X108100000Y-82290476D01*
X108147619Y-82338095D01*
X108242857Y-82385714D01*
X108480952Y-82385714D01*
X108576190Y-82338095D01*
X108623810Y-82290476D01*
X108671429Y-82195238D01*
X108671429Y-82004761D01*
X108623810Y-81909523D01*
X108576190Y-81861904D01*
X108480952Y-81814285D01*
D15*
X109930550Y-82469371D02*
X109930550Y-82730628D01*
X109930550Y-82600000D02*
X109422550Y-82600000D01*
X109495121Y-82643543D01*
X109543502Y-82687085D01*
X109567692Y-82730628D01*
D11*
X136352381Y-83942857D02*
X135876190Y-84276191D01*
X136352381Y-84514286D02*
X135352381Y-84514286D01*
X135352381Y-84133333D01*
X135400000Y-84038095D01*
X135447619Y-83990476D01*
X135542857Y-83942857D01*
X135685714Y-83942857D01*
X135780952Y-83990476D01*
X135828571Y-84038095D01*
X135876190Y-84133333D01*
X135876190Y-84514286D01*
X136352381Y-82990476D02*
X136352381Y-83561905D01*
X136352381Y-83276191D02*
X135352381Y-83276191D01*
X135495238Y-83371429D01*
X135590476Y-83466667D01*
X135638095Y-83561905D01*
X135352381Y-82371429D02*
X135352381Y-82276190D01*
X135400000Y-82180952D01*
X135447619Y-82133333D01*
X135542857Y-82085714D01*
X135733333Y-82038095D01*
X135971429Y-82038095D01*
X136161905Y-82085714D01*
X136257143Y-82133333D01*
X136304762Y-82180952D01*
X136352381Y-82276190D01*
X136352381Y-82371429D01*
X136304762Y-82466667D01*
X136257143Y-82514286D01*
X136161905Y-82561905D01*
X135971429Y-82609524D01*
X135733333Y-82609524D01*
X135542857Y-82561905D01*
X135447619Y-82514286D01*
X135400000Y-82466667D01*
X135352381Y-82371429D01*
D15*
X138530550Y-84033400D02*
X138530550Y-84294657D01*
X138530550Y-84164029D02*
X138022550Y-84164029D01*
X138095121Y-84207572D01*
X138143502Y-84251114D01*
X138167692Y-84294657D01*
X138022550Y-83750371D02*
X138022550Y-83706828D01*
X138046740Y-83663285D01*
X138070930Y-83641514D01*
X138119311Y-83619743D01*
X138216073Y-83597971D01*
X138337026Y-83597971D01*
X138433788Y-83619743D01*
X138482169Y-83641514D01*
X138506359Y-83663285D01*
X138530550Y-83706828D01*
X138530550Y-83750371D01*
X138506359Y-83793914D01*
X138482169Y-83815685D01*
X138433788Y-83837457D01*
X138337026Y-83859228D01*
X138216073Y-83859228D01*
X138119311Y-83837457D01*
X138070930Y-83815685D01*
X138046740Y-83793914D01*
X138022550Y-83750371D01*
X138022550Y-83314942D02*
X138022550Y-83271399D01*
X138046740Y-83227856D01*
X138070930Y-83206085D01*
X138119311Y-83184314D01*
X138216073Y-83162542D01*
X138337026Y-83162542D01*
X138433788Y-83184314D01*
X138482169Y-83206085D01*
X138506359Y-83227856D01*
X138530550Y-83271399D01*
X138530550Y-83314942D01*
X138506359Y-83358485D01*
X138482169Y-83380256D01*
X138433788Y-83402028D01*
X138337026Y-83423799D01*
X138216073Y-83423799D01*
X138119311Y-83402028D01*
X138070930Y-83380256D01*
X138046740Y-83358485D01*
X138022550Y-83314942D01*
X138530550Y-82966599D02*
X138022550Y-82966599D01*
X138530550Y-82705342D02*
X138240264Y-82901285D01*
X138022550Y-82705342D02*
X138312835Y-82966599D01*
D11*
X136252381Y-88042857D02*
X135776190Y-88376191D01*
X136252381Y-88614286D02*
X135252381Y-88614286D01*
X135252381Y-88233333D01*
X135300000Y-88138095D01*
X135347619Y-88090476D01*
X135442857Y-88042857D01*
X135585714Y-88042857D01*
X135680952Y-88090476D01*
X135728571Y-88138095D01*
X135776190Y-88233333D01*
X135776190Y-88614286D01*
X136252381Y-87090476D02*
X136252381Y-87661905D01*
X136252381Y-87376191D02*
X135252381Y-87376191D01*
X135395238Y-87471429D01*
X135490476Y-87566667D01*
X135538095Y-87661905D01*
X136252381Y-86138095D02*
X136252381Y-86709524D01*
X136252381Y-86423810D02*
X135252381Y-86423810D01*
X135395238Y-86519048D01*
X135490476Y-86614286D01*
X135538095Y-86709524D01*
D15*
X138530550Y-88033400D02*
X138530550Y-88294657D01*
X138530550Y-88164029D02*
X138022550Y-88164029D01*
X138095121Y-88207572D01*
X138143502Y-88251114D01*
X138167692Y-88294657D01*
X138022550Y-87750371D02*
X138022550Y-87706828D01*
X138046740Y-87663285D01*
X138070930Y-87641514D01*
X138119311Y-87619743D01*
X138216073Y-87597971D01*
X138337026Y-87597971D01*
X138433788Y-87619743D01*
X138482169Y-87641514D01*
X138506359Y-87663285D01*
X138530550Y-87706828D01*
X138530550Y-87750371D01*
X138506359Y-87793914D01*
X138482169Y-87815685D01*
X138433788Y-87837457D01*
X138337026Y-87859228D01*
X138216073Y-87859228D01*
X138119311Y-87837457D01*
X138070930Y-87815685D01*
X138046740Y-87793914D01*
X138022550Y-87750371D01*
X138022550Y-87314942D02*
X138022550Y-87271399D01*
X138046740Y-87227856D01*
X138070930Y-87206085D01*
X138119311Y-87184314D01*
X138216073Y-87162542D01*
X138337026Y-87162542D01*
X138433788Y-87184314D01*
X138482169Y-87206085D01*
X138506359Y-87227856D01*
X138530550Y-87271399D01*
X138530550Y-87314942D01*
X138506359Y-87358485D01*
X138482169Y-87380256D01*
X138433788Y-87402028D01*
X138337026Y-87423799D01*
X138216073Y-87423799D01*
X138119311Y-87402028D01*
X138070930Y-87380256D01*
X138046740Y-87358485D01*
X138022550Y-87314942D01*
X138530550Y-86966599D02*
X138022550Y-86966599D01*
X138530550Y-86705342D02*
X138240264Y-86901285D01*
X138022550Y-86705342D02*
X138312835Y-86966599D01*
D11*
X137652381Y-90142857D02*
X137176190Y-90476191D01*
X137652381Y-90714286D02*
X136652381Y-90714286D01*
X136652381Y-90333333D01*
X136700000Y-90238095D01*
X136747619Y-90190476D01*
X136842857Y-90142857D01*
X136985714Y-90142857D01*
X137080952Y-90190476D01*
X137128571Y-90238095D01*
X137176190Y-90333333D01*
X137176190Y-90714286D01*
X137652381Y-89190476D02*
X137652381Y-89761905D01*
X137652381Y-89476191D02*
X136652381Y-89476191D01*
X136795238Y-89571429D01*
X136890476Y-89666667D01*
X136938095Y-89761905D01*
X136747619Y-88809524D02*
X136700000Y-88761905D01*
X136652381Y-88666667D01*
X136652381Y-88428571D01*
X136700000Y-88333333D01*
X136747619Y-88285714D01*
X136842857Y-88238095D01*
X136938095Y-88238095D01*
X137080952Y-88285714D01*
X137652381Y-88857143D01*
X137652381Y-88238095D01*
D15*
X138530550Y-90033400D02*
X138530550Y-90294657D01*
X138530550Y-90164029D02*
X138022550Y-90164029D01*
X138095121Y-90207572D01*
X138143502Y-90251114D01*
X138167692Y-90294657D01*
X138022550Y-89750371D02*
X138022550Y-89706828D01*
X138046740Y-89663285D01*
X138070930Y-89641514D01*
X138119311Y-89619743D01*
X138216073Y-89597971D01*
X138337026Y-89597971D01*
X138433788Y-89619743D01*
X138482169Y-89641514D01*
X138506359Y-89663285D01*
X138530550Y-89706828D01*
X138530550Y-89750371D01*
X138506359Y-89793914D01*
X138482169Y-89815685D01*
X138433788Y-89837457D01*
X138337026Y-89859228D01*
X138216073Y-89859228D01*
X138119311Y-89837457D01*
X138070930Y-89815685D01*
X138046740Y-89793914D01*
X138022550Y-89750371D01*
X138022550Y-89314942D02*
X138022550Y-89271399D01*
X138046740Y-89227856D01*
X138070930Y-89206085D01*
X138119311Y-89184314D01*
X138216073Y-89162542D01*
X138337026Y-89162542D01*
X138433788Y-89184314D01*
X138482169Y-89206085D01*
X138506359Y-89227856D01*
X138530550Y-89271399D01*
X138530550Y-89314942D01*
X138506359Y-89358485D01*
X138482169Y-89380256D01*
X138433788Y-89402028D01*
X138337026Y-89423799D01*
X138216073Y-89423799D01*
X138119311Y-89402028D01*
X138070930Y-89380256D01*
X138046740Y-89358485D01*
X138022550Y-89314942D01*
X138530550Y-88966599D02*
X138022550Y-88966599D01*
X138530550Y-88705342D02*
X138240264Y-88901285D01*
X138022550Y-88705342D02*
X138312835Y-88966599D01*
D11*
X137652381Y-86142857D02*
X137176190Y-86476191D01*
X137652381Y-86714286D02*
X136652381Y-86714286D01*
X136652381Y-86333333D01*
X136700000Y-86238095D01*
X136747619Y-86190476D01*
X136842857Y-86142857D01*
X136985714Y-86142857D01*
X137080952Y-86190476D01*
X137128571Y-86238095D01*
X137176190Y-86333333D01*
X137176190Y-86714286D01*
X137652381Y-85190476D02*
X137652381Y-85761905D01*
X137652381Y-85476191D02*
X136652381Y-85476191D01*
X136795238Y-85571429D01*
X136890476Y-85666667D01*
X136938095Y-85761905D01*
X136652381Y-84857143D02*
X136652381Y-84238095D01*
X137033333Y-84571429D01*
X137033333Y-84428571D01*
X137080952Y-84333333D01*
X137128571Y-84285714D01*
X137223810Y-84238095D01*
X137461905Y-84238095D01*
X137557143Y-84285714D01*
X137604762Y-84333333D01*
X137652381Y-84428571D01*
X137652381Y-84714286D01*
X137604762Y-84809524D01*
X137557143Y-84857143D01*
D15*
X138530550Y-86033400D02*
X138530550Y-86294657D01*
X138530550Y-86164029D02*
X138022550Y-86164029D01*
X138095121Y-86207572D01*
X138143502Y-86251114D01*
X138167692Y-86294657D01*
X138022550Y-85750371D02*
X138022550Y-85706828D01*
X138046740Y-85663285D01*
X138070930Y-85641514D01*
X138119311Y-85619743D01*
X138216073Y-85597971D01*
X138337026Y-85597971D01*
X138433788Y-85619743D01*
X138482169Y-85641514D01*
X138506359Y-85663285D01*
X138530550Y-85706828D01*
X138530550Y-85750371D01*
X138506359Y-85793914D01*
X138482169Y-85815685D01*
X138433788Y-85837457D01*
X138337026Y-85859228D01*
X138216073Y-85859228D01*
X138119311Y-85837457D01*
X138070930Y-85815685D01*
X138046740Y-85793914D01*
X138022550Y-85750371D01*
X138022550Y-85314942D02*
X138022550Y-85271399D01*
X138046740Y-85227856D01*
X138070930Y-85206085D01*
X138119311Y-85184314D01*
X138216073Y-85162542D01*
X138337026Y-85162542D01*
X138433788Y-85184314D01*
X138482169Y-85206085D01*
X138506359Y-85227856D01*
X138530550Y-85271399D01*
X138530550Y-85314942D01*
X138506359Y-85358485D01*
X138482169Y-85380256D01*
X138433788Y-85402028D01*
X138337026Y-85423799D01*
X138216073Y-85423799D01*
X138119311Y-85402028D01*
X138070930Y-85380256D01*
X138046740Y-85358485D01*
X138022550Y-85314942D01*
X138530550Y-84966599D02*
X138022550Y-84966599D01*
X138530550Y-84705342D02*
X138240264Y-84901285D01*
X138022550Y-84705342D02*
X138312835Y-84966599D01*
D11*
X136352381Y-92142857D02*
X135876190Y-92476191D01*
X136352381Y-92714286D02*
X135352381Y-92714286D01*
X135352381Y-92333333D01*
X135400000Y-92238095D01*
X135447619Y-92190476D01*
X135542857Y-92142857D01*
X135685714Y-92142857D01*
X135780952Y-92190476D01*
X135828571Y-92238095D01*
X135876190Y-92333333D01*
X135876190Y-92714286D01*
X136352381Y-91190476D02*
X136352381Y-91761905D01*
X136352381Y-91476191D02*
X135352381Y-91476191D01*
X135495238Y-91571429D01*
X135590476Y-91666667D01*
X135638095Y-91761905D01*
X135685714Y-90333333D02*
X136352381Y-90333333D01*
X135304762Y-90571429D02*
X136019048Y-90809524D01*
X136019048Y-90190476D01*
D15*
X138530550Y-92033400D02*
X138530550Y-92294657D01*
X138530550Y-92164029D02*
X138022550Y-92164029D01*
X138095121Y-92207572D01*
X138143502Y-92251114D01*
X138167692Y-92294657D01*
X138022550Y-91750371D02*
X138022550Y-91706828D01*
X138046740Y-91663285D01*
X138070930Y-91641514D01*
X138119311Y-91619743D01*
X138216073Y-91597971D01*
X138337026Y-91597971D01*
X138433788Y-91619743D01*
X138482169Y-91641514D01*
X138506359Y-91663285D01*
X138530550Y-91706828D01*
X138530550Y-91750371D01*
X138506359Y-91793914D01*
X138482169Y-91815685D01*
X138433788Y-91837457D01*
X138337026Y-91859228D01*
X138216073Y-91859228D01*
X138119311Y-91837457D01*
X138070930Y-91815685D01*
X138046740Y-91793914D01*
X138022550Y-91750371D01*
X138022550Y-91314942D02*
X138022550Y-91271399D01*
X138046740Y-91227856D01*
X138070930Y-91206085D01*
X138119311Y-91184314D01*
X138216073Y-91162542D01*
X138337026Y-91162542D01*
X138433788Y-91184314D01*
X138482169Y-91206085D01*
X138506359Y-91227856D01*
X138530550Y-91271399D01*
X138530550Y-91314942D01*
X138506359Y-91358485D01*
X138482169Y-91380256D01*
X138433788Y-91402028D01*
X138337026Y-91423799D01*
X138216073Y-91423799D01*
X138119311Y-91402028D01*
X138070930Y-91380256D01*
X138046740Y-91358485D01*
X138022550Y-91314942D01*
X138530550Y-90966599D02*
X138022550Y-90966599D01*
X138530550Y-90705342D02*
X138240264Y-90901285D01*
X138022550Y-90705342D02*
X138312835Y-90966599D01*
D11*
X77957143Y-101052381D02*
X77623809Y-100576190D01*
X77385714Y-101052381D02*
X77385714Y-100052381D01*
X77766667Y-100052381D01*
X77861905Y-100100000D01*
X77909524Y-100147619D01*
X77957143Y-100242857D01*
X77957143Y-100385714D01*
X77909524Y-100480952D01*
X77861905Y-100528571D01*
X77766667Y-100576190D01*
X77385714Y-100576190D01*
X78909524Y-101052381D02*
X78338095Y-101052381D01*
X78623809Y-101052381D02*
X78623809Y-100052381D01*
X78528571Y-100195238D01*
X78433333Y-100290476D01*
X78338095Y-100338095D01*
X79814286Y-100052381D02*
X79338095Y-100052381D01*
X79290476Y-100528571D01*
X79338095Y-100480952D01*
X79433333Y-100433333D01*
X79671429Y-100433333D01*
X79766667Y-100480952D01*
X79814286Y-100528571D01*
X79861905Y-100623810D01*
X79861905Y-100861905D01*
X79814286Y-100957143D01*
X79766667Y-101004762D01*
X79671429Y-101052381D01*
X79433333Y-101052381D01*
X79338095Y-101004762D01*
X79290476Y-100957143D01*
D15*
X77966600Y-96530550D02*
X77705343Y-96530550D01*
X77835971Y-96530550D02*
X77835971Y-96022550D01*
X77792428Y-96095121D01*
X77748886Y-96143502D01*
X77705343Y-96167692D01*
X78249629Y-96022550D02*
X78293172Y-96022550D01*
X78336715Y-96046740D01*
X78358486Y-96070930D01*
X78380257Y-96119311D01*
X78402029Y-96216073D01*
X78402029Y-96337026D01*
X78380257Y-96433788D01*
X78358486Y-96482169D01*
X78336715Y-96506359D01*
X78293172Y-96530550D01*
X78249629Y-96530550D01*
X78206086Y-96506359D01*
X78184315Y-96482169D01*
X78162543Y-96433788D01*
X78140772Y-96337026D01*
X78140772Y-96216073D01*
X78162543Y-96119311D01*
X78184315Y-96070930D01*
X78206086Y-96046740D01*
X78249629Y-96022550D01*
X78685058Y-96022550D02*
X78728601Y-96022550D01*
X78772144Y-96046740D01*
X78793915Y-96070930D01*
X78815686Y-96119311D01*
X78837458Y-96216073D01*
X78837458Y-96337026D01*
X78815686Y-96433788D01*
X78793915Y-96482169D01*
X78772144Y-96506359D01*
X78728601Y-96530550D01*
X78685058Y-96530550D01*
X78641515Y-96506359D01*
X78619744Y-96482169D01*
X78597972Y-96433788D01*
X78576201Y-96337026D01*
X78576201Y-96216073D01*
X78597972Y-96119311D01*
X78619744Y-96070930D01*
X78641515Y-96046740D01*
X78685058Y-96022550D01*
X79033401Y-96530550D02*
X79033401Y-96022550D01*
X79294658Y-96530550D02*
X79098715Y-96240264D01*
X79294658Y-96022550D02*
X79033401Y-96312835D01*
D11*
X110357143Y-64652381D02*
X110023809Y-64176190D01*
X109785714Y-64652381D02*
X109785714Y-63652381D01*
X110166667Y-63652381D01*
X110261905Y-63700000D01*
X110309524Y-63747619D01*
X110357143Y-63842857D01*
X110357143Y-63985714D01*
X110309524Y-64080952D01*
X110261905Y-64128571D01*
X110166667Y-64176190D01*
X109785714Y-64176190D01*
X111309524Y-64652381D02*
X110738095Y-64652381D01*
X111023809Y-64652381D02*
X111023809Y-63652381D01*
X110928571Y-63795238D01*
X110833333Y-63890476D01*
X110738095Y-63938095D01*
X112166667Y-63652381D02*
X111976190Y-63652381D01*
X111880952Y-63700000D01*
X111833333Y-63747619D01*
X111738095Y-63890476D01*
X111690476Y-64080952D01*
X111690476Y-64461905D01*
X111738095Y-64557143D01*
X111785714Y-64604762D01*
X111880952Y-64652381D01*
X112071429Y-64652381D01*
X112166667Y-64604762D01*
X112214286Y-64557143D01*
X112261905Y-64461905D01*
X112261905Y-64223810D01*
X112214286Y-64128571D01*
X112166667Y-64080952D01*
X112071429Y-64033333D01*
X111880952Y-64033333D01*
X111785714Y-64080952D01*
X111738095Y-64128571D01*
X111690476Y-64223810D01*
D15*
X110684314Y-65530550D02*
X110423057Y-65530550D01*
X110553685Y-65530550D02*
X110553685Y-65022550D01*
X110510142Y-65095121D01*
X110466600Y-65143502D01*
X110423057Y-65167692D01*
X110967343Y-65022550D02*
X111010886Y-65022550D01*
X111054429Y-65046740D01*
X111076200Y-65070930D01*
X111097971Y-65119311D01*
X111119743Y-65216073D01*
X111119743Y-65337026D01*
X111097971Y-65433788D01*
X111076200Y-65482169D01*
X111054429Y-65506359D01*
X111010886Y-65530550D01*
X110967343Y-65530550D01*
X110923800Y-65506359D01*
X110902029Y-65482169D01*
X110880257Y-65433788D01*
X110858486Y-65337026D01*
X110858486Y-65216073D01*
X110880257Y-65119311D01*
X110902029Y-65070930D01*
X110923800Y-65046740D01*
X110967343Y-65022550D01*
X111315686Y-65530550D02*
X111315686Y-65022550D01*
X111576943Y-65530550D02*
X111381000Y-65240264D01*
X111576943Y-65022550D02*
X111315686Y-65312835D01*
D11*
X118252381Y-68642857D02*
X117776190Y-68976191D01*
X118252381Y-69214286D02*
X117252381Y-69214286D01*
X117252381Y-68833333D01*
X117300000Y-68738095D01*
X117347619Y-68690476D01*
X117442857Y-68642857D01*
X117585714Y-68642857D01*
X117680952Y-68690476D01*
X117728571Y-68738095D01*
X117776190Y-68833333D01*
X117776190Y-69214286D01*
X118252381Y-67690476D02*
X118252381Y-68261905D01*
X118252381Y-67976191D02*
X117252381Y-67976191D01*
X117395238Y-68071429D01*
X117490476Y-68166667D01*
X117538095Y-68261905D01*
X117252381Y-67357143D02*
X117252381Y-66690476D01*
X118252381Y-67119048D01*
D15*
X116929070Y-68533400D02*
X116929070Y-68794657D01*
X116929070Y-68664029D02*
X116421070Y-68664029D01*
X116493641Y-68707572D01*
X116542022Y-68751114D01*
X116566212Y-68794657D01*
X116421070Y-68250371D02*
X116421070Y-68206828D01*
X116445260Y-68163285D01*
X116469450Y-68141514D01*
X116517831Y-68119743D01*
X116614593Y-68097971D01*
X116735546Y-68097971D01*
X116832308Y-68119743D01*
X116880689Y-68141514D01*
X116904879Y-68163285D01*
X116929070Y-68206828D01*
X116929070Y-68250371D01*
X116904879Y-68293914D01*
X116880689Y-68315685D01*
X116832308Y-68337457D01*
X116735546Y-68359228D01*
X116614593Y-68359228D01*
X116517831Y-68337457D01*
X116469450Y-68315685D01*
X116445260Y-68293914D01*
X116421070Y-68250371D01*
X116421070Y-67814942D02*
X116421070Y-67771399D01*
X116445260Y-67727856D01*
X116469450Y-67706085D01*
X116517831Y-67684314D01*
X116614593Y-67662542D01*
X116735546Y-67662542D01*
X116832308Y-67684314D01*
X116880689Y-67706085D01*
X116904879Y-67727856D01*
X116929070Y-67771399D01*
X116929070Y-67814942D01*
X116904879Y-67858485D01*
X116880689Y-67880256D01*
X116832308Y-67902028D01*
X116735546Y-67923799D01*
X116614593Y-67923799D01*
X116517831Y-67902028D01*
X116469450Y-67880256D01*
X116445260Y-67858485D01*
X116421070Y-67814942D01*
X116929070Y-67466599D02*
X116421070Y-67466599D01*
X116929070Y-67205342D02*
X116638784Y-67401285D01*
X116421070Y-67205342D02*
X116711355Y-67466599D01*
D11*
X81357143Y-91952381D02*
X81023809Y-91476190D01*
X80785714Y-91952381D02*
X80785714Y-90952381D01*
X81166667Y-90952381D01*
X81261905Y-91000000D01*
X81309524Y-91047619D01*
X81357143Y-91142857D01*
X81357143Y-91285714D01*
X81309524Y-91380952D01*
X81261905Y-91428571D01*
X81166667Y-91476190D01*
X80785714Y-91476190D01*
X82309524Y-91952381D02*
X81738095Y-91952381D01*
X82023809Y-91952381D02*
X82023809Y-90952381D01*
X81928571Y-91095238D01*
X81833333Y-91190476D01*
X81738095Y-91238095D01*
X82880952Y-91380952D02*
X82785714Y-91333333D01*
X82738095Y-91285714D01*
X82690476Y-91190476D01*
X82690476Y-91142857D01*
X82738095Y-91047619D01*
X82785714Y-91000000D01*
X82880952Y-90952381D01*
X83071429Y-90952381D01*
X83166667Y-91000000D01*
X83214286Y-91047619D01*
X83261905Y-91142857D01*
X83261905Y-91190476D01*
X83214286Y-91285714D01*
X83166667Y-91333333D01*
X83071429Y-91380952D01*
X82880952Y-91380952D01*
X82785714Y-91428571D01*
X82738095Y-91476190D01*
X82690476Y-91571429D01*
X82690476Y-91761905D01*
X82738095Y-91857143D01*
X82785714Y-91904762D01*
X82880952Y-91952381D01*
X83071429Y-91952381D01*
X83166667Y-91904762D01*
X83214286Y-91857143D01*
X83261905Y-91761905D01*
X83261905Y-91571429D01*
X83214286Y-91476190D01*
X83166667Y-91428571D01*
X83071429Y-91380952D01*
D15*
X81466600Y-92830550D02*
X81205343Y-92830550D01*
X81335971Y-92830550D02*
X81335971Y-92322550D01*
X81292428Y-92395121D01*
X81248886Y-92443502D01*
X81205343Y-92467692D01*
X81749629Y-92322550D02*
X81793172Y-92322550D01*
X81836715Y-92346740D01*
X81858486Y-92370930D01*
X81880257Y-92419311D01*
X81902029Y-92516073D01*
X81902029Y-92637026D01*
X81880257Y-92733788D01*
X81858486Y-92782169D01*
X81836715Y-92806359D01*
X81793172Y-92830550D01*
X81749629Y-92830550D01*
X81706086Y-92806359D01*
X81684315Y-92782169D01*
X81662543Y-92733788D01*
X81640772Y-92637026D01*
X81640772Y-92516073D01*
X81662543Y-92419311D01*
X81684315Y-92370930D01*
X81706086Y-92346740D01*
X81749629Y-92322550D01*
X82185058Y-92322550D02*
X82228601Y-92322550D01*
X82272144Y-92346740D01*
X82293915Y-92370930D01*
X82315686Y-92419311D01*
X82337458Y-92516073D01*
X82337458Y-92637026D01*
X82315686Y-92733788D01*
X82293915Y-92782169D01*
X82272144Y-92806359D01*
X82228601Y-92830550D01*
X82185058Y-92830550D01*
X82141515Y-92806359D01*
X82119744Y-92782169D01*
X82097972Y-92733788D01*
X82076201Y-92637026D01*
X82076201Y-92516073D01*
X82097972Y-92419311D01*
X82119744Y-92370930D01*
X82141515Y-92346740D01*
X82185058Y-92322550D01*
X82533401Y-92830550D02*
X82533401Y-92322550D01*
X82794658Y-92830550D02*
X82598715Y-92540264D01*
X82794658Y-92322550D02*
X82533401Y-92612835D01*
D11*
X68357143Y-79652381D02*
X68023809Y-79176190D01*
X67785714Y-79652381D02*
X67785714Y-78652381D01*
X68166667Y-78652381D01*
X68261905Y-78700000D01*
X68309524Y-78747619D01*
X68357143Y-78842857D01*
X68357143Y-78985714D01*
X68309524Y-79080952D01*
X68261905Y-79128571D01*
X68166667Y-79176190D01*
X67785714Y-79176190D01*
X69309524Y-79652381D02*
X68738095Y-79652381D01*
X69023809Y-79652381D02*
X69023809Y-78652381D01*
X68928571Y-78795238D01*
X68833333Y-78890476D01*
X68738095Y-78938095D01*
X69785714Y-79652381D02*
X69976190Y-79652381D01*
X70071429Y-79604762D01*
X70119048Y-79557143D01*
X70214286Y-79414286D01*
X70261905Y-79223810D01*
X70261905Y-78842857D01*
X70214286Y-78747619D01*
X70166667Y-78700000D01*
X70071429Y-78652381D01*
X69880952Y-78652381D01*
X69785714Y-78700000D01*
X69738095Y-78747619D01*
X69690476Y-78842857D01*
X69690476Y-79080952D01*
X69738095Y-79176190D01*
X69785714Y-79223810D01*
X69880952Y-79271429D01*
X70071429Y-79271429D01*
X70166667Y-79223810D01*
X70214286Y-79176190D01*
X70261905Y-79080952D01*
D15*
X68466600Y-80530550D02*
X68205343Y-80530550D01*
X68335971Y-80530550D02*
X68335971Y-80022550D01*
X68292428Y-80095121D01*
X68248886Y-80143502D01*
X68205343Y-80167692D01*
X68749629Y-80022550D02*
X68793172Y-80022550D01*
X68836715Y-80046740D01*
X68858486Y-80070930D01*
X68880257Y-80119311D01*
X68902029Y-80216073D01*
X68902029Y-80337026D01*
X68880257Y-80433788D01*
X68858486Y-80482169D01*
X68836715Y-80506359D01*
X68793172Y-80530550D01*
X68749629Y-80530550D01*
X68706086Y-80506359D01*
X68684315Y-80482169D01*
X68662543Y-80433788D01*
X68640772Y-80337026D01*
X68640772Y-80216073D01*
X68662543Y-80119311D01*
X68684315Y-80070930D01*
X68706086Y-80046740D01*
X68749629Y-80022550D01*
X69185058Y-80022550D02*
X69228601Y-80022550D01*
X69272144Y-80046740D01*
X69293915Y-80070930D01*
X69315686Y-80119311D01*
X69337458Y-80216073D01*
X69337458Y-80337026D01*
X69315686Y-80433788D01*
X69293915Y-80482169D01*
X69272144Y-80506359D01*
X69228601Y-80530550D01*
X69185058Y-80530550D01*
X69141515Y-80506359D01*
X69119744Y-80482169D01*
X69097972Y-80433788D01*
X69076201Y-80337026D01*
X69076201Y-80216073D01*
X69097972Y-80119311D01*
X69119744Y-80070930D01*
X69141515Y-80046740D01*
X69185058Y-80022550D01*
X69533401Y-80530550D02*
X69533401Y-80022550D01*
X69794658Y-80530550D02*
X69598715Y-80240264D01*
X69794658Y-80022550D02*
X69533401Y-80312835D01*
D11*
X116357143Y-96252381D02*
X116023809Y-95776190D01*
X115785714Y-96252381D02*
X115785714Y-95252381D01*
X116166667Y-95252381D01*
X116261905Y-95300000D01*
X116309524Y-95347619D01*
X116357143Y-95442857D01*
X116357143Y-95585714D01*
X116309524Y-95680952D01*
X116261905Y-95728571D01*
X116166667Y-95776190D01*
X115785714Y-95776190D01*
X116738095Y-95347619D02*
X116785714Y-95300000D01*
X116880952Y-95252381D01*
X117119048Y-95252381D01*
X117214286Y-95300000D01*
X117261905Y-95347619D01*
X117309524Y-95442857D01*
X117309524Y-95538095D01*
X117261905Y-95680952D01*
X116690476Y-96252381D01*
X117309524Y-96252381D01*
X117928571Y-95252381D02*
X118023810Y-95252381D01*
X118119048Y-95300000D01*
X118166667Y-95347619D01*
X118214286Y-95442857D01*
X118261905Y-95633333D01*
X118261905Y-95871429D01*
X118214286Y-96061905D01*
X118166667Y-96157143D01*
X118119048Y-96204762D01*
X118023810Y-96252381D01*
X117928571Y-96252381D01*
X117833333Y-96204762D01*
X117785714Y-96157143D01*
X117738095Y-96061905D01*
X117690476Y-95871429D01*
X117690476Y-95633333D01*
X117738095Y-95442857D01*
X117785714Y-95347619D01*
X117833333Y-95300000D01*
X117928571Y-95252381D01*
D15*
X116466600Y-94929070D02*
X116205343Y-94929070D01*
X116335971Y-94929070D02*
X116335971Y-94421070D01*
X116292428Y-94493641D01*
X116248886Y-94542022D01*
X116205343Y-94566212D01*
X116749629Y-94421070D02*
X116793172Y-94421070D01*
X116836715Y-94445260D01*
X116858486Y-94469450D01*
X116880257Y-94517831D01*
X116902029Y-94614593D01*
X116902029Y-94735546D01*
X116880257Y-94832308D01*
X116858486Y-94880689D01*
X116836715Y-94904879D01*
X116793172Y-94929070D01*
X116749629Y-94929070D01*
X116706086Y-94904879D01*
X116684315Y-94880689D01*
X116662543Y-94832308D01*
X116640772Y-94735546D01*
X116640772Y-94614593D01*
X116662543Y-94517831D01*
X116684315Y-94469450D01*
X116706086Y-94445260D01*
X116749629Y-94421070D01*
X117185058Y-94421070D02*
X117228601Y-94421070D01*
X117272144Y-94445260D01*
X117293915Y-94469450D01*
X117315686Y-94517831D01*
X117337458Y-94614593D01*
X117337458Y-94735546D01*
X117315686Y-94832308D01*
X117293915Y-94880689D01*
X117272144Y-94904879D01*
X117228601Y-94929070D01*
X117185058Y-94929070D01*
X117141515Y-94904879D01*
X117119744Y-94880689D01*
X117097972Y-94832308D01*
X117076201Y-94735546D01*
X117076201Y-94614593D01*
X117097972Y-94517831D01*
X117119744Y-94469450D01*
X117141515Y-94445260D01*
X117185058Y-94421070D01*
X117533401Y-94929070D02*
X117533401Y-94421070D01*
X117794658Y-94929070D02*
X117598715Y-94638784D01*
X117794658Y-94421070D02*
X117533401Y-94711355D01*
D11*
X136338095Y-64638381D02*
X136338095Y-65447905D01*
X136385714Y-65543143D01*
X136433333Y-65590762D01*
X136528571Y-65638381D01*
X136719048Y-65638381D01*
X136814286Y-65590762D01*
X136861905Y-65543143D01*
X136909524Y-65447905D01*
X136909524Y-64638381D01*
X137338095Y-64733619D02*
X137385714Y-64686000D01*
X137480952Y-64638381D01*
X137719048Y-64638381D01*
X137814286Y-64686000D01*
X137861905Y-64733619D01*
X137909524Y-64828857D01*
X137909524Y-64924095D01*
X137861905Y-65066952D01*
X137290476Y-65638381D01*
X137909524Y-65638381D01*
X137142381Y-82101905D02*
X137951905Y-82101905D01*
X138047143Y-82054286D01*
X138094762Y-82006667D01*
X138142381Y-81911429D01*
X138142381Y-81720952D01*
X138094762Y-81625714D01*
X138047143Y-81578095D01*
X137951905Y-81530476D01*
X137142381Y-81530476D01*
X137142381Y-81149524D02*
X137142381Y-80530476D01*
X137523333Y-80863810D01*
X137523333Y-80720952D01*
X137570952Y-80625714D01*
X137618571Y-80578095D01*
X137713810Y-80530476D01*
X137951905Y-80530476D01*
X138047143Y-80578095D01*
X138094762Y-80625714D01*
X138142381Y-80720952D01*
X138142381Y-81006667D01*
X138094762Y-81101905D01*
X138047143Y-81149524D01*
X142452381Y-82142857D02*
X142452381Y-81571428D01*
X143452381Y-81857143D02*
X142452381Y-81857143D01*
X143452381Y-81238095D02*
X142452381Y-81238095D01*
X142452381Y-80857142D01*
X142500000Y-80761904D01*
X142547619Y-80714285D01*
X142642857Y-80666666D01*
X142785714Y-80666666D01*
X142880952Y-80714285D01*
X142928571Y-80761904D01*
X142976190Y-80857142D01*
X142976190Y-81238095D01*
X143404762Y-80285714D02*
X143452381Y-80142857D01*
X143452381Y-79904761D01*
X143404762Y-79809523D01*
X143357143Y-79761904D01*
X143261905Y-79714285D01*
X143166667Y-79714285D01*
X143071429Y-79761904D01*
X143023810Y-79809523D01*
X142976190Y-79904761D01*
X142928571Y-80095238D01*
X142880952Y-80190476D01*
X142833333Y-80238095D01*
X142738095Y-80285714D01*
X142642857Y-80285714D01*
X142547619Y-80238095D01*
X142500000Y-80190476D01*
X142452381Y-80095238D01*
X142452381Y-79857142D01*
X142500000Y-79714285D01*
X142452381Y-79380952D02*
X142452381Y-78714285D01*
X143452381Y-79142857D01*
X142452381Y-78428571D02*
X142452381Y-77761904D01*
X143452381Y-78190476D01*
X142452381Y-77190476D02*
X142452381Y-77095237D01*
X142500000Y-76999999D01*
X142547619Y-76952380D01*
X142642857Y-76904761D01*
X142833333Y-76857142D01*
X143071429Y-76857142D01*
X143261905Y-76904761D01*
X143357143Y-76952380D01*
X143404762Y-76999999D01*
X143452381Y-77095237D01*
X143452381Y-77190476D01*
X143404762Y-77285714D01*
X143357143Y-77333333D01*
X143261905Y-77380952D01*
X143071429Y-77428571D01*
X142833333Y-77428571D01*
X142642857Y-77380952D01*
X142547619Y-77333333D01*
X142500000Y-77285714D01*
X142452381Y-77190476D01*
X142452381Y-76523809D02*
X142452381Y-75904761D01*
X142833333Y-76238095D01*
X142833333Y-76095237D01*
X142880952Y-75999999D01*
X142928571Y-75952380D01*
X143023810Y-75904761D01*
X143261905Y-75904761D01*
X143357143Y-75952380D01*
X143404762Y-75999999D01*
X143452381Y-76095237D01*
X143452381Y-76380952D01*
X143404762Y-76476190D01*
X143357143Y-76523809D01*
X142452381Y-75571428D02*
X142452381Y-74952380D01*
X142833333Y-75285714D01*
X142833333Y-75142856D01*
X142880952Y-75047618D01*
X142928571Y-74999999D01*
X143023810Y-74952380D01*
X143261905Y-74952380D01*
X143357143Y-74999999D01*
X143404762Y-75047618D01*
X143452381Y-75142856D01*
X143452381Y-75428571D01*
X143404762Y-75523809D01*
X143357143Y-75571428D01*
X78904762Y-77652381D02*
X78571428Y-77176190D01*
X78333333Y-77652381D02*
X78333333Y-76652381D01*
X78714286Y-76652381D01*
X78809524Y-76700000D01*
X78857143Y-76747619D01*
X78904762Y-76842857D01*
X78904762Y-76985714D01*
X78857143Y-77080952D01*
X78809524Y-77128571D01*
X78714286Y-77176190D01*
X78333333Y-77176190D01*
X79190476Y-76652381D02*
X79523809Y-77652381D01*
X79857143Y-76652381D01*
X80714286Y-77652381D02*
X80142857Y-77652381D01*
X80428571Y-77652381D02*
X80428571Y-76652381D01*
X80333333Y-76795238D01*
X80238095Y-76890476D01*
X80142857Y-76938095D01*
X119357143Y-90652381D02*
X119023809Y-90176190D01*
X118785714Y-90652381D02*
X118785714Y-89652381D01*
X119166667Y-89652381D01*
X119261905Y-89700000D01*
X119309524Y-89747619D01*
X119357143Y-89842857D01*
X119357143Y-89985714D01*
X119309524Y-90080952D01*
X119261905Y-90128571D01*
X119166667Y-90176190D01*
X118785714Y-90176190D01*
X119738095Y-89747619D02*
X119785714Y-89700000D01*
X119880952Y-89652381D01*
X120119048Y-89652381D01*
X120214286Y-89700000D01*
X120261905Y-89747619D01*
X120309524Y-89842857D01*
X120309524Y-89938095D01*
X120261905Y-90080952D01*
X119690476Y-90652381D01*
X120309524Y-90652381D01*
X121261905Y-90652381D02*
X120690476Y-90652381D01*
X120976190Y-90652381D02*
X120976190Y-89652381D01*
X120880952Y-89795238D01*
X120785714Y-89890476D01*
X120690476Y-89938095D01*
D15*
X119684314Y-91530550D02*
X119423057Y-91530550D01*
X119553685Y-91530550D02*
X119553685Y-91022550D01*
X119510142Y-91095121D01*
X119466600Y-91143502D01*
X119423057Y-91167692D01*
X119967343Y-91022550D02*
X120010886Y-91022550D01*
X120054429Y-91046740D01*
X120076200Y-91070930D01*
X120097971Y-91119311D01*
X120119743Y-91216073D01*
X120119743Y-91337026D01*
X120097971Y-91433788D01*
X120076200Y-91482169D01*
X120054429Y-91506359D01*
X120010886Y-91530550D01*
X119967343Y-91530550D01*
X119923800Y-91506359D01*
X119902029Y-91482169D01*
X119880257Y-91433788D01*
X119858486Y-91337026D01*
X119858486Y-91216073D01*
X119880257Y-91119311D01*
X119902029Y-91070930D01*
X119923800Y-91046740D01*
X119967343Y-91022550D01*
X120315686Y-91530550D02*
X120315686Y-91022550D01*
X120576943Y-91530550D02*
X120381000Y-91240264D01*
X120576943Y-91022550D02*
X120315686Y-91312835D01*
D11*
X141652381Y-67642857D02*
X141176190Y-67976191D01*
X141652381Y-68214286D02*
X140652381Y-68214286D01*
X140652381Y-67833333D01*
X140700000Y-67738095D01*
X140747619Y-67690476D01*
X140842857Y-67642857D01*
X140985714Y-67642857D01*
X141080952Y-67690476D01*
X141128571Y-67738095D01*
X141176190Y-67833333D01*
X141176190Y-68214286D01*
X140747619Y-67261905D02*
X140700000Y-67214286D01*
X140652381Y-67119048D01*
X140652381Y-66880952D01*
X140700000Y-66785714D01*
X140747619Y-66738095D01*
X140842857Y-66690476D01*
X140938095Y-66690476D01*
X141080952Y-66738095D01*
X141652381Y-67309524D01*
X141652381Y-66690476D01*
X140747619Y-66309524D02*
X140700000Y-66261905D01*
X140652381Y-66166667D01*
X140652381Y-65928571D01*
X140700000Y-65833333D01*
X140747619Y-65785714D01*
X140842857Y-65738095D01*
X140938095Y-65738095D01*
X141080952Y-65785714D01*
X141652381Y-66357143D01*
X141652381Y-65738095D01*
D15*
X142191883Y-67348343D02*
X142530550Y-67348343D01*
X141998359Y-67457200D02*
X142361216Y-67566057D01*
X142361216Y-67283029D01*
X142022550Y-67152400D02*
X142022550Y-66847600D01*
X142530550Y-67043543D01*
X142022550Y-66586342D02*
X142022550Y-66542799D01*
X142046740Y-66499256D01*
X142070930Y-66477485D01*
X142119311Y-66455714D01*
X142216073Y-66433942D01*
X142337026Y-66433942D01*
X142433788Y-66455714D01*
X142482169Y-66477485D01*
X142506359Y-66499256D01*
X142530550Y-66542799D01*
X142530550Y-66586342D01*
X142506359Y-66629885D01*
X142482169Y-66651656D01*
X142433788Y-66673428D01*
X142337026Y-66695199D01*
X142216073Y-66695199D01*
X142119311Y-66673428D01*
X142070930Y-66651656D01*
X142046740Y-66629885D01*
X142022550Y-66586342D01*
D11*
X152157143Y-66952381D02*
X151823809Y-66476190D01*
X151585714Y-66952381D02*
X151585714Y-65952381D01*
X151966667Y-65952381D01*
X152061905Y-66000000D01*
X152109524Y-66047619D01*
X152157143Y-66142857D01*
X152157143Y-66285714D01*
X152109524Y-66380952D01*
X152061905Y-66428571D01*
X151966667Y-66476190D01*
X151585714Y-66476190D01*
X152538095Y-66047619D02*
X152585714Y-66000000D01*
X152680952Y-65952381D01*
X152919048Y-65952381D01*
X153014286Y-66000000D01*
X153061905Y-66047619D01*
X153109524Y-66142857D01*
X153109524Y-66238095D01*
X153061905Y-66380952D01*
X152490476Y-66952381D01*
X153109524Y-66952381D01*
X153442857Y-65952381D02*
X154061905Y-65952381D01*
X153728571Y-66333333D01*
X153871429Y-66333333D01*
X153966667Y-66380952D01*
X154014286Y-66428571D01*
X154061905Y-66523810D01*
X154061905Y-66761905D01*
X154014286Y-66857143D01*
X153966667Y-66904762D01*
X153871429Y-66952381D01*
X153585714Y-66952381D01*
X153490476Y-66904762D01*
X153442857Y-66857143D01*
D15*
X152130629Y-72530550D02*
X151869372Y-72530550D01*
X152000000Y-72530550D02*
X152000000Y-72022550D01*
X151956457Y-72095121D01*
X151912915Y-72143502D01*
X151869372Y-72167692D01*
D11*
X125357143Y-80652381D02*
X125023809Y-80176190D01*
X124785714Y-80652381D02*
X124785714Y-79652381D01*
X125166667Y-79652381D01*
X125261905Y-79700000D01*
X125309524Y-79747619D01*
X125357143Y-79842857D01*
X125357143Y-79985714D01*
X125309524Y-80080952D01*
X125261905Y-80128571D01*
X125166667Y-80176190D01*
X124785714Y-80176190D01*
X125738095Y-79747619D02*
X125785714Y-79700000D01*
X125880952Y-79652381D01*
X126119048Y-79652381D01*
X126214286Y-79700000D01*
X126261905Y-79747619D01*
X126309524Y-79842857D01*
X126309524Y-79938095D01*
X126261905Y-80080952D01*
X125690476Y-80652381D01*
X126309524Y-80652381D01*
X127166667Y-79985714D02*
X127166667Y-80652381D01*
X126928571Y-79604762D02*
X126690476Y-80319048D01*
X127309524Y-80319048D01*
D15*
X125466600Y-81530550D02*
X125205343Y-81530550D01*
X125335971Y-81530550D02*
X125335971Y-81022550D01*
X125292428Y-81095121D01*
X125248886Y-81143502D01*
X125205343Y-81167692D01*
X125749629Y-81022550D02*
X125793172Y-81022550D01*
X125836715Y-81046740D01*
X125858486Y-81070930D01*
X125880257Y-81119311D01*
X125902029Y-81216073D01*
X125902029Y-81337026D01*
X125880257Y-81433788D01*
X125858486Y-81482169D01*
X125836715Y-81506359D01*
X125793172Y-81530550D01*
X125749629Y-81530550D01*
X125706086Y-81506359D01*
X125684315Y-81482169D01*
X125662543Y-81433788D01*
X125640772Y-81337026D01*
X125640772Y-81216073D01*
X125662543Y-81119311D01*
X125684315Y-81070930D01*
X125706086Y-81046740D01*
X125749629Y-81022550D01*
X126185058Y-81022550D02*
X126228601Y-81022550D01*
X126272144Y-81046740D01*
X126293915Y-81070930D01*
X126315686Y-81119311D01*
X126337458Y-81216073D01*
X126337458Y-81337026D01*
X126315686Y-81433788D01*
X126293915Y-81482169D01*
X126272144Y-81506359D01*
X126228601Y-81530550D01*
X126185058Y-81530550D01*
X126141515Y-81506359D01*
X126119744Y-81482169D01*
X126097972Y-81433788D01*
X126076201Y-81337026D01*
X126076201Y-81216073D01*
X126097972Y-81119311D01*
X126119744Y-81070930D01*
X126141515Y-81046740D01*
X126185058Y-81022550D01*
X126533401Y-81530550D02*
X126533401Y-81022550D01*
X126794658Y-81530550D02*
X126598715Y-81240264D01*
X126794658Y-81022550D02*
X126533401Y-81312835D01*
D11*
X125257143Y-89852381D02*
X124923809Y-89376190D01*
X124685714Y-89852381D02*
X124685714Y-88852381D01*
X125066667Y-88852381D01*
X125161905Y-88900000D01*
X125209524Y-88947619D01*
X125257143Y-89042857D01*
X125257143Y-89185714D01*
X125209524Y-89280952D01*
X125161905Y-89328571D01*
X125066667Y-89376190D01*
X124685714Y-89376190D01*
X125638095Y-88947619D02*
X125685714Y-88900000D01*
X125780952Y-88852381D01*
X126019048Y-88852381D01*
X126114286Y-88900000D01*
X126161905Y-88947619D01*
X126209524Y-89042857D01*
X126209524Y-89138095D01*
X126161905Y-89280952D01*
X125590476Y-89852381D01*
X126209524Y-89852381D01*
X127114286Y-88852381D02*
X126638095Y-88852381D01*
X126590476Y-89328571D01*
X126638095Y-89280952D01*
X126733333Y-89233333D01*
X126971429Y-89233333D01*
X127066667Y-89280952D01*
X127114286Y-89328571D01*
X127161905Y-89423810D01*
X127161905Y-89661905D01*
X127114286Y-89757143D01*
X127066667Y-89804762D01*
X126971429Y-89852381D01*
X126733333Y-89852381D01*
X126638095Y-89804762D01*
X126590476Y-89757143D01*
D15*
X125640771Y-85022550D02*
X125553685Y-85022550D01*
X125510142Y-85046740D01*
X125488371Y-85070930D01*
X125444828Y-85143502D01*
X125423057Y-85240264D01*
X125423057Y-85433788D01*
X125444828Y-85482169D01*
X125466600Y-85506359D01*
X125510142Y-85530550D01*
X125597228Y-85530550D01*
X125640771Y-85506359D01*
X125662542Y-85482169D01*
X125684314Y-85433788D01*
X125684314Y-85312835D01*
X125662542Y-85264454D01*
X125640771Y-85240264D01*
X125597228Y-85216073D01*
X125510142Y-85216073D01*
X125466600Y-85240264D01*
X125444828Y-85264454D01*
X125423057Y-85312835D01*
X125945571Y-85240264D02*
X125902029Y-85216073D01*
X125880257Y-85191883D01*
X125858486Y-85143502D01*
X125858486Y-85119311D01*
X125880257Y-85070930D01*
X125902029Y-85046740D01*
X125945571Y-85022550D01*
X126032657Y-85022550D01*
X126076200Y-85046740D01*
X126097971Y-85070930D01*
X126119743Y-85119311D01*
X126119743Y-85143502D01*
X126097971Y-85191883D01*
X126076200Y-85216073D01*
X126032657Y-85240264D01*
X125945571Y-85240264D01*
X125902029Y-85264454D01*
X125880257Y-85288645D01*
X125858486Y-85337026D01*
X125858486Y-85433788D01*
X125880257Y-85482169D01*
X125902029Y-85506359D01*
X125945571Y-85530550D01*
X126032657Y-85530550D01*
X126076200Y-85506359D01*
X126097971Y-85482169D01*
X126119743Y-85433788D01*
X126119743Y-85337026D01*
X126097971Y-85288645D01*
X126076200Y-85264454D01*
X126032657Y-85240264D01*
X126315686Y-85530550D02*
X126315686Y-85022550D01*
X126576943Y-85530550D02*
X126381000Y-85240264D01*
X126576943Y-85022550D02*
X126315686Y-85312835D01*
D11*
X150228571Y-91261905D02*
X150228571Y-90461905D01*
X150533333Y-90461905D01*
X150609524Y-90500000D01*
X150647619Y-90538095D01*
X150685714Y-90614286D01*
X150685714Y-90728571D01*
X150647619Y-90804762D01*
X150609524Y-90842857D01*
X150533333Y-90880952D01*
X150228571Y-90880952D01*
X151447619Y-91261905D02*
X150990476Y-91261905D01*
X151219047Y-91261905D02*
X151219047Y-90461905D01*
X151142857Y-90576190D01*
X151066666Y-90652381D01*
X150990476Y-90690476D01*
X151752381Y-90538095D02*
X151790476Y-90500000D01*
X151866667Y-90461905D01*
X152057143Y-90461905D01*
X152133333Y-90500000D01*
X152171429Y-90538095D01*
X152209524Y-90614286D01*
X152209524Y-90690476D01*
X152171429Y-90804762D01*
X151714286Y-91261905D01*
X152209524Y-91261905D01*
X111212381Y-90931905D02*
X112021905Y-90931905D01*
X112117143Y-90884286D01*
X112164762Y-90836667D01*
X112212381Y-90741429D01*
X112212381Y-90550952D01*
X112164762Y-90455714D01*
X112117143Y-90408095D01*
X112021905Y-90360476D01*
X111212381Y-90360476D01*
X112212381Y-89360476D02*
X112212381Y-89931905D01*
X112212381Y-89646191D02*
X111212381Y-89646191D01*
X111355238Y-89741429D01*
X111450476Y-89836667D01*
X111498095Y-89931905D01*
X137652381Y-95142857D02*
X137176190Y-95476191D01*
X137652381Y-95714286D02*
X136652381Y-95714286D01*
X136652381Y-95333333D01*
X136700000Y-95238095D01*
X136747619Y-95190476D01*
X136842857Y-95142857D01*
X136985714Y-95142857D01*
X137080952Y-95190476D01*
X137128571Y-95238095D01*
X137176190Y-95333333D01*
X137176190Y-95714286D01*
X136747619Y-94761905D02*
X136700000Y-94714286D01*
X136652381Y-94619048D01*
X136652381Y-94380952D01*
X136700000Y-94285714D01*
X136747619Y-94238095D01*
X136842857Y-94190476D01*
X136938095Y-94190476D01*
X137080952Y-94238095D01*
X137652381Y-94809524D01*
X137652381Y-94190476D01*
X136652381Y-93333333D02*
X136652381Y-93523810D01*
X136700000Y-93619048D01*
X136747619Y-93666667D01*
X136890476Y-93761905D01*
X137080952Y-93809524D01*
X137461905Y-93809524D01*
X137557143Y-93761905D01*
X137604762Y-93714286D01*
X137652381Y-93619048D01*
X137652381Y-93428571D01*
X137604762Y-93333333D01*
X137557143Y-93285714D01*
X137461905Y-93238095D01*
X137223810Y-93238095D01*
X137128571Y-93285714D01*
X137080952Y-93333333D01*
X137033333Y-93428571D01*
X137033333Y-93619048D01*
X137080952Y-93714286D01*
X137128571Y-93761905D01*
X137223810Y-93809524D01*
D15*
X138530550Y-95033400D02*
X138530550Y-95294657D01*
X138530550Y-95164029D02*
X138022550Y-95164029D01*
X138095121Y-95207572D01*
X138143502Y-95251114D01*
X138167692Y-95294657D01*
X138022550Y-94750371D02*
X138022550Y-94706828D01*
X138046740Y-94663285D01*
X138070930Y-94641514D01*
X138119311Y-94619743D01*
X138216073Y-94597971D01*
X138337026Y-94597971D01*
X138433788Y-94619743D01*
X138482169Y-94641514D01*
X138506359Y-94663285D01*
X138530550Y-94706828D01*
X138530550Y-94750371D01*
X138506359Y-94793914D01*
X138482169Y-94815685D01*
X138433788Y-94837457D01*
X138337026Y-94859228D01*
X138216073Y-94859228D01*
X138119311Y-94837457D01*
X138070930Y-94815685D01*
X138046740Y-94793914D01*
X138022550Y-94750371D01*
X138022550Y-94314942D02*
X138022550Y-94271399D01*
X138046740Y-94227856D01*
X138070930Y-94206085D01*
X138119311Y-94184314D01*
X138216073Y-94162542D01*
X138337026Y-94162542D01*
X138433788Y-94184314D01*
X138482169Y-94206085D01*
X138506359Y-94227856D01*
X138530550Y-94271399D01*
X138530550Y-94314942D01*
X138506359Y-94358485D01*
X138482169Y-94380256D01*
X138433788Y-94402028D01*
X138337026Y-94423799D01*
X138216073Y-94423799D01*
X138119311Y-94402028D01*
X138070930Y-94380256D01*
X138046740Y-94358485D01*
X138022550Y-94314942D01*
X138530550Y-93966599D02*
X138022550Y-93966599D01*
X138530550Y-93705342D02*
X138240264Y-93901285D01*
X138022550Y-93705342D02*
X138312835Y-93966599D01*
M02*
