M48
;DRILL file {KiCad 4.0.7-e2-6376~58~ubuntu14.04.1} date Thu Jan 18 16:09:09 2018
;FORMAT={-:-/ absolute / metric / decimal}
FMAT,2
METRIC,TZ
T1C0.400
T2C0.762
T3C0.800
T4C0.998
T5C1.001
T6C1.016
T7C3.500
%
G90
G05
M71
T1
X69.6Y-96.2
X95.4Y-72.32
X97.25Y-69.82
X99.7Y-88.8
X100.1Y-91.5
X105.5Y-95.5
X105.7Y-82.9
X107.Y-84.3
X108.Y-79.5
X109.1Y-80.9
X110.Y-77.
X113.7Y-83.1
X115.5Y-87.4
X115.5Y-88.4
X117.21Y-88.37
X117.9Y-89.6
X118.36Y-69.62
X118.5Y-93.
X118.9Y-86.3
X120.17Y-69.68
X123.3Y-86.3
X124.2Y-84.9
X132.5Y-73.9
X135.94Y-78.8
X138.Y-95.1
X141.3Y-76.7
X142.2Y-84.5
X142.2Y-95.6
X142.75Y-88.88
X143.8Y-86.2
X144.1Y-76.8
X145.Y-92.8
X146.6Y-74.9
X147.5Y-63.9
X152.05Y-71.36
X154.48Y-68.7
T2
X73.1Y-81.
X75.64Y-78.46
X78.18Y-81.
T3
X83.3Y-79.4
X92.Y-88.6
X93.9Y-78.8
X117.8Y-81.9
X121.9Y-77.5
X129.2Y-83.9
X133.4Y-87.4
X150.7Y-84.4
X151.2Y-92.6
T4
X63.Y-87.46
X63.Y-90.
X63.Y-92.54
X63.2Y-79.73
X63.2Y-82.27
X72.19Y-58.
X72.73Y-102.
X74.73Y-58.
X75.27Y-102.
X75.6Y-88.46
X75.6Y-91.
X75.6Y-93.54
X77.27Y-58.
X79.81Y-58.
X82.Y-70.86
X82.Y-73.4
X82.Y-75.94
X157.Y-68.73
X157.Y-71.27
T6
X86.36Y-60.96
X86.36Y-99.06
X88.9Y-60.96
X88.9Y-99.06
X91.44Y-60.96
X91.44Y-99.06
X93.98Y-60.96
X93.98Y-99.06
X96.52Y-60.96
X96.52Y-99.06
X99.06Y-60.96
X99.06Y-99.06
X101.6Y-60.96
X101.6Y-99.06
X104.14Y-60.96
X104.14Y-99.06
X106.68Y-60.96
X106.68Y-99.06
X109.22Y-60.96
X109.22Y-99.06
X111.76Y-60.96
X111.76Y-99.06
X114.3Y-60.96
X114.3Y-99.06
X116.84Y-60.96
X116.84Y-99.06
X119.38Y-60.96
X119.38Y-99.06
X121.92Y-60.96
X121.92Y-99.06
X124.46Y-60.96
X124.46Y-99.06
X127.Y-60.96
X127.Y-99.06
X129.54Y-60.96
X129.54Y-99.06
X132.08Y-60.96
X132.08Y-99.06
X134.62Y-60.96
X134.62Y-99.06
X137.16Y-60.96
X137.16Y-99.06
X139.7Y-60.96
X139.7Y-99.06
X142.24Y-60.96
X142.24Y-99.06
X144.78Y-60.96
X144.78Y-99.06
X147.32Y-60.96
X147.32Y-99.06
T7
X65.Y-60.
X65.Y-100.
X155.Y-60.
X155.Y-100.
T5
X64.301Y-69.301G85X64.301Y-71.299
G05
X66.301Y-74.999G85X68.3Y-74.999
G05
X70.3Y-69.301G85X70.3Y-71.299
G05
T0
M30
