M48
;DRILL file {KiCad 4.0.3+e1-6302~38~ubuntu16.04.1-stable} date Sat Aug 27 20:20:30 2016
;FORMAT={-:-/ absolute / inch / decimal}
FMAT,2
INCH,TZ
T1C0.016
T2C0.030
T3C0.031
T4C0.039
T5C0.039
T6C0.040
T7C0.138
%
G90
G05
M72
T1
X2.7559Y-3.3071
X3.7559Y-2.8472
X3.8287Y-2.7488
X3.9252Y-3.4961
X3.9409Y-3.6024
X4.1535Y-3.7598
X4.252Y-3.1299
X4.2953Y-3.185
X4.3307Y-3.0315
X4.6146Y-3.4791
X4.6417Y-3.5276
X4.6598Y-2.7409
X4.6811Y-3.3976
X4.7311Y-2.7433
X4.8543Y-3.3976
X4.8898Y-3.3425
X5.2165Y-2.9094
X5.352Y-3.1024
X5.4331Y-3.7441
X5.563Y-3.0197
X5.5984Y-3.3268
X5.5984Y-3.7638
X5.6201Y-3.4992
X5.6614Y-3.3937
X5.6732Y-3.0236
X5.7087Y-3.6535
X5.7717Y-2.9488
X5.9862Y-2.8094
X6.0819Y-2.7047
T2
X2.874Y-3.189
X2.974Y-3.089
X3.074Y-3.189
T3
X3.2362Y-3.4685
X4.6378Y-3.2244
X4.7992Y-3.0512
X4.878Y-3.7362
X5.9528Y-3.6457
T4
X2.4803Y-3.4433
X2.4803Y-3.5433
X2.4803Y-3.6433
X2.4882Y-3.139
X2.4882Y-3.239
X2.8421Y-2.2835
X2.8634Y-4.0157
X2.9421Y-2.2835
X2.9634Y-4.0157
X2.9764Y-3.4827
X2.9764Y-3.5827
X2.9764Y-3.6827
X3.0421Y-2.2835
X3.1421Y-2.2835
X6.1811Y-2.7059
X6.1811Y-2.8059
T6
X3.4Y-2.4
X3.4Y-3.9
X3.5Y-2.4
X3.5Y-3.9
X3.6Y-2.4
X3.6Y-3.9
X3.7Y-2.4
X3.7Y-3.9
X3.8Y-2.4
X3.8Y-3.9
X3.9Y-2.4
X3.9Y-3.9
X4.Y-2.4
X4.Y-3.9
X4.1Y-2.4
X4.1Y-3.9
X4.2Y-2.4
X4.2Y-3.9
X4.3Y-2.4
X4.3Y-3.9
X4.4Y-2.4
X4.4Y-3.9
X4.5Y-2.4
X4.5Y-3.9
X4.6Y-2.4
X4.6Y-3.9
X4.7Y-2.4
X4.7Y-3.9
X4.8Y-2.4
X4.8Y-3.9
X4.9Y-2.4
X4.9Y-3.9
X5.Y-2.4
X5.Y-3.9
X5.1Y-2.4
X5.1Y-3.9
X5.2Y-2.4
X5.2Y-3.9
X5.3Y-2.4
X5.3Y-3.9
X5.4Y-2.4
X5.4Y-3.9
X5.5Y-2.4
X5.5Y-3.9
X5.6Y-2.4
X5.6Y-3.9
X5.7Y-2.4
X5.7Y-3.9
X5.8Y-2.4
X5.8Y-3.9
T7
X2.5591Y-2.3622
X2.5591Y-3.937
X6.1024Y-2.3622
X6.1024Y-3.937
T5
X2.5315Y-2.7284G85X2.5315Y-2.8071
G05
X2.6103Y-2.9527G85X2.689Y-2.9527
G05
X2.7677Y-2.7284G85X2.7677Y-2.8071
G05
T0
M30
