G04 #@! TF.FileFunction,Soldermask,Top*
%FSLAX46Y46*%
G04 Gerber Fmt 4.6, Leading zero omitted, Abs format (unit mm)*
G04 Created by KiCad (PCBNEW 4.0.3+e1-6302~38~ubuntu16.04.1-stable) date Sat Aug 27 20:20:34 2016*
%MOMM*%
%LPD*%
G01*
G04 APERTURE LIST*
%ADD10C,0.100000*%
%ADD11R,1.543000X1.035000*%
%ADD12R,2.432000X1.924000*%
%ADD13R,3.900120X3.900120*%
%ADD14R,1.310000X1.620000*%
%ADD15R,1.100000X1.000000*%
%ADD16O,3.414980X1.906220*%
%ADD17R,2.127200X2.432000*%
%ADD18O,2.127200X2.432000*%
%ADD19O,1.906220X3.414980*%
%ADD20R,1.314400X1.314400*%
%ADD21R,2.051000X3.448000*%
%ADD22R,6.496000X6.496000*%
%ADD23R,1.035000X1.543000*%
%ADD24R,0.908000X1.162000*%
%ADD25C,1.924000*%
%ADD26C,1.900000*%
%ADD27R,1.543000X0.908000*%
%ADD28R,1.400000X1.850000*%
%ADD29R,1.900000X1.200000*%
%ADD30R,1.950000X1.400000*%
%ADD31R,1.900000X1.700000*%
%ADD32R,1.900000X1.900000*%
%ADD33R,1.800000X1.200000*%
%ADD34R,2.200000X1.100000*%
G04 APERTURE END LIST*
D10*
D11*
X81000000Y-70038000D03*
X81000000Y-71562000D03*
D12*
X77400000Y-70049000D03*
X77400000Y-73351000D03*
X150000000Y-69651000D03*
X150000000Y-66349000D03*
X132600000Y-82951000D03*
X132600000Y-79649000D03*
D13*
X70300140Y-70300000D03*
X64300660Y-70300000D03*
X67300400Y-74999000D03*
D14*
X145635000Y-71000000D03*
X142365000Y-71000000D03*
D15*
X149000000Y-74700000D03*
X149000000Y-73300000D03*
D16*
X75600000Y-88460000D03*
X75600000Y-91000000D03*
X75600000Y-93540000D03*
D17*
X86360000Y-99060000D03*
D18*
X88900000Y-99060000D03*
X91440000Y-99060000D03*
X93980000Y-99060000D03*
X96520000Y-99060000D03*
X99060000Y-99060000D03*
X101600000Y-99060000D03*
X104140000Y-99060000D03*
X106680000Y-99060000D03*
X109220000Y-99060000D03*
X111760000Y-99060000D03*
X114300000Y-99060000D03*
X116840000Y-99060000D03*
X119380000Y-99060000D03*
X121920000Y-99060000D03*
X124460000Y-99060000D03*
X127000000Y-99060000D03*
X129540000Y-99060000D03*
X132080000Y-99060000D03*
X134620000Y-99060000D03*
X137160000Y-99060000D03*
X139700000Y-99060000D03*
X142240000Y-99060000D03*
X144780000Y-99060000D03*
X147320000Y-99060000D03*
D17*
X147320000Y-60960000D03*
D18*
X144780000Y-60960000D03*
X142240000Y-60960000D03*
X139700000Y-60960000D03*
X137160000Y-60960000D03*
X134620000Y-60960000D03*
X132080000Y-60960000D03*
X129540000Y-60960000D03*
X127000000Y-60960000D03*
X124460000Y-60960000D03*
X121920000Y-60960000D03*
X119380000Y-60960000D03*
X116840000Y-60960000D03*
X114300000Y-60960000D03*
X111760000Y-60960000D03*
X109220000Y-60960000D03*
X106680000Y-60960000D03*
X104140000Y-60960000D03*
X101600000Y-60960000D03*
X99060000Y-60960000D03*
X96520000Y-60960000D03*
X93980000Y-60960000D03*
X91440000Y-60960000D03*
X88900000Y-60960000D03*
X86360000Y-60960000D03*
D19*
X72730000Y-102000000D03*
X75270000Y-102000000D03*
D16*
X63000000Y-87460000D03*
X63000000Y-90000000D03*
X63000000Y-92540000D03*
X63200000Y-79730000D03*
X63200000Y-82270000D03*
D19*
X72190000Y-58000000D03*
X79810000Y-58000000D03*
X77270000Y-58000000D03*
X74730000Y-58000000D03*
D16*
X157000000Y-71270000D03*
X157000000Y-68730000D03*
D20*
X93889000Y-73116000D03*
X92111000Y-73116000D03*
X93000000Y-71084000D03*
X99089000Y-68316000D03*
X97311000Y-68316000D03*
X98200000Y-66284000D03*
X99089000Y-73116000D03*
X97311000Y-73116000D03*
X98200000Y-71084000D03*
D21*
X106786000Y-67800000D03*
D22*
X104500000Y-74150000D03*
D21*
X102214000Y-67800000D03*
D20*
X115889000Y-73116000D03*
X114111000Y-73116000D03*
X115000000Y-71084000D03*
X111589000Y-73116000D03*
X109811000Y-73116000D03*
X110700000Y-71084000D03*
X121189000Y-68516000D03*
X119411000Y-68516000D03*
X120300000Y-66484000D03*
X121089000Y-72916000D03*
X119311000Y-72916000D03*
X120200000Y-70884000D03*
D21*
X129686000Y-67700000D03*
D22*
X127400000Y-74050000D03*
D21*
X125114000Y-67700000D03*
D23*
X97138000Y-75800000D03*
X98662000Y-75800000D03*
X115662000Y-78900000D03*
X114138000Y-78900000D03*
D11*
X104700000Y-86138000D03*
X104700000Y-87662000D03*
X101900000Y-87662000D03*
X101900000Y-86138000D03*
D23*
X92138000Y-75800000D03*
X93662000Y-75800000D03*
X114138000Y-76300000D03*
X115662000Y-76300000D03*
X105362000Y-79800000D03*
X103838000Y-79800000D03*
D11*
X93000000Y-66338000D03*
X93000000Y-67862000D03*
D23*
X110638000Y-82600000D03*
X112162000Y-82600000D03*
X139238000Y-83500000D03*
X140762000Y-83500000D03*
X139238000Y-87500000D03*
X140762000Y-87500000D03*
X139238000Y-89500000D03*
X140762000Y-89500000D03*
X139238000Y-85500000D03*
X140762000Y-85500000D03*
X139238000Y-91500000D03*
X140762000Y-91500000D03*
D11*
X78500000Y-97238000D03*
X78500000Y-98762000D03*
X111000000Y-66238000D03*
X111000000Y-67762000D03*
D23*
X115762000Y-68000000D03*
X114238000Y-68000000D03*
D11*
X82000000Y-93538000D03*
X82000000Y-95062000D03*
X69000000Y-81238000D03*
X69000000Y-82762000D03*
X117000000Y-93762000D03*
X117000000Y-92238000D03*
D21*
X134814000Y-75600000D03*
D22*
X137100000Y-69250000D03*
D21*
X139386000Y-75600000D03*
D24*
X140952500Y-78730000D03*
X139047500Y-78730000D03*
X140952500Y-81270000D03*
X140000000Y-78730000D03*
X139047500Y-81270000D03*
D25*
X75540000Y-78460000D03*
X73000000Y-81000000D03*
X78080000Y-81000000D03*
D11*
X120000000Y-92238000D03*
X120000000Y-93762000D03*
D23*
X143238000Y-67000000D03*
X144762000Y-67000000D03*
D11*
X152000000Y-73238000D03*
X152000000Y-74762000D03*
X126000000Y-82238000D03*
X126000000Y-83762000D03*
X126000000Y-86238000D03*
X126000000Y-87762000D03*
D26*
X121900000Y-77500000D03*
X117800000Y-81900000D03*
X82200000Y-88100000D03*
X123900000Y-94900000D03*
X151200000Y-92600000D03*
D27*
X107188000Y-86360000D03*
X107188000Y-87630000D03*
X107188000Y-88900000D03*
X107188000Y-90170000D03*
X107188000Y-91440000D03*
X107188000Y-92710000D03*
X107188000Y-93980000D03*
X113538000Y-93980000D03*
X113538000Y-92710000D03*
X113538000Y-90170000D03*
X113538000Y-88900000D03*
X113538000Y-87630000D03*
X113538000Y-86360000D03*
X113538000Y-91440000D03*
D28*
X149650000Y-90200000D03*
D29*
X151150000Y-90500000D03*
D30*
X148075000Y-78900000D03*
D31*
X158750000Y-90200000D03*
D32*
X158750000Y-78850000D03*
D33*
X150500000Y-78500000D03*
D34*
X158900000Y-87900000D03*
X158900000Y-89000000D03*
X158900000Y-86800000D03*
X158900000Y-85700000D03*
X158900000Y-84600000D03*
X158900000Y-81300000D03*
X158900000Y-82400000D03*
X158900000Y-83500000D03*
D23*
X139238000Y-94500000D03*
X140762000Y-94500000D03*
M02*
