G04 #@! TF.FileFunction,Copper,L2,Bot,Signal*
%FSLAX46Y46*%
G04 Gerber Fmt 4.6, Leading zero omitted, Abs format (unit mm)*
G04 Created by KiCad (PCBNEW 4.0.7-e2-6376~58~ubuntu14.04.1) date Thu Jan 18 16:09:12 2018*
%MOMM*%
%LPD*%
G01*
G04 APERTURE LIST*
%ADD10C,0.100000*%
%ADD11R,3.500120X3.500120*%
%ADD12O,3.014980X1.506220*%
%ADD13R,1.727200X2.032000*%
%ADD14O,1.727200X2.032000*%
%ADD15O,1.506220X3.014980*%
%ADD16C,1.500000*%
%ADD17R,1.500000X1.500000*%
%ADD18C,1.524000*%
%ADD19C,0.600000*%
%ADD20C,0.500000*%
%ADD21C,1.000000*%
%ADD22C,0.250000*%
%ADD23C,0.254000*%
G04 APERTURE END LIST*
D10*
D11*
X70300140Y-70300000D03*
X64300660Y-70300000D03*
X67300400Y-74999000D03*
D12*
X75600000Y-88460000D03*
X75600000Y-91000000D03*
X75600000Y-93540000D03*
D13*
X86360000Y-99060000D03*
D14*
X88900000Y-99060000D03*
X91440000Y-99060000D03*
X93980000Y-99060000D03*
X96520000Y-99060000D03*
X99060000Y-99060000D03*
X101600000Y-99060000D03*
X104140000Y-99060000D03*
X106680000Y-99060000D03*
X109220000Y-99060000D03*
X111760000Y-99060000D03*
X114300000Y-99060000D03*
X116840000Y-99060000D03*
X119380000Y-99060000D03*
X121920000Y-99060000D03*
X124460000Y-99060000D03*
X127000000Y-99060000D03*
X129540000Y-99060000D03*
X132080000Y-99060000D03*
X134620000Y-99060000D03*
X137160000Y-99060000D03*
X139700000Y-99060000D03*
X142240000Y-99060000D03*
X144780000Y-99060000D03*
X147320000Y-99060000D03*
D13*
X147320000Y-60960000D03*
D14*
X144780000Y-60960000D03*
X142240000Y-60960000D03*
X139700000Y-60960000D03*
X137160000Y-60960000D03*
X134620000Y-60960000D03*
X132080000Y-60960000D03*
X129540000Y-60960000D03*
X127000000Y-60960000D03*
X124460000Y-60960000D03*
X121920000Y-60960000D03*
X119380000Y-60960000D03*
X116840000Y-60960000D03*
X114300000Y-60960000D03*
X111760000Y-60960000D03*
X109220000Y-60960000D03*
X106680000Y-60960000D03*
X104140000Y-60960000D03*
X101600000Y-60960000D03*
X99060000Y-60960000D03*
X96520000Y-60960000D03*
X93980000Y-60960000D03*
X91440000Y-60960000D03*
X88900000Y-60960000D03*
X86360000Y-60960000D03*
D15*
X72730000Y-102000000D03*
X75270000Y-102000000D03*
D12*
X63000000Y-87460000D03*
X63000000Y-90000000D03*
X63000000Y-92540000D03*
X63200000Y-79730000D03*
X63200000Y-82270000D03*
D15*
X72190000Y-58000000D03*
X79810000Y-58000000D03*
X77270000Y-58000000D03*
X74730000Y-58000000D03*
D12*
X157000000Y-71270000D03*
X157000000Y-68730000D03*
D16*
X121900000Y-77500000D03*
X117800000Y-81900000D03*
X83300000Y-79400000D03*
X129200000Y-83900000D03*
X151200000Y-92600000D03*
D12*
X82000000Y-75940000D03*
X82000000Y-73400000D03*
X82000000Y-70860000D03*
D17*
X92000000Y-88600000D03*
X133400000Y-87400000D03*
X93900000Y-78800000D03*
X150700000Y-84400000D03*
D18*
X75640000Y-78460000D03*
X73100000Y-81000000D03*
X78180000Y-81000000D03*
D19*
X115500000Y-88400000D03*
X118500000Y-93000000D03*
X97250000Y-69820000D03*
X95400000Y-72320000D03*
X118360000Y-69620000D03*
X120170000Y-69680000D03*
X152050000Y-71360000D03*
X154480000Y-68700000D03*
X135940000Y-78800000D03*
X141300000Y-76700000D03*
X146600000Y-74900000D03*
X117900000Y-89600000D03*
X100100000Y-91500000D03*
X105500000Y-95500000D03*
X123300000Y-86300000D03*
X118900000Y-86300000D03*
X109100000Y-80900000D03*
X138000000Y-95100000D03*
X124200000Y-84900000D03*
X110000000Y-77000000D03*
X108000000Y-79500000D03*
X142750000Y-88880000D03*
X143800000Y-86200000D03*
X144100000Y-76800000D03*
X142200000Y-84500000D03*
X132500000Y-73900000D03*
X117210000Y-88370000D03*
X105700000Y-82900000D03*
X113700000Y-83100000D03*
X69600000Y-96200000D03*
X99700000Y-88800000D03*
X147500000Y-63900000D03*
X145000000Y-92800000D03*
X142200000Y-95600000D03*
X115500000Y-87400000D03*
X107000000Y-84300000D03*
D20*
X115500000Y-88400000D02*
X118500000Y-91400000D01*
X118500000Y-91400000D02*
X118500000Y-93000000D01*
X97250000Y-69820000D02*
X95400000Y-71670000D01*
X95400000Y-71670000D02*
X95400000Y-72320000D01*
X120110000Y-69620000D02*
X118360000Y-69620000D01*
X120170000Y-69680000D02*
X120110000Y-69620000D01*
X79810000Y-58000000D02*
X79810000Y-71910000D01*
X79810000Y-71910000D02*
X81300000Y-73400000D01*
X81300000Y-73400000D02*
X82000000Y-73400000D01*
D21*
X151970000Y-71280000D02*
X152050000Y-71360000D01*
X151970000Y-71210000D02*
X151970000Y-71280000D01*
X154480000Y-68700000D02*
X151970000Y-71210000D01*
D22*
X134350000Y-78050000D02*
X131533052Y-78050000D01*
X135940000Y-78800000D02*
X134350000Y-78050000D01*
X142400000Y-77800000D02*
X141300000Y-76700000D01*
X144300000Y-77800000D02*
X142400000Y-77800000D01*
X145600000Y-76500000D02*
X144300000Y-77800000D01*
X145600000Y-75900000D02*
X145600000Y-76500000D01*
X146600000Y-74900000D02*
X145600000Y-75900000D01*
X131550000Y-78050000D02*
X131100000Y-78400000D01*
X131100000Y-78400000D02*
X127900000Y-78300000D01*
X127900000Y-78300000D02*
X124700000Y-81400000D01*
X124700000Y-81400000D02*
X124700000Y-82800000D01*
X124700000Y-82800000D02*
X117900000Y-89600000D01*
D20*
X75600000Y-88460000D02*
X75600000Y-78520000D01*
X75600000Y-78520000D02*
X75540000Y-78460000D01*
D22*
X94500000Y-91000000D02*
X75600000Y-91000000D01*
X100100000Y-91500000D02*
X94500000Y-91000000D01*
X120500000Y-95500000D02*
X105500000Y-95500000D01*
X121500000Y-94500000D02*
X120500000Y-95500000D01*
X121500000Y-88000000D02*
X121500000Y-94500000D01*
X123300000Y-86300000D02*
X121500000Y-88000000D01*
X118900000Y-86300000D02*
X114300000Y-81700000D01*
X114300000Y-81700000D02*
X113400000Y-80900000D01*
X113400000Y-80900000D02*
X109100000Y-80900000D01*
X128200000Y-85300000D02*
X138000000Y-95100000D01*
X124600000Y-85300000D02*
X128200000Y-85300000D01*
X124200000Y-84900000D02*
X124600000Y-85300000D01*
X77800000Y-58530000D02*
X77800000Y-63600000D01*
X77800000Y-63600000D02*
X73800000Y-67600000D01*
X73800000Y-67600000D02*
X73800000Y-74200000D01*
X73800000Y-74200000D02*
X74700000Y-75100000D01*
X74700000Y-75100000D02*
X76700000Y-75100000D01*
X76700000Y-75100000D02*
X86700000Y-85100000D01*
X86700000Y-85100000D02*
X97200000Y-85100000D01*
X97200000Y-85100000D02*
X101100000Y-89000000D01*
X101100000Y-89000000D02*
X101100000Y-95800000D01*
X101100000Y-95800000D02*
X102900000Y-97600000D01*
X102900000Y-97600000D02*
X102900000Y-100600000D01*
X102900000Y-100600000D02*
X103600000Y-101300000D01*
X103600000Y-101300000D02*
X140000000Y-101300000D01*
X140000000Y-101300000D02*
X142240000Y-99060000D01*
X77800000Y-58530000D02*
X77270000Y-58000000D01*
X77270000Y-58000000D02*
X77270000Y-57230000D01*
X74730000Y-58000000D02*
X74730000Y-56770000D01*
X110000000Y-77500000D02*
X110000000Y-77000000D01*
X108000000Y-79500000D02*
X110000000Y-77500000D01*
X129540000Y-68140000D02*
X129540000Y-60960000D01*
X137300000Y-75900000D02*
X129540000Y-68140000D01*
X137300000Y-79100000D02*
X137300000Y-75900000D01*
X137400000Y-79200000D02*
X137300000Y-79100000D01*
X140800000Y-79200000D02*
X137400000Y-79200000D01*
X143100000Y-81500000D02*
X140800000Y-79200000D01*
X142950000Y-88680000D02*
X143100000Y-81500000D01*
X142750000Y-88880000D02*
X142950000Y-88680000D01*
X137999128Y-78685768D02*
X138000000Y-75500000D01*
X143800000Y-86200000D02*
X144000000Y-86000000D01*
X144000000Y-86000000D02*
X144000000Y-81200000D01*
X144000000Y-81200000D02*
X141500000Y-78700000D01*
X141500000Y-78700000D02*
X137999128Y-78685768D01*
X137594566Y-75000148D02*
X130300000Y-68080000D01*
X132080000Y-60960000D02*
X130340000Y-62640000D01*
X130340000Y-62640000D02*
X130300000Y-68080000D01*
X138000000Y-75500000D02*
X137594566Y-75000148D01*
X131190000Y-67890000D02*
X131180000Y-64080000D01*
X131180000Y-64080000D02*
X134610000Y-60810000D01*
X144100000Y-76800000D02*
X142600000Y-75300000D01*
X142600000Y-75300000D02*
X138900000Y-75300000D01*
X138900000Y-75300000D02*
X131190000Y-67890000D01*
X136700000Y-79800000D02*
X136700000Y-76400000D01*
X135900000Y-75700000D02*
X128470000Y-68280000D01*
X127000000Y-60960000D02*
X128510000Y-62750000D01*
X128510000Y-62750000D02*
X128470000Y-68280000D01*
X142200000Y-81500000D02*
X140500000Y-79800000D01*
X140500000Y-79800000D02*
X136700000Y-79800000D01*
X142200000Y-81500000D02*
X142200000Y-84500000D01*
X136700000Y-76400000D02*
X135900000Y-75700000D01*
X142200000Y-84500000D02*
X142200000Y-84500000D01*
X132500000Y-76200000D02*
X132500000Y-73900000D01*
X130900000Y-77800000D02*
X132500000Y-76200000D01*
X127400000Y-77800000D02*
X130900000Y-77800000D01*
X123900000Y-81300000D02*
X127400000Y-77800000D01*
X123900000Y-82600000D02*
X123900000Y-81300000D01*
X119200000Y-87300000D02*
X123900000Y-82600000D01*
X118300000Y-87300000D02*
X119200000Y-87300000D01*
X117210000Y-88370000D02*
X118300000Y-87300000D01*
X105700000Y-82900000D02*
X105900000Y-83100000D01*
X105900000Y-83100000D02*
X113700000Y-83100000D01*
D20*
X69500000Y-84500000D02*
X73000000Y-81000000D01*
X69500000Y-96100000D02*
X69500000Y-84500000D01*
X69600000Y-96200000D02*
X69500000Y-96100000D01*
X99700000Y-88800000D02*
X97300000Y-86400000D01*
X73200000Y-77400000D02*
X73200000Y-80800000D01*
X74200000Y-76400000D02*
X73200000Y-77400000D01*
X76600000Y-76400000D02*
X74200000Y-76400000D01*
X86600000Y-86400000D02*
X76600000Y-76400000D01*
X97300000Y-86400000D02*
X86600000Y-86400000D01*
X73200000Y-80800000D02*
X73000000Y-81000000D01*
D22*
X145000000Y-92800000D02*
X145000000Y-78200000D01*
X147500000Y-75700000D02*
X147500000Y-63900000D01*
X145000000Y-78200000D02*
X147500000Y-75700000D01*
X142200000Y-95600000D02*
X145000000Y-92800000D01*
X106680000Y-99060000D02*
X106680000Y-98520000D01*
X110100000Y-87400000D02*
X115500000Y-87400000D01*
X107000000Y-84300000D02*
X110100000Y-87400000D01*
D23*
G36*
X159290000Y-104290000D02*
X60710000Y-104290000D01*
X60710000Y-100472325D01*
X62614587Y-100472325D01*
X62976916Y-101349229D01*
X63647242Y-102020726D01*
X64523513Y-102384585D01*
X65472325Y-102385413D01*
X66349229Y-102023084D01*
X67020726Y-101352758D01*
X67082642Y-101203646D01*
X71341890Y-101203646D01*
X71341890Y-102796354D01*
X71447554Y-103327561D01*
X71748458Y-103777896D01*
X72198793Y-104078800D01*
X72730000Y-104184464D01*
X73261207Y-104078800D01*
X73711542Y-103777896D01*
X74012446Y-103327561D01*
X74013016Y-103324694D01*
X74036154Y-103402919D01*
X74378260Y-103825724D01*
X74856125Y-104085427D01*
X74928326Y-104099783D01*
X75143000Y-103977162D01*
X75143000Y-102127000D01*
X75397000Y-102127000D01*
X75397000Y-103977162D01*
X75611674Y-104099783D01*
X75683875Y-104085427D01*
X76161740Y-103825724D01*
X76503846Y-103402919D01*
X76658110Y-102881380D01*
X76658110Y-102127000D01*
X75397000Y-102127000D01*
X75143000Y-102127000D01*
X75123000Y-102127000D01*
X75123000Y-101873000D01*
X75143000Y-101873000D01*
X75143000Y-100022838D01*
X75397000Y-100022838D01*
X75397000Y-101873000D01*
X76658110Y-101873000D01*
X76658110Y-101118620D01*
X76503846Y-100597081D01*
X76161740Y-100174276D01*
X75683875Y-99914573D01*
X75611674Y-99900217D01*
X75397000Y-100022838D01*
X75143000Y-100022838D01*
X74928326Y-99900217D01*
X74856125Y-99914573D01*
X74378260Y-100174276D01*
X74036154Y-100597081D01*
X74013016Y-100675306D01*
X74012446Y-100672439D01*
X73711542Y-100222104D01*
X73261207Y-99921200D01*
X72730000Y-99815536D01*
X72198793Y-99921200D01*
X71748458Y-100222104D01*
X71447554Y-100672439D01*
X71341890Y-101203646D01*
X67082642Y-101203646D01*
X67384585Y-100476487D01*
X67385413Y-99527675D01*
X67023084Y-98650771D01*
X66352758Y-97979274D01*
X65476487Y-97615415D01*
X64527675Y-97614587D01*
X63650771Y-97976916D01*
X62979274Y-98647242D01*
X62615415Y-99523513D01*
X62614587Y-100472325D01*
X60710000Y-100472325D01*
X60710000Y-92881674D01*
X60900217Y-92881674D01*
X60914573Y-92953875D01*
X61174276Y-93431740D01*
X61597081Y-93773846D01*
X62118620Y-93928110D01*
X62873000Y-93928110D01*
X62873000Y-92667000D01*
X63127000Y-92667000D01*
X63127000Y-93928110D01*
X63881380Y-93928110D01*
X64402919Y-93773846D01*
X64825724Y-93431740D01*
X65085427Y-92953875D01*
X65099783Y-92881674D01*
X64977162Y-92667000D01*
X63127000Y-92667000D01*
X62873000Y-92667000D01*
X61022838Y-92667000D01*
X60900217Y-92881674D01*
X60710000Y-92881674D01*
X60710000Y-87460000D01*
X60815536Y-87460000D01*
X60921200Y-87991207D01*
X61222104Y-88441542D01*
X61653812Y-88730000D01*
X61222104Y-89018458D01*
X60921200Y-89468793D01*
X60815536Y-90000000D01*
X60921200Y-90531207D01*
X61222104Y-90981542D01*
X61672439Y-91282446D01*
X61675306Y-91283016D01*
X61597081Y-91306154D01*
X61174276Y-91648260D01*
X60914573Y-92126125D01*
X60900217Y-92198326D01*
X61022838Y-92413000D01*
X62873000Y-92413000D01*
X62873000Y-92393000D01*
X63127000Y-92393000D01*
X63127000Y-92413000D01*
X64977162Y-92413000D01*
X65099783Y-92198326D01*
X65085427Y-92126125D01*
X64825724Y-91648260D01*
X64402919Y-91306154D01*
X64324694Y-91283016D01*
X64327561Y-91282446D01*
X64777896Y-90981542D01*
X65078800Y-90531207D01*
X65184464Y-90000000D01*
X65078800Y-89468793D01*
X64777896Y-89018458D01*
X64346188Y-88730000D01*
X64777896Y-88441542D01*
X65078800Y-87991207D01*
X65184464Y-87460000D01*
X65078800Y-86928793D01*
X64777896Y-86478458D01*
X64327561Y-86177554D01*
X63796354Y-86071890D01*
X62203646Y-86071890D01*
X61672439Y-86177554D01*
X61222104Y-86478458D01*
X60921200Y-86928793D01*
X60815536Y-87460000D01*
X60710000Y-87460000D01*
X60710000Y-84500000D01*
X68614999Y-84500000D01*
X68615000Y-84500005D01*
X68615000Y-96099995D01*
X68614999Y-96100000D01*
X68655210Y-96302148D01*
X68664868Y-96350702D01*
X68664838Y-96385167D01*
X68678115Y-96417301D01*
X68682367Y-96438675D01*
X68694369Y-96456637D01*
X68806883Y-96728943D01*
X69069673Y-96992192D01*
X69413201Y-97134838D01*
X69785167Y-97135162D01*
X70128943Y-96993117D01*
X70392192Y-96730327D01*
X70534838Y-96386799D01*
X70535162Y-96014833D01*
X70393117Y-95671057D01*
X70385000Y-95662926D01*
X70385000Y-84866580D01*
X72854793Y-82396787D01*
X73376661Y-82397242D01*
X73890303Y-82185010D01*
X74283629Y-81792370D01*
X74496757Y-81279100D01*
X74497242Y-80723339D01*
X74285010Y-80209697D01*
X74085000Y-80009338D01*
X74085000Y-77766580D01*
X74566579Y-77285000D01*
X74839670Y-77285000D01*
X74456371Y-77667630D01*
X74243243Y-78180900D01*
X74242758Y-78736661D01*
X74454990Y-79250303D01*
X74715000Y-79510767D01*
X74715000Y-87089523D01*
X74272439Y-87177554D01*
X73822104Y-87478458D01*
X73521200Y-87928793D01*
X73415536Y-88460000D01*
X73521200Y-88991207D01*
X73822104Y-89441542D01*
X74253812Y-89730000D01*
X73822104Y-90018458D01*
X73521200Y-90468793D01*
X73415536Y-91000000D01*
X73521200Y-91531207D01*
X73822104Y-91981542D01*
X74253812Y-92270000D01*
X73822104Y-92558458D01*
X73521200Y-93008793D01*
X73415536Y-93540000D01*
X73521200Y-94071207D01*
X73822104Y-94521542D01*
X74272439Y-94822446D01*
X74803646Y-94928110D01*
X76396354Y-94928110D01*
X76927561Y-94822446D01*
X77377896Y-94521542D01*
X77678800Y-94071207D01*
X77784464Y-93540000D01*
X77678800Y-93008793D01*
X77377896Y-92558458D01*
X76946188Y-92270000D01*
X77377896Y-91981542D01*
X77525926Y-91760000D01*
X94466135Y-91760000D01*
X99485813Y-92208186D01*
X99569673Y-92292192D01*
X99913201Y-92434838D01*
X100285167Y-92435162D01*
X100340000Y-92412506D01*
X100340000Y-95800000D01*
X100397852Y-96090839D01*
X100562599Y-96337401D01*
X101602313Y-97377115D01*
X101600000Y-97376655D01*
X101026511Y-97490729D01*
X100540330Y-97815585D01*
X100330000Y-98130366D01*
X100119670Y-97815585D01*
X99633489Y-97490729D01*
X99060000Y-97376655D01*
X98486511Y-97490729D01*
X98000330Y-97815585D01*
X97790000Y-98130366D01*
X97579670Y-97815585D01*
X97093489Y-97490729D01*
X96520000Y-97376655D01*
X95946511Y-97490729D01*
X95460330Y-97815585D01*
X95250000Y-98130366D01*
X95039670Y-97815585D01*
X94553489Y-97490729D01*
X93980000Y-97376655D01*
X93406511Y-97490729D01*
X92920330Y-97815585D01*
X92710000Y-98130366D01*
X92499670Y-97815585D01*
X92013489Y-97490729D01*
X91440000Y-97376655D01*
X90866511Y-97490729D01*
X90380330Y-97815585D01*
X90170000Y-98130366D01*
X89959670Y-97815585D01*
X89473489Y-97490729D01*
X88900000Y-97376655D01*
X88326511Y-97490729D01*
X87840330Y-97815585D01*
X87830757Y-97829913D01*
X87826762Y-97808683D01*
X87687690Y-97592559D01*
X87475490Y-97447569D01*
X87223600Y-97396560D01*
X85496400Y-97396560D01*
X85261083Y-97440838D01*
X85044959Y-97579910D01*
X84899969Y-97792110D01*
X84848960Y-98044000D01*
X84848960Y-100076000D01*
X84893238Y-100311317D01*
X85032310Y-100527441D01*
X85244510Y-100672431D01*
X85496400Y-100723440D01*
X87223600Y-100723440D01*
X87458917Y-100679162D01*
X87675041Y-100540090D01*
X87820031Y-100327890D01*
X87828400Y-100286561D01*
X87840330Y-100304415D01*
X88326511Y-100629271D01*
X88900000Y-100743345D01*
X89473489Y-100629271D01*
X89959670Y-100304415D01*
X90170000Y-99989634D01*
X90380330Y-100304415D01*
X90866511Y-100629271D01*
X91440000Y-100743345D01*
X92013489Y-100629271D01*
X92499670Y-100304415D01*
X92710000Y-99989634D01*
X92920330Y-100304415D01*
X93406511Y-100629271D01*
X93980000Y-100743345D01*
X94553489Y-100629271D01*
X95039670Y-100304415D01*
X95250000Y-99989634D01*
X95460330Y-100304415D01*
X95946511Y-100629271D01*
X96520000Y-100743345D01*
X97093489Y-100629271D01*
X97579670Y-100304415D01*
X97790000Y-99989634D01*
X98000330Y-100304415D01*
X98486511Y-100629271D01*
X99060000Y-100743345D01*
X99633489Y-100629271D01*
X100119670Y-100304415D01*
X100330000Y-99989634D01*
X100540330Y-100304415D01*
X101026511Y-100629271D01*
X101600000Y-100743345D01*
X102146875Y-100634565D01*
X102197852Y-100890839D01*
X102362599Y-101137401D01*
X103062598Y-101837401D01*
X103227345Y-101947480D01*
X103309161Y-102002148D01*
X103600000Y-102060000D01*
X140000000Y-102060000D01*
X140290839Y-102002148D01*
X140537401Y-101837401D01*
X141732421Y-100642381D01*
X142240000Y-100743345D01*
X142813489Y-100629271D01*
X143299670Y-100304415D01*
X143510000Y-99989634D01*
X143720330Y-100304415D01*
X144206511Y-100629271D01*
X144780000Y-100743345D01*
X145353489Y-100629271D01*
X145839670Y-100304415D01*
X146050000Y-99989634D01*
X146260330Y-100304415D01*
X146746511Y-100629271D01*
X147320000Y-100743345D01*
X147893489Y-100629271D01*
X148128375Y-100472325D01*
X152614587Y-100472325D01*
X152976916Y-101349229D01*
X153647242Y-102020726D01*
X154523513Y-102384585D01*
X155472325Y-102385413D01*
X156349229Y-102023084D01*
X157020726Y-101352758D01*
X157384585Y-100476487D01*
X157385413Y-99527675D01*
X157023084Y-98650771D01*
X156352758Y-97979274D01*
X155476487Y-97615415D01*
X154527675Y-97614587D01*
X153650771Y-97976916D01*
X152979274Y-98647242D01*
X152615415Y-99523513D01*
X152614587Y-100472325D01*
X148128375Y-100472325D01*
X148379670Y-100304415D01*
X148704526Y-99818234D01*
X148818600Y-99244745D01*
X148818600Y-98875255D01*
X148704526Y-98301766D01*
X148379670Y-97815585D01*
X147893489Y-97490729D01*
X147320000Y-97376655D01*
X146746511Y-97490729D01*
X146260330Y-97815585D01*
X146050000Y-98130366D01*
X145839670Y-97815585D01*
X145353489Y-97490729D01*
X144780000Y-97376655D01*
X144206511Y-97490729D01*
X143720330Y-97815585D01*
X143510000Y-98130366D01*
X143299670Y-97815585D01*
X142813489Y-97490729D01*
X142240000Y-97376655D01*
X141666511Y-97490729D01*
X141180330Y-97815585D01*
X140970000Y-98130366D01*
X140759670Y-97815585D01*
X140273489Y-97490729D01*
X139700000Y-97376655D01*
X139126511Y-97490729D01*
X138640330Y-97815585D01*
X138430000Y-98130366D01*
X138219670Y-97815585D01*
X137733489Y-97490729D01*
X137160000Y-97376655D01*
X136586511Y-97490729D01*
X136100330Y-97815585D01*
X135890000Y-98130366D01*
X135679670Y-97815585D01*
X135193489Y-97490729D01*
X134620000Y-97376655D01*
X134046511Y-97490729D01*
X133560330Y-97815585D01*
X133350000Y-98130366D01*
X133139670Y-97815585D01*
X132653489Y-97490729D01*
X132080000Y-97376655D01*
X131506511Y-97490729D01*
X131020330Y-97815585D01*
X130810000Y-98130366D01*
X130599670Y-97815585D01*
X130113489Y-97490729D01*
X129540000Y-97376655D01*
X128966511Y-97490729D01*
X128480330Y-97815585D01*
X128270000Y-98130366D01*
X128059670Y-97815585D01*
X127573489Y-97490729D01*
X127000000Y-97376655D01*
X126426511Y-97490729D01*
X125940330Y-97815585D01*
X125730000Y-98130366D01*
X125519670Y-97815585D01*
X125033489Y-97490729D01*
X124460000Y-97376655D01*
X123886511Y-97490729D01*
X123400330Y-97815585D01*
X123190000Y-98130366D01*
X122979670Y-97815585D01*
X122493489Y-97490729D01*
X121920000Y-97376655D01*
X121346511Y-97490729D01*
X120860330Y-97815585D01*
X120650000Y-98130366D01*
X120439670Y-97815585D01*
X119953489Y-97490729D01*
X119380000Y-97376655D01*
X118806511Y-97490729D01*
X118320330Y-97815585D01*
X118110000Y-98130366D01*
X117899670Y-97815585D01*
X117413489Y-97490729D01*
X116840000Y-97376655D01*
X116266511Y-97490729D01*
X115780330Y-97815585D01*
X115570000Y-98130366D01*
X115359670Y-97815585D01*
X114873489Y-97490729D01*
X114300000Y-97376655D01*
X113726511Y-97490729D01*
X113240330Y-97815585D01*
X113030000Y-98130366D01*
X112819670Y-97815585D01*
X112333489Y-97490729D01*
X111760000Y-97376655D01*
X111186511Y-97490729D01*
X110700330Y-97815585D01*
X110490000Y-98130366D01*
X110279670Y-97815585D01*
X109793489Y-97490729D01*
X109220000Y-97376655D01*
X108646511Y-97490729D01*
X108160330Y-97815585D01*
X107950000Y-98130366D01*
X107739670Y-97815585D01*
X107253489Y-97490729D01*
X106680000Y-97376655D01*
X106106511Y-97490729D01*
X105620330Y-97815585D01*
X105410000Y-98130366D01*
X105199670Y-97815585D01*
X104713489Y-97490729D01*
X104140000Y-97376655D01*
X103635533Y-97477000D01*
X103602148Y-97309161D01*
X103602148Y-97309160D01*
X103437401Y-97062599D01*
X101860000Y-95485198D01*
X101860000Y-89000000D01*
X101802148Y-88709161D01*
X101637401Y-88462599D01*
X97737401Y-84562599D01*
X97490839Y-84397852D01*
X97200000Y-84340000D01*
X87014802Y-84340000D01*
X77237401Y-74562599D01*
X76990839Y-74397852D01*
X76700000Y-74340000D01*
X75014802Y-74340000D01*
X74560000Y-73885198D01*
X74560000Y-67914802D01*
X78337401Y-64137401D01*
X78502148Y-63890840D01*
X78560000Y-63600000D01*
X78560000Y-59376120D01*
X78828458Y-59777896D01*
X78925000Y-59842403D01*
X78925000Y-71909995D01*
X78924999Y-71910000D01*
X78973175Y-72152192D01*
X78992367Y-72248675D01*
X79103501Y-72415000D01*
X79184210Y-72535790D01*
X79854174Y-73205754D01*
X79815536Y-73400000D01*
X79921200Y-73931207D01*
X80222104Y-74381542D01*
X80653812Y-74670000D01*
X80222104Y-74958458D01*
X79921200Y-75408793D01*
X79815536Y-75940000D01*
X79921200Y-76471207D01*
X80222104Y-76921542D01*
X80672439Y-77222446D01*
X81203646Y-77328110D01*
X82796354Y-77328110D01*
X83327561Y-77222446D01*
X83777896Y-76921542D01*
X84078800Y-76471207D01*
X84184464Y-75940000D01*
X84078800Y-75408793D01*
X83777896Y-74958458D01*
X83346188Y-74670000D01*
X83777896Y-74381542D01*
X84078800Y-73931207D01*
X84184464Y-73400000D01*
X84078800Y-72868793D01*
X83777896Y-72418458D01*
X83346188Y-72130000D01*
X83777896Y-71841542D01*
X84078800Y-71391207D01*
X84184464Y-70860000D01*
X84078800Y-70328793D01*
X83777896Y-69878458D01*
X83327561Y-69577554D01*
X82796354Y-69471890D01*
X81203646Y-69471890D01*
X80695000Y-69573066D01*
X80695000Y-61321913D01*
X84874816Y-61321913D01*
X85068046Y-61874320D01*
X85457964Y-62310732D01*
X85985209Y-62564709D01*
X86000974Y-62567358D01*
X86233000Y-62446217D01*
X86233000Y-61087000D01*
X85019076Y-61087000D01*
X84874816Y-61321913D01*
X80695000Y-61321913D01*
X80695000Y-60598087D01*
X84874816Y-60598087D01*
X85019076Y-60833000D01*
X86233000Y-60833000D01*
X86233000Y-59473783D01*
X86487000Y-59473783D01*
X86487000Y-60833000D01*
X86507000Y-60833000D01*
X86507000Y-61087000D01*
X86487000Y-61087000D01*
X86487000Y-62446217D01*
X86719026Y-62567358D01*
X86734791Y-62564709D01*
X87262036Y-62310732D01*
X87633539Y-61894931D01*
X87840330Y-62204415D01*
X88326511Y-62529271D01*
X88900000Y-62643345D01*
X89473489Y-62529271D01*
X89959670Y-62204415D01*
X90170000Y-61889634D01*
X90380330Y-62204415D01*
X90866511Y-62529271D01*
X91440000Y-62643345D01*
X92013489Y-62529271D01*
X92499670Y-62204415D01*
X92710000Y-61889634D01*
X92920330Y-62204415D01*
X93406511Y-62529271D01*
X93980000Y-62643345D01*
X94553489Y-62529271D01*
X95039670Y-62204415D01*
X95250000Y-61889634D01*
X95460330Y-62204415D01*
X95946511Y-62529271D01*
X96520000Y-62643345D01*
X97093489Y-62529271D01*
X97579670Y-62204415D01*
X97790000Y-61889634D01*
X98000330Y-62204415D01*
X98486511Y-62529271D01*
X99060000Y-62643345D01*
X99633489Y-62529271D01*
X100119670Y-62204415D01*
X100330000Y-61889634D01*
X100540330Y-62204415D01*
X101026511Y-62529271D01*
X101600000Y-62643345D01*
X102173489Y-62529271D01*
X102659670Y-62204415D01*
X102870000Y-61889634D01*
X103080330Y-62204415D01*
X103566511Y-62529271D01*
X104140000Y-62643345D01*
X104713489Y-62529271D01*
X105199670Y-62204415D01*
X105410000Y-61889634D01*
X105620330Y-62204415D01*
X106106511Y-62529271D01*
X106680000Y-62643345D01*
X107253489Y-62529271D01*
X107739670Y-62204415D01*
X107950000Y-61889634D01*
X108160330Y-62204415D01*
X108646511Y-62529271D01*
X109220000Y-62643345D01*
X109793489Y-62529271D01*
X110279670Y-62204415D01*
X110490000Y-61889634D01*
X110700330Y-62204415D01*
X111186511Y-62529271D01*
X111760000Y-62643345D01*
X112333489Y-62529271D01*
X112819670Y-62204415D01*
X113030000Y-61889634D01*
X113240330Y-62204415D01*
X113726511Y-62529271D01*
X114300000Y-62643345D01*
X114873489Y-62529271D01*
X115359670Y-62204415D01*
X115570000Y-61889634D01*
X115780330Y-62204415D01*
X116266511Y-62529271D01*
X116840000Y-62643345D01*
X117413489Y-62529271D01*
X117899670Y-62204415D01*
X118110000Y-61889634D01*
X118320330Y-62204415D01*
X118806511Y-62529271D01*
X119380000Y-62643345D01*
X119953489Y-62529271D01*
X120439670Y-62204415D01*
X120650000Y-61889634D01*
X120860330Y-62204415D01*
X121346511Y-62529271D01*
X121920000Y-62643345D01*
X122493489Y-62529271D01*
X122979670Y-62204415D01*
X123190000Y-61889634D01*
X123400330Y-62204415D01*
X123886511Y-62529271D01*
X124460000Y-62643345D01*
X125033489Y-62529271D01*
X125519670Y-62204415D01*
X125730000Y-61889634D01*
X125940330Y-62204415D01*
X126426511Y-62529271D01*
X127000000Y-62643345D01*
X127364557Y-62570830D01*
X127747988Y-63025361D01*
X127710020Y-68274503D01*
X127710595Y-68277509D01*
X127710000Y-68280512D01*
X127738455Y-68423060D01*
X127765767Y-68565753D01*
X127767449Y-68568310D01*
X127768048Y-68571312D01*
X127848875Y-68692103D01*
X127928726Y-68813500D01*
X127931259Y-68815219D01*
X127932961Y-68817763D01*
X132152705Y-73031828D01*
X131971057Y-73106883D01*
X131707808Y-73369673D01*
X131565162Y-73713201D01*
X131564838Y-74085167D01*
X131706883Y-74428943D01*
X131740000Y-74462118D01*
X131740000Y-75885198D01*
X130585198Y-77040000D01*
X127400000Y-77040000D01*
X127157414Y-77088254D01*
X127109160Y-77097852D01*
X126862599Y-77262599D01*
X123362599Y-80762599D01*
X123197852Y-81009161D01*
X123140000Y-81300000D01*
X123140000Y-82285198D01*
X119673646Y-85751552D01*
X119430327Y-85507808D01*
X119086799Y-85365162D01*
X119039923Y-85365121D01*
X114837401Y-81162599D01*
X114818577Y-81150021D01*
X114804916Y-81131969D01*
X113904917Y-80331969D01*
X113795902Y-80268053D01*
X113690839Y-80197852D01*
X113668636Y-80193435D01*
X113649106Y-80181985D01*
X113523941Y-80164654D01*
X113400000Y-80140000D01*
X109662463Y-80140000D01*
X109630327Y-80107808D01*
X109286799Y-79965162D01*
X108914833Y-79964838D01*
X108799618Y-80012444D01*
X108934838Y-79686799D01*
X108934879Y-79639923D01*
X110537401Y-78037401D01*
X110702148Y-77790839D01*
X110744497Y-77577939D01*
X110792192Y-77530327D01*
X110934838Y-77186799D01*
X110935162Y-76814833D01*
X110793117Y-76471057D01*
X110530327Y-76207808D01*
X110186799Y-76065162D01*
X109814833Y-76064838D01*
X109471057Y-76206883D01*
X109207808Y-76469673D01*
X109065162Y-76813201D01*
X109064838Y-77185167D01*
X109116061Y-77309137D01*
X107860320Y-78564878D01*
X107814833Y-78564838D01*
X107471057Y-78706883D01*
X107207808Y-78969673D01*
X107065162Y-79313201D01*
X107064838Y-79685167D01*
X107206883Y-80028943D01*
X107469673Y-80292192D01*
X107813201Y-80434838D01*
X108185167Y-80435162D01*
X108300382Y-80387556D01*
X108165162Y-80713201D01*
X108164838Y-81085167D01*
X108306883Y-81428943D01*
X108569673Y-81692192D01*
X108913201Y-81834838D01*
X109285167Y-81835162D01*
X109628943Y-81693117D01*
X109662118Y-81660000D01*
X113111048Y-81660000D01*
X113679152Y-82164981D01*
X113514833Y-82164838D01*
X113171057Y-82306883D01*
X113137882Y-82340000D01*
X106462114Y-82340000D01*
X106230327Y-82107808D01*
X105886799Y-81965162D01*
X105514833Y-81964838D01*
X105171057Y-82106883D01*
X104907808Y-82369673D01*
X104765162Y-82713201D01*
X104764838Y-83085167D01*
X104906883Y-83428943D01*
X105169673Y-83692192D01*
X105513201Y-83834838D01*
X105774648Y-83835066D01*
X105900000Y-83860000D01*
X106170301Y-83860000D01*
X106065162Y-84113201D01*
X106064838Y-84485167D01*
X106206883Y-84828943D01*
X106469673Y-85092192D01*
X106813201Y-85234838D01*
X106860077Y-85234879D01*
X109562599Y-87937401D01*
X109809161Y-88102148D01*
X110100000Y-88160000D01*
X114937537Y-88160000D01*
X114969673Y-88192192D01*
X115313201Y-88334838D01*
X115685167Y-88335162D01*
X116028943Y-88193117D01*
X116292192Y-87930327D01*
X116434838Y-87586799D01*
X116435162Y-87214833D01*
X116293117Y-86871057D01*
X116030327Y-86607808D01*
X115686799Y-86465162D01*
X115314833Y-86464838D01*
X114971057Y-86606883D01*
X114937882Y-86640000D01*
X110414802Y-86640000D01*
X107935122Y-84160320D01*
X107935162Y-84114833D01*
X107829867Y-83860000D01*
X113137537Y-83860000D01*
X113169673Y-83892192D01*
X113513201Y-84034838D01*
X113885167Y-84035162D01*
X114228943Y-83893117D01*
X114492192Y-83630327D01*
X114634838Y-83286799D01*
X114634992Y-83109794D01*
X117964878Y-86439680D01*
X117964838Y-86485167D01*
X118011228Y-86597441D01*
X118009161Y-86597852D01*
X117888779Y-86678289D01*
X117767598Y-86757646D01*
X117077701Y-87434884D01*
X117024833Y-87434838D01*
X116681057Y-87576883D01*
X116417808Y-87839673D01*
X116275162Y-88183201D01*
X116274838Y-88555167D01*
X116416883Y-88898943D01*
X116679673Y-89162192D01*
X117012077Y-89300219D01*
X116965162Y-89413201D01*
X116964838Y-89785167D01*
X117106883Y-90128943D01*
X117369673Y-90392192D01*
X117713201Y-90534838D01*
X118085167Y-90535162D01*
X118428943Y-90393117D01*
X118692192Y-90130327D01*
X118834838Y-89786799D01*
X118834879Y-89739923D01*
X120781020Y-87793782D01*
X120771002Y-87844142D01*
X120740310Y-87978295D01*
X120742153Y-87989176D01*
X120740000Y-88000000D01*
X120740000Y-94185198D01*
X120185198Y-94740000D01*
X106062463Y-94740000D01*
X106030327Y-94707808D01*
X105686799Y-94565162D01*
X105314833Y-94564838D01*
X104971057Y-94706883D01*
X104707808Y-94969673D01*
X104565162Y-95313201D01*
X104564838Y-95685167D01*
X104706883Y-96028943D01*
X104969673Y-96292192D01*
X105313201Y-96434838D01*
X105685167Y-96435162D01*
X106028943Y-96293117D01*
X106062118Y-96260000D01*
X120500000Y-96260000D01*
X120790839Y-96202148D01*
X121037401Y-96037401D01*
X122037401Y-95037401D01*
X122202148Y-94790839D01*
X122260000Y-94500000D01*
X122260000Y-88327595D01*
X123416757Y-87235102D01*
X123485167Y-87235162D01*
X123828943Y-87093117D01*
X124092192Y-86830327D01*
X124234838Y-86486799D01*
X124235162Y-86114833D01*
X124142623Y-85890872D01*
X124309160Y-86002148D01*
X124344412Y-86009160D01*
X124600000Y-86060000D01*
X127885198Y-86060000D01*
X137064878Y-95239680D01*
X137064838Y-95285167D01*
X137206883Y-95628943D01*
X137469673Y-95892192D01*
X137813201Y-96034838D01*
X138185167Y-96035162D01*
X138528943Y-95893117D01*
X138792192Y-95630327D01*
X138934838Y-95286799D01*
X138935162Y-94914833D01*
X138793117Y-94571057D01*
X138530327Y-94307808D01*
X138186799Y-94165162D01*
X138139923Y-94165121D01*
X128737401Y-84762599D01*
X128490839Y-84597852D01*
X128200000Y-84540000D01*
X125062923Y-84540000D01*
X124993117Y-84371057D01*
X124730327Y-84107808D01*
X124544257Y-84030545D01*
X125237401Y-83337401D01*
X125402148Y-83090840D01*
X125460000Y-82800000D01*
X125460000Y-81721892D01*
X128197770Y-79069676D01*
X131076261Y-79159629D01*
X131188259Y-79140967D01*
X131301503Y-79132800D01*
X131333481Y-79116769D01*
X131368766Y-79110890D01*
X131465091Y-79050792D01*
X131566595Y-78999908D01*
X131810762Y-78810000D01*
X134179750Y-78810000D01*
X135114680Y-79251005D01*
X135146883Y-79328943D01*
X135409673Y-79592192D01*
X135753201Y-79734838D01*
X135940000Y-79735001D01*
X135940000Y-79800000D01*
X135997852Y-80090839D01*
X136162599Y-80337401D01*
X136409161Y-80502148D01*
X136700000Y-80560000D01*
X140185198Y-80560000D01*
X141440000Y-81814802D01*
X141440000Y-83937537D01*
X141407808Y-83969673D01*
X141265162Y-84313201D01*
X141264838Y-84685167D01*
X141406883Y-85028943D01*
X141669673Y-85292192D01*
X142013201Y-85434838D01*
X142257626Y-85435051D01*
X142201824Y-88106082D01*
X141957808Y-88349673D01*
X141815162Y-88693201D01*
X141814838Y-89065167D01*
X141956883Y-89408943D01*
X142219673Y-89672192D01*
X142563201Y-89814838D01*
X142935167Y-89815162D01*
X143278943Y-89673117D01*
X143542192Y-89410327D01*
X143684838Y-89066799D01*
X143685063Y-88808099D01*
X143709834Y-88695874D01*
X143742444Y-87134951D01*
X143985167Y-87135162D01*
X144240000Y-87029867D01*
X144240000Y-92237537D01*
X144207808Y-92269673D01*
X144065162Y-92613201D01*
X144065121Y-92660077D01*
X142060320Y-94664878D01*
X142014833Y-94664838D01*
X141671057Y-94806883D01*
X141407808Y-95069673D01*
X141265162Y-95413201D01*
X141264838Y-95785167D01*
X141406883Y-96128943D01*
X141669673Y-96392192D01*
X142013201Y-96534838D01*
X142385167Y-96535162D01*
X142728943Y-96393117D01*
X142992192Y-96130327D01*
X143134838Y-95786799D01*
X143134879Y-95739923D01*
X145139680Y-93735122D01*
X145185167Y-93735162D01*
X145528943Y-93593117D01*
X145792192Y-93330327D01*
X145934838Y-92986799D01*
X145935162Y-92614833D01*
X145793117Y-92271057D01*
X145760000Y-92237882D01*
X145760000Y-78514802D01*
X148037401Y-76237401D01*
X148202148Y-75990839D01*
X148260000Y-75700000D01*
X148260000Y-71210000D01*
X150835000Y-71210000D01*
X150835000Y-71280000D01*
X150921397Y-71714346D01*
X151145714Y-72050060D01*
X151167434Y-72082566D01*
X151247434Y-72162566D01*
X151615655Y-72408603D01*
X152050000Y-72495000D01*
X152484345Y-72408603D01*
X152852566Y-72162566D01*
X153098603Y-71794345D01*
X153125374Y-71659758D01*
X155162618Y-69622514D01*
X155222104Y-69711542D01*
X155653812Y-70000000D01*
X155222104Y-70288458D01*
X154921200Y-70738793D01*
X154815536Y-71270000D01*
X154921200Y-71801207D01*
X155222104Y-72251542D01*
X155672439Y-72552446D01*
X156203646Y-72658110D01*
X157796354Y-72658110D01*
X158327561Y-72552446D01*
X158777896Y-72251542D01*
X159078800Y-71801207D01*
X159184464Y-71270000D01*
X159078800Y-70738793D01*
X158777896Y-70288458D01*
X158346188Y-70000000D01*
X158777896Y-69711542D01*
X159078800Y-69261207D01*
X159184464Y-68730000D01*
X159078800Y-68198793D01*
X158777896Y-67748458D01*
X158327561Y-67447554D01*
X157796354Y-67341890D01*
X156203646Y-67341890D01*
X155672439Y-67447554D01*
X155222104Y-67748458D01*
X155171948Y-67823522D01*
X154914345Y-67651397D01*
X154480000Y-67565000D01*
X154045655Y-67651397D01*
X153677434Y-67897434D01*
X151167434Y-70407434D01*
X150921397Y-70775654D01*
X150835000Y-71210000D01*
X148260000Y-71210000D01*
X148260000Y-64462463D01*
X148292192Y-64430327D01*
X148434838Y-64086799D01*
X148435162Y-63714833D01*
X148293117Y-63371057D01*
X148030327Y-63107808D01*
X147686799Y-62965162D01*
X147314833Y-62964838D01*
X146971057Y-63106883D01*
X146707808Y-63369673D01*
X146565162Y-63713201D01*
X146564838Y-64085167D01*
X146706883Y-64428943D01*
X146740000Y-64462118D01*
X146740000Y-73965121D01*
X146414833Y-73964838D01*
X146071057Y-74106883D01*
X145807808Y-74369673D01*
X145665162Y-74713201D01*
X145665121Y-74760077D01*
X145062599Y-75362599D01*
X144897852Y-75609161D01*
X144840000Y-75900000D01*
X144840000Y-76185198D01*
X144823690Y-76201508D01*
X144630327Y-76007808D01*
X144286799Y-75865162D01*
X144239923Y-75865121D01*
X143137401Y-74762599D01*
X142890839Y-74597852D01*
X142600000Y-74540000D01*
X139206006Y-74540000D01*
X131949151Y-67565512D01*
X131940854Y-64404671D01*
X133965086Y-62474864D01*
X134046511Y-62529271D01*
X134620000Y-62643345D01*
X135193489Y-62529271D01*
X135679670Y-62204415D01*
X135890000Y-61889634D01*
X136100330Y-62204415D01*
X136586511Y-62529271D01*
X137160000Y-62643345D01*
X137733489Y-62529271D01*
X138219670Y-62204415D01*
X138430000Y-61889634D01*
X138640330Y-62204415D01*
X139126511Y-62529271D01*
X139700000Y-62643345D01*
X140273489Y-62529271D01*
X140759670Y-62204415D01*
X140970000Y-61889634D01*
X141180330Y-62204415D01*
X141666511Y-62529271D01*
X142240000Y-62643345D01*
X142813489Y-62529271D01*
X143299670Y-62204415D01*
X143510000Y-61889634D01*
X143720330Y-62204415D01*
X144206511Y-62529271D01*
X144780000Y-62643345D01*
X145353489Y-62529271D01*
X145839670Y-62204415D01*
X145849243Y-62190087D01*
X145853238Y-62211317D01*
X145992310Y-62427441D01*
X146204510Y-62572431D01*
X146456400Y-62623440D01*
X148183600Y-62623440D01*
X148418917Y-62579162D01*
X148635041Y-62440090D01*
X148780031Y-62227890D01*
X148831040Y-61976000D01*
X148831040Y-60472325D01*
X152614587Y-60472325D01*
X152976916Y-61349229D01*
X153647242Y-62020726D01*
X154523513Y-62384585D01*
X155472325Y-62385413D01*
X156349229Y-62023084D01*
X157020726Y-61352758D01*
X157384585Y-60476487D01*
X157385413Y-59527675D01*
X157023084Y-58650771D01*
X156352758Y-57979274D01*
X155476487Y-57615415D01*
X154527675Y-57614587D01*
X153650771Y-57976916D01*
X152979274Y-58647242D01*
X152615415Y-59523513D01*
X152614587Y-60472325D01*
X148831040Y-60472325D01*
X148831040Y-59944000D01*
X148786762Y-59708683D01*
X148647690Y-59492559D01*
X148435490Y-59347569D01*
X148183600Y-59296560D01*
X146456400Y-59296560D01*
X146221083Y-59340838D01*
X146004959Y-59479910D01*
X145859969Y-59692110D01*
X145851600Y-59733439D01*
X145839670Y-59715585D01*
X145353489Y-59390729D01*
X144780000Y-59276655D01*
X144206511Y-59390729D01*
X143720330Y-59715585D01*
X143510000Y-60030366D01*
X143299670Y-59715585D01*
X142813489Y-59390729D01*
X142240000Y-59276655D01*
X141666511Y-59390729D01*
X141180330Y-59715585D01*
X140970000Y-60030366D01*
X140759670Y-59715585D01*
X140273489Y-59390729D01*
X139700000Y-59276655D01*
X139126511Y-59390729D01*
X138640330Y-59715585D01*
X138430000Y-60030366D01*
X138219670Y-59715585D01*
X137733489Y-59390729D01*
X137160000Y-59276655D01*
X136586511Y-59390729D01*
X136100330Y-59715585D01*
X135890000Y-60030366D01*
X135679670Y-59715585D01*
X135193489Y-59390729D01*
X134620000Y-59276655D01*
X134046511Y-59390729D01*
X133560330Y-59715585D01*
X133350000Y-60030366D01*
X133139670Y-59715585D01*
X132653489Y-59390729D01*
X132080000Y-59276655D01*
X131506511Y-59390729D01*
X131020330Y-59715585D01*
X130810000Y-60030366D01*
X130599670Y-59715585D01*
X130113489Y-59390729D01*
X129540000Y-59276655D01*
X128966511Y-59390729D01*
X128480330Y-59715585D01*
X128270000Y-60030366D01*
X128059670Y-59715585D01*
X127573489Y-59390729D01*
X127000000Y-59276655D01*
X126426511Y-59390729D01*
X125940330Y-59715585D01*
X125730000Y-60030366D01*
X125519670Y-59715585D01*
X125033489Y-59390729D01*
X124460000Y-59276655D01*
X123886511Y-59390729D01*
X123400330Y-59715585D01*
X123190000Y-60030366D01*
X122979670Y-59715585D01*
X122493489Y-59390729D01*
X121920000Y-59276655D01*
X121346511Y-59390729D01*
X120860330Y-59715585D01*
X120650000Y-60030366D01*
X120439670Y-59715585D01*
X119953489Y-59390729D01*
X119380000Y-59276655D01*
X118806511Y-59390729D01*
X118320330Y-59715585D01*
X118110000Y-60030366D01*
X117899670Y-59715585D01*
X117413489Y-59390729D01*
X116840000Y-59276655D01*
X116266511Y-59390729D01*
X115780330Y-59715585D01*
X115570000Y-60030366D01*
X115359670Y-59715585D01*
X114873489Y-59390729D01*
X114300000Y-59276655D01*
X113726511Y-59390729D01*
X113240330Y-59715585D01*
X113030000Y-60030366D01*
X112819670Y-59715585D01*
X112333489Y-59390729D01*
X111760000Y-59276655D01*
X111186511Y-59390729D01*
X110700330Y-59715585D01*
X110490000Y-60030366D01*
X110279670Y-59715585D01*
X109793489Y-59390729D01*
X109220000Y-59276655D01*
X108646511Y-59390729D01*
X108160330Y-59715585D01*
X107950000Y-60030366D01*
X107739670Y-59715585D01*
X107253489Y-59390729D01*
X106680000Y-59276655D01*
X106106511Y-59390729D01*
X105620330Y-59715585D01*
X105410000Y-60030366D01*
X105199670Y-59715585D01*
X104713489Y-59390729D01*
X104140000Y-59276655D01*
X103566511Y-59390729D01*
X103080330Y-59715585D01*
X102870000Y-60030366D01*
X102659670Y-59715585D01*
X102173489Y-59390729D01*
X101600000Y-59276655D01*
X101026511Y-59390729D01*
X100540330Y-59715585D01*
X100330000Y-60030366D01*
X100119670Y-59715585D01*
X99633489Y-59390729D01*
X99060000Y-59276655D01*
X98486511Y-59390729D01*
X98000330Y-59715585D01*
X97790000Y-60030366D01*
X97579670Y-59715585D01*
X97093489Y-59390729D01*
X96520000Y-59276655D01*
X95946511Y-59390729D01*
X95460330Y-59715585D01*
X95250000Y-60030366D01*
X95039670Y-59715585D01*
X94553489Y-59390729D01*
X93980000Y-59276655D01*
X93406511Y-59390729D01*
X92920330Y-59715585D01*
X92710000Y-60030366D01*
X92499670Y-59715585D01*
X92013489Y-59390729D01*
X91440000Y-59276655D01*
X90866511Y-59390729D01*
X90380330Y-59715585D01*
X90170000Y-60030366D01*
X89959670Y-59715585D01*
X89473489Y-59390729D01*
X88900000Y-59276655D01*
X88326511Y-59390729D01*
X87840330Y-59715585D01*
X87633539Y-60025069D01*
X87262036Y-59609268D01*
X86734791Y-59355291D01*
X86719026Y-59352642D01*
X86487000Y-59473783D01*
X86233000Y-59473783D01*
X86000974Y-59352642D01*
X85985209Y-59355291D01*
X85457964Y-59609268D01*
X85068046Y-60045680D01*
X84874816Y-60598087D01*
X80695000Y-60598087D01*
X80695000Y-59842403D01*
X80791542Y-59777896D01*
X81092446Y-59327561D01*
X81198110Y-58796354D01*
X81198110Y-57203646D01*
X81092446Y-56672439D01*
X80791542Y-56222104D01*
X80341207Y-55921200D01*
X79810000Y-55815536D01*
X79278793Y-55921200D01*
X78828458Y-56222104D01*
X78540000Y-56653812D01*
X78251542Y-56222104D01*
X77801207Y-55921200D01*
X77270000Y-55815536D01*
X76738793Y-55921200D01*
X76288458Y-56222104D01*
X76000000Y-56653812D01*
X75711542Y-56222104D01*
X75261207Y-55921200D01*
X74730000Y-55815536D01*
X74198793Y-55921200D01*
X73748458Y-56222104D01*
X73447554Y-56672439D01*
X73446984Y-56675306D01*
X73423846Y-56597081D01*
X73081740Y-56174276D01*
X72603875Y-55914573D01*
X72531674Y-55900217D01*
X72317000Y-56022838D01*
X72317000Y-57873000D01*
X72337000Y-57873000D01*
X72337000Y-58127000D01*
X72317000Y-58127000D01*
X72317000Y-59977162D01*
X72531674Y-60099783D01*
X72603875Y-60085427D01*
X73081740Y-59825724D01*
X73423846Y-59402919D01*
X73446984Y-59324694D01*
X73447554Y-59327561D01*
X73748458Y-59777896D01*
X74198793Y-60078800D01*
X74730000Y-60184464D01*
X75261207Y-60078800D01*
X75711542Y-59777896D01*
X76000000Y-59346188D01*
X76288458Y-59777896D01*
X76738793Y-60078800D01*
X77040000Y-60138714D01*
X77040000Y-63285198D01*
X73262599Y-67062599D01*
X73097852Y-67309161D01*
X73040000Y-67600000D01*
X73040000Y-74200000D01*
X73097852Y-74490839D01*
X73262599Y-74737401D01*
X74066710Y-75541512D01*
X73861326Y-75582366D01*
X73778960Y-75637401D01*
X73574210Y-75774210D01*
X73574208Y-75774213D01*
X72574210Y-76774210D01*
X72382367Y-77061325D01*
X72378404Y-77081247D01*
X72314999Y-77400000D01*
X72315000Y-77400005D01*
X72315000Y-79812799D01*
X72309697Y-79814990D01*
X71916371Y-80207630D01*
X71703243Y-80720900D01*
X71702960Y-81045461D01*
X68874210Y-83874210D01*
X68682367Y-84161325D01*
X68682367Y-84161326D01*
X68614999Y-84500000D01*
X60710000Y-84500000D01*
X60710000Y-82611674D01*
X61100217Y-82611674D01*
X61114573Y-82683875D01*
X61374276Y-83161740D01*
X61797081Y-83503846D01*
X62318620Y-83658110D01*
X63073000Y-83658110D01*
X63073000Y-82397000D01*
X63327000Y-82397000D01*
X63327000Y-83658110D01*
X64081380Y-83658110D01*
X64602919Y-83503846D01*
X65025724Y-83161740D01*
X65285427Y-82683875D01*
X65299783Y-82611674D01*
X65177162Y-82397000D01*
X63327000Y-82397000D01*
X63073000Y-82397000D01*
X61222838Y-82397000D01*
X61100217Y-82611674D01*
X60710000Y-82611674D01*
X60710000Y-79730000D01*
X61015536Y-79730000D01*
X61121200Y-80261207D01*
X61422104Y-80711542D01*
X61872439Y-81012446D01*
X61875306Y-81013016D01*
X61797081Y-81036154D01*
X61374276Y-81378260D01*
X61114573Y-81856125D01*
X61100217Y-81928326D01*
X61222838Y-82143000D01*
X63073000Y-82143000D01*
X63073000Y-82123000D01*
X63327000Y-82123000D01*
X63327000Y-82143000D01*
X65177162Y-82143000D01*
X65299783Y-81928326D01*
X65285427Y-81856125D01*
X65025724Y-81378260D01*
X64602919Y-81036154D01*
X64524694Y-81013016D01*
X64527561Y-81012446D01*
X64977896Y-80711542D01*
X65278800Y-80261207D01*
X65384464Y-79730000D01*
X65278800Y-79198793D01*
X64977896Y-78748458D01*
X64527561Y-78447554D01*
X63996354Y-78341890D01*
X62403646Y-78341890D01*
X61872439Y-78447554D01*
X61422104Y-78748458D01*
X61121200Y-79198793D01*
X61015536Y-79730000D01*
X60710000Y-79730000D01*
X60710000Y-75284750D01*
X64915340Y-75284750D01*
X64915340Y-76875370D01*
X65012013Y-77108759D01*
X65190642Y-77287387D01*
X65424031Y-77384060D01*
X67014650Y-77384060D01*
X67173400Y-77225310D01*
X67173400Y-75126000D01*
X67427400Y-75126000D01*
X67427400Y-77225310D01*
X67586150Y-77384060D01*
X69176769Y-77384060D01*
X69410158Y-77287387D01*
X69588787Y-77108759D01*
X69685460Y-76875370D01*
X69685460Y-75284750D01*
X69526710Y-75126000D01*
X67427400Y-75126000D01*
X67173400Y-75126000D01*
X65074090Y-75126000D01*
X64915340Y-75284750D01*
X60710000Y-75284750D01*
X60710000Y-70585750D01*
X61915600Y-70585750D01*
X61915600Y-72176370D01*
X62012273Y-72409759D01*
X62190902Y-72588387D01*
X62424291Y-72685060D01*
X64014910Y-72685060D01*
X64173660Y-72526310D01*
X64173660Y-70427000D01*
X64427660Y-70427000D01*
X64427660Y-72526310D01*
X64586410Y-72685060D01*
X65252332Y-72685060D01*
X65190642Y-72710613D01*
X65012013Y-72889241D01*
X64915340Y-73122630D01*
X64915340Y-74713250D01*
X65074090Y-74872000D01*
X67173400Y-74872000D01*
X67173400Y-72772690D01*
X67427400Y-72772690D01*
X67427400Y-74872000D01*
X69526710Y-74872000D01*
X69685460Y-74713250D01*
X69685460Y-73122630D01*
X69588787Y-72889241D01*
X69410158Y-72710613D01*
X69378500Y-72697500D01*
X72050200Y-72697500D01*
X72285517Y-72653222D01*
X72501641Y-72514150D01*
X72646631Y-72301950D01*
X72697640Y-72050060D01*
X72697640Y-68549940D01*
X72653362Y-68314623D01*
X72514290Y-68098499D01*
X72302090Y-67953509D01*
X72050200Y-67902500D01*
X68550080Y-67902500D01*
X68314763Y-67946778D01*
X68098639Y-68085850D01*
X67953649Y-68298050D01*
X67902640Y-68549940D01*
X67902640Y-72050060D01*
X67946918Y-72285377D01*
X68085990Y-72501501D01*
X68250550Y-72613940D01*
X67586150Y-72613940D01*
X67427400Y-72772690D01*
X67173400Y-72772690D01*
X67014650Y-72613940D01*
X66348728Y-72613940D01*
X66410418Y-72588387D01*
X66589047Y-72409759D01*
X66685720Y-72176370D01*
X66685720Y-70585750D01*
X66526970Y-70427000D01*
X64427660Y-70427000D01*
X64173660Y-70427000D01*
X62074350Y-70427000D01*
X61915600Y-70585750D01*
X60710000Y-70585750D01*
X60710000Y-68423630D01*
X61915600Y-68423630D01*
X61915600Y-70014250D01*
X62074350Y-70173000D01*
X64173660Y-70173000D01*
X64173660Y-68073690D01*
X64427660Y-68073690D01*
X64427660Y-70173000D01*
X66526970Y-70173000D01*
X66685720Y-70014250D01*
X66685720Y-68423630D01*
X66589047Y-68190241D01*
X66410418Y-68011613D01*
X66177029Y-67914940D01*
X64586410Y-67914940D01*
X64427660Y-68073690D01*
X64173660Y-68073690D01*
X64014910Y-67914940D01*
X62424291Y-67914940D01*
X62190902Y-68011613D01*
X62012273Y-68190241D01*
X61915600Y-68423630D01*
X60710000Y-68423630D01*
X60710000Y-60472325D01*
X62614587Y-60472325D01*
X62976916Y-61349229D01*
X63647242Y-62020726D01*
X64523513Y-62384585D01*
X65472325Y-62385413D01*
X66349229Y-62023084D01*
X67020726Y-61352758D01*
X67384585Y-60476487D01*
X67385413Y-59527675D01*
X67023084Y-58650771D01*
X66500227Y-58127000D01*
X70801890Y-58127000D01*
X70801890Y-58881380D01*
X70956154Y-59402919D01*
X71298260Y-59825724D01*
X71776125Y-60085427D01*
X71848326Y-60099783D01*
X72063000Y-59977162D01*
X72063000Y-58127000D01*
X70801890Y-58127000D01*
X66500227Y-58127000D01*
X66352758Y-57979274D01*
X65476487Y-57615415D01*
X64527675Y-57614587D01*
X63650771Y-57976916D01*
X62979274Y-58647242D01*
X62615415Y-59523513D01*
X62614587Y-60472325D01*
X60710000Y-60472325D01*
X60710000Y-57118620D01*
X70801890Y-57118620D01*
X70801890Y-57873000D01*
X72063000Y-57873000D01*
X72063000Y-56022838D01*
X71848326Y-55900217D01*
X71776125Y-55914573D01*
X71298260Y-56174276D01*
X70956154Y-56597081D01*
X70801890Y-57118620D01*
X60710000Y-57118620D01*
X60710000Y-55710000D01*
X159290000Y-55710000D01*
X159290000Y-104290000D01*
X159290000Y-104290000D01*
G37*
X159290000Y-104290000D02*
X60710000Y-104290000D01*
X60710000Y-100472325D01*
X62614587Y-100472325D01*
X62976916Y-101349229D01*
X63647242Y-102020726D01*
X64523513Y-102384585D01*
X65472325Y-102385413D01*
X66349229Y-102023084D01*
X67020726Y-101352758D01*
X67082642Y-101203646D01*
X71341890Y-101203646D01*
X71341890Y-102796354D01*
X71447554Y-103327561D01*
X71748458Y-103777896D01*
X72198793Y-104078800D01*
X72730000Y-104184464D01*
X73261207Y-104078800D01*
X73711542Y-103777896D01*
X74012446Y-103327561D01*
X74013016Y-103324694D01*
X74036154Y-103402919D01*
X74378260Y-103825724D01*
X74856125Y-104085427D01*
X74928326Y-104099783D01*
X75143000Y-103977162D01*
X75143000Y-102127000D01*
X75397000Y-102127000D01*
X75397000Y-103977162D01*
X75611674Y-104099783D01*
X75683875Y-104085427D01*
X76161740Y-103825724D01*
X76503846Y-103402919D01*
X76658110Y-102881380D01*
X76658110Y-102127000D01*
X75397000Y-102127000D01*
X75143000Y-102127000D01*
X75123000Y-102127000D01*
X75123000Y-101873000D01*
X75143000Y-101873000D01*
X75143000Y-100022838D01*
X75397000Y-100022838D01*
X75397000Y-101873000D01*
X76658110Y-101873000D01*
X76658110Y-101118620D01*
X76503846Y-100597081D01*
X76161740Y-100174276D01*
X75683875Y-99914573D01*
X75611674Y-99900217D01*
X75397000Y-100022838D01*
X75143000Y-100022838D01*
X74928326Y-99900217D01*
X74856125Y-99914573D01*
X74378260Y-100174276D01*
X74036154Y-100597081D01*
X74013016Y-100675306D01*
X74012446Y-100672439D01*
X73711542Y-100222104D01*
X73261207Y-99921200D01*
X72730000Y-99815536D01*
X72198793Y-99921200D01*
X71748458Y-100222104D01*
X71447554Y-100672439D01*
X71341890Y-101203646D01*
X67082642Y-101203646D01*
X67384585Y-100476487D01*
X67385413Y-99527675D01*
X67023084Y-98650771D01*
X66352758Y-97979274D01*
X65476487Y-97615415D01*
X64527675Y-97614587D01*
X63650771Y-97976916D01*
X62979274Y-98647242D01*
X62615415Y-99523513D01*
X62614587Y-100472325D01*
X60710000Y-100472325D01*
X60710000Y-92881674D01*
X60900217Y-92881674D01*
X60914573Y-92953875D01*
X61174276Y-93431740D01*
X61597081Y-93773846D01*
X62118620Y-93928110D01*
X62873000Y-93928110D01*
X62873000Y-92667000D01*
X63127000Y-92667000D01*
X63127000Y-93928110D01*
X63881380Y-93928110D01*
X64402919Y-93773846D01*
X64825724Y-93431740D01*
X65085427Y-92953875D01*
X65099783Y-92881674D01*
X64977162Y-92667000D01*
X63127000Y-92667000D01*
X62873000Y-92667000D01*
X61022838Y-92667000D01*
X60900217Y-92881674D01*
X60710000Y-92881674D01*
X60710000Y-87460000D01*
X60815536Y-87460000D01*
X60921200Y-87991207D01*
X61222104Y-88441542D01*
X61653812Y-88730000D01*
X61222104Y-89018458D01*
X60921200Y-89468793D01*
X60815536Y-90000000D01*
X60921200Y-90531207D01*
X61222104Y-90981542D01*
X61672439Y-91282446D01*
X61675306Y-91283016D01*
X61597081Y-91306154D01*
X61174276Y-91648260D01*
X60914573Y-92126125D01*
X60900217Y-92198326D01*
X61022838Y-92413000D01*
X62873000Y-92413000D01*
X62873000Y-92393000D01*
X63127000Y-92393000D01*
X63127000Y-92413000D01*
X64977162Y-92413000D01*
X65099783Y-92198326D01*
X65085427Y-92126125D01*
X64825724Y-91648260D01*
X64402919Y-91306154D01*
X64324694Y-91283016D01*
X64327561Y-91282446D01*
X64777896Y-90981542D01*
X65078800Y-90531207D01*
X65184464Y-90000000D01*
X65078800Y-89468793D01*
X64777896Y-89018458D01*
X64346188Y-88730000D01*
X64777896Y-88441542D01*
X65078800Y-87991207D01*
X65184464Y-87460000D01*
X65078800Y-86928793D01*
X64777896Y-86478458D01*
X64327561Y-86177554D01*
X63796354Y-86071890D01*
X62203646Y-86071890D01*
X61672439Y-86177554D01*
X61222104Y-86478458D01*
X60921200Y-86928793D01*
X60815536Y-87460000D01*
X60710000Y-87460000D01*
X60710000Y-84500000D01*
X68614999Y-84500000D01*
X68615000Y-84500005D01*
X68615000Y-96099995D01*
X68614999Y-96100000D01*
X68655210Y-96302148D01*
X68664868Y-96350702D01*
X68664838Y-96385167D01*
X68678115Y-96417301D01*
X68682367Y-96438675D01*
X68694369Y-96456637D01*
X68806883Y-96728943D01*
X69069673Y-96992192D01*
X69413201Y-97134838D01*
X69785167Y-97135162D01*
X70128943Y-96993117D01*
X70392192Y-96730327D01*
X70534838Y-96386799D01*
X70535162Y-96014833D01*
X70393117Y-95671057D01*
X70385000Y-95662926D01*
X70385000Y-84866580D01*
X72854793Y-82396787D01*
X73376661Y-82397242D01*
X73890303Y-82185010D01*
X74283629Y-81792370D01*
X74496757Y-81279100D01*
X74497242Y-80723339D01*
X74285010Y-80209697D01*
X74085000Y-80009338D01*
X74085000Y-77766580D01*
X74566579Y-77285000D01*
X74839670Y-77285000D01*
X74456371Y-77667630D01*
X74243243Y-78180900D01*
X74242758Y-78736661D01*
X74454990Y-79250303D01*
X74715000Y-79510767D01*
X74715000Y-87089523D01*
X74272439Y-87177554D01*
X73822104Y-87478458D01*
X73521200Y-87928793D01*
X73415536Y-88460000D01*
X73521200Y-88991207D01*
X73822104Y-89441542D01*
X74253812Y-89730000D01*
X73822104Y-90018458D01*
X73521200Y-90468793D01*
X73415536Y-91000000D01*
X73521200Y-91531207D01*
X73822104Y-91981542D01*
X74253812Y-92270000D01*
X73822104Y-92558458D01*
X73521200Y-93008793D01*
X73415536Y-93540000D01*
X73521200Y-94071207D01*
X73822104Y-94521542D01*
X74272439Y-94822446D01*
X74803646Y-94928110D01*
X76396354Y-94928110D01*
X76927561Y-94822446D01*
X77377896Y-94521542D01*
X77678800Y-94071207D01*
X77784464Y-93540000D01*
X77678800Y-93008793D01*
X77377896Y-92558458D01*
X76946188Y-92270000D01*
X77377896Y-91981542D01*
X77525926Y-91760000D01*
X94466135Y-91760000D01*
X99485813Y-92208186D01*
X99569673Y-92292192D01*
X99913201Y-92434838D01*
X100285167Y-92435162D01*
X100340000Y-92412506D01*
X100340000Y-95800000D01*
X100397852Y-96090839D01*
X100562599Y-96337401D01*
X101602313Y-97377115D01*
X101600000Y-97376655D01*
X101026511Y-97490729D01*
X100540330Y-97815585D01*
X100330000Y-98130366D01*
X100119670Y-97815585D01*
X99633489Y-97490729D01*
X99060000Y-97376655D01*
X98486511Y-97490729D01*
X98000330Y-97815585D01*
X97790000Y-98130366D01*
X97579670Y-97815585D01*
X97093489Y-97490729D01*
X96520000Y-97376655D01*
X95946511Y-97490729D01*
X95460330Y-97815585D01*
X95250000Y-98130366D01*
X95039670Y-97815585D01*
X94553489Y-97490729D01*
X93980000Y-97376655D01*
X93406511Y-97490729D01*
X92920330Y-97815585D01*
X92710000Y-98130366D01*
X92499670Y-97815585D01*
X92013489Y-97490729D01*
X91440000Y-97376655D01*
X90866511Y-97490729D01*
X90380330Y-97815585D01*
X90170000Y-98130366D01*
X89959670Y-97815585D01*
X89473489Y-97490729D01*
X88900000Y-97376655D01*
X88326511Y-97490729D01*
X87840330Y-97815585D01*
X87830757Y-97829913D01*
X87826762Y-97808683D01*
X87687690Y-97592559D01*
X87475490Y-97447569D01*
X87223600Y-97396560D01*
X85496400Y-97396560D01*
X85261083Y-97440838D01*
X85044959Y-97579910D01*
X84899969Y-97792110D01*
X84848960Y-98044000D01*
X84848960Y-100076000D01*
X84893238Y-100311317D01*
X85032310Y-100527441D01*
X85244510Y-100672431D01*
X85496400Y-100723440D01*
X87223600Y-100723440D01*
X87458917Y-100679162D01*
X87675041Y-100540090D01*
X87820031Y-100327890D01*
X87828400Y-100286561D01*
X87840330Y-100304415D01*
X88326511Y-100629271D01*
X88900000Y-100743345D01*
X89473489Y-100629271D01*
X89959670Y-100304415D01*
X90170000Y-99989634D01*
X90380330Y-100304415D01*
X90866511Y-100629271D01*
X91440000Y-100743345D01*
X92013489Y-100629271D01*
X92499670Y-100304415D01*
X92710000Y-99989634D01*
X92920330Y-100304415D01*
X93406511Y-100629271D01*
X93980000Y-100743345D01*
X94553489Y-100629271D01*
X95039670Y-100304415D01*
X95250000Y-99989634D01*
X95460330Y-100304415D01*
X95946511Y-100629271D01*
X96520000Y-100743345D01*
X97093489Y-100629271D01*
X97579670Y-100304415D01*
X97790000Y-99989634D01*
X98000330Y-100304415D01*
X98486511Y-100629271D01*
X99060000Y-100743345D01*
X99633489Y-100629271D01*
X100119670Y-100304415D01*
X100330000Y-99989634D01*
X100540330Y-100304415D01*
X101026511Y-100629271D01*
X101600000Y-100743345D01*
X102146875Y-100634565D01*
X102197852Y-100890839D01*
X102362599Y-101137401D01*
X103062598Y-101837401D01*
X103227345Y-101947480D01*
X103309161Y-102002148D01*
X103600000Y-102060000D01*
X140000000Y-102060000D01*
X140290839Y-102002148D01*
X140537401Y-101837401D01*
X141732421Y-100642381D01*
X142240000Y-100743345D01*
X142813489Y-100629271D01*
X143299670Y-100304415D01*
X143510000Y-99989634D01*
X143720330Y-100304415D01*
X144206511Y-100629271D01*
X144780000Y-100743345D01*
X145353489Y-100629271D01*
X145839670Y-100304415D01*
X146050000Y-99989634D01*
X146260330Y-100304415D01*
X146746511Y-100629271D01*
X147320000Y-100743345D01*
X147893489Y-100629271D01*
X148128375Y-100472325D01*
X152614587Y-100472325D01*
X152976916Y-101349229D01*
X153647242Y-102020726D01*
X154523513Y-102384585D01*
X155472325Y-102385413D01*
X156349229Y-102023084D01*
X157020726Y-101352758D01*
X157384585Y-100476487D01*
X157385413Y-99527675D01*
X157023084Y-98650771D01*
X156352758Y-97979274D01*
X155476487Y-97615415D01*
X154527675Y-97614587D01*
X153650771Y-97976916D01*
X152979274Y-98647242D01*
X152615415Y-99523513D01*
X152614587Y-100472325D01*
X148128375Y-100472325D01*
X148379670Y-100304415D01*
X148704526Y-99818234D01*
X148818600Y-99244745D01*
X148818600Y-98875255D01*
X148704526Y-98301766D01*
X148379670Y-97815585D01*
X147893489Y-97490729D01*
X147320000Y-97376655D01*
X146746511Y-97490729D01*
X146260330Y-97815585D01*
X146050000Y-98130366D01*
X145839670Y-97815585D01*
X145353489Y-97490729D01*
X144780000Y-97376655D01*
X144206511Y-97490729D01*
X143720330Y-97815585D01*
X143510000Y-98130366D01*
X143299670Y-97815585D01*
X142813489Y-97490729D01*
X142240000Y-97376655D01*
X141666511Y-97490729D01*
X141180330Y-97815585D01*
X140970000Y-98130366D01*
X140759670Y-97815585D01*
X140273489Y-97490729D01*
X139700000Y-97376655D01*
X139126511Y-97490729D01*
X138640330Y-97815585D01*
X138430000Y-98130366D01*
X138219670Y-97815585D01*
X137733489Y-97490729D01*
X137160000Y-97376655D01*
X136586511Y-97490729D01*
X136100330Y-97815585D01*
X135890000Y-98130366D01*
X135679670Y-97815585D01*
X135193489Y-97490729D01*
X134620000Y-97376655D01*
X134046511Y-97490729D01*
X133560330Y-97815585D01*
X133350000Y-98130366D01*
X133139670Y-97815585D01*
X132653489Y-97490729D01*
X132080000Y-97376655D01*
X131506511Y-97490729D01*
X131020330Y-97815585D01*
X130810000Y-98130366D01*
X130599670Y-97815585D01*
X130113489Y-97490729D01*
X129540000Y-97376655D01*
X128966511Y-97490729D01*
X128480330Y-97815585D01*
X128270000Y-98130366D01*
X128059670Y-97815585D01*
X127573489Y-97490729D01*
X127000000Y-97376655D01*
X126426511Y-97490729D01*
X125940330Y-97815585D01*
X125730000Y-98130366D01*
X125519670Y-97815585D01*
X125033489Y-97490729D01*
X124460000Y-97376655D01*
X123886511Y-97490729D01*
X123400330Y-97815585D01*
X123190000Y-98130366D01*
X122979670Y-97815585D01*
X122493489Y-97490729D01*
X121920000Y-97376655D01*
X121346511Y-97490729D01*
X120860330Y-97815585D01*
X120650000Y-98130366D01*
X120439670Y-97815585D01*
X119953489Y-97490729D01*
X119380000Y-97376655D01*
X118806511Y-97490729D01*
X118320330Y-97815585D01*
X118110000Y-98130366D01*
X117899670Y-97815585D01*
X117413489Y-97490729D01*
X116840000Y-97376655D01*
X116266511Y-97490729D01*
X115780330Y-97815585D01*
X115570000Y-98130366D01*
X115359670Y-97815585D01*
X114873489Y-97490729D01*
X114300000Y-97376655D01*
X113726511Y-97490729D01*
X113240330Y-97815585D01*
X113030000Y-98130366D01*
X112819670Y-97815585D01*
X112333489Y-97490729D01*
X111760000Y-97376655D01*
X111186511Y-97490729D01*
X110700330Y-97815585D01*
X110490000Y-98130366D01*
X110279670Y-97815585D01*
X109793489Y-97490729D01*
X109220000Y-97376655D01*
X108646511Y-97490729D01*
X108160330Y-97815585D01*
X107950000Y-98130366D01*
X107739670Y-97815585D01*
X107253489Y-97490729D01*
X106680000Y-97376655D01*
X106106511Y-97490729D01*
X105620330Y-97815585D01*
X105410000Y-98130366D01*
X105199670Y-97815585D01*
X104713489Y-97490729D01*
X104140000Y-97376655D01*
X103635533Y-97477000D01*
X103602148Y-97309161D01*
X103602148Y-97309160D01*
X103437401Y-97062599D01*
X101860000Y-95485198D01*
X101860000Y-89000000D01*
X101802148Y-88709161D01*
X101637401Y-88462599D01*
X97737401Y-84562599D01*
X97490839Y-84397852D01*
X97200000Y-84340000D01*
X87014802Y-84340000D01*
X77237401Y-74562599D01*
X76990839Y-74397852D01*
X76700000Y-74340000D01*
X75014802Y-74340000D01*
X74560000Y-73885198D01*
X74560000Y-67914802D01*
X78337401Y-64137401D01*
X78502148Y-63890840D01*
X78560000Y-63600000D01*
X78560000Y-59376120D01*
X78828458Y-59777896D01*
X78925000Y-59842403D01*
X78925000Y-71909995D01*
X78924999Y-71910000D01*
X78973175Y-72152192D01*
X78992367Y-72248675D01*
X79103501Y-72415000D01*
X79184210Y-72535790D01*
X79854174Y-73205754D01*
X79815536Y-73400000D01*
X79921200Y-73931207D01*
X80222104Y-74381542D01*
X80653812Y-74670000D01*
X80222104Y-74958458D01*
X79921200Y-75408793D01*
X79815536Y-75940000D01*
X79921200Y-76471207D01*
X80222104Y-76921542D01*
X80672439Y-77222446D01*
X81203646Y-77328110D01*
X82796354Y-77328110D01*
X83327561Y-77222446D01*
X83777896Y-76921542D01*
X84078800Y-76471207D01*
X84184464Y-75940000D01*
X84078800Y-75408793D01*
X83777896Y-74958458D01*
X83346188Y-74670000D01*
X83777896Y-74381542D01*
X84078800Y-73931207D01*
X84184464Y-73400000D01*
X84078800Y-72868793D01*
X83777896Y-72418458D01*
X83346188Y-72130000D01*
X83777896Y-71841542D01*
X84078800Y-71391207D01*
X84184464Y-70860000D01*
X84078800Y-70328793D01*
X83777896Y-69878458D01*
X83327561Y-69577554D01*
X82796354Y-69471890D01*
X81203646Y-69471890D01*
X80695000Y-69573066D01*
X80695000Y-61321913D01*
X84874816Y-61321913D01*
X85068046Y-61874320D01*
X85457964Y-62310732D01*
X85985209Y-62564709D01*
X86000974Y-62567358D01*
X86233000Y-62446217D01*
X86233000Y-61087000D01*
X85019076Y-61087000D01*
X84874816Y-61321913D01*
X80695000Y-61321913D01*
X80695000Y-60598087D01*
X84874816Y-60598087D01*
X85019076Y-60833000D01*
X86233000Y-60833000D01*
X86233000Y-59473783D01*
X86487000Y-59473783D01*
X86487000Y-60833000D01*
X86507000Y-60833000D01*
X86507000Y-61087000D01*
X86487000Y-61087000D01*
X86487000Y-62446217D01*
X86719026Y-62567358D01*
X86734791Y-62564709D01*
X87262036Y-62310732D01*
X87633539Y-61894931D01*
X87840330Y-62204415D01*
X88326511Y-62529271D01*
X88900000Y-62643345D01*
X89473489Y-62529271D01*
X89959670Y-62204415D01*
X90170000Y-61889634D01*
X90380330Y-62204415D01*
X90866511Y-62529271D01*
X91440000Y-62643345D01*
X92013489Y-62529271D01*
X92499670Y-62204415D01*
X92710000Y-61889634D01*
X92920330Y-62204415D01*
X93406511Y-62529271D01*
X93980000Y-62643345D01*
X94553489Y-62529271D01*
X95039670Y-62204415D01*
X95250000Y-61889634D01*
X95460330Y-62204415D01*
X95946511Y-62529271D01*
X96520000Y-62643345D01*
X97093489Y-62529271D01*
X97579670Y-62204415D01*
X97790000Y-61889634D01*
X98000330Y-62204415D01*
X98486511Y-62529271D01*
X99060000Y-62643345D01*
X99633489Y-62529271D01*
X100119670Y-62204415D01*
X100330000Y-61889634D01*
X100540330Y-62204415D01*
X101026511Y-62529271D01*
X101600000Y-62643345D01*
X102173489Y-62529271D01*
X102659670Y-62204415D01*
X102870000Y-61889634D01*
X103080330Y-62204415D01*
X103566511Y-62529271D01*
X104140000Y-62643345D01*
X104713489Y-62529271D01*
X105199670Y-62204415D01*
X105410000Y-61889634D01*
X105620330Y-62204415D01*
X106106511Y-62529271D01*
X106680000Y-62643345D01*
X107253489Y-62529271D01*
X107739670Y-62204415D01*
X107950000Y-61889634D01*
X108160330Y-62204415D01*
X108646511Y-62529271D01*
X109220000Y-62643345D01*
X109793489Y-62529271D01*
X110279670Y-62204415D01*
X110490000Y-61889634D01*
X110700330Y-62204415D01*
X111186511Y-62529271D01*
X111760000Y-62643345D01*
X112333489Y-62529271D01*
X112819670Y-62204415D01*
X113030000Y-61889634D01*
X113240330Y-62204415D01*
X113726511Y-62529271D01*
X114300000Y-62643345D01*
X114873489Y-62529271D01*
X115359670Y-62204415D01*
X115570000Y-61889634D01*
X115780330Y-62204415D01*
X116266511Y-62529271D01*
X116840000Y-62643345D01*
X117413489Y-62529271D01*
X117899670Y-62204415D01*
X118110000Y-61889634D01*
X118320330Y-62204415D01*
X118806511Y-62529271D01*
X119380000Y-62643345D01*
X119953489Y-62529271D01*
X120439670Y-62204415D01*
X120650000Y-61889634D01*
X120860330Y-62204415D01*
X121346511Y-62529271D01*
X121920000Y-62643345D01*
X122493489Y-62529271D01*
X122979670Y-62204415D01*
X123190000Y-61889634D01*
X123400330Y-62204415D01*
X123886511Y-62529271D01*
X124460000Y-62643345D01*
X125033489Y-62529271D01*
X125519670Y-62204415D01*
X125730000Y-61889634D01*
X125940330Y-62204415D01*
X126426511Y-62529271D01*
X127000000Y-62643345D01*
X127364557Y-62570830D01*
X127747988Y-63025361D01*
X127710020Y-68274503D01*
X127710595Y-68277509D01*
X127710000Y-68280512D01*
X127738455Y-68423060D01*
X127765767Y-68565753D01*
X127767449Y-68568310D01*
X127768048Y-68571312D01*
X127848875Y-68692103D01*
X127928726Y-68813500D01*
X127931259Y-68815219D01*
X127932961Y-68817763D01*
X132152705Y-73031828D01*
X131971057Y-73106883D01*
X131707808Y-73369673D01*
X131565162Y-73713201D01*
X131564838Y-74085167D01*
X131706883Y-74428943D01*
X131740000Y-74462118D01*
X131740000Y-75885198D01*
X130585198Y-77040000D01*
X127400000Y-77040000D01*
X127157414Y-77088254D01*
X127109160Y-77097852D01*
X126862599Y-77262599D01*
X123362599Y-80762599D01*
X123197852Y-81009161D01*
X123140000Y-81300000D01*
X123140000Y-82285198D01*
X119673646Y-85751552D01*
X119430327Y-85507808D01*
X119086799Y-85365162D01*
X119039923Y-85365121D01*
X114837401Y-81162599D01*
X114818577Y-81150021D01*
X114804916Y-81131969D01*
X113904917Y-80331969D01*
X113795902Y-80268053D01*
X113690839Y-80197852D01*
X113668636Y-80193435D01*
X113649106Y-80181985D01*
X113523941Y-80164654D01*
X113400000Y-80140000D01*
X109662463Y-80140000D01*
X109630327Y-80107808D01*
X109286799Y-79965162D01*
X108914833Y-79964838D01*
X108799618Y-80012444D01*
X108934838Y-79686799D01*
X108934879Y-79639923D01*
X110537401Y-78037401D01*
X110702148Y-77790839D01*
X110744497Y-77577939D01*
X110792192Y-77530327D01*
X110934838Y-77186799D01*
X110935162Y-76814833D01*
X110793117Y-76471057D01*
X110530327Y-76207808D01*
X110186799Y-76065162D01*
X109814833Y-76064838D01*
X109471057Y-76206883D01*
X109207808Y-76469673D01*
X109065162Y-76813201D01*
X109064838Y-77185167D01*
X109116061Y-77309137D01*
X107860320Y-78564878D01*
X107814833Y-78564838D01*
X107471057Y-78706883D01*
X107207808Y-78969673D01*
X107065162Y-79313201D01*
X107064838Y-79685167D01*
X107206883Y-80028943D01*
X107469673Y-80292192D01*
X107813201Y-80434838D01*
X108185167Y-80435162D01*
X108300382Y-80387556D01*
X108165162Y-80713201D01*
X108164838Y-81085167D01*
X108306883Y-81428943D01*
X108569673Y-81692192D01*
X108913201Y-81834838D01*
X109285167Y-81835162D01*
X109628943Y-81693117D01*
X109662118Y-81660000D01*
X113111048Y-81660000D01*
X113679152Y-82164981D01*
X113514833Y-82164838D01*
X113171057Y-82306883D01*
X113137882Y-82340000D01*
X106462114Y-82340000D01*
X106230327Y-82107808D01*
X105886799Y-81965162D01*
X105514833Y-81964838D01*
X105171057Y-82106883D01*
X104907808Y-82369673D01*
X104765162Y-82713201D01*
X104764838Y-83085167D01*
X104906883Y-83428943D01*
X105169673Y-83692192D01*
X105513201Y-83834838D01*
X105774648Y-83835066D01*
X105900000Y-83860000D01*
X106170301Y-83860000D01*
X106065162Y-84113201D01*
X106064838Y-84485167D01*
X106206883Y-84828943D01*
X106469673Y-85092192D01*
X106813201Y-85234838D01*
X106860077Y-85234879D01*
X109562599Y-87937401D01*
X109809161Y-88102148D01*
X110100000Y-88160000D01*
X114937537Y-88160000D01*
X114969673Y-88192192D01*
X115313201Y-88334838D01*
X115685167Y-88335162D01*
X116028943Y-88193117D01*
X116292192Y-87930327D01*
X116434838Y-87586799D01*
X116435162Y-87214833D01*
X116293117Y-86871057D01*
X116030327Y-86607808D01*
X115686799Y-86465162D01*
X115314833Y-86464838D01*
X114971057Y-86606883D01*
X114937882Y-86640000D01*
X110414802Y-86640000D01*
X107935122Y-84160320D01*
X107935162Y-84114833D01*
X107829867Y-83860000D01*
X113137537Y-83860000D01*
X113169673Y-83892192D01*
X113513201Y-84034838D01*
X113885167Y-84035162D01*
X114228943Y-83893117D01*
X114492192Y-83630327D01*
X114634838Y-83286799D01*
X114634992Y-83109794D01*
X117964878Y-86439680D01*
X117964838Y-86485167D01*
X118011228Y-86597441D01*
X118009161Y-86597852D01*
X117888779Y-86678289D01*
X117767598Y-86757646D01*
X117077701Y-87434884D01*
X117024833Y-87434838D01*
X116681057Y-87576883D01*
X116417808Y-87839673D01*
X116275162Y-88183201D01*
X116274838Y-88555167D01*
X116416883Y-88898943D01*
X116679673Y-89162192D01*
X117012077Y-89300219D01*
X116965162Y-89413201D01*
X116964838Y-89785167D01*
X117106883Y-90128943D01*
X117369673Y-90392192D01*
X117713201Y-90534838D01*
X118085167Y-90535162D01*
X118428943Y-90393117D01*
X118692192Y-90130327D01*
X118834838Y-89786799D01*
X118834879Y-89739923D01*
X120781020Y-87793782D01*
X120771002Y-87844142D01*
X120740310Y-87978295D01*
X120742153Y-87989176D01*
X120740000Y-88000000D01*
X120740000Y-94185198D01*
X120185198Y-94740000D01*
X106062463Y-94740000D01*
X106030327Y-94707808D01*
X105686799Y-94565162D01*
X105314833Y-94564838D01*
X104971057Y-94706883D01*
X104707808Y-94969673D01*
X104565162Y-95313201D01*
X104564838Y-95685167D01*
X104706883Y-96028943D01*
X104969673Y-96292192D01*
X105313201Y-96434838D01*
X105685167Y-96435162D01*
X106028943Y-96293117D01*
X106062118Y-96260000D01*
X120500000Y-96260000D01*
X120790839Y-96202148D01*
X121037401Y-96037401D01*
X122037401Y-95037401D01*
X122202148Y-94790839D01*
X122260000Y-94500000D01*
X122260000Y-88327595D01*
X123416757Y-87235102D01*
X123485167Y-87235162D01*
X123828943Y-87093117D01*
X124092192Y-86830327D01*
X124234838Y-86486799D01*
X124235162Y-86114833D01*
X124142623Y-85890872D01*
X124309160Y-86002148D01*
X124344412Y-86009160D01*
X124600000Y-86060000D01*
X127885198Y-86060000D01*
X137064878Y-95239680D01*
X137064838Y-95285167D01*
X137206883Y-95628943D01*
X137469673Y-95892192D01*
X137813201Y-96034838D01*
X138185167Y-96035162D01*
X138528943Y-95893117D01*
X138792192Y-95630327D01*
X138934838Y-95286799D01*
X138935162Y-94914833D01*
X138793117Y-94571057D01*
X138530327Y-94307808D01*
X138186799Y-94165162D01*
X138139923Y-94165121D01*
X128737401Y-84762599D01*
X128490839Y-84597852D01*
X128200000Y-84540000D01*
X125062923Y-84540000D01*
X124993117Y-84371057D01*
X124730327Y-84107808D01*
X124544257Y-84030545D01*
X125237401Y-83337401D01*
X125402148Y-83090840D01*
X125460000Y-82800000D01*
X125460000Y-81721892D01*
X128197770Y-79069676D01*
X131076261Y-79159629D01*
X131188259Y-79140967D01*
X131301503Y-79132800D01*
X131333481Y-79116769D01*
X131368766Y-79110890D01*
X131465091Y-79050792D01*
X131566595Y-78999908D01*
X131810762Y-78810000D01*
X134179750Y-78810000D01*
X135114680Y-79251005D01*
X135146883Y-79328943D01*
X135409673Y-79592192D01*
X135753201Y-79734838D01*
X135940000Y-79735001D01*
X135940000Y-79800000D01*
X135997852Y-80090839D01*
X136162599Y-80337401D01*
X136409161Y-80502148D01*
X136700000Y-80560000D01*
X140185198Y-80560000D01*
X141440000Y-81814802D01*
X141440000Y-83937537D01*
X141407808Y-83969673D01*
X141265162Y-84313201D01*
X141264838Y-84685167D01*
X141406883Y-85028943D01*
X141669673Y-85292192D01*
X142013201Y-85434838D01*
X142257626Y-85435051D01*
X142201824Y-88106082D01*
X141957808Y-88349673D01*
X141815162Y-88693201D01*
X141814838Y-89065167D01*
X141956883Y-89408943D01*
X142219673Y-89672192D01*
X142563201Y-89814838D01*
X142935167Y-89815162D01*
X143278943Y-89673117D01*
X143542192Y-89410327D01*
X143684838Y-89066799D01*
X143685063Y-88808099D01*
X143709834Y-88695874D01*
X143742444Y-87134951D01*
X143985167Y-87135162D01*
X144240000Y-87029867D01*
X144240000Y-92237537D01*
X144207808Y-92269673D01*
X144065162Y-92613201D01*
X144065121Y-92660077D01*
X142060320Y-94664878D01*
X142014833Y-94664838D01*
X141671057Y-94806883D01*
X141407808Y-95069673D01*
X141265162Y-95413201D01*
X141264838Y-95785167D01*
X141406883Y-96128943D01*
X141669673Y-96392192D01*
X142013201Y-96534838D01*
X142385167Y-96535162D01*
X142728943Y-96393117D01*
X142992192Y-96130327D01*
X143134838Y-95786799D01*
X143134879Y-95739923D01*
X145139680Y-93735122D01*
X145185167Y-93735162D01*
X145528943Y-93593117D01*
X145792192Y-93330327D01*
X145934838Y-92986799D01*
X145935162Y-92614833D01*
X145793117Y-92271057D01*
X145760000Y-92237882D01*
X145760000Y-78514802D01*
X148037401Y-76237401D01*
X148202148Y-75990839D01*
X148260000Y-75700000D01*
X148260000Y-71210000D01*
X150835000Y-71210000D01*
X150835000Y-71280000D01*
X150921397Y-71714346D01*
X151145714Y-72050060D01*
X151167434Y-72082566D01*
X151247434Y-72162566D01*
X151615655Y-72408603D01*
X152050000Y-72495000D01*
X152484345Y-72408603D01*
X152852566Y-72162566D01*
X153098603Y-71794345D01*
X153125374Y-71659758D01*
X155162618Y-69622514D01*
X155222104Y-69711542D01*
X155653812Y-70000000D01*
X155222104Y-70288458D01*
X154921200Y-70738793D01*
X154815536Y-71270000D01*
X154921200Y-71801207D01*
X155222104Y-72251542D01*
X155672439Y-72552446D01*
X156203646Y-72658110D01*
X157796354Y-72658110D01*
X158327561Y-72552446D01*
X158777896Y-72251542D01*
X159078800Y-71801207D01*
X159184464Y-71270000D01*
X159078800Y-70738793D01*
X158777896Y-70288458D01*
X158346188Y-70000000D01*
X158777896Y-69711542D01*
X159078800Y-69261207D01*
X159184464Y-68730000D01*
X159078800Y-68198793D01*
X158777896Y-67748458D01*
X158327561Y-67447554D01*
X157796354Y-67341890D01*
X156203646Y-67341890D01*
X155672439Y-67447554D01*
X155222104Y-67748458D01*
X155171948Y-67823522D01*
X154914345Y-67651397D01*
X154480000Y-67565000D01*
X154045655Y-67651397D01*
X153677434Y-67897434D01*
X151167434Y-70407434D01*
X150921397Y-70775654D01*
X150835000Y-71210000D01*
X148260000Y-71210000D01*
X148260000Y-64462463D01*
X148292192Y-64430327D01*
X148434838Y-64086799D01*
X148435162Y-63714833D01*
X148293117Y-63371057D01*
X148030327Y-63107808D01*
X147686799Y-62965162D01*
X147314833Y-62964838D01*
X146971057Y-63106883D01*
X146707808Y-63369673D01*
X146565162Y-63713201D01*
X146564838Y-64085167D01*
X146706883Y-64428943D01*
X146740000Y-64462118D01*
X146740000Y-73965121D01*
X146414833Y-73964838D01*
X146071057Y-74106883D01*
X145807808Y-74369673D01*
X145665162Y-74713201D01*
X145665121Y-74760077D01*
X145062599Y-75362599D01*
X144897852Y-75609161D01*
X144840000Y-75900000D01*
X144840000Y-76185198D01*
X144823690Y-76201508D01*
X144630327Y-76007808D01*
X144286799Y-75865162D01*
X144239923Y-75865121D01*
X143137401Y-74762599D01*
X142890839Y-74597852D01*
X142600000Y-74540000D01*
X139206006Y-74540000D01*
X131949151Y-67565512D01*
X131940854Y-64404671D01*
X133965086Y-62474864D01*
X134046511Y-62529271D01*
X134620000Y-62643345D01*
X135193489Y-62529271D01*
X135679670Y-62204415D01*
X135890000Y-61889634D01*
X136100330Y-62204415D01*
X136586511Y-62529271D01*
X137160000Y-62643345D01*
X137733489Y-62529271D01*
X138219670Y-62204415D01*
X138430000Y-61889634D01*
X138640330Y-62204415D01*
X139126511Y-62529271D01*
X139700000Y-62643345D01*
X140273489Y-62529271D01*
X140759670Y-62204415D01*
X140970000Y-61889634D01*
X141180330Y-62204415D01*
X141666511Y-62529271D01*
X142240000Y-62643345D01*
X142813489Y-62529271D01*
X143299670Y-62204415D01*
X143510000Y-61889634D01*
X143720330Y-62204415D01*
X144206511Y-62529271D01*
X144780000Y-62643345D01*
X145353489Y-62529271D01*
X145839670Y-62204415D01*
X145849243Y-62190087D01*
X145853238Y-62211317D01*
X145992310Y-62427441D01*
X146204510Y-62572431D01*
X146456400Y-62623440D01*
X148183600Y-62623440D01*
X148418917Y-62579162D01*
X148635041Y-62440090D01*
X148780031Y-62227890D01*
X148831040Y-61976000D01*
X148831040Y-60472325D01*
X152614587Y-60472325D01*
X152976916Y-61349229D01*
X153647242Y-62020726D01*
X154523513Y-62384585D01*
X155472325Y-62385413D01*
X156349229Y-62023084D01*
X157020726Y-61352758D01*
X157384585Y-60476487D01*
X157385413Y-59527675D01*
X157023084Y-58650771D01*
X156352758Y-57979274D01*
X155476487Y-57615415D01*
X154527675Y-57614587D01*
X153650771Y-57976916D01*
X152979274Y-58647242D01*
X152615415Y-59523513D01*
X152614587Y-60472325D01*
X148831040Y-60472325D01*
X148831040Y-59944000D01*
X148786762Y-59708683D01*
X148647690Y-59492559D01*
X148435490Y-59347569D01*
X148183600Y-59296560D01*
X146456400Y-59296560D01*
X146221083Y-59340838D01*
X146004959Y-59479910D01*
X145859969Y-59692110D01*
X145851600Y-59733439D01*
X145839670Y-59715585D01*
X145353489Y-59390729D01*
X144780000Y-59276655D01*
X144206511Y-59390729D01*
X143720330Y-59715585D01*
X143510000Y-60030366D01*
X143299670Y-59715585D01*
X142813489Y-59390729D01*
X142240000Y-59276655D01*
X141666511Y-59390729D01*
X141180330Y-59715585D01*
X140970000Y-60030366D01*
X140759670Y-59715585D01*
X140273489Y-59390729D01*
X139700000Y-59276655D01*
X139126511Y-59390729D01*
X138640330Y-59715585D01*
X138430000Y-60030366D01*
X138219670Y-59715585D01*
X137733489Y-59390729D01*
X137160000Y-59276655D01*
X136586511Y-59390729D01*
X136100330Y-59715585D01*
X135890000Y-60030366D01*
X135679670Y-59715585D01*
X135193489Y-59390729D01*
X134620000Y-59276655D01*
X134046511Y-59390729D01*
X133560330Y-59715585D01*
X133350000Y-60030366D01*
X133139670Y-59715585D01*
X132653489Y-59390729D01*
X132080000Y-59276655D01*
X131506511Y-59390729D01*
X131020330Y-59715585D01*
X130810000Y-60030366D01*
X130599670Y-59715585D01*
X130113489Y-59390729D01*
X129540000Y-59276655D01*
X128966511Y-59390729D01*
X128480330Y-59715585D01*
X128270000Y-60030366D01*
X128059670Y-59715585D01*
X127573489Y-59390729D01*
X127000000Y-59276655D01*
X126426511Y-59390729D01*
X125940330Y-59715585D01*
X125730000Y-60030366D01*
X125519670Y-59715585D01*
X125033489Y-59390729D01*
X124460000Y-59276655D01*
X123886511Y-59390729D01*
X123400330Y-59715585D01*
X123190000Y-60030366D01*
X122979670Y-59715585D01*
X122493489Y-59390729D01*
X121920000Y-59276655D01*
X121346511Y-59390729D01*
X120860330Y-59715585D01*
X120650000Y-60030366D01*
X120439670Y-59715585D01*
X119953489Y-59390729D01*
X119380000Y-59276655D01*
X118806511Y-59390729D01*
X118320330Y-59715585D01*
X118110000Y-60030366D01*
X117899670Y-59715585D01*
X117413489Y-59390729D01*
X116840000Y-59276655D01*
X116266511Y-59390729D01*
X115780330Y-59715585D01*
X115570000Y-60030366D01*
X115359670Y-59715585D01*
X114873489Y-59390729D01*
X114300000Y-59276655D01*
X113726511Y-59390729D01*
X113240330Y-59715585D01*
X113030000Y-60030366D01*
X112819670Y-59715585D01*
X112333489Y-59390729D01*
X111760000Y-59276655D01*
X111186511Y-59390729D01*
X110700330Y-59715585D01*
X110490000Y-60030366D01*
X110279670Y-59715585D01*
X109793489Y-59390729D01*
X109220000Y-59276655D01*
X108646511Y-59390729D01*
X108160330Y-59715585D01*
X107950000Y-60030366D01*
X107739670Y-59715585D01*
X107253489Y-59390729D01*
X106680000Y-59276655D01*
X106106511Y-59390729D01*
X105620330Y-59715585D01*
X105410000Y-60030366D01*
X105199670Y-59715585D01*
X104713489Y-59390729D01*
X104140000Y-59276655D01*
X103566511Y-59390729D01*
X103080330Y-59715585D01*
X102870000Y-60030366D01*
X102659670Y-59715585D01*
X102173489Y-59390729D01*
X101600000Y-59276655D01*
X101026511Y-59390729D01*
X100540330Y-59715585D01*
X100330000Y-60030366D01*
X100119670Y-59715585D01*
X99633489Y-59390729D01*
X99060000Y-59276655D01*
X98486511Y-59390729D01*
X98000330Y-59715585D01*
X97790000Y-60030366D01*
X97579670Y-59715585D01*
X97093489Y-59390729D01*
X96520000Y-59276655D01*
X95946511Y-59390729D01*
X95460330Y-59715585D01*
X95250000Y-60030366D01*
X95039670Y-59715585D01*
X94553489Y-59390729D01*
X93980000Y-59276655D01*
X93406511Y-59390729D01*
X92920330Y-59715585D01*
X92710000Y-60030366D01*
X92499670Y-59715585D01*
X92013489Y-59390729D01*
X91440000Y-59276655D01*
X90866511Y-59390729D01*
X90380330Y-59715585D01*
X90170000Y-60030366D01*
X89959670Y-59715585D01*
X89473489Y-59390729D01*
X88900000Y-59276655D01*
X88326511Y-59390729D01*
X87840330Y-59715585D01*
X87633539Y-60025069D01*
X87262036Y-59609268D01*
X86734791Y-59355291D01*
X86719026Y-59352642D01*
X86487000Y-59473783D01*
X86233000Y-59473783D01*
X86000974Y-59352642D01*
X85985209Y-59355291D01*
X85457964Y-59609268D01*
X85068046Y-60045680D01*
X84874816Y-60598087D01*
X80695000Y-60598087D01*
X80695000Y-59842403D01*
X80791542Y-59777896D01*
X81092446Y-59327561D01*
X81198110Y-58796354D01*
X81198110Y-57203646D01*
X81092446Y-56672439D01*
X80791542Y-56222104D01*
X80341207Y-55921200D01*
X79810000Y-55815536D01*
X79278793Y-55921200D01*
X78828458Y-56222104D01*
X78540000Y-56653812D01*
X78251542Y-56222104D01*
X77801207Y-55921200D01*
X77270000Y-55815536D01*
X76738793Y-55921200D01*
X76288458Y-56222104D01*
X76000000Y-56653812D01*
X75711542Y-56222104D01*
X75261207Y-55921200D01*
X74730000Y-55815536D01*
X74198793Y-55921200D01*
X73748458Y-56222104D01*
X73447554Y-56672439D01*
X73446984Y-56675306D01*
X73423846Y-56597081D01*
X73081740Y-56174276D01*
X72603875Y-55914573D01*
X72531674Y-55900217D01*
X72317000Y-56022838D01*
X72317000Y-57873000D01*
X72337000Y-57873000D01*
X72337000Y-58127000D01*
X72317000Y-58127000D01*
X72317000Y-59977162D01*
X72531674Y-60099783D01*
X72603875Y-60085427D01*
X73081740Y-59825724D01*
X73423846Y-59402919D01*
X73446984Y-59324694D01*
X73447554Y-59327561D01*
X73748458Y-59777896D01*
X74198793Y-60078800D01*
X74730000Y-60184464D01*
X75261207Y-60078800D01*
X75711542Y-59777896D01*
X76000000Y-59346188D01*
X76288458Y-59777896D01*
X76738793Y-60078800D01*
X77040000Y-60138714D01*
X77040000Y-63285198D01*
X73262599Y-67062599D01*
X73097852Y-67309161D01*
X73040000Y-67600000D01*
X73040000Y-74200000D01*
X73097852Y-74490839D01*
X73262599Y-74737401D01*
X74066710Y-75541512D01*
X73861326Y-75582366D01*
X73778960Y-75637401D01*
X73574210Y-75774210D01*
X73574208Y-75774213D01*
X72574210Y-76774210D01*
X72382367Y-77061325D01*
X72378404Y-77081247D01*
X72314999Y-77400000D01*
X72315000Y-77400005D01*
X72315000Y-79812799D01*
X72309697Y-79814990D01*
X71916371Y-80207630D01*
X71703243Y-80720900D01*
X71702960Y-81045461D01*
X68874210Y-83874210D01*
X68682367Y-84161325D01*
X68682367Y-84161326D01*
X68614999Y-84500000D01*
X60710000Y-84500000D01*
X60710000Y-82611674D01*
X61100217Y-82611674D01*
X61114573Y-82683875D01*
X61374276Y-83161740D01*
X61797081Y-83503846D01*
X62318620Y-83658110D01*
X63073000Y-83658110D01*
X63073000Y-82397000D01*
X63327000Y-82397000D01*
X63327000Y-83658110D01*
X64081380Y-83658110D01*
X64602919Y-83503846D01*
X65025724Y-83161740D01*
X65285427Y-82683875D01*
X65299783Y-82611674D01*
X65177162Y-82397000D01*
X63327000Y-82397000D01*
X63073000Y-82397000D01*
X61222838Y-82397000D01*
X61100217Y-82611674D01*
X60710000Y-82611674D01*
X60710000Y-79730000D01*
X61015536Y-79730000D01*
X61121200Y-80261207D01*
X61422104Y-80711542D01*
X61872439Y-81012446D01*
X61875306Y-81013016D01*
X61797081Y-81036154D01*
X61374276Y-81378260D01*
X61114573Y-81856125D01*
X61100217Y-81928326D01*
X61222838Y-82143000D01*
X63073000Y-82143000D01*
X63073000Y-82123000D01*
X63327000Y-82123000D01*
X63327000Y-82143000D01*
X65177162Y-82143000D01*
X65299783Y-81928326D01*
X65285427Y-81856125D01*
X65025724Y-81378260D01*
X64602919Y-81036154D01*
X64524694Y-81013016D01*
X64527561Y-81012446D01*
X64977896Y-80711542D01*
X65278800Y-80261207D01*
X65384464Y-79730000D01*
X65278800Y-79198793D01*
X64977896Y-78748458D01*
X64527561Y-78447554D01*
X63996354Y-78341890D01*
X62403646Y-78341890D01*
X61872439Y-78447554D01*
X61422104Y-78748458D01*
X61121200Y-79198793D01*
X61015536Y-79730000D01*
X60710000Y-79730000D01*
X60710000Y-75284750D01*
X64915340Y-75284750D01*
X64915340Y-76875370D01*
X65012013Y-77108759D01*
X65190642Y-77287387D01*
X65424031Y-77384060D01*
X67014650Y-77384060D01*
X67173400Y-77225310D01*
X67173400Y-75126000D01*
X67427400Y-75126000D01*
X67427400Y-77225310D01*
X67586150Y-77384060D01*
X69176769Y-77384060D01*
X69410158Y-77287387D01*
X69588787Y-77108759D01*
X69685460Y-76875370D01*
X69685460Y-75284750D01*
X69526710Y-75126000D01*
X67427400Y-75126000D01*
X67173400Y-75126000D01*
X65074090Y-75126000D01*
X64915340Y-75284750D01*
X60710000Y-75284750D01*
X60710000Y-70585750D01*
X61915600Y-70585750D01*
X61915600Y-72176370D01*
X62012273Y-72409759D01*
X62190902Y-72588387D01*
X62424291Y-72685060D01*
X64014910Y-72685060D01*
X64173660Y-72526310D01*
X64173660Y-70427000D01*
X64427660Y-70427000D01*
X64427660Y-72526310D01*
X64586410Y-72685060D01*
X65252332Y-72685060D01*
X65190642Y-72710613D01*
X65012013Y-72889241D01*
X64915340Y-73122630D01*
X64915340Y-74713250D01*
X65074090Y-74872000D01*
X67173400Y-74872000D01*
X67173400Y-72772690D01*
X67427400Y-72772690D01*
X67427400Y-74872000D01*
X69526710Y-74872000D01*
X69685460Y-74713250D01*
X69685460Y-73122630D01*
X69588787Y-72889241D01*
X69410158Y-72710613D01*
X69378500Y-72697500D01*
X72050200Y-72697500D01*
X72285517Y-72653222D01*
X72501641Y-72514150D01*
X72646631Y-72301950D01*
X72697640Y-72050060D01*
X72697640Y-68549940D01*
X72653362Y-68314623D01*
X72514290Y-68098499D01*
X72302090Y-67953509D01*
X72050200Y-67902500D01*
X68550080Y-67902500D01*
X68314763Y-67946778D01*
X68098639Y-68085850D01*
X67953649Y-68298050D01*
X67902640Y-68549940D01*
X67902640Y-72050060D01*
X67946918Y-72285377D01*
X68085990Y-72501501D01*
X68250550Y-72613940D01*
X67586150Y-72613940D01*
X67427400Y-72772690D01*
X67173400Y-72772690D01*
X67014650Y-72613940D01*
X66348728Y-72613940D01*
X66410418Y-72588387D01*
X66589047Y-72409759D01*
X66685720Y-72176370D01*
X66685720Y-70585750D01*
X66526970Y-70427000D01*
X64427660Y-70427000D01*
X64173660Y-70427000D01*
X62074350Y-70427000D01*
X61915600Y-70585750D01*
X60710000Y-70585750D01*
X60710000Y-68423630D01*
X61915600Y-68423630D01*
X61915600Y-70014250D01*
X62074350Y-70173000D01*
X64173660Y-70173000D01*
X64173660Y-68073690D01*
X64427660Y-68073690D01*
X64427660Y-70173000D01*
X66526970Y-70173000D01*
X66685720Y-70014250D01*
X66685720Y-68423630D01*
X66589047Y-68190241D01*
X66410418Y-68011613D01*
X66177029Y-67914940D01*
X64586410Y-67914940D01*
X64427660Y-68073690D01*
X64173660Y-68073690D01*
X64014910Y-67914940D01*
X62424291Y-67914940D01*
X62190902Y-68011613D01*
X62012273Y-68190241D01*
X61915600Y-68423630D01*
X60710000Y-68423630D01*
X60710000Y-60472325D01*
X62614587Y-60472325D01*
X62976916Y-61349229D01*
X63647242Y-62020726D01*
X64523513Y-62384585D01*
X65472325Y-62385413D01*
X66349229Y-62023084D01*
X67020726Y-61352758D01*
X67384585Y-60476487D01*
X67385413Y-59527675D01*
X67023084Y-58650771D01*
X66500227Y-58127000D01*
X70801890Y-58127000D01*
X70801890Y-58881380D01*
X70956154Y-59402919D01*
X71298260Y-59825724D01*
X71776125Y-60085427D01*
X71848326Y-60099783D01*
X72063000Y-59977162D01*
X72063000Y-58127000D01*
X70801890Y-58127000D01*
X66500227Y-58127000D01*
X66352758Y-57979274D01*
X65476487Y-57615415D01*
X64527675Y-57614587D01*
X63650771Y-57976916D01*
X62979274Y-58647242D01*
X62615415Y-59523513D01*
X62614587Y-60472325D01*
X60710000Y-60472325D01*
X60710000Y-57118620D01*
X70801890Y-57118620D01*
X70801890Y-57873000D01*
X72063000Y-57873000D01*
X72063000Y-56022838D01*
X71848326Y-55900217D01*
X71776125Y-55914573D01*
X71298260Y-56174276D01*
X70956154Y-56597081D01*
X70801890Y-57118620D01*
X60710000Y-57118620D01*
X60710000Y-55710000D01*
X159290000Y-55710000D01*
X159290000Y-104290000D01*
G36*
X78623348Y-79674928D02*
X78387698Y-79590856D01*
X77832632Y-79618638D01*
X77448857Y-79777603D01*
X77379392Y-80019787D01*
X78180000Y-80820395D01*
X78194143Y-80806253D01*
X78373748Y-80985858D01*
X78359605Y-81000000D01*
X79160213Y-81800608D01*
X79402397Y-81731143D01*
X79589144Y-81207698D01*
X79561362Y-80652632D01*
X79533297Y-80584876D01*
X85974208Y-87025787D01*
X85974210Y-87025790D01*
X86261325Y-87217633D01*
X86317516Y-87228810D01*
X86600000Y-87285001D01*
X86600005Y-87285000D01*
X96933420Y-87285000D01*
X98857255Y-89208834D01*
X98906883Y-89328943D01*
X99169673Y-89592192D01*
X99513201Y-89734838D01*
X99885167Y-89735162D01*
X100228943Y-89593117D01*
X100340000Y-89482254D01*
X100340000Y-90587253D01*
X100286799Y-90565162D01*
X99914833Y-90564838D01*
X99605156Y-90692794D01*
X94567588Y-90243011D01*
X94533563Y-90246676D01*
X94500000Y-90240000D01*
X77525926Y-90240000D01*
X77377896Y-90018458D01*
X76946188Y-89730000D01*
X77377896Y-89441542D01*
X77678800Y-88991207D01*
X77784464Y-88460000D01*
X77678800Y-87928793D01*
X77377896Y-87478458D01*
X76927561Y-87177554D01*
X76485000Y-87089523D01*
X76485000Y-81980213D01*
X77379392Y-81980213D01*
X77448857Y-82222397D01*
X77972302Y-82409144D01*
X78527368Y-82381362D01*
X78911143Y-82222397D01*
X78980608Y-81980213D01*
X78180000Y-81179605D01*
X77379392Y-81980213D01*
X76485000Y-81980213D01*
X76485000Y-80792302D01*
X76770856Y-80792302D01*
X76798638Y-81347368D01*
X76957603Y-81731143D01*
X77199787Y-81800608D01*
X78000395Y-81000000D01*
X77199787Y-80199392D01*
X76957603Y-80268857D01*
X76770856Y-80792302D01*
X76485000Y-80792302D01*
X76485000Y-79590408D01*
X76823629Y-79252370D01*
X77036757Y-78739100D01*
X77037242Y-78183339D01*
X76970690Y-78022270D01*
X78623348Y-79674928D01*
X78623348Y-79674928D01*
G37*
X78623348Y-79674928D02*
X78387698Y-79590856D01*
X77832632Y-79618638D01*
X77448857Y-79777603D01*
X77379392Y-80019787D01*
X78180000Y-80820395D01*
X78194143Y-80806253D01*
X78373748Y-80985858D01*
X78359605Y-81000000D01*
X79160213Y-81800608D01*
X79402397Y-81731143D01*
X79589144Y-81207698D01*
X79561362Y-80652632D01*
X79533297Y-80584876D01*
X85974208Y-87025787D01*
X85974210Y-87025790D01*
X86261325Y-87217633D01*
X86317516Y-87228810D01*
X86600000Y-87285001D01*
X86600005Y-87285000D01*
X96933420Y-87285000D01*
X98857255Y-89208834D01*
X98906883Y-89328943D01*
X99169673Y-89592192D01*
X99513201Y-89734838D01*
X99885167Y-89735162D01*
X100228943Y-89593117D01*
X100340000Y-89482254D01*
X100340000Y-90587253D01*
X100286799Y-90565162D01*
X99914833Y-90564838D01*
X99605156Y-90692794D01*
X94567588Y-90243011D01*
X94533563Y-90246676D01*
X94500000Y-90240000D01*
X77525926Y-90240000D01*
X77377896Y-90018458D01*
X76946188Y-89730000D01*
X77377896Y-89441542D01*
X77678800Y-88991207D01*
X77784464Y-88460000D01*
X77678800Y-87928793D01*
X77377896Y-87478458D01*
X76927561Y-87177554D01*
X76485000Y-87089523D01*
X76485000Y-81980213D01*
X77379392Y-81980213D01*
X77448857Y-82222397D01*
X77972302Y-82409144D01*
X78527368Y-82381362D01*
X78911143Y-82222397D01*
X78980608Y-81980213D01*
X78180000Y-81179605D01*
X77379392Y-81980213D01*
X76485000Y-81980213D01*
X76485000Y-80792302D01*
X76770856Y-80792302D01*
X76798638Y-81347368D01*
X76957603Y-81731143D01*
X77199787Y-81800608D01*
X78000395Y-81000000D01*
X77199787Y-80199392D01*
X76957603Y-80268857D01*
X76770856Y-80792302D01*
X76485000Y-80792302D01*
X76485000Y-79590408D01*
X76823629Y-79252370D01*
X77036757Y-78739100D01*
X77037242Y-78183339D01*
X76970690Y-78022270D01*
X78623348Y-79674928D01*
M02*
